<?xml version="1.0" encoding="utf-8"?>
<!-- Generator: Adobe Illustrator 21.0.2, SVG Export Plug-In . SVG Version: 6.00 Build 0)  -->
<svg version="1.1" id="Layer_1" xmlns="http://www.w3.org/2000/svg" xmlns:xlink="http://www.w3.org/1999/xlink" x="0px" y="0px"
	 viewBox="0 0 225 126.5" style="enable-background:new 0 0 225 126.5;" xml:space="preserve">
<g>
	<path d="M195.9,47.8h0.9l1.1,1.7h0.3l-1.1-1.7c0.5-0.1,0.9-0.4,0.9-0.9c0-0.6-0.4-1-1.2-1h-1.3v3.6h0.3L195.9,47.8L195.9,47.8z
		 M195.9,46.2h1c0.5,0,0.9,0.2,0.9,0.7c0,0.6-0.6,0.7-1.2,0.7h-0.8V46.2z"/>
	<path d="M196.7,50.8c1.7,0,3-1.4,3-3c0-1.7-1.3-3.1-3-3.1c-1.7,0-3,1.4-3,3.1C193.6,49.4,195,50.8,196.7,50.8z M196.7,45
		c1.5,0,2.7,1.2,2.7,2.8c0,1.5-1.2,2.8-2.7,2.8c-1.5,0-2.7-1.2-2.7-2.8C194,46.1,195.2,45,196.7,45z"/>
	<rect x="93.3" y="53.7" width="7.2" height="30.4"/>
	<rect x="93.3" y="44.2" width="7.2" height="8.2"/>
	<path d="M50,57c-2.5-1.8-5.5-2.9-8.8-2.9c-8.2-0.1-14.9,6.6-14.9,14.8s6.6,14.9,14.9,14.9c3.3,0,6.3-1.1,8.8-2.9v2.6h6.4V54.1H50
		V57z M41.2,77.6c-4.9,0-8.7-3.9-8.7-8.7c0-4.8,3.9-8.7,8.7-8.7c4.9,0,8.7,3.9,8.7,8.7C49.9,73.8,45.9,77.6,41.2,77.6z"/>
	<path d="M182.5,65.5c-1.3-0.1-6.7-0.3-6.7-3.5c0-2.2,3.5-2.7,5.2-2.7c3.2,0,5.1,1.8,5.5,4.2h6.4c-0.2-5.7-5.2-9.6-11.7-9.6
		c-7.9,0-11.9,4.1-11.9,9.2c0,2.9,1.6,4.5,3.4,6.1c1.7,1.4,5.7,2.1,7.9,2.3c3.7,0.4,6.4,1,6.4,3.8c0,1.8-2.5,3.3-6.1,3.3
		c-1.9,0-5.4-1.3-5.7-4.5h-6.4c0.8,6.9,6.5,10.1,12.2,10.1c2.5,0,6.7-0.5,8.7-2.1c2.4-1.8,4.1-4.2,4.1-7.6
		C193.6,70.2,191.2,66.3,182.5,65.5z"/>
	<path d="M82.2,56.1c-2.5-1.6-5.3-2.5-8.3-2.5c-8.5,0-15.3,6.9-15.3,15.3c0,8.5,6.9,15.3,15.3,15.3c3,0,5.9-0.8,8.3-2.5V84h7.3V44.2
		h-7.3V56.1z M73.8,77.3c-4.5,0-8.2-3.8-8.2-8.3c0-4.5,3.7-8.2,8.2-8.2s8.2,3.7,8.2,8.2C82.2,73.5,78.5,77.3,73.8,77.3z"/>
	<path d="M159.3,56.1c-2.5-1.6-5.3-2.5-8.3-2.5c-8.5,0-15.3,6.9-15.3,15.3c0,8.5,6.9,15.3,15.3,15.3c3,0,5.9-0.8,8.3-2.5V84h7.3
		V53.7h-7.3V56.1z M151,77.3c-4.5,0-8.2-3.7-8.2-8.3c0-4.5,3.7-8.2,8.2-8.2c4.5,0,8.2,3.7,8.2,8.2C159.2,73.5,155.5,77.3,151,77.3z"
		/>
	<path d="M126.6,57c-2.5-1.8-5.5-2.9-8.8-2.9c-8.2,0-14.9,6.6-14.9,14.9c0,8.2,6.7,14.9,14.9,14.9c3.3,0,6.3-1.1,8.8-2.9v2.6h6.4
		v-39h-6.4V57z M117.9,77.6c-4.8,0-8.7-3.9-8.7-8.7c0-4.8,3.9-8.7,8.7-8.7c4.8,0,8.7,3.9,8.7,8.7C126.6,73.8,122.6,77.6,117.9,77.6z
		"/>
</g>
</svg>
