<?xml version="1.0" encoding="utf-8"?>
<!-- Generator: Adobe Illustrator 21.0.2, SVG Export Plug-In . SVG Version: 6.00 Build 0)  -->
<svg version="1.1" id="Layer_1" xmlns="http://www.w3.org/2000/svg" xmlns:xlink="http://www.w3.org/1999/xlink" x="0px" y="0px"
	 viewBox="0 0 198.4 57.3" style="enable-background:new 0 0 198.4 57.3;" xml:space="preserve">
<style type="text/css">
	.st0{fill:#3B8C42;}
	.st1{fill:none;}
</style>
<g>
	<path class="st0" d="M198.4,44.8V17.6c0-3.9-2.7-5.6-9.2-5.6h-26.5v33H178V21.1h4.9v23.8h15.5V44.8z"/>
	<path class="st0" d="M117,51.7L117,51.7V11.9h-15.3v23.9h-4.9V11.9H81.4v27.5c0,3.7,2.7,5.4,9.2,5.4h11.1V48H81.4v9.1h26.5
		C114.2,57.1,117,55.5,117,51.7z"/>
	<path class="st0" d="M76.3,44.8L76.3,44.8V0H60.9v35.9H56V11.9h-6.1c-6.4,0-9.2,1.7-9.2,5.6v21.9c0,3.7,2.8,5.4,9.2,5.4H76.3z"/>
	<path class="st0" d="M35.7,44.8V17.6c0-3.9-2.8-5.6-9.2-5.6H0v9.2h20.3v14.7h-4.9V24.3H9.2c-6.5,0-9.2,1.6-9.2,5.5v9.6
		c0,3.7,2.7,5.4,9.2,5.4H35.7z"/>
	<path class="st0" d="M122.2,11.9v27.4c0,3.8,2.7,5.5,9.1,5.5h26.5v-9.1h-20.3V21h4.9v11.5h6.4c6.4,0,9.1-1.7,9.1-5.5v-9.7
		c0-3.8-2.7-5.5-9.1-5.5h-26.6V11.9z"/>
	<rect x="0" y="0.1" class="st1" width="198.2" height="57.2"/>
</g>
</svg>
