<?xml version="1.0" encoding="utf-8"?>
<!-- Generator: Adobe Illustrator 21.0.2, SVG Export Plug-In . SVG Version: 6.00 Build 0)  -->
<svg version="1.1" id="Layer_1" xmlns="http://www.w3.org/2000/svg" xmlns:xlink="http://www.w3.org/1999/xlink" x="0px" y="0px"
	 viewBox="0 0 225 126.5" style="enable-background:new 0 0 225 126.5;" xml:space="preserve">
<g>
	<circle cx="115.9" cy="45.5" r="4.8"/>
	<rect x="111.8" y="53.4" width="8.1" height="32.4"/>
	<path d="M144.4,52.6c-4.1,0-8.7,2.9-10.3,6.6v-5.8h-7.7v32.4h8.1v-15c0-6.4,2.4-9.9,7.8-10l4.5-8C146.4,52.6,144.8,52.6,144.4,52.6
		z"/>
	<path d="M177.1,52.6c-3.5,0-6.6,1.3-8.8,3.7l-0.1,0.1l-0.1-0.1c-2.2-2.4-5.3-3.7-8.8-3.7c-7.5,0-12.9,5.5-12.9,13v20.2h8V65.4
		c0-3.2,1.9-5.2,4.9-5.2c3,0,4.9,2,4.9,5.2v20.4h8V65.4c0-3.2,1.9-5.2,4.9-5.2s4.9,2,4.9,5.2v20.4h8V65.6
		C190,58,184.6,52.6,177.1,52.6z"/>
	<path d="M102,50.4c0-1.1,0.1-2.3,1.1-3c1-0.8,2.5-0.6,3.6-0.6l1.6-5.9l-0.8,0c-3.4-0.2-7-0.4-9.9,1.5c-2.5,1.7-3.6,4.5-3.6,7.5v3.5
		h-9.7v-3c0-1.1,0.1-2.3,1-3c1-0.8,2.5-0.6,3.7-0.6l1.6-5.9l-0.8,0c-3.4-0.2-7-0.4-10,1.6C77.1,44.1,76,47,76,49.9v3.5h-3.7v5.9H76
		v26.5h8.1V59.3h9.7v26.5h8.1V59.3h5.6v-5.9H102V50.4z"/>
	<path d="M68.2,85.8l0-28.6c0-2.4-1.8-4.4-4.2-4.6c-1.6-0.1-3.2,0.5-4.2,1.7L35,85.7h6.1c2.4,0,4.4-1.3,5.9-3.2l13.8-17.4v20.6H68.2
		z"/>
</g>
</svg>
