<?xml version="1.0" encoding="utf-8"?>
<!-- Generator: Adobe Illustrator 21.0.2, SVG Export Plug-In . SVG Version: 6.00 Build 0)  -->
<svg version="1.1" id="Layer_1" xmlns="http://www.w3.org/2000/svg" xmlns:xlink="http://www.w3.org/1999/xlink" x="0px" y="0px"
	 viewBox="0 0 198.4 71.7" style="enable-background:new 0 0 198.4 71.7;" xml:space="preserve">
<style type="text/css">
	.st0{fill:#45494C;}
	.st1{fill:#0FBDD0;}
	.st2{fill:#067380;}
</style>
<g>
	<g>
		<path class="st0" d="M0.4,64.3H3c1.6,0,2.7,0.9,2.7,2.2l0,0c0,1.5-1.4,2.3-2.8,2.3h-2v2.7H0.4V64.3z M3,68.3
			c1.4,0,2.2-0.7,2.2-1.7l0,0c0-1.1-0.9-1.7-2.2-1.7H0.9v3.4H3z"/>
		<path class="st0" d="M9.7,64.3h0.5l3.3,7.2h-0.6l-0.9-2H7.7l-0.9,2H6.3L9.7,64.3z M11.8,69L10,64.8L8.1,69H11.8z"/>
		<path class="st0" d="M16.6,68.6l-3.1-4.3h0.6l2.7,3.8l2.7-3.8h0.6l-2.9,4.3v2.8h-0.5v-2.8H16.6z"/>
		<path class="st0" d="M22,64.3h0.5l2.9,4.2l2.9-4.2h0.5v7.1h-0.5v-6.1l-2.8,4.1l0,0l-2.8-4.1v6.1h-0.5v-7.1H22z"/>
		<path class="st0" d="M31.3,64.3h5.2v0.5h-4.5v2.8H36v0.5h-4.2V71h4.7v0.5h-5.2C31.3,71.5,31.3,64.3,31.3,64.3z"/>
		<path class="st0" d="M38.6,64.3h0.5l4.9,6.3v-6.3h0.6v7.1h-0.4l-5-6.4v6.4h-0.5v-7.1H38.6z"/>
		<path class="st0" d="M49.1,64.8h-2.5v-0.5h5.5v0.5h-2.5v6.6h-0.5v-6.6H49.1z"/>
		<path class="st0" d="M53.5,70.5l0.4-0.4c0.7,0.7,1.5,1.1,2.6,1.1s1.8-0.6,1.8-1.5l0,0c0-0.7-0.4-1.2-2.1-1.5c-1.7-0.4-2.5-1-2.5-2
			l0,0c0-1.1,1-1.8,2.3-1.8c1.1,0,1.7,0.2,2.5,0.9l-0.4,0.4c-0.7-0.6-1.4-0.9-2.1-0.9c-1.1,0-1.7,0.6-1.7,1.4l0,0
			c0,0.7,0.4,1.2,2.1,1.6c1.7,0.4,2.3,1,2.3,2l0,0c0,1.1-1,2-2.3,2C55.3,71.6,54.4,71.2,53.5,70.5z"/>
		<path class="st0" d="M64.3,64.3h0.5V71h4.3v0.5h-4.8V64.3z"/>
		<path class="st0" d="M71.1,64.3h5.2v0.5h-4.5v2.8h4.2v0.5h-4.2V71h4.7v0.5h-5.2v-7.1H71.1z"/>
		<path class="st0" d="M78,70.5l0.4-0.4c0.7,0.7,1.5,1.1,2.6,1.1c1.1,0,1.8-0.6,1.8-1.5l0,0c0-0.7-0.4-1.2-2.1-1.5
			c-1.7-0.4-2.5-1-2.5-2l0,0c0-1.1,1-1.8,2.3-1.8c1.1,0,1.7,0.2,2.5,0.9l-0.4,0.2c-0.7-0.6-1.4-0.9-2.1-0.9c-1.1,0-1.7,0.6-1.7,1.4
			l0,0c0,0.7,0.4,1.2,2.1,1.6c1.7,0.4,2.3,1,2.3,2l0,0c0,1.1-1,2-2.3,2C79.7,71.6,78.8,71.2,78,70.5z"/>
		<path class="st0" d="M84.8,70.5l0.4-0.4c0.7,0.7,1.5,1.1,2.6,1.1c1.1,0,1.8-0.6,1.8-1.5l0,0c0-0.7-0.4-1.2-2.1-1.5
			c-1.7-0.4-2.5-1-2.5-2l0,0c0-1.1,1-1.8,2.3-1.8c1.1,0,1.7,0.2,2.5,0.9l-0.4,0.4c-0.7-0.6-1.4-0.9-2.1-0.9c-1.1,0-1.7,0.6-1.7,1.4
			l0,0c0,0.7,0.4,1.2,2.1,1.6c1.7,0.4,2.3,1,2.3,2l0,0c0,1.1-1,2-2.3,2C86.6,71.6,85.7,71.2,84.8,70.5z"/>
		<path class="st0" d="M95.4,67.9L95.4,67.9c0-2.1,1.5-3.7,3.6-3.7c1.2,0,2.1,0.5,2.8,1.1l-0.4,0.4c-0.6-0.6-1.4-1.1-2.5-1.1
			c-1.7,0-3.1,1.4-3.1,3.2l0,0c0,1.8,1.4,3.2,3.1,3.2c1,0,1.7-0.4,2.5-1.1l0.4,0.4c-0.7,0.7-1.6,1.2-2.8,1.2
			C96.9,71.6,95.4,70,95.4,67.9z"/>
		<path class="st0" d="M103.1,67.9L103.1,67.9c0-2,1.5-3.7,3.7-3.7s3.6,1.7,3.6,3.7l0,0c0,2-1.5,3.7-3.7,3.7S103.1,69.9,103.1,67.9z
			 M109.8,67.9L109.8,67.9c0-1.8-1.4-3.2-3.1-3.2s-3.1,1.5-3.1,3.2l0,0c0,1.7,1.4,3.2,3.1,3.2C108.5,71.1,109.8,69.7,109.8,67.9z"/>
		<path class="st0" d="M112.6,64.3h0.5l2.9,4.2l2.9-4.2h0.5v7.1H119v-6.1l-2.8,4.1l0,0l-2.8-4.1v6.1h-0.5v-7.1H112.6z"/>
		<path class="st0" d="M121.8,64.3h2.6c1.6,0,2.7,0.9,2.7,2.2l0,0c0,1.5-1.4,2.3-2.8,2.3h-2v2.7h-0.5V64.3z M124.4,68.3
			c1.4,0,2.2-0.7,2.2-1.7l0,0c0-1.1-0.9-1.7-2.2-1.7h-2.1v3.4H124.4z"/>
		<path class="st0" d="M129,64.3h0.5V71h4.2v0.5h-4.8v-7.1H129z"/>
		<path class="st0" d="M135.9,64.3h0.5v7.1h-0.5V64.3z"/>
		<path class="st0" d="M138.7,67.9L138.7,67.9c0-2.1,1.5-3.7,3.6-3.7c1.2,0,2.1,0.5,2.8,1.1l-0.4,0.4c-0.6-0.6-1.4-1.1-2.5-1.1
			c-1.7,0-3.1,1.4-3.1,3.2l0,0c0,1.8,1.4,3.2,3.1,3.2c1,0,1.7-0.4,2.5-1.1l0.4,0.4c-0.7,0.7-1.6,1.2-2.8,1.2
			C140.2,71.6,138.7,70,138.7,67.9z"/>
		<path class="st0" d="M149.8,64.3h0.5l3.3,7.2H153l-0.9-2h-4.3l-0.9,2h-0.6L149.8,64.3z M151.9,69l-1.8-4.2l-1.8,4.2H151.9z"/>
		<path class="st0" d="M156.5,64.8h-2.5v-0.5h5.5v0.5h-2.5v6.6h-0.5v-6.6H156.5z"/>
		<path class="st0" d="M161.6,64.3h5.2v0.5h-4.5v2.8h4.2v0.5h-4.2V71h4.7v0.5h-5.2v-7.1H161.6z"/>
		<path class="st0" d="M168.8,64.3h2.5c2.2,0,3.8,1.6,3.8,3.6l0,0c0,2-1.6,3.6-3.8,3.6h-2.5V64.3z M169.4,64.8V71h1.8
			c2,0,3.3-1.4,3.3-3.1l0,0c0-1.7-1.2-3.1-3.3-3.1H169.4z"/>
	</g>
	<g>
		<path class="st1" d="M194,18.9c-2.1,2.2-2.2,6.4-0.6,7.7c1.8,1.5,4.2-1.8,3.8-5.5C197.1,19.3,195.8,17.4,194,18.9z"/>
		<path class="st1" d="M195.7,27.6c-1.2,1.2-1.8,3.6-1.5,4.1c0.4,0.7,1.7-1.2,2.2-2.8c0.1-0.4,0.1-0.6,0.1-0.9
			C196.6,27.7,196.6,26.8,195.7,27.6z"/>
		<path class="st1" d="M194.2,33.1c-0.5,0.5-1.1,1.5-1.1,1.6s0.6-0.6,1-1.1c0.2-0.2,0.2-0.5,0.2-0.6C194.5,33,194.4,33,194.2,33.1z"
			/>
		<path class="st2" d="M195,11c-0.9,2.3,1.1,7.5,2.5,8.1c1.2,0.6,1.4-2.3,0.2-5.4C196.8,11.7,195.6,9.9,195,11z"/>
		<path class="st2" d="M188.5,4.5c-0.6,1.7,3.2,6.1,5.3,6.3c1.7,0.1,0.9-2.7-1.5-4.9C191.2,4.8,189.2,3.6,188.5,4.5z"/>
		<path class="st2" d="M190.9,4.2c0.1-0.2-1.4-1.4-2.5-2c-0.9-0.5-1.7-0.9-2-0.7c0,0,0,0,0,0.1C186.9,2.2,190.4,4.4,190.9,4.2z"/>
		<path class="st1" d="M187.4,10.8c2.6-0.2,2.7-2.9,0.2-4.9c-1.4-1-3.9-2.1-5.3-1L182.2,5C180.9,6.9,184,11,187.4,10.8z"/>
		<path class="st1" d="M181,4.4c0.7-0.4,0.5-1.2-1.1-1.8c-1.1-0.4-2.6-0.6-3.2-0.2l-0.1,0.1C176.6,3.3,179.5,5.2,181,4.4z"/>
		<path class="st1" d="M174.8,2c0.1-0.1-0.2-0.2-0.9-0.4c-0.5-0.1-1.2,0-1.4,0l0,0c0,0.1,0.7,0.2,1.2,0.4C174.5,2.1,174.7,2,174.8,2
			z"/>
		<path class="st1" d="M181.1,11c-2.9,2.2-1.4,6.8,2,7.5c3.4,0.7,5.9-2.8,3.9-5.9C185.9,10.9,183.2,9.8,181.1,11z"/>
		<path class="st2" d="M174.8,12c-1.8,1.1-1.2,3.9,0.6,4.5c2,0.6,3.6-1.4,2.7-3.2C177.5,12.3,176.1,11.4,174.8,12z"/>
		<path class="st2" d="M170.5,12.3c-0.9,0.4-0.7,1.7-0.1,2.1c0.7,0.5,1.6-0.2,1.4-1.2C171.6,12.5,171.2,12,170.5,12.3z"/>
		<path class="st2" d="M186.1,18.8c-3.2,2.2-2.6,6.8,0.1,8c3.2,1.5,6.6-2.5,5.4-6.1C191,19,189.1,17.2,186.1,18.8z"/>
		<path class="st2" d="M182.5,27.6c-2,1.1-2,3.3-0.6,4.2c2,1.1,4.7-1,3.9-3.1C185.5,27.9,184.4,26.8,182.5,27.6z"/>
		<path class="st2" d="M179.3,33.4c-1,0.4-0.9,1.4-0.1,1.7c1,0.5,2.1-0.2,1.8-1.1C180.9,33.5,180.2,33,179.3,33.4z"/>
		<path class="st2" d="M183.4,0L183.4,0L183.4,0z"/>
		<path class="st2" d="M183.8,0.1L183.6,0c-0.1,0-0.1,0-0.1,0c1.2,0.7,2.3,0.9,2.3,0.9C185.2,0.5,184.4,0.4,183.8,0.1z"/>
	</g>
	<g>
		<path class="st2" d="M11.3,31.8h5.4L28,58.1h-6l-2.5-5.9H8.4l-2.5,5.9H0L11.3,31.8z M17.4,47.1l-3.6-8.5l-3.6,8.5H17.4z"/>
		<path class="st2" d="M32.1,32h5.8v20.9H51v5.3H32.1V32z"/>
		<path class="st2" d="M57.8,37.3h-8V32h21.9v5.3h-8v20.9H58V37.3H57.8z"/>
		<path class="st2" d="M81.8,31.8h5.4l11.3,26.3h-6L90,52.2H78.8l-2.5,5.9h-5.9L81.8,31.8z M87.9,47.1l-3.6-8.5l-3.6,8.5H87.9z"/>
		<path class="st1" d="M102.5,32h10.8c6.3,0,10.1,3.7,10.1,9.1v0.1c0,6-4.8,9.2-10.7,9.2h-4.4v7.9h-5.8
			C102.5,58.3,102.5,32,102.5,32z M113,45.2c2.9,0,4.5-1.7,4.5-3.9v-0.1c0-2.6-1.8-3.9-4.7-3.9h-4.5v8H113z"/>
		<path class="st1" d="M134.1,31.8h5.4l11.3,26.3h-6l-2.5-5.9h-11.2l-2.5,5.9h-5.9L134.1,31.8z M140.2,47.1l-3.6-8.5l-3.6,8.5H140.2
			z"/>
		<path class="st1" d="M158.1,47.9L148,32h6.8l6.3,10.4l6.4-10.4h6.6l-10.1,15.7v10.4h-5.8V47.9z"/>
	</g>
</g>
</svg>
