<svg version="1.1" id="Layer_1" xmlns="http://www.w3.org/2000/svg" xmlns:xlink="http://www.w3.org/1999/xlink" x="0px" y="0px"
	 viewBox="0 0 225 126.5" style="enable-background:new 0 0 225 126.5;" xml:space="preserve">
<g>
	<g>
		<polygon points="47.8,46.1 36.6,51.8 37.4,56.5 42.1,57.2 		"/>
		<polygon points="37.4,56.5 36.6,51.8 32.4,54 34.5,56.1 		"/>
		<polygon points="54.5,59.2 42.1,57.2 39.9,61.5 43.3,64.9 		"/>
		<polygon points="40,61.5 42.1,57.2 37.4,56.5 37.9,59.4 		"/>
		<polygon points="52.2,73.7 43.3,64.9 39.1,67.1 39.8,71.8 		"/>
		<polygon points="39.1,67.1 43.3,64.9 40,61.5 38.6,64.1 		"/>
		<polygon points="41.8,84.1 39.8,71.8 35.1,71 33,75.3 		"/>
		<polygon points="35.1,71 39.8,71.8 39.1,67 36.5,68.4 		"/>
		<polygon points="27.3,86.4 32.9,75.3 29.6,71.9 25.3,74.1 		"/>
		<polygon points="29.6,71.9 33,75.3 35.1,71 32.2,70.6 		"/>
		<polygon points="14.2,79.8 25.3,74.1 24.6,69.4 19.9,68.6 		"/>
		<polygon points="24.6,69.4 25.3,74.1 29.6,71.9 27.5,69.8 		"/>
		<polygon points="7.5,66.7 19.9,68.6 22,64.4 18.6,61 		"/>
		<polygon points="22,64.4 19.9,68.6 24.6,69.4 24.1,66.5 		"/>
		<polygon points="9.8,52.2 18.6,61 22.9,58.8 22.1,54.1 		"/>
		<polygon points="22.9,58.8 18.6,61 22,64.4 23.3,61.8 		"/>
		<polygon points="20.2,41.8 22.1,54.1 26.8,54.9 29,50.6 		"/>
		<polygon points="26.8,54.8 22.1,54.1 22.9,58.8 25.5,57.4 		"/>
		<polygon points="34.7,39.5 29,50.6 32.4,54 36.6,51.8 		"/>
		<polygon points="32.4,54 29,50.6 26.8,54.9 29.7,55.3 		"/>
		<polygon points="24.6,69.4 22.9,58.8 32.4,54 40,61.5 35.1,71 		"/>
		<polygon points="29.6,71.9 22,64.4 26.9,54.9 37.4,56.5 39.1,67.1 		"/>
		<polygon points="22.9,58.8 25.5,57.4 23.3,61.8 		"/>
		<polygon points="36.5,68.4 35.1,71 32.2,70.6 		"/>
		<polygon points="26.8,54.8 29.7,55.3 25.5,57.4 		"/>
		<polygon points="34.5,56 37.4,56.5 37.9,59.4 		"/>
		<polygon points="27.5,69.8 32.2,70.6 29.6,71.9 		"/>
		<polygon points="38.6,64.1 39.1,67.1 36.5,68.4 		"/>
		<polygon points="23.3,61.8 24.1,66.5 22,64.4 		"/>
		<polygon points="24.6,69.4 27.5,69.8 24.1,66.5 		"/>
		<polygon points="29.7,55.3 32.4,54 34.5,56.1 		"/>
		<polygon points="38.6,64.1 40,61.5 37.9,59.4 		"/>
	</g>
	<g>
		<path d="M74.4,55l0.2,0.1c0,0.5,0,1,0.5,2.3c0.5,1.5,5.9,15.5,7.6,19.6c0.9,0.5,1.7,0.9,3.2,1.4l-0.1,0.4c-1.1,0-2.5-0.1-3.6-0.1
			c-1.1,0-2.3,0-3.5,0.1l0.1-0.3l1.4-1c-0.3-1.1-1.5-3.8-3-7.7c-1.4,0.1-3,0.2-7.7,0.2c-1.5,3.8-2.1,5.4-2.8,7.4l3.1,1.1l-0.1,0.4
			c-1,0-2.8-0.1-4.1-0.1c-1.1,0-2.2,0-3.3,0.1l0.1-0.4l2.5-1.1c1.2-2.5,5-11.3,7.8-18.8c0.1-0.3,0.1-0.6,0.1-0.9l-0.3-0.9L74.4,55z
			 M73.3,59.4c-1.1,3.1-2.4,6.3-3.4,9.1c0.9,0,5.3,0.1,6.9,0.1C75.6,65.3,74.5,62.4,73.3,59.4L73.3,59.4z"/>
		<path d="M89.1,65.5l-1.8-0.7l0.1-0.3c0.8-0.3,2.8-1.1,4-1.2l-0.1,2.9l0,0c2.3-1.9,3.9-3,5.3-3c1.8,0,3.4,1,4.1,3
			c2.7-2.3,4.1-3,5.6-3c2.6,0,4.6,1.9,4.6,5.1v8.6c0,0.2,0.2,0.5,0.6,0.7l1.8,0.8l0,0.3c-1.2,0-2.4-0.1-3.6-0.1c-0.9,0-2,0-2.8,0.1
			l0.1-0.4l1.5-1.1c0.1-1.4,0.2-4,0.2-7.8c0-1.7-0.2-4.5-3.4-4.5c-1.5,0-2.9,0.7-4.3,2.1c0.1,0.6,0.2,1.7,0.2,3.1v7.2l2,1l-0.1,0.3
			c-0.8,0-2-0.1-3.1-0.1c-1,0-2.1,0-3,0.1l0.1-0.4l1.6-1c0.1-2.7,0.1-5.9,0.1-8.2c0-1.8-0.4-4.2-3.5-4.2c-1.3,0-2.8,1-4,2
			c0,4.8,0,9.2,0.1,10.4l2.1,1l-0.1,0.4c-0.6,0-1.9-0.1-3.4-0.1c-1,0-2.3,0-3.1,0.1l0.1-0.4l1.9-1c0.1-0.7,0.1-4,0.1-7V65.5z"/>
		<path d="M118.5,65.7L118.5,65.7c2.4-1.6,3.9-2.4,5.1-2.4c2.8,0,6.5,2.3,6.5,7.3c0,6-5.2,8.7-8.4,8.7c-0.5,0-2.1-0.7-2.8-1.1
			l-0.1,0c0,2.2,0.1,5.1,0.1,7.5l3.3,1.1l-0.2,0.3c-1.6,0-3-0.1-4.5-0.1c-1,0-2,0-3.1,0.1l0.1-0.4l1.9-1c0-1.9,0.1-5.6,0.1-10.3
			v-9.9l-1.9-1l0.2-0.3c0.5-0.2,3-0.9,3.9-1L118.5,65.7z M118.7,77.1c0.7,0.4,1.7,0.8,2.9,0.8c3.1,0,5.9-2.5,5.9-7
			c0-2.8-1.6-6.1-5-6.1c-0.9,0-2.3,0.4-3.8,1.6V77.1z"/>
		<path d="M138.9,78.4l-0.2,0.4c-1.2,0-2.3-0.1-3.4-0.1c-1.2,0-2.4,0-3.6,0.1l0.1-0.3l2.3-1.1c0-1.6,0.1-3.9,0.1-12.3
			c0-3.1,0-7.4-0.1-9.1l-1.9-0.8l0.2-0.3c1-0.4,2.7-0.7,4.2-1c-0.1,3.9-0.1,7.4-0.1,11.1c0,7,0,9.7,0.1,12.4L138.9,78.4z"/>
		<path d="M140.9,64.2c0.6-0.2,2.1-0.7,3.9-1v6.9c0,3.9,0,5.9,0.1,7.2l2.4,1.1l-0.2,0.4c-1,0-2.3-0.1-3.5-0.1c-1,0-2,0.1-3.3,0.1
			l0.1-0.4l2-1.1c0-1.6,0.1-4.5,0.1-7.3v-4.7l-1.8-0.8L140.9,64.2z M143.8,56.2c0.4,0.1,1.1,1,1.4,1.5l-0.1,0.2
			c-0.2,0.5-1.1,1.3-1.5,1.6l-0.2,0.1c-0.5-0.3-1.1-1.1-1.4-1.6l0.1-0.2c0.4-0.6,1-1.3,1.5-1.6L143.8,56.2z"/>
		<path d="M151.5,70.3c0,0.2,0,0.5,0,0.8c0,4.4,2.7,6.8,6,6.8c0.5,0,0.8,0,1.1-0.2c1.2-0.9,2-1.6,2.7-1.9l0.1,0.3
			c-0.2,0.7-1.2,1.9-1.6,2.2c-0.8,0.4-2.7,0.9-3.7,0.9c-4.1,0-7.1-3.1-7.1-7.6c0-5,3.6-8.4,7.4-8.4c3,0,5.5,2.2,5.5,5.6
			c0,0.5-0.1,0.8-0.3,1c-0.3,0.1-1.6,0.4-3.1,0.4H151.5z M159.2,69.4c0.1-0.2,0.2-0.7,0.2-1.2c0-1.7-1-4.1-3.3-4.1
			c-3.3,0-4.5,3.9-4.6,5.3H159.2z"/>
		<path d="M166,65.6l-1.8-0.8l0.1-0.3c0.6-0.2,2.8-1.1,4-1.2l-0.1,2.9h0.1c2.8-2.4,4.1-2.9,5.6-2.9c3.3,0,4.5,2.8,4.5,5.2v8.3
			c0,0.5,0.1,0.6,0.4,0.8l2.1,0.9l-0.1,0.4c-0.5,0-2.4-0.1-3.6-0.1c-0.8,0-1.8,0-2.5,0.1l0.1-0.4l1.1-1.1c0.1-1.3,0.2-4,0.2-8.4
			c0-3-1.8-4.1-3.5-4.1c-1.9,0-3.5,1.5-4.2,2.2c0,2.6,0,9.7,0.1,10.3l1.9,1l-0.1,0.4c-0.7,0-2.1-0.1-3.1-0.1c-1.1,0-2.5,0-3.3,0.1
			l0.1-0.4l1.9-1c0.1-0.5,0.1-3.9,0.1-8.4V65.6z"/>
		<path d="M181.9,71.3c0-5.5,4.4-8.1,8.6-8.1c1.9,0,3.8,0.8,4.2,1.3c-0.2,1-0.7,2.5-1.2,3.4l-0.2,0.1c-0.3-0.7-0.7-2-1-3.7
			c-0.3-0.1-0.7-0.2-1.5-0.2c-4.3,0-6.3,3.4-6.3,6.9c0,4,2.7,6.8,6.4,6.8c0.3,0,0.8-0.1,1-0.2c1.4-1.2,2.3-1.8,2.8-2.1l0.1,0.2
			c-0.3,0.9-1.6,2.5-2.1,2.9c-0.6,0.2-2.2,0.5-3.2,0.5C186.8,79.2,181.9,77.3,181.9,71.3L181.9,71.3z"/>
		<path d="M199.2,70.3c0,0.2,0,0.5,0,0.8c0,4.4,2.7,6.8,6,6.8c0.5,0,0.8,0,1.1-0.2c1.2-0.9,2-1.6,2.7-1.9L209,76
			c-0.2,0.7-1.2,1.9-1.6,2.2c-0.8,0.4-2.7,0.9-3.7,0.9c-4.1,0-7.1-3.1-7.1-7.6c0-5,3.6-8.4,7.4-8.4c3,0,5.5,2.2,5.5,5.6
			c0,0.5-0.1,0.8-0.3,1c-0.3,0.1-1.6,0.4-3.1,0.4H199.2z M206.9,69.4c0.1-0.2,0.2-0.7,0.2-1.2c0-1.7-1-4.1-3.3-4.1
			c-3.3,0-4.5,3.9-4.6,5.3H206.9z"/>
		<g>
			<path d="M212.9,58.8h-0.8v-0.3h2v0.3h-0.8v2.4h-0.4V58.8z"/>
			<path d="M217.1,60c0-0.4,0-0.8,0-1.2h0c-0.1,0.3-0.2,0.7-0.3,1l-0.5,1.3H216l-0.4-1.3c-0.1-0.4-0.2-0.7-0.3-1h0
				c0,0.3,0,0.8-0.1,1.2l-0.1,1.2h-0.3l0.2-2.7h0.4l0.5,1.3c0.1,0.3,0.2,0.6,0.3,0.9h0c0.1-0.3,0.2-0.6,0.3-0.9l0.5-1.3h0.4l0.2,2.7
				h-0.3L217.1,60z"/>
		</g>
	</g>
</g>
</svg>
