<?xml version="1.0" encoding="utf-8"?>
<!-- Generator: Adobe Illustrator 21.0.2, SVG Export Plug-In . SVG Version: 6.00 Build 0)  -->
<svg version="1.1" id="Layer_1" xmlns="http://www.w3.org/2000/svg" xmlns:xlink="http://www.w3.org/1999/xlink" x="0px" y="0px"
	 viewBox="0 0 225 126.5" style="enable-background:new 0 0 225 126.5;" xml:space="preserve">
<g>
	<g>
		<path d="M19.9,73.6h-0.2h-0.6h-1.4h-0.3c-1.6,0-1.6,0-1.8,0c-0.2,0-0.2,0-0.2-0.3c0-0.2,0-0.2,0.2-0.2C16,73,16.2,73,16.4,73
			c0.4-0.1,0.6-0.2,0.6-0.4s-0.2-0.6-0.3-0.8l-1-2.6h-4.4l-0.9,2.6c-0.1,0.3-0.2,0.6-0.2,0.7c0,0.4,0.3,0.6,1.1,0.6
			c0.3,0,0.3,0,0.3,0.3c0,0.2,0,0.3-0.3,0.3H9.4H7.7c-0.2,0-0.2,0-0.2-0.2v-0.1c0-0.1,0.1-0.1,0.3-0.2c0.5-0.1,0.7-0.1,0.7-0.2
			c0.1-0.1,0.2-0.2,0.2-0.3c0.1-0.1,0.2-0.3,0.2-0.4c0-0.1,0.1-0.2,0.2-0.4l4-9.8l0.1-0.3c0.1-0.2,0.1-0.2,0.3-0.2
			c0.2,0,0.2,0,0.3,0.2l0.1,0.3L18,72c0,0.1,0.1,0.3,0.2,0.6c0.2,0.4,0.3,0.5,0.4,0.6c0.2,0.1,0.5,0.2,0.9,0.2c0.3,0,0.3,0,0.3,0.3
			C20.1,73.6,20.1,73.6,19.9,73.6z M13.3,63.5l-1.9,5h3.8L13.3,63.5z"/>
		<path d="M36.4,62.4c-0.6,0.1-0.8,0.2-0.9,0.3c-0.1,0.1-0.2,0.4-0.2,0.7c0,0.2,0,0.5,0,0.8l-0.1,9.3c0,0.2,0,0.3,0,0.4
			C35.1,74,35,74,35,74c-0.3,0-0.3,0-0.4-0.1l-0.2-0.3l-7.5-9.8l-0.1,7.3v0.4c0,0.4,0,0.8,0,1c0,0.5,0.3,0.7,1,0.7l0.5,0.1
			c0.4,0.1,0.5,0,0.5,0.3c0,0.2-0.1,0.2-0.5,0.2h-0.7h-1.2h-1.2c-0.3,0-0.5,0-0.6,0h-0.1c-0.2,0-0.3,0-0.3-0.3c0-0.2,0-0.3,0.4-0.3
			c0.2,0,0.5-0.1,0.7-0.1s0.3-0.1,0.3-0.1c0.2-0.1,0.3-0.3,0.3-0.5c0.1-0.5,0.1-0.9,0.1-1.5l0.3-7.9c-0.4-0.4-0.7-0.6-1.4-0.6
			c-0.4,0-0.4-0.1-0.4-0.4c0-0.2,0.1-0.2,0.3-0.2c0.7,0,1.1,0,1.5,0c0.5,0,0.7,0,1,0l7.3,9.6l-0.2-7.4c0-0.7,0-0.9-0.1-1.2
			c-0.1-0.4-0.6-0.6-1.5-0.6c-0.4,0-0.4,0-0.4-0.3c0-0.2,0.1-0.2,0.3-0.2h0.1h0.7h1.2c1.7,0,1.6,0,2,0c0.2,0,0.2,0,0.2,0.2
			C36.7,62.3,36.7,62.3,36.4,62.4z"/>
		<path d="M52.3,62.3c-0.5,0.1-0.6,0.1-0.7,0.2c-0.2,0.2-0.4,0.4-0.8,1.1l-3.3,4.9v2.9c0,0.7,0,1,0.1,1.2s0.2,0.3,0.5,0.3
			c0.3,0.1,0.8,0.1,1.2,0.2c0.4,0,0.4,0.1,0.4,0.3s0,0.3-0.2,0.3c-1.4,0-1.3,0-1.9,0h-1.4c-0.2,0-0.5,0-1.7,0l0,0
			c-0.2,0-0.2,0-0.2-0.3c0-0.2,0-0.2,0.4-0.3c0.7-0.1,1.1-0.1,1.3-0.3c0.2-0.2,0.2-0.4,0.2-1.5v-2.9L43,63.5
			c-0.3-0.4-0.4-0.6-0.5-0.7c-0.3-0.4-0.4-0.5-0.9-0.6l-0.4-0.1C41,62.1,41,62,41,61.8c0-0.2,0.1-0.2,0.2-0.2c1.4,0,1.7,0,2.1,0
			c0.7,0,1.3,0,2.3,0c0.2,0,0.3,0,0.3,0.3c0,0.2,0,0.3-0.2,0.3c-0.2,0-0.6,0.1-0.6,0.1c-0.6,0.1-0.8,0.2-0.8,0.5
			c0,0.2,0.1,0.4,0.2,0.6c0.1,0.2,0.2,0.3,0.2,0.4l2.6,4.1l2.3-3.9c0.4-0.6,0.5-0.9,0.5-1.1c0-0.3-0.2-0.4-1.2-0.5
			c-0.2,0-0.2-0.1-0.2-0.3c0-0.2,0-0.2,0.3-0.2h1.8c0.8,0,1.9,0,2,0c0.2,0,0.2,0.1,0.2,0.3C52.7,62.2,52.7,62.2,52.3,62.3z"/>
		<path d="M66.3,73.6h-0.2h-0.6h-1.4h-0.3c-1.6,0-1.6,0-1.8,0c-0.2,0-0.2,0-0.2-0.3c0-0.2,0-0.2,0.2-0.2c0.3-0.1,0.5-0.1,0.7-0.1
			c0.4-0.1,0.6-0.2,0.6-0.4s-0.2-0.6-0.3-0.8l-1-2.6h-4.4l-0.9,2.6c-0.1,0.3-0.2,0.6-0.2,0.7c0,0.4,0.3,0.6,1.1,0.6
			c0.3,0,0.3,0,0.3,0.3c0,0.2,0,0.3-0.3,0.3h-1.9h-1.7c-0.2,0-0.2,0-0.2-0.2v-0.1c0-0.1,0.1-0.1,0.3-0.2c0.5-0.1,0.7-0.1,0.7-0.2
			c0.1-0.1,0.2-0.2,0.2-0.3c0.1-0.1,0.2-0.3,0.2-0.4c0-0.1,0.1-0.2,0.2-0.4l4-9.8l0.1-0.3c0.1-0.2,0.1-0.2,0.3-0.2
			c0.2,0,0.2,0,0.3,0.2l0.1,0.3l4.1,9.8c0,0.1,0.1,0.3,0.2,0.6c0.2,0.4,0.3,0.5,0.4,0.6c0.2,0.1,0.5,0.2,0.9,0.2
			c0.3,0,0.3,0,0.3,0.3C66.5,73.6,66.4,73.6,66.3,73.6z M59.7,63.5l-1.9,5h3.8L59.7,63.5z"/>
		<path d="M87,73.1c0.8-0.1,1.2-0.2,1.3-0.5c0.1-0.2,0.1-0.6,0.1-1.2v-3.6h-6.4v3.6c0,0.7,0,1.1,0.1,1.2c0.1,0.3,0.5,0.4,1.3,0.5
			c0.3,0,0.4,0.1,0.4,0.3s0,0.3-0.2,0.3c-0.9,0-1.3,0-2.1,0c-1,0-1.7,0-2.2,0c-0.2,0-0.2,0-0.2-0.2c0-0.3,0.1-0.3,0.4-0.3
			c0.6-0.1,0.8-0.2,1-0.3c0.2-0.2,0.2-0.6,0.2-1.4v-7.4c0-0.6,0-1-0.1-1.2c-0.1-0.5-0.7-0.5-1.2-0.6c-0.2,0-0.3-0.1-0.3-0.3
			c0-0.2,0-0.2,0.2-0.2c1,0,0.9,0,2.1,0c1.1,0,1.2,0,2.1,0c0.2,0,0.2,0,0.2,0.2c0,0.3,0,0.3-0.5,0.3c-0.6,0.1-0.8,0.2-0.9,0.3
			c-0.2,0.2-0.2,0.6-0.2,1.4v3h6.4v-3c0-0.8-0.1-1.3-0.2-1.4c-0.2-0.2-0.4-0.2-0.9-0.3c-0.4,0-0.5-0.1-0.5-0.3c0-0.2,0-0.2,0.2-0.2
			c0.8,0,0.9,0,2.1,0c1.1,0,1,0,2.1,0c0.2,0,0.2,0,0.2,0.2c0,0.3,0,0.3-0.3,0.3c-0.6,0.1-1.1,0.1-1.2,0.6c-0.1,0.2-0.1,0.7-0.1,1.2
			v7.4c0,0.8,0.1,1.3,0.2,1.4c0.2,0.2,0.5,0.2,1,0.3c0.4,0,0.4,0,0.4,0.3c0,0.2,0,0.2-0.2,0.2c-0.6,0-1.2,0-2.2,0
			c-0.7,0-1.2,0-2.1,0c-0.2,0-0.2,0-0.2-0.3C86.6,73.2,86.6,73.1,87,73.1z"/>
		<path d="M100.3,73.6c-0.9,0-1.4,0-2.2,0c-1,0-1.7,0-2.2,0c-0.2,0-0.2,0-0.2-0.2c0-0.3,0.1-0.3,0.4-0.3c0.6-0.1,0.8-0.2,1-0.3
			c0.2-0.2,0.2-0.6,0.2-1.4v-7.4c0-0.6,0-1-0.1-1.2c-0.1-0.5-0.7-0.5-1.2-0.6c-0.2,0-0.3-0.1-0.3-0.3c0-0.2,0-0.2,0.2-0.2
			c1,0,0.9,0,2.1,0c1.1,0,1.3,0,2.1,0c0.2,0,0.2,0,0.2,0.2c0,0.3,0,0.3-0.5,0.3c-0.6,0.1-0.8,0.2-0.9,0.3c-0.2,0.2-0.2,0.6-0.2,1.4
			v7.4c0,0.7,0,1.1,0.1,1.2c0.1,0.3,0.5,0.4,1.3,0.5c0.3,0,0.4,0.1,0.4,0.3C100.5,73.6,100.5,73.6,100.3,73.6z"/>
		<path d="M117.1,62.4c-0.6,0.1-0.8,0.2-0.9,0.3c-0.1,0.1-0.2,0.4-0.2,0.7c0,0.2,0,0.5,0,0.8l-0.1,9.3c0,0.2,0,0.3,0,0.4
			c0,0.1-0.1,0.1-0.2,0.1c-0.3,0-0.3,0-0.4-0.1l-0.2-0.3l-7.5-9.8l-0.1,7.3v0.4c0,0.4,0,0.8,0,1c0,0.5,0.3,0.7,1,0.7l0.5,0.1
			c0.4,0.1,0.5,0,0.5,0.3c0,0.2-0.1,0.2-0.5,0.2h-0.7h-1.2h-1.2c-0.3,0-0.5,0-0.6,0h-0.1c-0.2,0-0.3,0-0.3-0.3c0-0.2,0-0.3,0.4-0.3
			c0.2,0,0.5-0.1,0.7-0.1c0.2,0,0.3-0.1,0.3-0.1c0.2-0.1,0.3-0.3,0.3-0.5c0.1-0.5,0.1-0.9,0.1-1.5l0.3-7.9c-0.4-0.4-0.7-0.6-1.4-0.6
			c-0.4,0-0.4-0.1-0.4-0.4c0-0.2,0.1-0.2,0.3-0.2c0.7,0,1.1,0,1.5,0c0.5,0,0.7,0,1,0l7.3,9.6l-0.2-7.4c0-0.7,0-0.9-0.1-1.2
			c-0.1-0.4-0.6-0.6-1.5-0.6c-0.4,0-0.4,0-0.4-0.3c0-0.2,0.1-0.2,0.3-0.2h0.1h0.7h1.2c1.7,0,1.6,0,2,0c0.2,0,0.2,0,0.2,0.2
			C117.5,62.3,117.5,62.3,117.1,62.4z"/>
		<path d="M132.3,71.7c-1.2,1.3-2.9,2-5.2,2h-0.2h-1.4h-1.4h-0.6h-0.7h-0.4h-0.2c-0.2,0-0.2,0-0.2-0.2c0-0.3,0.1-0.3,0.5-0.3
			c1.1-0.1,1.2-0.2,1.2-1.7v-7.2c0-0.7,0-1.2-0.1-1.4c-0.1-0.3-0.4-0.5-1-0.5c-0.3,0-0.4,0-0.5-0.1c-0.1,0-0.1-0.1-0.1-0.3
			c0-0.3,0-0.3,1.2-0.4l1.5-0.1c0.7,0,1.7-0.1,2.3-0.1c1.6,0,2.5,0.1,3.5,0.4c2.2,0.7,3.6,2.8,3.6,5.4
			C134.1,69,133.5,70.6,132.3,71.7z M130.8,63.5c-0.5-0.4-0.9-0.7-1.6-0.8c-0.7-0.3-1.5-0.4-2.8-0.4c-0.6,0-0.8,0-1.4,0v9.1
			c0,0.6,0,0.7,0.1,0.9c0.1,0.2,0.4,0.4,0.7,0.4c0.4,0.1,0.9,0.1,1.4,0.1c3.4,0,5.4-2,5.4-5C132.6,66,132,64.5,130.8,63.5z"/>
		<path d="M153.7,73.6c-0.8,0-2.2,0-2.2,0h-1.1h-0.7c-0.3,0-0.3,0-0.3-0.3c0-0.3,0.1-0.2,0.4-0.3c0.6-0.1,0.9-0.2,1-0.3
			c0.1-0.1,0.2-0.3,0.2-0.9v-0.1l-0.2-8.2l-4.3,9.8c-0.1,0.2-0.1,0.2-0.3,0.2h-0.1c-0.1,0-0.1,0-0.2-0.2l-4.6-9.8l-0.1,7.6
			c0,0.8,0,0.9,0,1c0,0.3,0.1,0.5,0.3,0.6c0.2,0.1,0.7,0.2,1.4,0.3c0.2,0,0.2,0.1,0.2,0.3s0,0.2-0.2,0.2h-0.3H142h-1.3h-1.1
			c-0.4,0-0.6,0-0.7,0c-0.2,0-0.3-0.1-0.3-0.3c0-0.2,0.1-0.2,0.4-0.3c0.6-0.1,0.9-0.2,1-0.3c0.1-0.1,0.1-0.2,0.2-0.3
			c0.1-0.2,0.1-0.3,0.1-0.6c0-0.5,0.3-7.1,0.3-8.4c0-0.4,0-0.4,0-0.5c0-0.3-0.1-0.5-0.2-0.6c-0.1-0.1-0.6-0.2-1.1-0.3
			c-0.4,0-0.4-0.1-0.4-0.2c0-0.3,0.1-0.4,0.2-0.4c0.2,0,0.3,0,1.3,0c0.4,0,1,0,1.3,0l4.6,9.8l4.3-9.8c0.3,0,0.8,0,1.2,0
			c0.4,0,0.9,0,1.5,0c0.1,0,0.2,0.1,0.2,0.3c0,0.2-0.1,0.2-0.4,0.3c-1.1,0.2-1.1,0.2-1.1,0.7v0.9l0.2,7.8c0,0.5,0.1,0.8,0.1,0.9
			c0.1,0.2,0.2,0.2,0.6,0.3c0.2,0,0.3,0.1,0.4,0.1c0,0,0.2,0,0.4,0c0.3,0,0.3,0.1,0.3,0.3C153.9,73.6,153.8,73.6,153.7,73.6z"/>
		<path d="M170.3,73.6h-0.2h-0.6h-1.4h-0.3c-1.6,0-1.6,0-1.8,0c-0.2,0-0.2,0-0.2-0.3c0-0.2,0-0.2,0.2-0.2c0.3-0.1,0.5-0.1,0.7-0.1
			c0.4-0.1,0.6-0.2,0.6-0.4s-0.2-0.6-0.3-0.8l-1-2.6h-4.4l-0.9,2.6c-0.1,0.3-0.2,0.6-0.2,0.7c0,0.4,0.3,0.6,1.1,0.6
			c0.3,0,0.3,0,0.3,0.3c0,0.2,0,0.3-0.3,0.3h-1.9H158c-0.2,0-0.2,0-0.2-0.2v-0.1c0-0.1,0.1-0.1,0.3-0.2c0.5-0.1,0.7-0.1,0.7-0.2
			c0.1-0.1,0.2-0.2,0.2-0.3c0.1-0.1,0.2-0.3,0.2-0.4c0-0.1,0.1-0.2,0.2-0.4l4-9.8l0.1-0.3c0.1-0.2,0.1-0.2,0.3-0.2
			c0.2,0,0.2,0,0.3,0.2l0.1,0.3l4.1,9.8c0,0.1,0.1,0.3,0.2,0.6c0.2,0.4,0.3,0.5,0.4,0.6c0.2,0.1,0.5,0.2,0.9,0.2
			c0.3,0,0.3,0,0.3,0.3C170.4,73.6,170.4,73.6,170.3,73.6z M163.7,63.5l-1.9,5h3.8L163.7,63.5z"/>
		<path d="M185.8,73.5c0,0.1-0.1,0.2-0.2,0.2c-0.3,0.1-0.7,0.2-1.2,0.2c-0.5,0-0.9-0.1-1.2-0.2c-0.3-0.1-0.6-0.4-0.8-0.6
			c-0.6-0.6-1.1-1.5-1.8-2.7l-0.6-1.1c-0.5-0.8-0.6-0.9-0.7-1c-0.2-0.1-0.5-0.1-0.8-0.1h-0.7v3.4c0,0.7,0,1.1,0.1,1.2
			c0.1,0.3,0.5,0.4,1.3,0.5c0.3,0,0.4,0.1,0.4,0.3s0,0.3-0.2,0.3c-1,0-1.3,0-1.5,0h-1.4c-0.5,0-0.7,0-1.2,0H175
			c-0.2,0-0.2,0-0.2-0.2c0-0.3,0.1-0.3,0.4-0.3c0.6-0.1,0.8-0.2,0.9-0.3c0.2-0.2,0.2-0.6,0.2-1.4v-7.8c0-0.5,0-0.7-0.1-0.8
			c-0.1-0.3-0.4-0.4-1.2-0.5c-0.3,0-0.4,0-0.4-0.3c0-0.2,0-0.2,0.4-0.3c1.1-0.2,2-0.3,3.7-0.3c2.8,0,4.3,1,4.3,2.9
			c0,1.4-0.8,2.5-2.3,3.1c0.3,0.4,0.4,0.6,0.7,1.1c0.5,0.8,0.8,1.4,1,1.8c0.7,1.2,1.1,1.7,1.6,2.1c0.4,0.4,0.9,0.6,1.6,0.7
			C185.8,73.2,185.8,73.2,185.8,73.5L185.8,73.5z M178.3,62.2c-0.5,0-0.6,0-0.6,0v5.2h0.4c2.1,0,3.3-0.9,3.3-2.6
			C181.5,63,180.3,62.2,178.3,62.2z"/>
		<path d="M200.7,71.2l-0.3,1.4c-0.1,0.4-0.1,0.5-0.3,0.6c-0.9,0.5-2.4,0.7-3.6,0.7c-3.6,0-6.2-2.3-6.2-5.9c0-3.8,2.8-6.5,6.7-6.5
			c1,0,2.2,0.2,3,0.6c0.2,0.1,0.3,0.2,0.3,0.4v0.2c0,0,0.1,0.8,0.1,1c0,0.4,0,0.5,0,0.6s-0.1,0.2-0.4,0.2c-0.1,0-0.1,0-0.2-0.2
			c0-0.1-0.1-0.3-0.2-0.5c-0.4-0.8-1.6-1.4-3-1.4c-3,0-4.9,2.1-4.9,5.1c0,3.3,2.1,5.6,4.9,5.6c1.2,0,2.1-0.4,2.9-0.9
			c0.3-0.3,0.6-0.6,0.8-1.1c0.1-0.1,0.1-0.2,0.2-0.2s0.2,0,0.2,0c0.1,0,0.2,0.1,0.2,0.2C200.8,71,200.7,71.1,200.7,71.2z"/>
		<path d="M213.2,73.1c0.8-0.1,1.2-0.2,1.3-0.5c0.1-0.2,0.1-0.6,0.1-1.2v-3.6h-6.3v3.6c0,0.7,0,1.1,0.1,1.2c0.1,0.3,0.5,0.4,1.3,0.5
			c0.3,0,0.4,0.1,0.4,0.3s0,0.3-0.2,0.3c-0.9,0-1.3,0-2.1,0c-1,0-1.7,0-2.2,0c-0.2,0-0.2,0-0.2-0.2c0-0.3,0.1-0.3,0.4-0.3
			c0.6-0.1,0.8-0.2,1-0.3c0.2-0.2,0.2-0.6,0.2-1.4v-7.4c0-0.6,0-1-0.1-1.2c-0.1-0.5-0.7-0.5-1.2-0.6c-0.2,0-0.3-0.1-0.3-0.3
			c0-0.2,0-0.2,0.2-0.2c1,0,0.9,0,2.1,0s1.2,0,2.1,0c0.2,0,0.2,0,0.2,0.2c0,0.3,0,0.3-0.5,0.3c-0.6,0.1-0.8,0.2-0.9,0.3
			c-0.2,0.2-0.2,0.6-0.2,1.4v3h6.4v-3c0-0.8-0.1-1.3-0.2-1.4c-0.2-0.2-0.4-0.2-0.9-0.3c-0.4,0-0.5-0.1-0.5-0.3c0-0.2,0-0.2,0.2-0.2
			c0.8,0,0.9,0,2.1,0c1.1,0,1,0,2.1,0c0.2,0,0.2,0,0.2,0.2c0,0.3,0,0.3-0.3,0.3c-0.6,0.1-1.1,0.1-1.2,0.6c-0.1,0.2-0.1,0.7-0.1,1.2
			v7.4c0,0.8,0.1,1.3,0.2,1.4c0.2,0.2,0.5,0.2,1,0.3c0.4,0,0.4,0,0.4,0.3c0,0.2,0,0.2-0.2,0.2c-0.6,0-1.2,0-2.2,0
			c-0.7,0-1.2,0-2.1,0c-0.2,0-0.2,0-0.2-0.3C212.9,73.2,212.9,73.1,213.2,73.1z"/>
	</g>
	<g>
		<path d="M95.4,93.3C95.4,93.4,95.4,93.4,95.4,93.3c-0.6,0.1-0.7,0.1-1.8,0.1c-1.4,0-1.7,0-1.7,0c-0.1,0-0.1,0-0.1-0.1
			c0-0.1,0-0.1,0.2-0.1c0.3,0,0.4-0.1,0.5-0.1c0.1-0.1,0.1-0.3,0.1-0.7v-3.2c0-0.2,0-0.5,0-0.6c-0.1-0.2-0.3-0.2-0.6-0.2
			c-0.1,0-0.1,0-0.1-0.1c0-0.1,0-0.1,0.1-0.1c0.4,0,0.5,0,0.9,0c0.4,0,0.8,0,1,0c0.1,0,0.1,0,0.1,0.1c0,0.2,0,0.1-0.4,0.2
			c-0.4,0.1-0.5,0.1-0.5,0.6v3.3c0,0.7,0,0.7,0.7,0.7c0.4,0,0.7,0,0.9-0.1c0.3-0.1,0.5-0.3,0.6-0.7v-0.1c0-0.1,0.1-0.1,0.1-0.1
			c0.1,0,0.1,0,0.1,0.1L95.4,93.3z"/>
		<path d="M100.8,93.5c-1.4,0-2.4-1-2.4-2.5c0-1.7,1.1-2.8,2.7-2.8c1.5,0,2.4,1,2.4,2.6C103.5,92.3,102.3,93.5,100.8,93.5z
			 M100.8,88.4c-1.1,0-1.9,0.8-1.9,2.2c0,1.4,0.8,2.5,2,2.5c1.1,0,1.9-0.9,1.9-2.1C102.8,89.5,102,88.4,100.8,88.4z"/>
		<path d="M111.5,88.5c-0.2,0-0.4,0.1-0.4,0.1c-0.1,0.1-0.1,0.2-0.1,0.3c0,0.1,0,0.2,0,0.4v4c0,0.1,0,0.1,0,0.2c0,0,0,0.1-0.1,0.1
			c-0.1,0-0.2,0-0.2-0.1l-0.1-0.1l-3.2-4.3l-0.1,3.2v0.2c0,0.2,0,0.4,0,0.5c0,0.2,0.1,0.3,0.5,0.3h0.2c0.2,0,0.2,0,0.2,0.1
			c0,0.1,0,0.1-0.2,0.1h-0.3h-0.5h-0.6c-0.1,0-0.2,0-0.3,0l0,0c-0.1,0-0.1,0-0.1-0.1c0-0.1,0-0.1,0.2-0.1c0.1,0,0.2,0,0.3-0.1
			c0.1,0,0.1,0,0.1,0c0.1,0,0.1-0.1,0.1-0.2c0-0.2,0-0.4,0-0.7l0.1-3.5c-0.2-0.2-0.4-0.2-0.6-0.3c-0.2,0-0.2,0-0.2-0.2
			c0-0.1,0-0.1,0.1-0.1c0.4,0,0.5,0,0.7,0c0.2,0,0.3,0,0.5,0l3.2,4.2l-0.1-3.2c0-0.3,0-0.5,0-0.6c0-0.2-0.2-0.2-0.7-0.3
			c-0.2,0-0.2,0-0.2-0.1s0-0.1,0.1-0.1l0,0h0.3h0.6c0.7,0,0.7,0,0.8,0c0.1,0,0.1,0,0.1,0.1C111.7,88.4,111.7,88.4,111.5,88.5z"/>
		<path d="M118.9,92.5c-0.6,0.6-1.2,0.8-2.2,0.8h-0.1H116h-0.6h-0.3h-0.4h-0.2h-0.1c-0.1,0-0.1,0-0.1-0.1c0-0.1,0-0.1,0.2-0.1
			c0.5-0.1,0.5-0.1,0.5-0.7v-3.1c0-0.3,0-0.6-0.1-0.7c0-0.1-0.2-0.2-0.5-0.2c-0.1,0-0.2,0-0.2,0s0,0,0-0.1c0-0.1,0-0.1,0.6-0.2h0.7
			c0.3,0,0.7,0,1,0c0.7,0,1.1,0,1.5,0.2c0.9,0.3,1.6,1.2,1.6,2.3C119.6,91.3,119.5,92.1,118.9,92.5z M118.2,89
			c-0.2-0.2-0.5-0.3-0.7-0.4c-0.4-0.1-0.7-0.2-1.2-0.2c-0.3,0-0.4,0-0.7,0v3.9c0,0.3,0,0.3,0.1,0.4c0.1,0.1,0.2,0.2,0.3,0.2
			c0.2,0,0.4,0,0.6,0c1.4,0,2.3-0.8,2.3-2.2C119.1,90.1,118.8,89.5,118.2,89z"/>
		<path d="M125.1,93.5c-1.4,0-2.4-1-2.4-2.5c0-1.7,1.1-2.8,2.7-2.8c1.5,0,2.4,1,2.4,2.6C127.9,92.3,126.6,93.5,125.1,93.5z
			 M125.2,88.4c-1.1,0-1.9,0.8-1.9,2.2c0,1.4,0.8,2.5,2,2.5c1.1,0,1.9-0.9,1.9-2.1C127.2,89.5,126.4,88.4,125.2,88.4z"/>
		<path d="M135.9,88.5c-0.2,0-0.4,0.1-0.4,0.1c-0.1,0.1-0.1,0.2-0.1,0.3c0,0.1,0,0.2,0,0.4v4c0,0.1,0,0.1,0,0.2c0,0,0,0.1-0.1,0.1
			c-0.1,0-0.2,0-0.2-0.1l-0.1-0.1l-3.2-4.3l-0.1,3.2v0.2c0,0.2,0,0.4,0,0.5c0,0.2,0.1,0.3,0.5,0.3h0.2c0.2,0,0.2,0,0.2,0.1
			c0,0.1,0,0.1-0.2,0.1h-0.3h-0.5h-0.6c-0.1,0-0.2,0-0.3,0l0,0c-0.1,0-0.1,0-0.1-0.1c0-0.1,0-0.1,0.2-0.1c0.1,0,0.2,0,0.3-0.1
			c0.1,0,0.1,0,0.1,0c0.1,0,0.1-0.1,0.1-0.2c0-0.2,0-0.4,0-0.7l0.1-3.5c-0.2-0.2-0.4-0.2-0.6-0.3c-0.2,0-0.2,0-0.2-0.2
			c0-0.1,0-0.1,0.1-0.1c0.4,0,0.5,0,0.7,0s0.3,0,0.5,0l3.2,4.2l-0.1-3.2c0-0.3,0-0.5,0-0.6c0-0.2-0.2-0.2-0.7-0.3
			c-0.2,0-0.2,0-0.2-0.1s0-0.1,0.1-0.1l0,0h0.3h0.6c0.7,0,0.7,0,0.8,0c0.1,0,0.1,0,0.1,0.1C136.1,88.4,136.1,88.4,135.9,88.5z"/>
	</g>
	<g>
		<g>
			<path d="M125.5,33.1c0,0.3-0.4,0.1-0.4,0.4c-0.3,0-0.6,0-0.7,0.1c-0.2-0.2,0.4-0.4,0.6-0.5c-0.2-0.1-0.4-0.1-0.6-0.1
				c0-0.2,0.2-0.1,0.3-0.1C125,33,125.4,33.1,125.5,33.1z"/>
			<path d="M121.2,33.2c-0.1,0.3-0.3,0.5-0.6,0.7C120.9,33.6,120.9,33.2,121.2,33.2z"/>
			<path d="M99.8,33.4C99.8,33.5,99.8,33.5,99.8,33.4C99.8,33.4,99.8,33.4,99.8,33.4z"/>
			<path d="M125.3,33.4c0.1,0,0.1,0,0.2,0C125.5,33.6,125.3,33.6,125.3,33.4z"/>
			<path d="M105.5,33.7c0-0.1,0.1,0,0.2,0C105.7,33.8,105.5,33.7,105.5,33.7z"/>
			<path d="M119.5,34.1C119.5,34.1,119.5,34.1,119.5,34.1C119.3,34.1,119.5,33.8,119.5,34.1z"/>
			<path d="M106.4,34.1c0.4-0.1,0.6,0.5,0.4,0.7C106.5,34.6,106.5,34.3,106.4,34.1z"/>
			<path d="M124.7,34.3C124.8,34.3,124.8,34.4,124.7,34.3L124.7,34.3C124.7,34.4,124.7,34.4,124.7,34.3z"/>
			<path d="M119.5,34.9c0,0.1-0.1,0.1-0.2,0.1C119.4,34.8,119.5,34.9,119.5,34.9z"/>
			<path d="M99,35.2c0,0.2-0.1,0.1-0.2,0.2C98.7,35.4,98.8,35.2,99,35.2z"/>
			<path d="M109,36L109,36C109,36,109,36.1,109,36C109,36.1,109,36.1,109,36C109,36.1,109,36,109,36z"/>
			<path d="M115.4,36.8c-0.1,0.2-0.4,0.3-0.6,0.4C114.8,37,115.2,36.9,115.4,36.8z"/>
			<path d="M108.8,37.1L108.8,37.1C108.9,37.2,108.9,37.2,108.8,37.1C108.8,37.2,108.8,37.2,108.8,37.1
				C108.8,37.2,108.8,37.2,108.8,37.1z"/>
			<path d="M112.2,38.6c0.2-0.1,0.2,0.1,0.4,0.1c-0.1,0.1-0.1,0.2-0.3,0.1C112.2,38.7,112.2,38.7,112.2,38.6z"/>
			<path d="M96.9,38.8C97,38.7,97,38.9,96.9,38.8C96.9,38.8,96.9,38.8,96.9,38.8z"/>
			<path d="M126.6,38.9C126.8,38.9,126.6,39.2,126.6,38.9L126.6,38.9z"/>
			<path d="M97.1,38.9c0.1,0.1,0,0.4-0.1,0.5c-0.2,0-0.1-0.3-0.1-0.4C97,39,97.1,39,97.1,38.9z"/>
			<path d="M97.2,40.1c0.1,0,0.1,0.1,0.1,0.2C97.2,40.2,97.1,40.1,97.2,40.1z"/>
			<path d="M126.1,40.3C126.1,40.4,126,40.4,126.1,40.3C126,40.3,126,40.3,126.1,40.3z"/>
			<path d="M124.9,41.5c-0.1,0.2-0.3,0.2-0.5,0.3C124.5,41.6,124.6,41.6,124.9,41.5z"/>
			<path d="M123,42c0,0.2-0.4,0.2-0.6,0.2C122.4,42,122.8,42.1,123,42z"/>
			<path d="M124.7,42.7c0,0.1-0.1,0.2-0.3,0.1C124.4,42.7,124.6,42.7,124.7,42.7z"/>
			<path d="M124.2,42.9c-0.2,0.1-0.5,0.4-0.7,0.1C123.6,42.8,124,42.9,124.2,42.9z"/>
			<path d="M104,43C104,42.9,104.1,42.9,104,43C104,43,104,43,104,43C104,43,104,43,104,43z"/>
			<path d="M121.9,43.1c0.2,0,0.3,0.1,0.5,0C122.4,43.3,121.9,43.3,121.9,43.1z"/>
			<path d="M109.5,43.2C109.5,43.2,109.6,43.2,109.5,43.2C109.6,43.3,109.5,43.3,109.5,43.2C109.5,43.3,109.5,43.3,109.5,43.2z"/>
			<path d="M107.4,44.7c0,0.1-0.1,0.2-0.2,0.1C107.2,44.7,107.3,44.7,107.4,44.7z"/>
			<path d="M104.7,48.4c0,0.3-0.3,0.3-0.5,0.4C104.2,48.6,104.5,48.5,104.7,48.4z"/>
			<path d="M105.2,48.7c0,0.2-0.1,0.3-0.4,0.3c-0.3,0.2-0.7,0.4-0.9,0.4c0-0.1,0.1-0.1,0.1-0.2C104.6,49.2,104.7,48.8,105.2,48.7z"
				/>
			<path d="M104,48.9c0.2,0.1-0.3,0.4-0.6,0.4C103.5,49,103.8,49,104,48.9z"/>
			<path d="M121,50c0.1,0,0.2,0.1,0.2,0.2C121.1,50.1,121,50.1,121,50z"/>
			<path d="M121.6,50c0.1-0.1,0.3,0,0.3,0.2C121.8,50.1,121.7,50,121.6,50z"/>
			<path d="M110.7,38.1c0.2,0,0.1,0.2,0.4,0.1c-0.3-0.3-0.7-0.8-1-1.1c0.3-0.1,0.4,0.4,0.7,0.4c0.1,0.2,0.2,0.3,0.4,0.4
				c0.1-0.1,0.1-0.3,0.3-0.3c0.1,0,0,0.2,0,0.2c0.2,0.1,0.4-0.2,0.4,0.1c0.2-0.3,0.5-0.7,0.4-1c0.1,0.1,0.2-0.1,0.3-0.1
				c0.3-0.1,0.6,0.1,0.7,0.1c0,0.3,0.5,0.2,0.5,0.6c-0.5,0-0.6-0.4-0.9-0.3c-0.1,0-0.4,0.2-0.6,0.4v0.2c-0.1,0.1-0.3,0.4-0.4,0.7
				c-0.2,0-0.4-0.1-0.5-0.2c0,0.2,0.3,0.4,0.4,0.6c0.5,0.2,0.7,0.6,1.3,0.7c0.1,0.1,0.1,0.1,0.2,0.2c0.3-0.1,0.4-0.4,0.7-0.4
				c0.2-0.1,0.5-0.2,0.7-0.3c0-0.1-0.1-0.2-0.1-0.3c-0.2-0.1,0,0.2-0.2,0.1c-0.1-0.2,0-0.2,0-0.4c0-0.1-0.1-0.1-0.1-0.2
				c-0.2,0-0.4,0-0.6,0c-0.1-0.1-0.1-0.2,0-0.3c-0.7,0-0.9,0.5-1.4,0.7c0.3-0.7,1.1-0.7,1.7-1c0.2,0,0.2,0.2,0.3,0.3
				c0.2,0,0.3-0.3,0.6-0.3c0.1,0.1,0,0.1,0,0.2c0,0.1,0.2,0,0.2,0c0.1,0,0,0.2,0,0.3s0.3,0,0.2,0.2c0.3,0,0.4-0.3,0.7-0.3
				c0-0.6,0.4-0.8,0.3-1.3c0.3,0.1,0.2-0.4,0.5-0.2c-0.1,0.4-0.4,0.7-0.5,1.2c0.5-0.2,0.8-0.5,1.2-0.7c0.2-0.5,0.3-0.9,0.6-1.3
				c0-0.1-0.1-0.1-0.1-0.2c0.2-0.1,0.4-0.4,0.6-0.3c0.1,0.1-0.1,0.2-0.1,0.3c-0.1,0.2-0.2,0.3-0.3,0.4c-0.1,0.2-0.2,0.6-0.3,0.7
				c0.2,0,0.3-0.2,0.4-0.3c0.4-0.2,0.7-0.4,0.9-0.7c0.1-0.2,0.1-0.7,0.5-0.7c0,0.2-0.2,0.3-0.2,0.6c0,0.1,0.1,0,0.2,0
				c-0.1,0.1-0.1,0.2-0.2,0.3c0.3-0.2,0.7-0.3,0.7-0.7c0.3-0.1,0.5-0.3,0.7-0.4c0.1-0.2,0.1-0.4,0.3-0.5c0,0.1,0.1,0.1,0,0.2
				c0.2,0,0.5-0.1,0.4,0.2c0.2-0.1-0.1-0.1,0-0.2c0.1,0,0.1,0.2,0.2,0.2c0.2-0.1,0.5-0.1,0.7-0.2c0-0.1,0-0.1,0-0.1
				c0.4-0.2,0.5-0.7,0.9-0.7c0.1-0.1,0.1-0.2,0.1-0.3c0.2,0,0.2,0.1,0.4,0c-0.3,0.5-0.8,0.6-1,1.1c0.7,0,1.3,0.1,1.8-0.1
				c-0.1,0.3,0.2,0.3,0.4,0.4c-0.2,0.3,0.5,0.3,0.7,0.5c0.6,0,1-0.2,1.5-0.4c0-0.1,0-0.2,0.1-0.2c-0.1-0.3-0.3-0.2-0.3-0.5
				c-0.3,0.2-0.6-0.1-0.8-0.2c0.1-0.1,0.1-0.2,0.1-0.3c0.4,0.1,0.7,0.3,1.2,0.4c0,0.1,0.1,0.2,0.1,0.3c0.8,0.2,1.1,0.9,1.6,1.4
				c0.1,0.4,0.3,0.7,0.5,1c0,0.1,0,0.1,0,0.2c0.3,0.3,0.2,0.9,0.3,1.4c-0.3,0.8-0.1,1.5-0.4,2.2c-0.1,0.2-0.2,0.4-0.3,0.6
				c-0.1,0.2-0.2,0.5-0.3,0.6c0,0.1-0.1,0-0.2,0.1c-0.1,0.1-0.1,0.3-0.2,0.4c-0.1,0.2-0.3,0.2-0.5,0.4c-0.3,0.3-0.5,0.5-0.7,0.7
				c-0.1,0.1-0.3,0.2-0.5,0.3c-0.5,0.3-1.1,0.4-1.6,0.7c-0.4,0-0.7,0.2-1.2,0.3c-0.3,0-0.6,0-0.8,0c-1.7,0.2-3.5,0-4.9-0.3
				c0.3,0.2,0.4,0.5,0.7,0.7c0.3,0.4,0.5,0.7,0.7,1.2c0.2,0.3,0.4,0.5,0.4,0.8c-0.5-0.1-0.5-0.7-0.8-0.9c-0.1,0.5-0.3,0.8-0.2,1.2
				c0.1,0.4,0.5,0.6,0.5,0.9c0.6,0.4,0.3-0.8,0.6-1.1c0.4,0.1,0.3,0.7,0.7,0.7c0,0.1-0.1,0.1,0,0.2c0.2,0.3,0.5,0.5,0.5,0.8
				c0.3,0.1,0.3,0.5,0.6,0.6c0,0.1-0.1,0.1-0.1,0.2c0.4,0,0.7,0.3,0.8,0.7c-0.2,0-0.3-0.2-0.5-0.3c-0.1,0.1,0.1,0.2,0,0.2
				c-0.2,0.1-0.3-0.4-0.4-0.4c-0.3,0-0.1,0.4-0.3,0.6c-0.2,0-0.2-0.2-0.3-0.3c0.1,0,0.2,0,0.2-0.1c0-0.3-0.2-0.7-0.1-0.9
				c-0.2-0.4-0.5-0.7-0.7-1c-0.3,0.2-0.3,0.7-0.2,1c-0.3,0.7,0.6,0.8,0.7,1.2c0,0.2-0.2,0.1-0.2,0.2c-0.7,0.2-1-0.5-1.5-0.9
				c-0.2-0.2-0.3-0.3-0.4-0.5c-0.2-0.3-0.6-0.7-0.7-1c-0.1-0.1,0-0.3-0.1-0.4c-0.1-0.3-0.4-0.6-0.5-0.8c-0.4-0.5-0.7-1.1-1.1-1.6
				c-0.1-0.6-0.7-0.7-1-1.2c-0.2,0-0.4-0.1-0.6-0.2c-0.5,0.4-0.9,0.9-1.6,0.9c-0.7,0-1-0.7-1.4-1.2c-0.5,0.1-0.7,0.4-0.9,0.7
				c-0.6,0.5-1,0.9-1.4,1.6c-0.2,0.3-0.3,0.7-0.7,0.7c0,0.2,0,0.2,0,0.3c-0.1,0.1-0.2,0.1-0.3,0.1c0,0.2-0.1,0.3-0.1,0.5
				c-0.3,0.4-0.5,0.8-0.8,1c0,0.1-0.1,0.3-0.1,0.4c0,0-0.1,0-0.2,0c-0.3,0.4-0.7,0.6-0.8,0.9c-0.1,0-0.1,0-0.2,0
				c0.1,0.1,0,0.3-0.2,0.3c0-0.1,0.1-0.1,0.1-0.2c-0.1-0.1-0.5,0-0.5-0.3c-0.1,0.2-0.6,0.2-0.7,0.2c0.2-0.2,0.5-0.3,0.7-0.5
				c0.1,0,0.2,0,0.2,0c0.3-0.4,0.7-0.7,0.8-1c-0.6-0.3-1,0.2-1.5,0.1c0.2-0.5,1.1-0.2,1.4-0.7c0.7,0.2,0.7-0.7,0.9-1
				c-0.4,0-0.9,0-1.3,0.2c-0.1-0.2,0.1-0.3,0.1-0.4c0.5,0,1-0.3,1.5-0.2c0.2-0.3,0.3-0.6,0.5-0.7c-0.5-0.1-1.2-0.1-1.5,0.3
				c-0.1-0.3,0.4-0.4,0.3-0.7c0.1-0.1,0.2-0.2,0.3-0.2c0-0.5,0.5-0.5,0.6-0.9c-1.1,0.3-2.7,0.7-4.1,0.5c-0.8-0.1-1.7-0.4-2.3-0.7
				c-0.2,0-0.1,0.1-0.2,0c-1-0.4-1.8-0.9-2.5-1.6c-0.2-0.2-0.3-0.6-0.6-0.7c-0.2-0.5-0.6-0.7-0.7-1.2c0.2,0.1,0.5,0.1,0.6,0.3
				c0.3-0.2,0.4-0.7,0.6-1c0-0.1-0.1,0.1-0.2,0c0.1-0.3,0.3-0.6,0.1-0.8c0-0.1-0.2,0.1-0.2,0c-0.1-0.2,0-0.4-0.1-0.5
				c-0.1,0.1-0.3,0.1-0.4,0.2c-0.2,0.2-0.2,0.6-0.6,0.7c0.2-0.6,0.5-1,0.9-1.2c0-0.3,0.1-0.6,0.2-0.7c0-0.4,0.2-0.5,0.2-0.8
				c-0.3,0-0.1,0.6-0.5,0.6c-0.1-0.2,0.1-0.3,0-0.4c-0.6,0-0.7,0.5-1.1,0.6c0-0.3,0.2-0.4,0.2-0.7c0.1,0,0.1,0.1,0.2,0.1
				c0.2-0.1,0.3-0.2,0.6-0.2c0.2-0.3,0.6-0.3,0.7-0.6c0.1,0,0.1,0.2,0.2,0.1c0.5-0.3,0.7-0.7,1.1-0.8c-0.2-0.3-0.8-0.4-1.3-0.4
				c-0.2,0-0.3,0.2-0.5,0.1c0-0.2,0.1-0.2,0.2-0.3c0.6,0,1,0.2,1.5,0.3c0.2-0.4,0.7-0.5,1.2-0.6c0.1,0.1-0.2,0.1-0.2,0.3
				c0.2,0,0.2-0.1,0.3-0.1c-0.1-0.4-0.4-0.6-0.6-0.8c-0.1,0-0.2-0.1-0.3-0.1c0-0.2,0.3-0.2,0.5-0.2c0.1,0.5,0.5,0.6,0.7,0.9
				c0.1,0,0.1,0,0.1,0.1c0.4-0.1,1-0.1,1.4-0.1c-0.1-0.3-0.6-0.1-0.7-0.2c0.1-0.3,0.6-0.1,0.7-0.2c-0.1-0.2-0.3-0.3-0.3-0.6
				c0.5,0.1,0.5,0.7,1,0.7c0,0.1-0.2,0.1-0.1,0.2c0.4,0.2,0.9,0.5,1.4,0.5c0-0.2-0.2-0.1-0.3-0.1c-0.2-0.3-0.7-0.3-0.9-0.5
				c0.3,0,0.7,0.2,1.1,0.3c0.3-0.3-0.3-0.6-0.1-0.7c0.1,0,0.1,0.1,0.2,0c-0.1,0.3,0.1,0.4,0.2,0.7c0.1,0.2,0,0.5,0.1,0.7
				c0.1,0.2,0.4,0.3,0.6,0.4c0.2,0.1,0.5,0.3,0.7,0.2c0-0.2-0.3,0-0.2-0.2c0.5,0.1,0.7,0.5,1,0.7c-0.1,0.2-0.3-0.1-0.5-0.1
				c0.1,0.5,0.7,0.5,0.8,0.8c0.2,0,0.2,0.2,0.4,0.2c-0.1-0.3-0.5-0.3-0.6-0.7c0.2,0,0.5,0.2,0.7,0.4c0.1-0.5-0.2-0.7-0.3-1.2
				c0.5,0.2,0.5,0.9,0.6,1.5c0,0.1,0.2,0.1,0.2,0.2c0,0.2,0,0.5,0.1,0.6c0.2,0,0.2-0.1,0.3-0.1c0.2,0.1,0.3,0.3,0.6,0.4
				c0.3-0.2-0.1-0.7,0-0.9c0.1,0.1,0.3,0.1,0.4,0.3c-0.1,0-0.1-0.1-0.2-0.1c0.1,0.5,0,0.8,0.2,1.1c0.1,0.1,0.3,0.2,0.4,0.3
				c0.2,0.2,0.4,0.4,0.7,0.6c0.1,0.1,0.1,0.2,0.2,0.2C111.4,38.6,110.8,38.5,110.7,38.1z M108.5,44c-0.4,0-0.7,0.2-1,0.2
				c-0.1,0.3-0.3,0.5-0.5,0.7c0.2,0.1,0.1,0.2,0.1,0.3c0.4,0,0.6-0.2,0.9-0.1c0.4-0.3,0.6-0.7,0.8-1c-0.3,0-0.3,0.4-0.6,0.4
				c-0.1,0.1-0.2,0.4-0.4,0.4C108.3,44.4,108.3,44.3,108.5,44z M100.7,34.4C100.8,34.4,100.8,34.4,100.7,34.4
				C100.7,34.3,100.7,34.3,100.7,34.4z M100.3,34.5c0-0.1,0.4-0.1,0.3-0.2C100.5,34.5,100.1,34.5,100.3,34.5z M124.5,34.6
				c-0.2,0-0.4-0.1-0.6-0.1C124,34.6,124.4,34.8,124.5,34.6z M125.9,34.9c-0.1,0.1-0.1,0.3-0.2,0.3c0.1,0.1,0.2,0.3,0.4,0.3
				c0-0.1-0.2-0.2,0-0.2c0.2,0,0.3,0.1,0.4,0.1c-0.1,0.3,0.3,0.3,0.1,0.5c0.4,0.1,1,0.2,1.4,0.2c0-0.3-0.3-0.3-0.3-0.6
				c0.1,0,0.2,0.1,0.3,0.1c-0.1-0.5-0.4-0.7-0.7-0.9c-0.2,0.1-0.6,0-0.7-0.1C126.4,34.8,126.1,34.9,125.9,34.9z M103.9,43.2
				c0.5-0.1,0.8,0,1.4,0c-0.1-0.3-0.7,0-0.9-0.3c0.3,0,0.7,0,0.7-0.1c0-0.2-0.1-0.4-0.2-0.5c-0.2-0.2-0.7,0-0.8-0.3
				c0.7,0,1.2,0,1.6,0.2c-0.2,0-0.4,0-0.4,0.1c0.2,0.3,0.4,0.5,0.7,0.6c0.1-0.2,0.4-0.1,0.5-0.1c-0.1,0.1-0.3,0.1-0.5,0.2
				c0.2,0.1,0.9,0,0.9-0.2c0,0.1-0.2,0-0.3,0c0-0.1,0.2-0.1,0.2-0.2c-0.1,0-0.2-0.2-0.2-0.3c-0.3-0.1-0.7,0-0.9-0.1
				c0.3-0.2,0.6-0.1,0.9-0.1c0.7-0.1,1.3-0.6,2.1-0.6c0.1,0-0.1-0.1,0.1-0.1c0.3,0.1,0.7,0,0.8-0.1c0.1-0.1-0.1-0.1,0-0.3
				c0.5-0.2,0.9-0.4,1.2-0.7c-0.1-0.3-0.6-0.5-0.7-0.7c-0.1-0.1-0.1-0.2-0.2-0.3c-0.1-0.1-0.3-0.1-0.4-0.3c0-0.1,0-0.2-0.1-0.3
				c-0.5-0.3-0.8-0.6-1-1c-0.3-0.1-0.3-0.3-0.5-0.6c-0.1,0-0.1,0.1-0.2,0c0-0.1-0.1-0.1-0.1-0.2c-0.4-0.1-0.5-0.4-0.7-0.5
				c-0.2-0.4-0.7-0.5-1-0.7c-0.8-0.6-2-1.1-3.3-1.1c-0.1,0-0.1-0.2-0.2-0.1c-0.1,0.1-0.1,0.2-0.3,0.2c-0.1,0-0.2-0.1-0.3-0.1
				c-0.4,0.3-1,0.5-1.4,0.7c-0.1,0-0.1-0.1-0.2,0c-0.2,0.6-0.7,1-0.9,1.8c-0.2,0-0.4,0.3-0.3,0.5c0-0.1,0.1-0.2,0.1-0.1
				c-0.1,0.5,0.1,0.7,0,1c0.3,0.6,0.5,1.2,0.8,1.6c0.5,0.5,1,0.7,1.5,1.1c-0.2,0-0.2-0.1-0.3,0c0.2,0.6,0.3,1.1,0.7,1.4
				c0,0.1-0.2,0-0.2,0.1c0.5,0.3,1,0.4,1.7,0.4c-0.3-0.3-1.1-0.2-1.4-0.5c0.3-0.1,0.8,0.2,1.2,0.1c0.4-0.7-0.5-0.7-0.7-1.1
				c-0.2-0.1-0.7-0.1-0.7-0.4c0.4,0.2,0.8,0.2,1.3,0.3c0.2,0,0.5,0,0.6,0.2c-0.3-0.1-0.4,0-0.6,0C103.1,42.6,103.6,42.9,103.9,43.2z
				 M121.8,35C121.9,35,122,35,121.8,35c-0.6,0.3-1.1,0.5-1.6,0.7c-0.3,0.2-0.6,0.3-0.8,0.5c-0.6,0.4-1,0.9-1.6,1.1
				c0,0.1,0,0.2-0.1,0.2c-0.8,0.7-2.1,1.1-2.8,2c0.1,0.4,0.1,0.7,0.1,1c0.2,0,0.2,0,0.3,0c0.1,0.2,0.4,0.1,0.5,0.3
				c0.6,0.1,1.1,0.4,1.5,0.7c0.2,0.1,0.5,0,0.5,0.3c-0.4,0.1-0.7-0.2-1-0.2c-0.3,0-0.5,0.2-0.7,0.1c0.2,0.3-0.3,0.3-0.3,0.6
				c0.4,0.1,0.7,0.4,1.2,0.2c0.1,0,0,0.1,0,0.1c0.5-0.1,0.7-0.4,1-0.6c0-0.1,0.1-0.2,0.2-0.2c0.3,0.1,0.7,0.1,0.8,0.3
				c-0.4,0.1-1.2,0.1-1.3,0.5c0.6,0.2,1.3,0.5,1.9,0.4c0.1-0.2,0.4-0.3,0.5-0.6c-0.1-0.2-0.6-0.1-0.7-0.3c0.6,0.1,1.4,0.1,1.9,0.3
				c-0.7,0.1-1.2,0.2-1.5,0.7c0,0.1,0.3,0,0.3,0.2c-0.1,0-0.3-0.1-0.3,0.1c0.2-0.1,0.4,0.1,0.5,0c-0.1,0-0.2-0.2-0.1-0.1
				c0.4,0,0.4,0.3,0.7,0.3c0.1-0.1-0.1-0.2,0.1-0.2c0.1,0,0.2,0.1,0.4,0.1c0.3-0.2,0.6-0.5,0.7-0.8c-0.1-0.1-0.5,0-0.6-0.2
				c0.4,0,0.7,0,1,0.1c-0.1,0.1-0.1,0.2-0.2,0.3c-0.5,0.1-0.6,0.5-0.7,0.8c0.4,0,1.1,0.1,1.7-0.1c0.1-0.1,0-0.1,0-0.2
				c0.6-0.1,0.4-0.8,0.7-1.2c0.1,0,0.3-0.1,0.4,0c-0.3,0.5-0.7,0.7-0.7,1.3c0.7,0,1.2-0.3,1.7-0.5c0-0.1-0.1-0.1-0.1-0.3
				c0.1-0.1,0.2,0,0.2-0.2c-0.1-0.3,0.1-0.6,0.1-0.8c-0.1-0.1-0.2,0-0.2-0.1c0.1-0.2,0.3-0.3,0.5-0.4c0,0.1,0,0.2,0.1,0.2
				c-0.2,0.3-0.3,0.7-0.3,1c0,0.1,0.3,0,0.3,0.1c0,0.2-0.3,0-0.3,0.2c0.3,0.1-0.1,0.3,0.1,0.3c0.2,0,0.2-0.2,0.4-0.2
				c-0.2-0.3,0.2-0.3,0.3-0.5c-0.1-0.1-0.2,0.1-0.3,0c0.3-0.3,0.9-0.5,0.7-0.9c-0.2-0.5-0.3-0.8-0.4-1.2c0.1,0,0-0.1,0.1-0.1
				c0.2,0,0.2,0.1,0.3,0.2c-0.2,0.4,0.2,0.7,0.2,1c0.2,0.1,0.3-0.2,0.4-0.1c-0.1,0.2-0.2,0.4-0.1,0.7c0.2,0,0.2-0.2,0.1-0.4
				c0.1-0.1,0.2-0.2,0.4-0.1c0-0.5,0.4-0.5,0.5-0.8c-0.3-0.7-0.7-1-1-1.6c-0.1,0-0.2,0-0.2-0.1c0-0.2,0-0.4,0.1-0.6
				c0.3,0.4,0.4,0.8,0.6,1.2c0.4,0.1,0.4,0.7,0.8,0.7c-0.2-0.4,0.4-0.4,0.1-0.7c0.1,0,0.1,0,0.2,0c0-0.2,0-0.3-0.1-0.5
				c0.1-0.1,0.1-0.2,0.1-0.2c0-0.6-0.5-0.7-0.7-0.8c-0.2-0.2-0.3-0.5-0.6-0.6c-0.1,0-0.2,0-0.3,0c0-0.3-0.3-0.2-0.4-0.3
				c-0.6-1.7-2.3-2.5-4.6-2.1c0-0.1,0.1-0.2-0.1-0.2C121.9,34.9,121.8,34.9,121.8,35z M99.8,35.2c0.1,0,0.2-0.1,0.2-0.1
				C99.8,35.1,99.8,35.1,99.8,35.2z M120.3,35.6c0.2,0,0.4,0,0.4-0.2C120.5,35.4,120.3,35.4,120.3,35.6z M117.4,36.5
				c0.4-0.3,0.8-0.5,1.2-0.9C118.1,35.9,117.8,36.1,117.4,36.5z M126.4,35.9C126.4,35.8,126.4,35.8,126.4,35.9
				C126.3,35.8,126.3,35.9,126.4,35.9z M128,36.4c-0.5-0.2-0.9-0.3-1.4-0.2c0.1,0.4,0.2,0.6,0.3,0.9c0.5,0.4,1,0.7,1.4,1.1
				c0.1-0.1,0.1-0.5,0-0.6c0-0.1,0.2-0.1,0.2-0.2c0-0.1-0.3,0-0.2-0.2c0-0.1,0.2,0,0.1-0.2C128.1,37.2,128.1,36.6,128,36.4z
				 M126.6,36.6c0,0.1,0,0.3,0.2,0.1c-0.1-0.2-0.2-0.5-0.4-0.6C126.3,36.3,126.5,36.5,126.6,36.6z M98.7,36.6c0-0.1,0.2-0.3,0.1-0.4
				C98.8,36.3,98.6,36.5,98.7,36.6z M98.4,37.2c0.1-0.1,0.4-0.4,0.1-0.5C98.5,36.8,98.4,37,98.4,37.2z M109.4,37.7
				c-0.1,0-0.1-0.2-0.3-0.2C109.1,37.6,109.3,37.8,109.4,37.7z M110.1,38.5c0.3,0.2,0.3,0.6,0.7,0.6c-0.2-0.3-0.7-0.5-0.8-0.7
				C109.8,38.5,110,38.5,110.1,38.5z M112.3,40c0,0,0.3-0.1,0.5-0.1c-0.2-0.1-0.6-0.1-0.7-0.4c0.2-0.2-0.2-0.4-0.5-0.5
				C111.5,39.6,112,39.7,112.3,40z M114.6,39.5C114.6,39.6,114.6,39.6,114.6,39.5c-0.3-0.1-0.2-0.4-0.4-0.5c-0.2,0,0.2,0.2,0,0.3
				c-0.2,0-0.2-0.2-0.2-0.3c-0.4,0.1-0.7,0.3-0.9,0.5c0.2,0.4,0.1,1,0.3,1.4c0.2-0.2,0.6-0.3,0.8-0.5c0-0.3-0.1-0.4,0-0.6
				c0.1,0.1,0.1,0.3,0.3,0.3c0.2-0.1-0.1-0.2,0-0.2C114.9,40.2,114.8,39.7,114.6,39.5z M111,39.2C110.9,39,110.9,39.3,111,39.2
				L111,39.2z M110.7,39.8c0-0.1-0.2-0.3-0.2-0.2C110.6,39.6,110.6,39.7,110.7,39.8z M99.3,40.2c-0.1-0.1-0.1,0-0.2,0
				c-0.2-0.3-0.4-0.7-0.7-0.3c-0.1,0.4-0.2,0.6,0,0.9c0.5,0,0.6,0.7,1,0.7C99.5,41.3,99.6,40.6,99.3,40.2z M112.6,40.2
				C112.6,40.2,112.7,40.2,112.6,40.2C112.8,40.2,112.5,40.1,112.6,40.2C112.6,40.2,112.6,40.2,112.6,40.2z M99.9,41.9
				c0.5,0.1,0.8,0.7,1.3,0.6c0.1-0.5-0.2-0.6-0.4-0.7c-0.3-0.3-0.7-0.8-1.1-0.8C99.5,41.3,99.7,41.7,99.9,41.9z M113.4,41.2
				c-0.1,0.2,0.1,0.3,0.1,0.5c-0.1,0.3-0.4,0.6-0.1,0.7c0.2,0,0.4-0.1,0.6-0.2c0.1-0.5,0.2-0.7,0.1-1.4
				C113.8,40.9,113.6,41.1,113.4,41.2z M110.9,41.6c0.4,0,0.7,0.2,1.1,0.2c0.1,0,0.2-0.1,0.4-0.2c0.1-0.1,0.3-0.1,0.4-0.2
				C112.3,41.1,111.2,41.3,110.9,41.6z M109,41.8c0.4,0.2,0.6,0,0.7-0.2C109.6,41.7,109.1,41.6,109,41.8z M112.7,41.8
				c0.1,0,0.2,0,0.3-0.1C112.9,41.7,112.7,41.6,112.7,41.8z M111.4,41.9c-0.3-0.1-0.7,0-0.9-0.1c-0.2,0.1-0.5,0.3-0.6,0.5
				c-0.2,0.1-0.5,0.2-0.6,0.4c0.5,0.1,0.9-0.1,1.3,0.1c0.2-0.1,0.5-0.2,0.7-0.4c-0.3-0.1-0.5,0.5-0.7,0.2c0.2-0.4,0.6-0.4,0.9-0.6
				c0.1,0,0.2,0.1,0.2,0.1C111.7,42,111.5,41.9,111.4,41.9z M108.2,41.9c-0.3,0.1-0.6,0.2-0.8,0.3c-0.1,0-0.3-0.1-0.3,0.1
				c0.3-0.1,0.7,0.1,0.9,0.1c0.4,0,0.7-0.3,0.9-0.4C108.7,41.7,108.3,41.8,108.2,41.9z M100.3,42.3c-0.1,0-0.3-0.2-0.3-0.1
				C100.1,42.2,100.2,42.5,100.3,42.3z M107.6,42.6c0-0.2-0.1-0.2-0.2-0.2C107.3,42.5,107.4,42.6,107.6,42.6z M116.1,42.6
				c0-0.1-0.1-0.2-0.2-0.1C115.9,42.5,116.1,42.5,116.1,42.6z M100.8,42.6c-0.1,0-0.2-0.2-0.2,0C100.7,42.6,100.8,42.8,100.8,42.6z
				 M113.3,42.7c-0.1-0.1-0.3-0.2-0.3,0c-0.4,0-0.5,0.1-0.7,0.2c-0.3,0.1-0.6,0.2-0.7,0.4c0.1,0.1,0.5,0,0.6,0.1
				c0-0.1,0-0.2,0.1-0.1c0.3,0.1,0.5,0.6,0.7,0.3c-0.2,0-0.6-0.2-0.5-0.4c0.2,0,0.3,0.2,0.5,0.2c0.2-0.1,0.3-0.3,0.5-0.4
				c0,0.2-0.2,0.3-0.1,0.4c0.2-0.2,0.5-0.3,0.5-0.7C113.5,42.6,113.4,42.7,113.3,42.7z M100.9,42.7c0,0,0.2,0.1,0.2,0
				C101,42.7,100.9,42.6,100.9,42.7z M113.6,43.3c0.2-0.1,0.2-0.4,0.5-0.4c0-0.2-0.2-0.1-0.1-0.2c0,0,0.1-0.1,0-0.1
				C113.9,43,113.6,43.1,113.6,43.3z M118.5,42.9c0.1,0.1,0.3,0.1,0.5,0.1C118.9,42.9,118.5,42.7,118.5,42.9z M108.6,43
				c0,0.1,0.1,0.2,0,0.3c-0.3,0-0.5,0.2-0.7,0.5c0.5-0.1,0.8-0.1,1.3,0c0.3-0.2,0.5-0.5,0.7-0.7c-0.2,0-0.3,0.3-0.5,0.2
				c0-0.2,0.3-0.2,0.3-0.4C109.4,42.8,108.9,42.8,108.6,43z M124,43.3c0.3,0,0.6,0,0.7-0.2C124.4,43.2,124.1,43.1,124,43.3z
				 M105.3,43.4c-0.4,0-0.8,0-1.3-0.1C104.1,43.6,104.9,43.6,105.3,43.4z M102.3,43.4c-0.1,0-0.3-0.1-0.3,0S102.3,43.5,102.3,43.4z
				 M102.7,43.6c-0.1,0-0.1-0.1-0.2,0C102.6,43.7,102.8,43.7,102.7,43.6z M117.1,44.3c0-0.2-0.1-0.3,0-0.6c-0.1-0.1-0.3-0.2-0.5-0.2
				C116.6,43.9,116.8,44.1,117.1,44.3z M103.1,43.7C103,43.7,103,43.6,103.1,43.7C102.9,43.7,103.1,43.8,103.1,43.7z M117.4,44.4
				C117.5,44.2,117.2,44.3,117.4,44.4L117.4,44.4z M117.6,44.4c0,0.5,0,0.8,0.3,1c0.1,0.3,0.2,0.7,0.6,0.7c0.1-0.4,0.1-0.9,0-1.3
				c-0.3-0.2-0.5-0.4-0.7-0.7c-0.1-0.1-0.2,0.1-0.2,0c-0.1-0.1,0.2-0.4-0.2-0.4C117.3,44,117.4,44.3,117.6,44.4z M108.7,44.8
				c0.1,0,0.3-0.3,0.1-0.2C108.8,44.7,108.5,44.8,108.7,44.8z M108.3,45.6c0-0.1,0.1-0.1,0.1-0.2C108.2,45.4,108.1,45.6,108.3,45.6z
				 M108.6,45.6c0-0.1,0.1-0.2,0-0.2C108.6,45.5,108.6,45.6,108.6,45.6z M107.8,46.2c0.2,0,0.3-0.5,0.2-0.4
				C107.9,45.9,107.8,46,107.8,46.2z M107.7,47.1c0-0.2,0.3-0.2,0.2-0.5h-0.1C107.8,46.8,107.5,46.9,107.7,47.1z M119.3,48.3
				c0.1-0.5-0.4-0.8-0.7-1C118.8,47.6,119.1,47.9,119.3,48.3z M107,47.4C107.1,47.4,107.1,47.4,107,47.4C107,47.3,107,47.3,107,47.4
				z"/>
			<path d="M111.9,37c-0.3,0.1-0.2,0.6-0.7,0.6C111.3,37.2,111.7,37,111.9,37z"/>
		</g>
		<g>
			<path d="M105.7,40.5L105.7,40.5h-0.2h-0.5H105c-0.6,0-0.6,0-0.6,0c-0.1,0-0.1,0-0.1-0.1s0-0.1,0-0.1c0.1,0,0.2,0,0.2,0
				c0.1,0,0.2-0.1,0.2-0.1c0-0.1-0.1-0.2-0.1-0.3l-0.4-0.8h-1.5l-0.3,0.8c0,0.1-0.1,0.2-0.1,0.3s0.1,0.2,0.4,0.2
				c0.1,0,0.1,0,0.1,0.1s0,0.1-0.1,0.1h-0.7h-0.6c-0.1,0-0.1,0-0.1-0.1l0,0c0,0,0,0,0.1-0.1c0.1,0,0.2,0,0.3-0.1l0.1-0.1l0.1-0.1
				c0,0,0-0.1,0.1-0.1l1.3-3.3v-0.1c0-0.1,0-0.1,0.1-0.1c0.1,0,0.1,0,0.1,0.1v0.1l1.3,3.3c0,0,0,0.1,0.1,0.2
				c0.1,0.1,0.1,0.2,0.1,0.2c0.1,0,0.2,0.1,0.3,0.1C105.8,40.3,105.8,40.3,105.7,40.5C105.8,40.5,105.8,40.5,105.7,40.5z
				 M103.6,37.3l-0.7,1.7h1.3L103.6,37.3z"/>
		</g>
		<g>
			<path d="M122.8,40.4c0.3,0,0.4-0.1,0.5-0.2c0-0.1,0-0.2,0-0.4v-1.2h-2.1v1.2c0,0.3,0,0.4,0,0.4c0,0.1,0.2,0.1,0.5,0.2
				c0.1,0,0.1,0,0.1,0.1s0,0.1-0.1,0.1c-0.3,0-0.5,0-0.7,0c-0.4,0-0.6,0-0.7,0c0,0-0.1,0-0.1-0.1s0-0.1,0.1-0.1
				c0.2,0,0.3-0.1,0.3-0.1c0-0.1,0.1-0.2,0.1-0.5v-2.4c0-0.2,0-0.3,0-0.4c0-0.2-0.2-0.2-0.4-0.2c-0.1,0-0.1,0-0.1-0.1
				c0,0,0-0.1,0.1-0.1c0.4,0,0.3,0,0.7,0s0.4,0,0.7,0c0.1,0,0.1,0,0.1,0.1s0,0.1-0.1,0.1c-0.2,0-0.3,0.1-0.3,0.1
				c-0.1,0.1-0.1,0.2-0.1,0.5v0.9h2.1v-0.9c0-0.3,0-0.5-0.1-0.5c-0.1,0-0.1-0.1-0.3-0.1c-0.1,0-0.2,0-0.2-0.1s0-0.1,0.1-0.1
				c0.3,0,0.3,0,0.7,0c0.4,0,0.4,0,0.7,0c0.1,0,0.1,0,0.1,0.1s0,0.1-0.1,0.1c-0.2,0-0.4,0-0.4,0.2c0,0.1,0,0.2,0,0.4v2.4
				c0,0.3,0,0.5,0.1,0.5c0,0,0.1,0.1,0.3,0.1c0.1,0,0.1,0,0.1,0.1s0,0.1-0.1,0.1c-0.2,0-0.4,0-0.7,0c-0.3,0-0.4,0-0.7,0
				c-0.1,0-0.1,0-0.1-0.1C122.7,40.4,122.7,40.4,122.8,40.4z"/>
		</g>
	</g>
</g>
</svg>
