<?xml version="1.0" encoding="utf-8"?>
<!-- Generator: Adobe Illustrator 21.0.2, SVG Export Plug-In . SVG Version: 6.00 Build 0)  -->
<svg version="1.1" id="Layer_1" xmlns="http://www.w3.org/2000/svg" xmlns:xlink="http://www.w3.org/1999/xlink" x="0px" y="0px"
	 viewBox="0 0 74 71" style="enable-background:new 0 0 74 71;" xml:space="preserve">
<g>
	<path stroke="#6bbbae" stroke-miterlimit="10" stroke-width="3" stroke-linecap="round" d="M64.8,48.3h3l-2,7.5H45.4 M31.2,31.3h7.4l5.5,17h20.8L69,37l-28.6,0"/>
	<path stroke="#6bbbae" stroke-miterlimit="10" stroke-width="3" stroke-linecap="round" d="M49.8,61.9c0,1.2-1,2.2-2.2,2.2c-1.2,0-2.2-1-2.2-2.2c0-1.2,1-2.2,2.2-2.2C48.8,59.7,49.8,60.7,49.8,61.9"/>
	<path stroke="#6bbbae" stroke-miterlimit="10" stroke-width="3" stroke-linecap="round" d="M65.7,61.9c0,1.2-1,2.2-2.2,2.2c-1.2,0-2.2-1-2.2-2.2c0-1.2,1-2.2,2.2-2.2C64.7,59.7,65.7,60.7,65.7,61.9"/>
	<path stroke="#6bbbae" stroke-miterlimit="10" stroke-width="3" stroke-linecap="round" d="M32.9,58.5 1,58.5 1,6.9 68.7,6.9 68.7,27.7"/>
	<path stroke="#6bbbae" stroke-miterlimit="10" stroke-width="3" stroke-linecap="round" d="M51.6,12.3c0,0.8-0.7,1.5-1.5,1.5s-1.5-0.7-1.5-1.5c0-0.8,0.7-1.5,1.5-1.5S51.6,11.5,51.6,12.3"/>
	<path stroke="#6bbbae" stroke-miterlimit="10" stroke-width="3" stroke-linecap="round" d="M58.2,12.3c0,0.8-0.7,1.5-1.5,1.5c-0.8,0-1.5-0.7-1.5-1.5c0-0.8,0.7-1.5,1.5-1.5
		C57.5,10.8,58.2,11.5,58.2,12.3"/>
	<path stroke="#6bbbae" stroke-miterlimit="10" stroke-width="3" stroke-linecap="round" d="M64.7,12.3c0,0.8-0.7,1.5-1.5,1.5c-0.8,0-1.5-0.7-1.5-1.5c0-0.8,0.7-1.5,1.5-1.5C64,10.8,64.7,11.5,64.7,12.3"
		/>
	<path stroke="#6bbbae" stroke-miterlimit="10" stroke-width="3" stroke-linecap="round" d="M68.7,18.1L1,18.1Z"/>
</g>
<style xmlns="http://www.w3.org/2000/svg">svg, svg path { stroke: #6bbbae !important; fill: none; }</style>
</svg>
