<?xml version="1.0" encoding="utf-8"?>
<!-- Generator: Adobe Illustrator 21.0.2, SVG Export Plug-In . SVG Version: 6.00 Build 0)  -->
<svg version="1.1" id="Layer_1" xmlns="http://www.w3.org/2000/svg" xmlns:xlink="http://www.w3.org/1999/xlink" x="0px" y="0px"
	 viewBox="0 0 70 71" style="enable-background:new 0 0 70 71;" xml:space="preserve">
<style type="text/css">
	.st0{fill:#99BFE5;}
</style>
<g>
	<path class="st0" d="M15.8,40.8C7.6,40.8,1,47.5,1,55.7c0,8.2,6.7,14.8,14.8,14.8c8.2,0,14.8-6.7,14.8-14.8
		C30.7,47.5,24,40.8,15.8,40.8z M15.8,67.1C9.5,67.1,4.4,62,4.4,55.7c0-6.3,5.1-11.4,11.4-11.4c6.3,0,11.4,5.1,11.4,11.4
		C27.3,62,22.1,67.1,15.8,67.1z"/>
	<path class="st0" d="M54.2,30.2c8.2,0,14.8-6.7,14.8-14.8c0-8.2-6.7-14.8-14.8-14.8c-8.2,0-14.8,6.7-14.8,14.8
		C39.3,23.5,46,30.2,54.2,30.2z M54.2,3.9c6.3,0,11.4,5.1,11.4,11.4c0,6.3-5.1,11.4-11.4,11.4c-6.3,0-11.4-5.1-11.4-11.4
		C42.7,9,47.9,3.9,54.2,3.9z"/>
	<path class="st0" d="M13.4,15.3L2.5,26.3c-0.7,0.7-0.7,1.7,0,2.4c0.3,0.3,0.8,0.5,1.2,0.5c0.4,0,0.9-0.2,1.2-0.5l10.9-10.9
		l10.9,10.9c0.3,0.3,0.8,0.5,1.2,0.5c0.4,0,0.9-0.2,1.2-0.5c0.7-0.7,0.7-1.7,0-2.4L18.2,15.3L29.2,4.4c0.7-0.7,0.7-1.7,0-2.4
		c-0.7-0.7-1.7-0.7-2.4,0L15.8,12.9L4.9,2C4.2,1.3,3.1,1.3,2.5,2c-0.7,0.7-0.7,1.7,0,2.4L13.4,15.3z"/>
	<path class="st0" d="M67.5,42.3c-0.7-0.7-1.7-0.7-2.4,0L54.2,53.3L43.2,42.3c-0.7-0.7-1.7-0.7-2.4,0c-0.7,0.7-0.7,1.7,0,2.4
		l10.9,10.9L40.8,66.6c-0.7,0.7-0.7,1.7,0,2.4c0.3,0.3,0.8,0.5,1.2,0.5c0.4,0,0.9-0.2,1.2-0.5l10.9-10.9L65.1,69
		c0.3,0.3,0.8,0.5,1.2,0.5c0.4,0,0.9-0.2,1.2-0.5c0.7-0.7,0.7-1.7,0-2.4L56.6,55.7l10.9-10.9C68.2,44.1,68.2,43,67.5,42.3z"/>
</g>
</svg>
