<?xml version="1.0" encoding="utf-8"?>
<!-- Generator: Adobe Illustrator 21.0.2, SVG Export Plug-In . SVG Version: 6.00 Build 0)  -->
<svg version="1.1" id="Layer_1" xmlns="http://www.w3.org/2000/svg" xmlns:xlink="http://www.w3.org/1999/xlink" x="0px" y="0px"
	 viewBox="0 0 70 70" style="enable-background:new 0 0 70 70;" xml:space="preserve">
<style type="text/css">
	.st0{fill:#99BFE5;}
</style>
<path class="st0" d="M48.7,36.1c4.3-3.9,6.8-9.4,6.8-15.3C55.5,9.5,46.3,0.3,35,0.3c-11.3,0-20.5,9.2-20.5,20.5
	c0,5.9,2.5,11.4,6.8,15.3C8.6,41.5,0.2,54,0.2,68.1c0,0.9,0.7,1.6,1.6,1.6c0.9,0,1.6-0.7,1.6-1.6c0-13.7,8.7-25.7,21.7-30
	c0.1,0,0.1,0,0.1-0.1c0,0,0.1,0,0.1,0c0.7-0.4,1.1-1.2,0.8-1.9c-0.1-0.4-0.5-0.8-0.9-1c-4.7-3.2-7.6-8.5-7.6-14.3
	c0-9.5,7.7-17.3,17.3-17.3c9.5,0,17.3,7.7,17.3,17.3c0,5.7-2.8,11-7.5,14.3c-0.4,0.2-0.8,0.5-0.9,1c-0.3,0.9,0.2,1.8,1,2
	c13,4.3,21.7,16.3,21.7,30c0,0.9,0.7,1.6,1.6,1.6c0.9,0,1.6-0.7,1.6-1.6C69.8,54,61.4,41.5,48.7,36.1z"/>
</svg>
