<?xml version="1.0" encoding="utf-8"?>
<!-- Generator: Adobe Illustrator 21.0.2, SVG Export Plug-In . SVG Version: 6.00 Build 0)  -->
<svg version="1.1" id="Layer_1" xmlns="http://www.w3.org/2000/svg" xmlns:xlink="http://www.w3.org/1999/xlink" x="0px" y="0px"
	 viewBox="0 0 70 71" style="enable-background:new 0 0 70 71;" xml:space="preserve">
<style type="text/css">
	.st0{fill:#99BFE5;}
</style>
<g>
	<path class="st0" d="M29.6,48c-0.9,0-1.6,0.7-1.6,1.6v19.2c0,0.9,0.7,1.6,1.6,1.6c0.9,0,1.6-0.7,1.6-1.6V49.6
		C31.2,48.7,30.5,48,29.6,48z"/>
	<path class="st0" d="M19,32.2c-0.9,0-1.6,0.7-1.6,1.6v35c0,0.9,0.7,1.6,1.6,1.6c0.9,0,1.6-0.7,1.6-1.6v-35
		C20.6,33,19.9,32.2,19,32.2z"/>
	<path class="st0" d="M8.4,11.8c-0.9,0-1.6,0.7-1.6,1.6v55.4c0,0.9,0.7,1.6,1.6,1.6c0.9,0,1.6-0.7,1.6-1.6V13.5
		C10,12.6,9.3,11.8,8.4,11.8z"/>
	<path class="st0" d="M40.2,11.8c-0.9,0-1.6,0.7-1.6,1.6v55.9c0,0.9,0.7,1.6,1.6,1.6c0.9,0,1.6-0.7,1.6-1.6V13.5
		C41.8,12.6,41.1,11.8,40.2,11.8z"/>
	<path class="st0" d="M61.4,26.3c-0.9,0-1.6,0.7-1.6,1.6v41c0,0.9,0.7,1.6,1.6,1.6c0.9,0,1.6-0.7,1.6-1.6v-41
		C63,27,62.3,26.3,61.4,26.3z"/>
	<path class="st0" d="M50.8,39c-0.9,0-1.6,0.7-1.6,1.6v28.8c0,0.9,0.7,1.6,1.6,1.6s1.6-0.7,1.6-1.6V40.6C52.4,39.7,51.7,39,50.8,39z
		"/>
	<path class="st0" d="M45.5,5.7L41,1.2c-0.6-0.6-1.7-0.6-2.3,0l-4.5,4.5c-0.6,0.6-0.6,1.7,0,2.3c0.3,0.3,0.7,0.5,1.1,0.5
		c0.4,0,0.8-0.2,1.1-0.5l3.4-3.4L43.2,8c0.6,0.6,1.7,0.6,2.3,0C46.2,7.3,46.2,6.3,45.5,5.7z"/>
	<path class="st0" d="M67.3,20.2l-4.5-4.5c-0.6-0.6-1.7-0.6-2.3,0L56,20.3c-0.6,0.6-0.6,1.7,0,2.3c0.3,0.3,0.7,0.5,1.1,0.5
		s0.8-0.2,1.1-0.5l3.4-3.4l3.4,3.4c0.6,0.6,1.7,0.6,2.3,0C67.9,21.9,67.9,20.9,67.3,20.2z"/>
	<path class="st0" d="M24.5,26.4L20,21.9c-0.6-0.6-1.7-0.6-2.3,0l-4.5,4.5c-0.6,0.6-0.6,1.7,0,2.3c0.3,0.3,0.7,0.5,1.1,0.5
		s0.8-0.2,1.1-0.5l3.4-3.4l3.4,3.4c0.6,0.6,1.7,0.6,2.3,0C25.1,28.1,25.1,27.1,24.5,26.4z"/>
	<path class="st0" d="M51.9,28.5c-0.6-0.6-1.7-0.6-2.3,0L45.1,33c-0.6,0.6-0.6,1.7,0,2.3c0.3,0.3,0.7,0.5,1.1,0.5
		c0.4,0,0.8-0.2,1.1-0.5l3.4-3.4l3.4,3.4c0.6,0.6,1.7,0.6,2.3,0c0.6-0.6,0.6-1.7,0-2.3L51.9,28.5z"/>
	<path class="st0" d="M14,8c0.6-0.6,0.6-1.7,0-2.3L9.5,1.2c-0.6-0.6-1.7-0.6-2.3,0L2.7,5.7C2.1,6.3,2.1,7.4,2.7,8
		C3,8.3,3.4,8.5,3.8,8.5S4.7,8.3,5,8l3.4-3.4L11.7,8C12.4,8.6,13.4,8.6,14,8z"/>
	<path class="st0" d="M30.7,37.9c-0.6-0.6-1.7-0.6-2.3,0l-4.5,4.5c-0.6,0.6-0.6,1.7,0,2.3c0.3,0.3,0.7,0.5,1.1,0.5
		c0.4,0,0.8-0.2,1.1-0.5l3.4-3.4l3.4,3.4c0.6,0.6,1.7,0.6,2.3,0c0.6-0.6,0.6-1.7,0-2.3L30.7,37.9z"/>
</g>
</svg>
