<?xml version="1.0" encoding="utf-8"?>
<!-- Generator: Adobe Illustrator 21.0.2, SVG Export Plug-In . SVG Version: 6.00 Build 0)  -->
<svg version="1.1" id="Layer_1" xmlns="http://www.w3.org/2000/svg" xmlns:xlink="http://www.w3.org/1999/xlink" x="0px" y="0px"
	 viewBox="0 0 70 71" style="enable-background:new 0 0 70 71;" xml:space="preserve">
<style type="text/css">
	.st0{fill:#99BFE5;}
</style>
<g>
	<path class="st0" d="M67.4,64.4L48.7,45.7h10.8c0.9,0,1.6-0.7,1.6-1.6s-0.7-1.6-1.6-1.6H44.8l0,0c-0.1,0-0.2,0-0.3,0
		c0,0-0.1,0-0.1,0c-0.1,0-0.1,0-0.2,0.1c-0.1,0-0.1,0.1-0.2,0.1c0,0-0.1,0-0.1,0.1c-0.1,0.1-0.2,0.1-0.2,0.2c0,0,0,0,0,0
		c0,0,0,0,0,0c-0.1,0.1-0.1,0.2-0.2,0.2c0,0,0,0.1-0.1,0.1c0,0-0.1,0.1-0.1,0.1c0,0.1,0,0.1-0.1,0.2c0,0,0,0.1,0,0.1
		c0,0.1,0,0.2,0,0.3V59c0,0.9,0.7,1.6,1.6,1.6c0.9,0,1.6-0.7,1.6-1.6V48l18.7,18.7c0.3,0.3,0.7,0.5,1.2,0.5c0.4,0,0.8-0.2,1.2-0.5
		C68.1,66.1,68.1,65,67.4,64.4z"/>
	<path class="st0" d="M21.3,27.3H10.4c-0.9,0-1.6,0.7-1.6,1.6s0.7,1.6,1.6,1.6h14.8c0.1,0,0.2,0,0.3,0c0,0,0.1,0,0.1,0
		c0.1,0,0.1,0,0.2-0.1c0.1,0,0.1-0.1,0.2-0.1c0,0,0.1,0,0.1-0.1c0.2-0.1,0.3-0.3,0.5-0.5c0,0,0-0.1,0.1-0.1c0-0.1,0.1-0.1,0.1-0.2
		c0-0.1,0-0.1,0.1-0.2c0,0,0-0.1,0-0.1c0-0.1,0-0.2,0-0.3V14c0-0.9-0.7-1.6-1.6-1.6c-0.9,0-1.6,0.7-1.6,1.6v11L4.9,6.3
		c-0.6-0.6-1.7-0.6-2.3,0C1.9,6.9,1.9,8,2.6,8.6L21.3,27.3z"/>
	<path class="st0" d="M35,9.1h29.6v27.4c0,0.9,0.7,1.6,1.6,1.6c0.9,0,1.6-0.7,1.6-1.6v-29c0-0.9-0.7-1.6-1.6-1.6H35
		c-0.9,0-1.6,0.7-1.6,1.6S34.1,9.1,35,9.1z"/>
	<path class="st0" d="M35,63.9H5.4V36.5c0-0.9-0.7-1.6-1.6-1.6s-1.6,0.7-1.6,1.6v29c0,0.9,0.7,1.6,1.6,1.6H35c0.9,0,1.6-0.7,1.6-1.6
		S35.9,63.9,35,63.9z"/>
</g>
</svg>
