<?xml version="1.0" encoding="utf-8"?>
<!-- Generator: Adobe Illustrator 21.0.2, SVG Export Plug-In . SVG Version: 6.00 Build 0)  -->
<svg version="1.1" id="Layer_1" xmlns="http://www.w3.org/2000/svg" xmlns:xlink="http://www.w3.org/1999/xlink" x="0px" y="0px"
	 viewBox="0 0 68.3 71" style="enable-background:new 0 0 68.3 71;" xml:space="preserve">
<style type="text/css">
	.st0{fill:#99BFE5;}
</style>
<g>
	<path class="st0" d="M34.2,3.5c-0.2,0-0.3,0-0.5,0c0,0-0.1,0-0.1,0C16.2,3.9,2.2,18.1,2.2,35.5c0,17.3,13.8,31.4,31,31.9
		c0.1,0,0.3,0,0.4,0c0.1,0,0.2,0,0.3,0c0.1,0,0.1,0,0.2,0c17.6,0,31.9-14.3,31.9-31.9C66.1,17.9,51.8,3.5,34.2,3.5z M35.3,64.1v-4.7
		c0-0.9-0.7-1.6-1.6-1.6c-0.9,0-1.6,0.7-1.6,1.6v4.6C17.7,63,6.4,51.4,5.6,37.1h4.7c0.9,0,1.6-0.7,1.6-1.6c0-0.9-0.7-1.6-1.6-1.6
		H5.6C6.4,19.5,17.7,8,32,6.9v4.6c0,0.9,0.7,1.6,1.6,1.6c0.9,0,1.6-0.7,1.6-1.6V6.8c14.7,0.6,26.7,12.3,27.5,27h-4.7
		c-0.9,0-1.6,0.7-1.6,1.6c0,0.9,0.7,1.6,1.6,1.6h4.7C61.9,51.8,50,63.6,35.3,64.1z"/>
	<path class="st0" d="M49.8,33.8H35.3V19.2c0-0.9-0.7-1.6-1.6-1.6c-0.9,0-1.6,0.7-1.6,1.6v16.3c0,0.9,0.7,1.6,1.6,1.6h16.2
		c0.9,0,1.6-0.7,1.6-1.6S50.7,33.8,49.8,33.8z"/>
</g>
</svg>
