<?xml version="1.0" encoding="utf-8"?>
<!-- Generator: Adobe Illustrator 21.0.2, SVG Export Plug-In . SVG Version: 6.00 Build 0)  -->
<svg version="1.1" id="Layer_1" xmlns="http://www.w3.org/2000/svg" xmlns:xlink="http://www.w3.org/1999/xlink" x="0px" y="0px"
	 viewBox="0 0 70 71" style="enable-background:new 0 0 70 71;" xml:space="preserve">
<style type="text/css">
	.st0{fill:#99BFE5;}
</style>
<g>
	<path class="st0" d="M42.3,67.3H27.5c-0.9,0-1.6,0.7-1.6,1.6c0,0.9,0.7,1.6,1.6,1.6h14.8c0.9,0,1.6-0.7,1.6-1.6
		C44,68,43.2,67.3,42.3,67.3z"/>
	<path class="st0" d="M43.8,55.4H26.2c-0.9,0-1.6,0.7-1.6,1.6c0,0.9,0.7,1.6,1.6,1.6h17.5c0.9,0,1.6-0.7,1.6-1.6
		C45.4,56.1,44.7,55.4,43.8,55.4z"/>
	<path class="st0" d="M43,61.3H27c-0.9,0-1.6,0.7-1.6,1.6c0,0.9,0.7,1.6,1.6,1.6H43c0.9,0,1.6-0.7,1.6-1.6
		C44.7,62.1,43.9,61.3,43,61.3z"/>
	<path class="st0" d="M26.4,19.2c-4,0-7.3,3.3-7.3,7.3c0,4,3.3,7.3,7.3,7.3h2.4h1.6v15.2c0,0.9,0.7,1.6,1.6,1.6
		c0.9,0,1.6-0.7,1.6-1.6V33.7h2.8v15.2c0,0.9,0.7,1.6,1.6,1.6s1.6-0.7,1.6-1.6V33.7h1.6h2.4c4,0,7.3-3.3,7.3-7.3
		c0-4-3.3-7.3-7.3-7.3c-4,0-7.3,3.3-7.3,7.3v4h-2.8v-4C33.7,22.4,30.4,19.2,26.4,19.2z M39.7,26.4c0-2.2,1.8-4,4-4s4,1.8,4,4
		c0,2.2-1.8,4-4,4h-2.4h-1.6V26.4z M28.8,30.5h-2.4c-2.2,0-4-1.8-4-4c0-2.2,1.8-4,4-4c2.2,0,4,1.8,4,4v4H28.8z"/>
	<path class="st0" d="M35,0.4C18.7,0.4,5.4,13.7,5.4,30c0,10,5,19.2,13.3,24.7c0.7,0.5,1.8,0.3,2.3-0.5c0.5-0.7,0.3-1.8-0.5-2.3
		C13.1,47.1,8.7,38.9,8.7,30C8.7,15.5,20.5,3.7,35,3.7S61.3,15.5,61.3,30c0,9-4.6,17.3-12.2,22.2c-0.8,0.5-1,1.5-0.5,2.2
		c0.3,0.5,0.8,0.7,1.4,0.7c0.3,0,0.6-0.1,0.9-0.3c8.6-5.5,13.7-14.8,13.7-24.9C64.6,13.7,51.3,0.4,35,0.4z"/>
</g>
</svg>
