<?xml version="1.0" encoding="utf-8"?>
<!-- Generator: Adobe Illustrator 21.0.2, SVG Export Plug-In . SVG Version: 6.00 Build 0)  -->
<svg version="1.1" id="Layer_1" xmlns="http://www.w3.org/2000/svg" xmlns:xlink="http://www.w3.org/1999/xlink" x="0px" y="0px"
	 viewBox="0 0 70 73" style="enable-background:new 0 0 70 73;" xml:space="preserve">
<style type="text/css">
	.st0{fill:#99BFE5;}
</style>
<g>
	<path class="st0" d="M35,30.1c-3.7,0-6.7,3-6.7,6.7c0,3.7,3,6.7,6.7,6.7s6.7-3,6.7-6.7C41.7,33.1,38.7,30.1,35,30.1z M35,40.2
		c-1.9,0-3.4-1.5-3.4-3.4c0-1.9,1.5-3.4,3.4-3.4c1.9,0,3.4,1.5,3.4,3.4C38.4,38.6,36.9,40.2,35,40.2z"/>
	<path class="st0" d="M35,0c-3.7,0-6.7,3-6.7,6.7c0,3.1,2.1,5.7,5,6.5v10.2c0,0.9,0.7,1.6,1.6,1.6c0.9,0,1.6-0.7,1.6-1.6V13.1
		c2.9-0.7,5-3.4,5-6.5C41.7,3,38.7,0,35,0z M35,10.1C35,10.1,35,10.1,35,10.1C35,10.1,35,10.1,35,10.1c-1.9,0-3.4-1.5-3.4-3.4
		c0-1.9,1.5-3.4,3.4-3.4c1.9,0,3.4,1.5,3.4,3.4C38.4,8.6,36.9,10.1,35,10.1z"/>
	<path class="st0" d="M61.2,44.9c-1.8,0-3.5,0.7-4.7,1.9l-9-5c-0.8-0.4-1.8-0.1-2.2,0.6c-0.4,0.8-0.1,1.8,0.6,2.2l8.9,4.9
		c-0.2,0.6-0.3,1.3-0.3,2c0,3.7,3,6.7,6.7,6.7c3.7,0,6.7-3,6.7-6.7C67.9,47.9,64.9,44.9,61.2,44.9z M61.2,55c-1.9,0-3.4-1.5-3.4-3.4
		c0-1.9,1.5-3.4,3.4-3.4c1.9,0,3.4,1.5,3.4,3.4C64.7,53.4,63.1,55,61.2,55z"/>
	<path class="st0" d="M8.8,28.8c1.8,0,3.5-0.8,4.7-2l9,4.9c0.2,0.1,0.5,0.2,0.8,0.2c0.6,0,1.1-0.3,1.4-0.9c0.4-0.8,0.1-1.8-0.7-2.2
		L15.2,24c0.2-0.6,0.3-1.2,0.3-1.9c0-3.7-3-6.7-6.7-6.7c-3.7,0-6.7,3-6.7,6.7C2.1,25.8,5.1,28.8,8.8,28.8z M8.8,18.7
		c1.9,0,3.4,1.5,3.4,3.4c0,1.9-1.5,3.4-3.4,3.4c-1.9,0-3.4-1.5-3.4-3.4C5.3,20.2,6.9,18.7,8.8,18.7z"/>
	<path class="st0" d="M36.6,59.9v-9.7c0-0.9-0.7-1.6-1.6-1.6c-0.9,0-1.6,0.7-1.6,1.6v9.7c-2.9,0.7-5,3.4-5,6.5c0,3.7,3,6.7,6.7,6.7
		s6.7-3,6.7-6.7C41.7,63.2,39.5,60.6,36.6,59.9z M35,69.7c-1.9,0-3.4-1.5-3.4-3.4c0-1.9,1.5-3.4,3.4-3.4c1.9,0,3.4,1.5,3.4,3.4
		C38.4,68.2,36.9,69.7,35,69.7z"/>
	<path class="st0" d="M22.5,41.8l-9.1,5c-1.2-1.2-2.9-1.9-4.7-1.9c-3.7,0-6.7,3-6.7,6.7c0,3.7,3,6.7,6.7,6.7c3.7,0,6.7-3,6.7-6.7
		c0-0.7-0.1-1.3-0.3-1.9l8.9-4.9c0.8-0.4,1.1-1.4,0.6-2.2C24.3,41.7,23.3,41.4,22.5,41.8z M8.8,55c-1.9,0-3.4-1.5-3.4-3.4
		c0-1.9,1.5-3.4,3.4-3.4c1.9,0,3.4,1.5,3.4,3.4C12.2,53.4,10.6,55,8.8,55z"/>
	<path class="st0" d="M46.7,32c0.3,0,0.5-0.1,0.8-0.2l9-5c1.2,1.2,2.9,2,4.7,2c3.7,0,6.7-3,6.7-6.7c0-3.7-3-6.7-6.7-6.7
		c-3.7,0-6.7,3-6.7,6.7c0,0.7,0.1,1.3,0.3,1.9l-8.9,4.9c-0.8,0.4-1.1,1.4-0.6,2.2C45.6,31.7,46.2,32,46.7,32z M61.2,18.7
		c1.9,0,3.4,1.5,3.4,3.4c0,1.9-1.5,3.4-3.4,3.4c-1.2,0-2.2-0.6-2.8-1.5c0,0,0-0.1-0.1-0.1c0-0.1-0.1-0.1-0.1-0.2
		c-0.3-0.5-0.4-1-0.4-1.6C57.8,20.2,59.4,18.7,61.2,18.7z"/>
</g>
</svg>
