<?xml version="1.0" encoding="utf-8"?>
<!-- Generator: Adobe Illustrator 19.2.1, SVG Export Plug-In . SVG Version: 6.00 Build 0)  -->
<svg version="1.1" id="Layer_1" xmlns="http://www.w3.org/2000/svg" xmlns:xlink="http://www.w3.org/1999/xlink" x="0px" y="0px"
	 viewBox="0 0 76.5 99.5" style="enable-background:new 0 0 76.5 99.5;" xml:space="preserve">
<style type="text/css">
	.st0{fill:#FFFFFF;}
</style>
<g>
	<path class="st0" d="M38.3,99.5c-0.6,0-1.3-0.2-1.8-0.7L0.7,63c-1-1-1-2.6,0-3.5c1-1,2.6-1,3.5,0L40,95.2c1,1,1,2.6,0,3.5
		C39.5,99.2,38.9,99.5,38.3,99.5z"/>
</g>
<g>
	<path class="st0" d="M38.3,99.5c-0.6,0-1.3-0.2-1.8-0.7c-1-1-1-2.6,0-3.5l35.8-35.8c1-1,2.6-1,3.5,0s1,2.6,0,3.5L40,98.7
		C39.5,99.2,38.9,99.5,38.3,99.5z"/>
</g>
<g>
	<path class="st0" d="M38.3,98.4c-1.4,0-2.5-1.1-2.5-2.5V2.5c0-1.4,1.1-2.5,2.5-2.5s2.5,1.1,2.5,2.5v93.4
		C40.8,97.3,39.6,98.4,38.3,98.4z"/>
</g>
</svg>
