<svg version="1.1" id="Layer_1" xmlns="http://www.w3.org/2000/svg" xmlns:xlink="http://www.w3.org/1999/xlink" x="0px" y="0px"
	 viewBox="0 0 225 126.5" style="enable-background:new 0 0 225 126.5;" xml:space="preserve">

<g>
	<path class="st0" d="M106,57.8c0,0.1-0.1,0.2-0.1,0.2c0,0-0.2,0-0.2-0.1c-0.3-0.2-0.5-0.4-0.8-0.6c-1.6-1-3.3-1.4-5.1-1.5
		c-4.7-0.2-8.5,1.6-10.9,5.6c-2.3,3.7-2.5,7.7-0.9,11.7c1.8,4.7,6.1,7.6,11,7.4c2.6-0.1,4.9-0.9,6.7-2.8c0.1-0.1,0.2-0.1,0.2-0.1
		c0.1,0,0.1,0.2,0.1,0.2c0,0.6,0,1.2,0,1.8c0,0.1,0,0.3,0,0.3c1.8,0,3.6,0,5.4,0c0-7.8,0-15.8,0-23.6c-1.8,0-3.7,0-5.5,0
		C106,56.9,106,57.3,106,57.8z M106,67.5c0,1.6,0,3.2,0,4.8c0,0.2-0.1,0.4-0.1,0.5c-1.3,2.2-3.3,3.2-5.8,3.3
		c-3.7,0.2-6.9-2.5-7.6-6.2c-0.5-2.8,0.1-5.4,2.2-7.5c1.3-1.4,3-2.1,4.9-2.1c2.1,0,4.1,0.5,5.9,1.5c0.5,0.3,0.6,0.6,0.6,1.1
		C106,64.5,106,66,106,67.5z"/>
	<path class="st0" d="M144.9,57.8c0,0.1,0,0.2-0.1,0.2c-0.1,0-0.2,0-0.3-0.1c-0.3-0.2-0.6-0.4-0.9-0.6c-1.5-1-3.3-1.4-5-1.5
		c-3.6-0.2-6.7,0.9-9.2,3.4c-2.5,2.5-3.7,5.6-3.6,9.1c0,3.6,1.3,6.7,4,9.2c4.7,4.4,11.8,3.5,14.8,0.1c0-0.1,0.2-0.1,0.2-0.1
		c0.1,0,0.1,0.1,0.1,0.2c0,0.1,0,0.2,0,0.3c0,0.6,0,1.3,0,1.8c1.8,0,3.6,0,5.2,0c0-7.8,0-15.8,0-23.6c-1.6,0-3.4,0-5.2,0
		C144.9,56.9,144.9,57.3,144.9,57.8z M144.9,67.5c0,1.6,0,3.2,0,4.7c0,0.2-0.1,0.4-0.2,0.6c-1.3,2.2-3.3,3.1-5.8,3.3
		c-3.6,0.2-6.7-2.2-7.5-5.9c-0.7-3,0-5.7,2.2-7.9c1.3-1.3,3-2,4.8-2c2.2,0,4.3,0.5,6.2,1.7c0.3,0.2,0.4,0.3,0.4,0.7
		C144.9,64.3,144.9,65.9,144.9,67.5z"/>
	<path class="st0" d="M188,56.4c0,0.5,0,1,0,1.4c0,0.1,0,0.2-0.1,0.2c-0.1,0-0.2,0-0.3-0.1c-0.3-0.2-0.5-0.4-0.8-0.6
		c-1.6-1-3.3-1.4-5.2-1.5c-3.6-0.2-6.8,1-9.3,3.6c-2.1,2.2-3.2,4.8-3.4,7.8c-0.2,4,1,7.5,3.9,10.3c2.6,2.4,5.7,3.3,9.1,2.9
		c1.9-0.3,3.7-0.9,5.1-2.3c0.2-0.1,0.3-0.3,0.4-0.4c0.1-0.1,0.2-0.1,0.3-0.1c0,0.1,0.1,0.2,0.1,0.3c0,0.2,0,0.3,0,0.5
		c0,0.5,0,1,0,1.5c1.8,0,3.6,0,5.4,0c0-7.8,0-15.8,0-23.6C191.6,56.4,189.8,56.4,188,56.4z M188,67.4c0,1.6,0,3.2,0,4.8
		c0,0.2-0.1,0.4-0.2,0.6c-1.2,2-3,3-5.3,3.3c-4.5,0.6-7.8-2.8-8.3-6.7c-0.3-2.8,0.4-5.3,2.5-7.2c1.3-1.2,2.8-1.8,4.6-1.8
		c2.2,0,4.2,0.5,6.1,1.6c0.4,0.2,0.6,0.5,0.5,1C187.9,64.4,188,65.9,188,67.4z"/>
	<path class="st0" d="M48,55.2c0.1,0.1,0.2,0.1,0.2,0.2c0.8,1.9,1.6,3.9,2.4,5.8c0.3,0.8,0.6,1.5,1,2.3c0.1,0,0.1,0,0.1-0.1
		c1.3-1.2,2.7-2.4,4-3.6c0.1-0.1,0.1-0.2,0.1-0.4c-1.7-4.1-3.4-8.1-5.1-12.2c-0.1-0.2-0.2-0.3-0.4-0.3c-1.2,0-2.5,0-3.7,0
		c-0.4,0-0.8-0.1-1.1,0.1c-0.3,0.2-0.3,0.6-0.5,0.9c-4.4,10.6-8.9,21.2-13.3,31.9c0,0.1,0,0.2-0.1,0.2c0.2,0,0.3,0,0.4,0
		c1.7,0,3.3,0,5,0.1c0.3,0,0.4-0.1,0.5-0.3c1.2-2.9,2.5-5.8,3.7-8.7c2.2-5.2,4.4-10.4,6.6-15.6C47.9,55.3,48,55.2,48,55.2z"/>
	<path class="st0" d="M87.1,56.4c-1.7,0-3.4,0-5.1,0c-0.2,0-0.4,0.1-0.5,0.3c-1.3,3.1-2.7,6.2-4,9.3c-1.1,2.5-2.1,5-3.2,7.5
		c0,0.1-0.2,0.2-0.3,0.3c-0.1-0.1-0.2-0.2-0.3-0.3c-0.2-0.4-0.3-0.7-0.5-1.1c-2.2-5.2-4.5-10.5-6.7-15.7c-0.1-0.2-0.2-0.3-0.5-0.3
		c-1.7,0-3.3,0-5,0c-0.1,0-0.2,0-0.4,0c0.1,0,0.1,0.2,0.1,0.3c2.4,5.3,4.7,10.6,7.1,15.9c1.1,2.4,2.2,4.8,3.2,7.2
		c0.1,0.2,0.1,0.3,0.4,0.3c1.7,0,3.3,0,5,0c0.2,0,0.3-0.1,0.3-0.2c0.2-0.4,0.4-0.8,0.5-1.2c3-6.7,6-13.3,8.9-20
		c0.3-0.7,0.7-1.5,1-2.3C87.3,56.4,87.2,56.4,87.1,56.4z"/>
	<path class="st0" d="M121.1,73.6c-0.1-0.3-0.1-0.7-0.1-1c0-8.8,0-17.7,0-26.5c0-0.1,0-0.3,0-0.3c-1.8,0-3.6,0-5.4,0
		c0,0,0,0.2,0,0.3c0,9,0,18,0.1,27c0,0.6,0.1,1.1,0.1,1.7c0.3,2,1.2,3.6,2.9,4.7c1.6,1,3.3,1.2,5.1,1.3c0,0,0.1,0,0.1,0
		c0-1.6,0-3.1,0-4.7c0,0-0.2-0.1-0.4-0.1C122.3,75.6,121.4,74.9,121.1,73.6z"/>
	<path class="st0" d="M164.9,56.1c-1.7,0.4-3.2,1.4-4.4,2.7c-0.1,0.1-0.3,0.2-0.4,0.2c0-0.2-0.1-0.3-0.1-0.5c0-0.6,0-1.3,0-1.9
		c0-0.1,0-0.3,0-0.3c-1.8,0-3.4,0-5.2,0c0,8,0,15.8,0,23.9c1.8,0,3.4,0,5.2,0c0-0.3,0-0.4,0-0.5c0-5.3,0-10.6,0-15.8
		c0-0.2,0.1-0.4,0.2-0.5c0.7-0.7,1.5-1.3,2.5-1.7c1.3-0.6,2.6-0.9,4.1-0.9c0.4,0,0.8,0,1,0c0-1.6,0-3.2,0-4.9c-0.5,0-1,0-1.5,0.1
		C165.7,56,165.4,56,164.9,56.1z"/>
	<path class="st0" d="M60.1,62.8c0.1-0.1,0.2-0.2,0.1-0.3c-0.2-0.6-0.5-1.2-0.7-1.8c-4.4,3.3-8.1,7.1-11.5,11.4
		c-0.9-1.1-1.8-2.1-2.7-3.2C44.9,69.9,44.4,71,44,72c0,0.1,0,0.2,0,0.3c1.3,2.1,2.5,4.3,3.8,6.4c0.1,0.1,0.1,0.2,0.2,0.3
		c0-0.1,0.1-0.1,0.1-0.1c0.2-0.4,0.5-0.8,0.7-1.2c1.9-3.4,4-6.7,6.4-9.7C56.8,66.2,58.4,64.4,60.1,62.8z"/>
	<path class="st0" d="M59.2,68.1c-1.2,1.4-2.4,2.8-3.6,4.2c-0.1,0.2-0.1,0.3,0,0.4c1,2.4,2,4.7,3,7.1c0.1,0.2,0.2,0.3,0.4,0.3
		c1.7,0,3.4,0,5.2,0c0.1,0,0.2,0,0.3,0c-1.7-4.1-3.4-8.1-5.1-12.2C59.3,67.9,59.2,68,59.2,68.1z"/>
</g>
</svg>
