<?xml version="1.0" encoding="utf-8"?>
<!-- Generator: Adobe Illustrator 21.0.2, SVG Export Plug-In . SVG Version: 6.00 Build 0)  -->
<svg version="1.1" id="Layer_1" xmlns="http://www.w3.org/2000/svg" xmlns:xlink="http://www.w3.org/1999/xlink" x="0px" y="0px"
	 viewBox="0 0 225 126.5" style="enable-background:new 0 0 225 126.5;" xml:space="preserve">
<g>
	<path d="M93.2,74.6l-11-27.8h-1.9h-5.7h-1.9l-11,27.8h-3.5v6.9h15.4v-6.9h-3.9l1.8-4.6h11.8l1.8,4.6h-4.2v6.9h15.4v-6.9H93.2
		L93.2,74.6z M74.1,63.4l3.4-9l3.4,9H74.1L74.1,63.4z"/>
	<polygon points="188.8,67.5 199.5,52.8 203,52.8 203,46.5 186.9,46.5 186.9,52.8 190.6,52.8 184.5,61 178.6,52.8 182.3,52.8 
		182.3,46.5 166.2,46.5 166.2,52.8 169.7,52.8 180.4,67.5 180.4,67.5 180.4,74.5 176.4,74.5 176.4,81.4 192.5,81.4 192.5,74.5 
		188.8,74.5 	"/>
	<polygon points="157.9,70.4 157.9,74.5 150.4,74.5 150.4,52.9 154.1,52.9 154.1,46.6 138.2,46.6 138.2,52.9 142,52.9 142,74.5 
		138.2,74.5 138.2,81.4 165.4,81.4 165.4,76.6 165.4,74.5 165.4,70.4 	"/>
	<polygon points="123.1,70.5 123.1,74.6 115.6,74.6 115.6,53 119.3,53 119.3,46.7 103.3,46.7 103.3,53 107.1,53 107.1,74.6 
		103.3,74.6 103.3,81.5 130.6,81.5 130.6,76.7 130.6,74.6 130.6,70.5 	"/>
	<path d="M46.7,62.7c3.1-1.5,5-4,5-7.3c0-4.4-3.3-8.7-11.5-8.7H25.6l0,0h-4.1v6.1h4.1v21.7h-4.1v6.9H32l0,0h10
		c6.9,0,11.1-5,11.1-10.2C53.3,67,49.1,63.4,46.7,62.7L46.7,62.7z M34.1,52.9h4.4c3.1,0,5.6,0.7,5.6,3.6c-0.1,2.5-2.5,3.8-5.6,3.6
		h-4.4V52.9L34.1,52.9z M38.8,74.5h-4.8v-8.1H40c3,0,4.8,1.4,4.8,4C44.8,74.8,40.6,74.6,38.8,74.5L38.8,74.5z"/>
</g>
</svg>
