<?xml version="1.0" encoding="utf-8"?>
<!-- Generator: Adobe Illustrator 21.0.2, SVG Export Plug-In . SVG Version: 6.00 Build 0)  -->
<svg version="1.1" id="Layer_1" xmlns="http://www.w3.org/2000/svg" xmlns:xlink="http://www.w3.org/1999/xlink" x="0px" y="0px"
	 viewBox="0 0 198.4 210.2" style="enable-background:new 0 0 198.4 210.2;" xml:space="preserve">
<style type="text/css">
	.st0{fill:#00AB8E;}
	.st1{fill:#003D4C;}
</style>
<g>
	<path id="path6503" class="st0" d="M0.8,0C0.3,0,0.1,0.5,0.1,0.7v25.5c0,0.5,0.2,0.7,0.7,0.7h10.7v112.4H0.8
		c-0.5,0-0.7,0.5-0.7,0.7v25.5c0,0.5,0.2,0.7,0.7,0.7h26.4l6.3-10.2c10.2,8.3,23.4,13.4,37.6,13.4c32.9,0,59.6-26.7,59.6-59.6
		S103.9,50.3,71,50.3c-7.9,0-15.3,1.6-22.3,4.2c-0.2,0.2-0.5,0.5-0.5,0.7v30.6c0,0.2,0.2,0.5,0.5,0.5H49c5.8-5.3,13.4-8.6,21.8-8.6
		c17.8,0,32.2,14.4,32.2,32.2s-14.4,32.2-32.2,32.2c-17.8,0-32.2-14.4-32.2-32.2V13.7C38.6,6,32.6,0,24.9,0H0.8z"/>
	<path id="path6511" class="st1" d="M162.1,169.9c12.3,0,22.5-10,22.5-22.5c0-12.3-10-22.5-22.5-22.5c-12.5,0-22.7,10-22.7,22.5
		C139.4,159.7,149.4,169.9,162.1,169.9 M162.1,95.5c12.3,0,22.5-10,22.5-22.5c0-12.3-10-22.5-22.5-22.5c-12.5,0-22.7,10-22.7,22.5
		S149.4,95.5,162.1,95.5"/>
	<path id="path6535" class="st1" d="M99.1,194.5c1.4-1.2,4.2-3,6.5-3c0.7,0,0.9,0.2,0.9,0.9s-0.5,2.1-0.9,2.8l-6.3,0.2v11.8h2.8v2.3
		h-8.8v-2.3h2.5V194h-2.5v-2.3h5.6L99.1,194.5L99.1,194.5L99.1,194.5z M81.5,201.7c-2.3,0.2-3.5,1.4-3.5,3c0,2.1,0.9,3,3.2,3
		c1.4,0,3.5-0.9,4.9-2.1v-4.2L81.5,201.7L81.5,201.7z M88.6,207.5h2.8l0.2,1.6c-0.9,0.5-2.8,0.7-3.5,0.7c-1.4,0-2.1-0.2-2.3-2.1l0,0
		c-2.8,2.3-4.9,2.3-6,2.3c-4.2,0-5.1-3-5.1-5.1c0-3,2.3-5.1,6.7-5.3l4.6-0.2v-1.2c0-3-0.9-3.9-3.7-3.9c-1.9,0-3.7,0.5-5.6,0.9
		c-0.2-0.7-0.5-1.4-0.7-2.1c2.1-0.9,4.6-1.4,6.7-1.4c3.7,0,6,1.6,6,6L88.6,207.5L88.6,207.5z M62.9,201.7c-2.3,0.2-3.5,1.4-3.5,3
		c0,2.1,0.9,3,3.2,3c1.4,0,3.5-0.9,4.6-2.1v-4.2L62.9,201.7z M70.3,207.5h2.8l0.2,1.6c-0.9,0.5-2.8,0.7-3.5,0.7
		c-1.4,0-2.1-0.2-2.3-2.1l0,0c-2.8,2.3-4.9,2.3-6,2.3c-4.2,0-5.1-3-5.1-5.1c0-3,2.3-5.1,6.7-5.3l4.6-0.2v-1.2c0-3-0.9-3.9-3.7-3.9
		c-1.9,0-3.7,0.5-5.6,0.9c-0.2-0.7-0.5-1.4-0.7-2.1c2.1-0.9,4.6-1.4,6.7-1.4c3.7,0,6,1.6,6,6L70.3,207.5L70.3,207.5z M43.4,207.5H52
		v-2.8h2.3v5.1H39.7v-2.1l10.4-13.4h-7.4v2.8h-2.3v-5.3h13.4v2.1L43.4,207.5L43.4,207.5z M27.7,201.7c-2.3,0.2-3.5,1.4-3.5,3
		c0,2.1,0.9,3,3.2,3c1.4,0,3.5-0.9,4.9-2.1v-4.2C32.3,201.2,27.7,201.7,27.7,201.7z M35.1,207.5h2.8l0.2,1.6
		c-0.9,0.5-2.8,0.7-3.5,0.7c-1.4,0-2.1-0.2-2.3-2.1l0,0c-2.8,2.3-5.1,2.3-6,2.3c-4.2,0-5.1-3-5.1-5.1c0-3,2.3-5.1,6.7-5.3l4.6-0.2
		v-1.2c0-3-0.9-3.9-3.7-3.9c-1.9,0-3.7,0.5-5.6,0.9c-0.2-0.7-0.5-1.4-0.7-2.1c2.1-0.9,4.6-1.4,6.7-1.4c3.7,0,6,1.6,6,6L35.1,207.5
		L35.1,207.5z M5.9,195.4v11.4c1.4,0.7,3,0.9,4.2,0.9c3,0,4.9-1.6,4.9-6.7c0-5.6-1.9-7-4.2-7C8.9,194,7.3,194.7,5.9,195.4
		 M2.9,208.4v-22.3H0.1v-2.3h5.8v9.3c2.1-1.2,3.9-1.6,5.3-1.6c5.3,0,6.7,3.9,6.7,9.5c0,4.9-1.9,9-7.6,9C8,210,5.2,209.6,2.9,208.4"
		/>
	<path id="path6555" class="st0" d="M175.3,199.6h8.8c0-3.2-0.9-5.6-4.2-5.6C176.7,194,175.6,196.6,175.3,199.6 M187.2,200.3v1.6
		h-11.8c0,3.5,0.9,6,5.1,6c2.1,0,3.7-0.5,5.6-1.2l0.9,1.9c-2.1,1.2-4.2,1.6-6.7,1.6c-6.3,0-7.9-4.4-7.9-9.3c0-3.2,1.2-9.3,7.9-9.3
		C186.9,191.7,187.2,198,187.2,200.3 M169.1,192.6v4.6h-2.3v-2.8c-0.7-0.2-1.6-0.2-2.3-0.2c-3.9,0-5.6,2.5-5.6,7
		c0,4.2,1.4,6.5,5.1,6.5c1.9,0,3.5-0.5,5.3-1.2l0.7,2.1c-1.6,0.9-3.9,1.4-6.3,1.4c-6,0-7.9-3.9-7.9-9c0-3.7,1.4-9.5,8.1-9.5
		C165.8,191.7,167.7,191.9,169.1,192.6 M145.7,194.5v-2.3h4.9v15.5h2.8v1.9c-0.9,0.5-2.3,0.7-3,0.7c-1.6,0-2.5-0.7-2.5-2.5v-13.2
		L145.7,194.5L145.7,194.5z M135.7,194.3c-3.9,0-5.1,3.5-5.1,7c0,3.5,0.7,6.7,4.9,6.7c3.9,0,4.6-3.5,4.6-6.7
		C140.3,198,139.6,194.3,135.7,194.3 M135.5,210.2c-5.8,0-7.6-4.2-7.6-9s2.1-9.5,8.1-9.5c6,0,7.6,4.6,7.6,9.3
		C143.4,205.6,141.5,210.2,135.5,210.2 M108.1,192.2h4.4l2.5,7.9l2.3,7.4h0.2c0.7-2.1,1.4-4.4,2.1-6.5c0.7-2.1,1.4-4.2,2.1-6.5h-1.6
		v-2.3h6.5v2.3h-1.9c-1.9,5.1-3.5,10.2-5.3,15.5H116l-5.3-15.5h-2.1L108.1,192.2L108.1,192.2z"/>
	<path id="path6563" class="st1" d="M193.7,168.1c0.2-0.5,0.5-0.9,0.7-1.4l2.1-4.6h2.1v0.7h-0.7v6.5h0.7v0.7H196v-0.7h0.7v-5.6l0,0
		l-0.5,1.2c-0.2,0.7-0.5,1.2-0.7,1.9c-0.5,0.9-0.7,1.6-1.2,2.5H193c-0.7-1.4-1.4-2.8-1.9-4.4c-0.2-0.5-0.2-0.7-0.5-1.2l0,0v5.6h0.7
		v0.7H189v-0.7h0.7v-6.5H189V162h2.1c0.5,0.9,1.2,2.8,1.9,4.4C193.2,166.9,193.4,167.6,193.7,168.1L193.7,168.1L193.7,168.1z
		 M183.9,169.9v-0.7h0.9v-6.5H183v1.2h-0.7v-2.1h6v2.1h-0.7v-1.2h-1.9v6.5h0.9v0.7H183.9z"/>
</g>
</svg>
