<?xml version="1.0" encoding="utf-8"?>
<!-- Generator: Adobe Illustrator 21.0.2, SVG Export Plug-In . SVG Version: 6.00 Build 0)  -->
<svg version="1.1" id="Layer_1" xmlns="http://www.w3.org/2000/svg" xmlns:xlink="http://www.w3.org/1999/xlink" x="0px" y="0px"
	 viewBox="0 0 225 126.5" style="enable-background:new 0 0 225 126.5;" xml:space="preserve">
<g>
	<path d="M189.7,84.8c0-14.4,0-28.8,0-43.1c0-0.5,0.1-0.4-0.4-0.4c-15.3,0-30.5,0-45.8,0c-0.1,0-0.1,0-0.2,0c-0.2,0-0.3,0-0.2,0.2
		c0,0.1,0,0.1,0,0.2c0,1.9,0,3.8,0,5.7c0,12.5,0,25,0,37.6c0,0.5-0.1,0.4,0.4,0.4c7.6,0,15.3,0,22.9,0s15.3,0,22.9,0
		C189.8,85.2,189.7,85.3,189.7,84.8z M180.2,76.7c-1.8,0.9-3.6,1.6-5.5,2.1c-2.2,0.6-4.5,0.8-6.8,0.8c-3-0.1-6-0.6-8.7-1.9
		c-4.2-2-7-5.2-8.4-9.7c-0.5-1.5-0.7-3.1-0.7-4.8c0-1.2,0.2-2.3,0.5-3.4c0.7-3,2.2-5.6,4.4-7.7c1.8-1.7,3.8-2.9,6.1-3.7
		c1.5-0.6,4.1-1.1,5.8-1.2c1.6-0.1,3.2-0.1,4.8,0.1c1.3,0.2,2.6,0.5,3.9,0.9c1.5,0.4,2.9,0.9,4.4,1.5c0.1,0.1,0.3,0.1,0.3,0.3
		c0,1.9,0,3.7,0,5.5c-0.1,0.1-0.2,0-0.2,0c-2.7-1.5-5.5-2.6-8.5-3.1c-1.3-0.2-2.6-0.4-3.9-0.3c-2.6,0.2-5,0.9-7.2,2.4
		c-2,1.4-3.4,3.4-4,5.8c-0.3,1.2-0.5,2.4-0.5,3.6c0,1.2,0.3,2.5,0.8,3.6c1.2,3.1,3.5,5.2,6.6,6.3c1.2,0.4,2.5,0.7,3.8,0.8
		c0.7,0.1,1.4,0.1,2.1,0.1c1.7-0.1,3.4-0.4,5.1-1c2-0.7,3.9-1.6,5.8-2.7c0.1-0.1,0.3-0.2,0.4-0.2c0,0,0,0,0.1,0c0,0.1,0,0.2,0,0.3
		c0,1.8,0,3.6,0,5.4C180.5,76.5,180.4,76.6,180.2,76.7z"/>
	<path d="M82,84.9c0-14.4,0-28.8,0-43.2c0-0.5,0.1-0.4-0.4-0.4c-15.3,0-30.6,0-45.9,0c-0.5,0-0.4-0.1-0.4,0.4c0,14.4,0,28.8,0,43.1
		c0,0.4,0,0.4,0.5,0.4c7.6,0,15.3,0,22.9,0c7.6,0,15.3,0,22.9,0C82.1,85.3,82,85.4,82,84.9z M70.6,72.4c-0.6,2.3-2.1,4-4.2,5.1
		c-1.4,0.7-2.9,1.1-4.4,1.4C61.3,79,60.6,79,59.8,79c-3.9,0-7.8,0-11.7,0c-0.2,0-0.4,0.1-0.5,0c-0.1-0.1,0-0.3,0-0.5
		c0-10.2,0-20.4,0-30.7c0-0.4,0-0.4,0.5-0.4c3.5,0,6.9-0.1,10.4,0c2.5,0.1,4.8,0.7,6.7,2.3c1.7,1.3,2.6,3,2.8,5.1
		c0.1,1.3,0,2.5-0.5,3.7c-0.6,1.5-1.8,2.7-3.2,3.5c-0.1,0.1-0.2,0.1-0.3,0.2c0.7,0.2,1.5,0.4,2.1,0.8c2.5,1.2,4.1,3.1,4.6,5.9
		C71,70.1,70.9,71.3,70.6,72.4z"/>
	<path d="M135.9,41.7c0-0.5,0.1-0.4-0.4-0.4c-15.3,0-30.6,0-45.9,0c-0.5,0-0.4-0.1-0.4,0.4c0,14.4,0,28.8,0,43.2
		c0,0.4,0,0.4,0.4,0.4c7.6,0,15.3,0,22.9,0c7.7,0,15.3,0,23,0c0.5,0,0.4,0.1,0.4-0.4C135.9,70.5,135.9,56.1,135.9,41.7z M124.8,70.4
		c0,1.2-0.3,2.3-0.8,3.4c-0.7,1.5-1.8,2.6-3.2,3.4c-1.4,0.8-2.8,1.3-4.4,1.6c-1,0.2-1.9,0.2-2.9,0.2c-3.9,0-7.8,0-11.7,0
		c-0.5,0-0.4,0-0.4-0.4c0-10.3,0-20.6,0-30.9c0-0.4-0.1-0.4,0.4-0.4c3.5,0,7-0.1,10.5,0c2.4,0.1,4.7,0.7,6.7,2.2
		c1.7,1.3,2.6,3,2.9,5.1c0.2,1.3,0.1,2.6-0.5,3.8c-0.6,1.5-1.7,2.7-3.2,3.5c-0.1,0.1-0.2,0.1-0.3,0.2c0.5,0.2,1,0.3,1.5,0.5
		c1.7,0.7,3.1,1.7,4.1,3.3C124.4,67.4,124.8,68.8,124.8,70.4z"/>
	<path d="M53.2,69.8c0-1.3,0-2.7,0-4c0-0.3,0-0.3,0.3-0.3c2,0,3.9,0,5.9,0c1.1,0,2.1,0.1,3.1,0.6c1,0.4,1.9,1.1,2.3,2.2
		c0.6,1.5,0.3,3.8-1.7,5c-0.8,0.4-1.6,0.7-2.5,0.8c-0.6,0.1-1.2,0.1-1.8,0.1c-1.7,0-3.5,0-5.2,0c-0.1,0-0.1,0-0.2,0
		c-0.2,0-0.2-0.1-0.2-0.2C53.2,72.6,53.2,71.2,53.2,69.8z"/>
	<path d="M53.2,56.4c0-1.3,0-2.5,0-3.8c0-0.3,0-0.3,0.3-0.3c1.4,0,2.7,0,4.1,0c1,0,1.9,0.2,2.8,0.6c1.4,0.7,2.1,2.2,1.9,3.8
		C62,58.3,61,59.4,59.6,60c-0.9,0.4-1.9,0.6-2.9,0.6c-1,0-2.1,0-3.1,0c-0.4,0-0.4,0-0.4-0.4C53.2,58.9,53.2,57.6,53.2,56.4z"/>
	<path d="M107.1,69.8c0-1.4,0-2.7,0-4.1c0-0.1,0.1-0.3,0.3-0.3c2,0,4,0,6,0c1.1,0,2.1,0.2,3.1,0.6c1.1,0.5,1.9,1.2,2.3,2.4
		c0.5,1.3,0.3,3.6-1.7,4.8c-0.7,0.4-1.4,0.6-2.2,0.8c-0.6,0.1-1.2,0.1-1.8,0.1c-1.8,0-3.7,0-5.5,0c-0.1,0-0.1,0-0.2,0
		c-0.2,0-0.2,0-0.2-0.2c0-0.6,0-1.2,0-1.8C107.1,71.4,107.1,70.6,107.1,69.8z"/>
	<path d="M107.1,56.4c0-1.3,0-2.5,0-3.8c0-0.3,0-0.3,0.3-0.3c1.4,0,2.7,0,4.1,0c0.9,0,1.7,0.2,2.5,0.5c2.9,1.3,2.7,4.8,0.9,6.3
		c-0.7,0.6-1.5,0.9-2.4,1.2c-0.6,0.1-1.2,0.2-1.9,0.2c-1,0-2.1,0-3.1,0c-0.4,0-0.3,0-0.3-0.4C107.1,58.9,107.1,57.7,107.1,56.4z"/>
</g>
</svg>
