<?xml version="1.0" encoding="utf-8"?>
<!-- Generator: Adobe Illustrator 21.0.2, SVG Export Plug-In . SVG Version: 6.00 Build 0)  -->
<svg version="1.1" id="Layer_1" xmlns="http://www.w3.org/2000/svg" xmlns:xlink="http://www.w3.org/1999/xlink" x="0px" y="0px"
	 viewBox="0 0 225 126.5" style="enable-background:new 0 0 225 126.5;" xml:space="preserve">
<g>
	<path d="M171.5,79.6c0-1-0.7-1.7-1.6-1.7c-0.9,0-1.7,0.8-1.7,1.7c0,1,0.7,1.7,1.6,1.7l0,0C170.9,81.4,171.5,80.6,171.5,79.6z"/>
	<path d="M62.5,75.1V62.9c0-3.3-2.6-5.9-5.7-5.9H44.4c-3.2,0-5.7,2.6-5.7,5.9v12.2c0,3.3,2.6,5.9,5.7,5.9h12.3
		C60,81,62.5,78.4,62.5,75.1z M46.1,77.3c-2,0-3.7-1.7-3.7-3.8v-9.1c0-2.1,1.7-3.8,3.7-3.8h9.2c2,0,3.7,1.7,3.7,3.8v9.1
		c0,2.1-1.7,3.8-3.7,3.8H46.1z"/>
	<path d="M88.7,75.1V62.9c0-3.3-2.6-5.9-5.7-5.9H70.7c-3.2,0-5.7,2.6-5.7,5.9v12.2c0,3.3,2.6,5.9,5.7,5.9H83
		C86.2,81,88.7,78.4,88.7,75.1z M85.1,64.5v9.1c0,2.1-1.7,3.8-3.7,3.8h-9.2c-2,0-3.7-1.7-3.7-3.8v-9.1c0-2.1,1.7-3.8,3.7-3.8h9.2
		C83.4,60.8,85.1,62.5,85.1,64.5z"/>
	<path d="M140.7,62.9c0-3.3-2.6-5.9-5.7-5.9h-12.3c-3.2,0-5.7,2.6-5.7,5.9v12.2c0,3.3,2.6,5.9,5.7,5.9H135c3.2,0,5.7-2.6,5.7-5.9
		V62.9z M137.1,64.5v9.1c0,2.1-1.7,3.8-3.7,3.8h-9.2c-2,0-3.7-1.7-3.7-3.8v-9.1c0-2.1,1.7-3.8,3.7-3.8h9.2
		C135.5,60.8,137.1,62.5,137.1,64.5z"/>
	<path d="M166.9,75.1V62.9c0-3.3-2.6-5.9-5.7-5.9h-12.3c-3.2,0-5.7,2.6-5.7,5.9v12.2c0,3.3,2.6,5.9,5.7,5.9h12.3
		C164.3,81,166.9,78.4,166.9,75.1z M163.3,64.5v9.1c0,2.1-1.7,3.8-3.7,3.8h-9.2c-2,0-3.7-1.7-3.7-3.8v-9.1c0-2.1,1.7-3.8,3.7-3.8
		h9.2C161.5,60.8,163.3,62.5,163.3,64.5z"/>
	<path d="M30.6,57.1H18.2c-0.7,0-1.3,0.1-2,0.4V45.1h-3.6v30c0,3.3,2.6,5.9,5.7,5.9h12.3c3.2,0,5.7-2.6,5.7-5.9V62.9
		C36.2,59.7,33.7,57.1,30.6,57.1z M32.7,64.5v9.1c0,2.1-1.7,3.8-3.7,3.8h-9.2c-2,0-3.7-1.7-3.7-3.8v-9.1c0-2,1.7-3.7,3.7-3.7h9.2
		C31.1,60.8,32.7,62.5,32.7,64.5z"/>
	<path d="M109.1,57.2H96.7c-0.7,0-1.3,0.1-2,0.4V45.2H91V81h3.7v-0.4c0-1.5-0.1-15.9-0.1-16c0-2,1.7-3.7,3.7-3.7h9.2
		c2,0,3.7,1.7,3.7,3.8v16.4h3.6V63C114.7,59.7,112.1,57.2,109.1,57.2z"/>
	<path d="M179,81.4c1.5,0,2.7-0.4,3.4-0.7l0.1-0.1l-0.4-2l-0.3,0.1c-0.5,0.3-1.3,0.5-2.5,0.5c-2.2,0-3.7-1.7-3.7-4.1
		c0-2,1.2-4.2,3.8-4.2c0.9,0,1.7,0.3,2.4,0.5l0.3,0.1l0.5-2l-0.1-0.1c-0.5-0.4-1.7-0.7-3-0.7c-3.7,0-6.4,2.6-6.4,6.3
		C173.1,78.9,175.5,81.4,179,81.4z"/>
	<path d="M188.7,68.9c-3.5,0-6,2.6-6,6.3c0,3.6,2.4,6.1,5.8,6.1l0,0c2.8,0,6-2,6-6.3C194.4,71.4,192,68.9,188.7,68.9z M188.6,70.9
		c2.2,0,3.3,2.1,3.3,4.2c0,2.5-1.3,4.3-3.3,4.3c-2,0-3.3-1.8-3.3-4.2C185.3,73.1,186.3,70.9,188.6,70.9z"/>
	<path d="M208.7,68.9c-1.2,0-2,0.3-2.7,0.9c-0.4,0.4-0.9,0.8-1.2,1.2c-0.7-1.2-1.8-2-3.3-2c-1.5,0-2.7,0.5-3.5,1.7l-0.1-1.5h-2.2
		v0.3c0,0.9,0.1,2,0.1,3.2v8.6h2.5V74c0-0.4,0-0.7,0.1-0.9c0.4-1,1.2-2,2.4-2c1.3,0,2.1,1.2,2.1,2.9v7.1h2.5v-7.4c0-0.4,0-0.7,0.1-1
		c0.4-0.8,1.2-1.7,2.2-1.7c2,0,2.2,1.8,2.2,3.3v6.8h2.5v-7C212.7,70.2,210.6,68.9,208.7,68.9z"/>
</g>
</svg>
