<svg version="1.1" id="Layer_1" xmlns="http://www.w3.org/2000/svg" xmlns:xlink="http://www.w3.org/1999/xlink" x="0px" y="0px"
	 viewBox="0 0 225 126.5" style="enable-background:new 0 0 225 126.5;" xml:space="preserve">
<g>
	<path d="M37.4,56.2c-1.9-1.6-4.4-2.9-7.9-1.1c0.7-2.6,0.8-5.2-1.2-7.7c2.9,0,5.4,0.1,8,0.1c0.8,0,1.1,0.6,1.1,1.3
		C37.4,51.2,37.4,53.6,37.4,56.2z"/>
	<path d="M13.7,47.3c-2.8,3-5.5,5.9-8.3,8.9c-0.1-0.1-0.2-0.1-0.4-0.2c0-2.6,0-5.2,0.1-7.8c0-0.3,0.2-0.9,1.2-0.9
		C8.8,47.4,11.4,47.3,13.7,47.3z"/>
	<path d="M5.4,70.3c2.8,2.9,5.6,5.8,8.5,8.9c-3.3,0-5,0-7.7-0.1c-0.6,0-1.2-0.6-1.2-1.3c0-2.5-0.1-4.9-0.1-7.4
		C5.1,70.4,5.2,70.3,5.4,70.3z"/>
	<path d="M28.5,79.2c3-3,5.8-6,8.9-9.1c0,2.8,0.1,5.4-0.1,7.9c0,0.8-0.7,1.1-1.1,1.1C33.7,79.2,31.1,79.2,28.5,79.2z"/>
	<path d="M20.7,51.7c-1.4,0.1-2.1,0.7-2.6,1.2c-3.2,3-9.5,9.1-10.5,10l4.9,5c3.4-3.5,6.8-6.8,10.1-10.2c0.5-0.5,0.9-1.3,1.2-2
		C24.5,53.7,23,51.4,20.7,51.7z"/>
	<path d="M29.7,60.7c-1.4,0.1-2.1,0.7-2.6,1.2c-3.2,3.1-9.8,9.3-10.5,10l4.9,5c3.4-3.5,6.8-6.8,10.1-10.2c0.5-0.5,0.9-1.3,1.2-2
		C33.5,62.7,32,60.5,29.7,60.7z"/>
	<g>
		<path d="M58.8,58.1c0.4,0,0.8,0,1.2,0c0.3,0,0.6,0,0.9,0.1c0.3,0,0.5,0.1,0.7,0.2c0.2,0.1,0.4,0.2,0.7,0.3c0.4,0.2,0.8,0.5,1,0.9
			c0.2,0.4,0.4,0.8,0.4,1.3c0,1.4-1.1,2.3-3.4,2.5v0c1.3,0.1,2.2,0.3,2.8,0.8c0.6,0.5,0.9,1.1,0.9,1.9c0,0.5-0.1,1-0.4,1.4
			c-0.3,0.4-0.7,0.7-1.2,0.9c-0.2,0.1-0.5,0.2-0.7,0.3c-0.2,0.1-0.5,0.1-0.8,0.2c-0.3,0-0.6,0.1-1,0.1c-0.4,0-0.8,0-1.3,0h-3.6V58.1
			H58.8z M58.4,63.1c2.1,0,3.2-0.8,3.2-2.3c0-0.9-0.4-1.5-1.2-1.9c-0.1-0.1-0.3-0.1-0.4-0.2c-0.1,0-0.3-0.1-0.5-0.1
			c-0.2,0-0.4,0-0.6-0.1c-0.2,0-0.5,0-0.8,0h-1.1v4.4H58.4z M58.4,68.4c1.2,0,2.1-0.2,2.6-0.6s0.8-1,0.8-1.8c0-0.8-0.3-1.4-0.8-1.8
			c-0.5-0.4-1.4-0.6-2.5-0.6h-1.6v4.7H58.4z"/>
	</g>
	<g>
		<path d="M78.2,57.8c0.9,0,1.8,0.1,2.6,0.4c0.8,0.3,1.4,0.7,2,1.3c0.5,0.5,0.9,1.1,1.1,1.8c0.2,0.7,0.4,1.4,0.4,2.3
			c0,0.9-0.2,1.8-0.5,2.6c-0.4,0.8-0.9,1.4-1.5,1.9c-0.5,0.4-1.1,0.7-1.8,0.9c-0.7,0.2-1.4,0.3-2.2,0.3c-0.8,0-1.6-0.1-2.3-0.3
			c-0.7-0.2-1.3-0.6-1.9-1c-1.2-1-1.8-2.5-1.8-4.4c0-0.6,0.1-1.2,0.2-1.8c0.1-0.6,0.4-1,0.6-1.5c0.5-0.8,1.2-1.4,2.1-1.8
			C76.1,58,77.1,57.8,78.2,57.8z M78.2,58.4c-0.6,0-1.2,0.1-1.8,0.4c-0.5,0.3-1,0.6-1.3,1.1c-0.3,0.4-0.5,0.9-0.7,1.5
			c-0.1,0.6-0.2,1.2-0.2,2.1c0,0.8,0.1,1.5,0.2,2.1c0.1,0.6,0.3,1.1,0.6,1.5c0.3,0.5,0.7,0.8,1.3,1.1c0.5,0.3,1.1,0.4,1.8,0.4
			c1.3,0,2.2-0.4,2.9-1.3s1-2.1,1-3.8c0-0.9-0.1-1.6-0.2-2.2c-0.1-0.6-0.4-1.1-0.7-1.6c-0.3-0.5-0.7-0.8-1.3-1.1
			C79.4,58.5,78.9,58.4,78.2,58.4z"/>
	</g>
	<g>
		<path d="M113.2,58.1c0.6,0,1.1,0,1.5,0c0.4,0,0.8,0.1,1.2,0.1c0.3,0.1,0.6,0.1,0.9,0.2c0.3,0.1,0.6,0.2,0.9,0.4
			c0.8,0.4,1.4,1,1.9,1.8c0.4,0.8,0.7,1.7,0.7,2.8c0,1.1-0.2,2-0.7,2.8c-0.4,0.8-1.1,1.4-1.9,1.8c-0.3,0.2-0.6,0.3-0.9,0.4
			c-0.3,0.1-0.6,0.2-1,0.3c-0.4,0.1-0.8,0.1-1.3,0.1c-0.5,0-1,0-1.7,0h-2.8V58.1H113.2z M113.1,68.4c0.5,0,1,0,1.4-0.1
			c0.4,0,0.8-0.1,1.1-0.2c0.3-0.1,0.6-0.2,0.8-0.4c0.2-0.2,0.5-0.3,0.7-0.6c0.7-0.8,1.1-2,1.1-3.6c0-1.9-0.5-3.3-1.5-4.1
			c-0.4-0.3-0.8-0.5-1.4-0.6s-1.2-0.2-2-0.2H112v9.7H113.1z"/>
	</g>
	<g>
		<path d="M170.6,58.1v0.6h-5.3v3.9h4v0.6h-4v5.7h-1.9V58.1H170.6z"/>
	</g>
	<g>
		<path d="M203.6,58.7H198v3.7h3.8V63H198v5.3h5.8v0.6h-7.7V58.1h7.5V58.7z"/>
	</g>
	<g>
		<path d="M137.1,58.7h-5.5v3.7h3.8V63h-3.8v5.3h5.8v0.6h-7.7V58.1h7.5V58.7z"/>
	</g>
	<g>
		<path d="M219.7,58.7h-5.5v3.7h3.8V63h-3.8v5.3h5.8v0.6h-7.7V58.1h7.5V58.7z"/>
	</g>
	<g>
		<path d="M150.7,63.6L150.7,63.6c1.7-0.4,2.6-1.2,2.6-2.6c0-0.5-0.1-0.9-0.3-1.3c-0.2-0.4-0.6-0.7-1-0.9c-0.4-0.2-0.8-0.3-1.2-0.4
			c-0.4-0.1-1-0.1-1.8-0.1h-3.4v10.8h1.8v-5h1c0.2,0,0.5,0,0.8-0.1l0,0l3.7,5h1.9L150.7,63.6z M147.4,63.4v-4.7h1.3
			c0.7,0,1.3,0.1,1.7,0.3c0.7,0.4,1,1.1,1,2c0,0.8-0.2,1.3-0.7,1.7c-0.5,0.4-1.1,0.6-2,0.6H147.4z"/>
	</g>
	<g>
		<path d="M97.6,63.6L97.6,63.6c1.7-0.4,2.6-1.2,2.6-2.6c0-0.5-0.1-0.9-0.3-1.3c-0.2-0.4-0.6-0.7-1-0.9c-0.4-0.2-0.8-0.3-1.2-0.4
			c-0.4-0.1-1-0.1-1.8-0.1h-3.4v10.8h1.8v-5h1c0.2,0,0.5,0,0.8-0.1l0,0l3.7,5h1.9L97.6,63.6z M94.2,63.4v-4.7h1.3
			c0.7,0,1.3,0.1,1.7,0.3c0.7,0.4,1,1.1,1,2c0,0.8-0.2,1.3-0.7,1.7c-0.5,0.4-1.1,0.6-2,0.6H94.2z"/>
	</g>
	<g>
		<path d="M184.9,63.6L184.9,63.6c1.7-0.4,2.6-1.2,2.6-2.6c0-0.5-0.1-0.9-0.3-1.3c-0.2-0.4-0.6-0.7-1-0.9c-0.4-0.2-0.8-0.3-1.2-0.4
			c-0.4-0.1-1-0.1-1.8-0.1h-3.4v10.8h1.8v-5h1c0.2,0,0.5,0,0.8-0.1l0,0l3.7,5h1.9L184.9,63.6z M181.5,63.4v-4.7h1.3
			c0.7,0,1.3,0.1,1.7,0.3c0.7,0.4,1,1.1,1,2c0,0.8-0.2,1.3-0.7,1.7c-0.5,0.4-1.1,0.6-2,0.6H181.5z"/>
	</g>
</g>
</svg>
