<?xml version="1.0" encoding="utf-8"?>
<!-- Generator: Adobe Illustrator 15.0.0, SVG Export Plug-In . SVG Version: 6.00 Build 0)  -->
<!DOCTYPE svg PUBLIC "-//W3C//DTD SVG 1.1//EN" "http://www.w3.org/Graphics/SVG/1.1/DTD/svg11.dtd">
<svg version="1.1" id="Layer_1" xmlns="http://www.w3.org/2000/svg" xmlns:xlink="http://www.w3.org/1999/xlink" x="0px" y="0px"
	 width="170.08px" height="141.73px" viewBox="0 0 170.08 141.73" enable-background="new 0 0 170.08 141.73" xml:space="preserve">
<g>
	<path d="M114.747,78.613c-0.075-0.075-0.227-0.075-0.303-0.151c-0.035-0.012-0.069-0.012-0.104-0.021
		c-0.08-0.067-0.204-0.131-0.272-0.131c-0.227,0-0.454-0.075-0.681-0.075c-0.192-0.025-0.362-0.064-0.521-0.109
		c-0.499-0.262-0.762-0.712-0.915-1.478c-0.075-0.454-0.075-0.983-0.075-1.437c0-3.326,0-6.728,0-10.054c0-0.907,0-1.814,0-2.797
		c0-0.227,0-0.454,0-0.681c-0.063-0.375-0.237-0.586-0.551-0.65c-0.122-0.119-0.312-0.181-0.583-0.181c-0.151,0-0.378,0-0.605,0
		c-1.359,0.227-2.721,0.151-4.082,0c-0.227,0-0.453,0-0.68,0c-0.076,0-0.227,0-0.303,0.075c-0.075,0-0.227,0.151-0.227,0.227
		c0,0.151,0.076,0.378,0.151,0.454c0.099,0.049,0.233,0.099,0.376,0.148c0.001,0.001,0.001,0.003,0.002,0.003
		c0.151,0.15,0.378,0.15,0.605,0.227c0.372,0.124,0.733,0.204,1.063,0.31c0.492,0.244,0.758,0.657,0.825,1.202
		c0.076,0.378,0.076,0.681,0.076,1.059c0,2.721,0,5.442,0,8.163c0,0.228,0,0.454,0,0.681c-0.076,1.285-0.529,2.57-1.361,3.629
		c-1.058,1.36-2.494,2.116-4.232,2.04c-0.457,0-0.866-0.067-1.244-0.177c-1.175-0.479-1.865-1.481-2.082-2.998
		c-0.076-0.528-0.076-1.058-0.076-1.587c0-3.931,0-7.786,0-11.717c0-0.303,0-0.604-0.075-0.982
		c-0.068-0.345-0.271-0.498-0.593-0.579c-0.115-0.113-0.269-0.177-0.465-0.177c-0.227,0-0.454,0-0.681,0
		c-1.36,0.227-2.722,0.151-4.082,0c-0.151,0-0.378,0-0.604,0c-0.151,0-0.227,0.075-0.379,0.075c-0.15,0-0.302,0.151-0.302,0.303
		c-0.075,0.151,0,0.302,0.151,0.378c0.138,0.045,0.251,0.091,0.366,0.137c0.006,0.004,0.005,0.011,0.012,0.014
		c0.151,0.075,0.378,0.15,0.604,0.227c0.32,0.063,0.593,0.137,0.896,0.248c0.617,0.26,0.995,0.748,0.995,1.491
		c0,0.378,0,0.756,0,1.134c0,2.948,0,5.972,0,8.996c0,0.982,0.074,1.965,0.377,2.947c0.479,1.503,1.395,2.568,2.849,3.096
		c0.267,0.119,0.547,0.226,0.855,0.307c0.983,0.302,1.966,0.302,2.948,0.302c2.496,0,4.56-1.077,6.131-3.008
		c0.065,0.649,0.074,1.3,0.219,1.95c0.109,0.601,0.224,0.96,0.677,0.973c0.185,0.191,0.487,0.215,1.062,0.01
		c0.076,0,0.151-0.076,0.227-0.076c1.285-0.453,2.646-0.831,3.932-1.058c0.227-0.076,0.453-0.151,0.68-0.228
		C114.898,78.991,114.898,78.688,114.747,78.613z M108.072,76.682c0.008-0.012,0.015-0.022,0.022-0.034
		C108.095,76.692,108.112,76.706,108.072,76.682z"/>
	<path d="M150.804,88.214c-0.064-0.043-0.125-0.078-0.188-0.109c-0.126-0.07-0.238-0.118-0.341-0.118
		c-0.529-0.227-1.059-0.378-1.587-0.604c-3.402-1.437-6.577-3.326-9.525-5.594c-4.082-3.023-7.71-6.576-11.111-10.432
		c-0.076-0.075-0.151-0.151-0.227-0.227c-0.228-0.227-0.228-0.529,0-0.832c0.227-0.302,0.528-0.68,0.756-0.982
		c2.191-2.948,4.61-5.745,7.256-8.314c0.076-0.076,0.227-0.151,0.303-0.303c0.076-0.075,0.076-0.151-0.076-0.303
		c-0.092,0.062-0.181,0.109-0.268,0.161c-0.014-0.044-0.042-0.093-0.109-0.161c-0.151,0.151-0.379,0.303-0.605,0.454
		c-0.982,0.831-1.965,1.587-2.947,2.494c-1.664,1.588-3.251,3.251-4.838,4.989c-0.151,0.227-0.379,0.453-0.605,0.681
		c-0.113,0.113-0.229,0.168-0.346,0.193c-0.088-0.058-0.174-0.141-0.259-0.269c-0.227-0.227-0.378-0.453-0.529-0.68
		c-1.437-1.891-2.948-3.78-4.384-5.594c-0.303-0.379-0.529-0.681-0.832-1.059s-0.756-0.604-1.209-0.756
		c-0.247-0.074-0.507-0.064-0.765-0.02c-0.659-0.003-1.351,0.283-1.729,0.851c-0.303,0.454-0.379,1.21,0.227,1.966
		c0.377,0.529,0.831,0.907,1.36,1.285c0.454,0.302,0.907,0.604,1.285,0.982c1.738,1.512,3.25,3.25,4.838,4.913
		c0.302,0.303,0.302,0.529,0.075,0.907c-0.075,0.076-0.15,0.227-0.227,0.303c-0.756,0.907-1.512,1.89-2.268,2.797
		c-0.529,0.756-1.209,1.436-1.891,2.041c-0.528,0.453-0.982,0.907-1.436,1.36c-0.378,0.378-0.605,0.756-0.756,1.21
		c-0.076,0.227-0.076,0.453,0,0.68c0.227,0.529,0.604,0.832,1.134,0.907c0.252,0.046,0.486,0.046,0.712,0.024
		c0.681,0.041,1.263-0.174,1.783-0.629c0.528-0.454,0.831-0.983,1.133-1.588c0.908-1.965,2.041-3.704,3.251-5.442
		c0.075-0.151,0.227-0.303,0.378-0.453c0.055-0.056,0.129-0.071,0.2-0.09c0.008,0.006,0.02,0.007,0.026,0.014
		c0.151,0.151,0.378,0.303,0.529,0.454c1.134,0.982,2.268,2.116,3.401,3.099c4.536,3.931,9.449,7.257,14.892,9.827
		c1.512,0.681,3.1,1.36,4.687,1.89c0.171,0.058,0.342,0.156,0.576,0.138C150.621,88.27,150.707,88.252,150.804,88.214z
		 M148.604,87.504c0.443,0.168,0.888,0.331,1.334,0.484c-0.015,0-0.024-0.002-0.04-0.002
		C149.466,87.863,149.035,87.687,148.604,87.504z"/>
	<path d="M95.021,91.494c-0.707,0.001-1.427,0.054-1.666,0.196c0.152,0.076,0.228,0.076,0.303,0.076
		c0.328,0.109,0.528,0.203,0.662,0.336c0.134,0.15,0.209,0.353,0.245,0.646c0,0.151,0,0.227,0,0.378c0,1.738,0,3.401,0,5.14
		c0,0.075,0,0.151-0.019,0.208l0,0c-0.02,0.057-0.057,0.095-0.133,0.095c-0.15-0.227-0.378-0.453-0.529-0.681
		c-1.512-1.89-3.023-3.779-4.535-5.669c-0.15-0.151-0.227-0.303-0.378-0.453c-0.151-0.228-0.454-0.303-0.756-0.303
		c-0.529,0-0.982,0-1.512,0c-0.151,0-0.302-0.075-0.378,0.151c0.076,0.227,0.303,0.151,0.453,0.227
		c0.756,0.303,0.907,0.604,0.907,1.285c0,1.965,0,3.931,0,5.972c0,0.151,0,0.378,0,0.529c-0.036,0.221-0.11,0.403-0.219,0.544
		c-0.112,0.119-0.261,0.22-0.462,0.287c-0.075,0-0.227,0.076-0.302,0.076c-0.04,0-0.078,0.023-0.096,0.066
		c-0.027,0.051-0.026,0.113,0.021,0.16c0.906,0,1.813,0,2.721,0c0,0,0.076-0.076,0.076-0.151c-0.152-0.075-0.303-0.075-0.454-0.151
		c-0.454-0.151-0.756-0.453-0.756-0.982c0-0.075,0-0.227,0-0.303c0-1.813,0-3.704,0-5.518c0-0.151,0-0.303,0.151-0.378
		c0.15,0.227,0.303,0.378,0.453,0.604c1.663,2.116,3.402,4.309,5.141,6.425c0.15,0.151,0.303,0.378,0.453,0.529
		c0.076,0.076,0.151,0.151,0.227,0.151c0.076,0.075,0.303,0,0.303-0.151c0-0.227,0-0.453,0-0.68c0-2.344,0-4.688,0-7.03
		c0-0.412,0.075-0.73,0.242-0.956c0.162-0.203,0.416-0.332,0.816-0.404c0.15,0,0.227-0.076,0.15-0.228
		C95.865,91.51,95.448,91.493,95.021,91.494z"/>
	<path d="M82.096,98.922c-0.004-0.043,0.001-0.082-0.004-0.126c0-0.075-0.075-0.075-0.151-0.075
		c-0.076,0.227-0.151,0.378-0.227,0.604c-0.227,0.604-0.604,0.907-1.134,1.059c-0.756,0.227-1.587,0.227-2.419,0.075
		c-0.394-0.099-0.646-0.272-0.783-0.54c-0.027-0.107-0.048-0.223-0.048-0.367c-0.076-1.058,0-2.041,0-3.099c0,0,0-0.076,0.076-0.151
		c0.151,0,0.378,0,0.529,0c0.6,0.055,1.075,0.236,1.354,0.669c0.066,0.138,0.127,0.281,0.158,0.465c0,0.052,0.005,0.134,0.078,0.16
		c0.004,0.077,0.079,0.216,0.225,0.143c0.076-0.228,0-0.529,0-0.832c0-0.302,0-0.604,0-0.982c0-0.303,0-0.604,0-0.907
		c0-0.604,0-0.604-0.151-0.831c-0.001,0-0.001,0.001-0.002,0.002c-0.02-0.045-0.042-0.09-0.073-0.153
		c-0.227,0.075-0.151,0.302-0.227,0.453c-0.151,0.378-0.302,0.681-0.604,0.907c-0.362,0.29-0.933,0.365-1.512,0.238
		c0-1.02,0-2.102,0-3.187c0-0.302,0.151-0.453,0.529-0.453c0.756-0.076,1.512-0.076,2.268,0.151c0.377,0.107,0.673,0.298,0.87,0.615
		c0.042,0.091,0.085,0.181,0.113,0.291c0,0.07,0.019,0.143,0.044,0.221c-0.011,0.062,0.006,0.157,0.107,0.309
		c0.227-0.227,0.227-0.302,0.227-0.453c0-0.303-0.076-0.604,0-0.982c0.033-0.26-0.001-0.409-0.074-0.51
		c-0.053-0.278-0.265-0.322-0.606-0.322c-0.076,0-0.151,0-0.227,0c-1.89,0-3.855,0-5.745,0c-0.076,0-0.227,0-0.227,0.151
		c0.048,0.049,0.071,0.089,0.097,0.117c-0.005,0.015-0.022,0.015-0.022,0.034c0.076,0,0.076,0.075,0.151,0.151
		c0.386,0.035,0.637,0.123,0.8,0.301c0.125,0.215,0.183,0.501,0.183,0.908v0.075c0,2.041,0,4.007,0,5.973c0,0.15,0,0.378,0,0.604
		c0,0.378-0.227,0.68-0.605,0.756c-0.151,0-0.302,0-0.454,0.075c-0.076,0-0.151,0.076-0.227,0.227
		c0.073,0.024,0.116,0.032,0.166,0.043c-0.025,0.033-0.042,0.061-0.09,0.108c0.151,0,0.303,0.076,0.454,0.076
		c0.529,0,1.134,0,1.663,0c1.587,0,3.099,0,4.687,0.075c0.303,0,0.605,0.075,0.907-0.075c0.076-0.681,0.151-1.285,0-1.966
		C82.167,98.947,82.135,98.94,82.096,98.922z"/>
	<path d="M122.075,98.845c-0.021-0.096-0.043-0.191-0.071-0.276c-0.302,0.075-0.227,0.378-0.302,0.529
		c-0.227,0.529-0.605,0.907-1.21,1.059c-0.756,0.227-1.587,0.227-2.343,0.075c-0.306-0.068-0.51-0.158-0.66-0.291
		c-0.082-0.142-0.146-0.308-0.172-0.54c0-0.151,0-0.228,0-0.378c0-0.757,0-1.588,0-2.344c0-0.151,0.076-0.227,0.076-0.378
		c0.15,0,0.377,0,0.529,0c0.617,0,1.081,0.192,1.395,0.591c0.075,0.141,0.146,0.286,0.192,0.468c0,0.114,0.044,0.185,0.132,0.179
		c0.005,0.019,0.015,0.029,0.02,0.048c0,0.075,0.075,0.151,0.227,0.151c0-0.228,0-0.454,0-0.681s0-0.453,0-0.681
		c0-0.227,0-0.453,0-0.68c0-0.228,0-0.454,0-0.681c-0.151-0.453-0.076-0.681-0.303-1.059c-0.227,0.605-0.227,1.21-0.906,1.285
		c-0.433,0.288-0.934,0.366-1.438,0.308c0-1.038,0-2.144,0-3.18c0-0.303,0.152-0.454,0.454-0.529
		c0.756-0.075,1.512-0.075,2.269,0.151c0.324,0.093,0.583,0.254,0.776,0.496c0.051,0.102,0.099,0.208,0.13,0.335
		c0,0.151,0.076,0.303,0.151,0.454c0.03,0,0.048-0.009,0.071-0.014c0.04,0.08,0.08,0.16,0.08,0.24
		c0.227-0.075,0.227-0.227,0.227-0.303c0-0.227-0.076-0.529-0.076-0.756c0-0.438-0.004-0.663-0.125-0.781
		c-0.021-0.348-0.198-0.353-0.857-0.353c-1.89,0-3.779,0-5.669,0c-0.075,0-0.151,0-0.228,0.151c0.076,0.075,0.076,0.151,0.152,0.151
		c0.017,0.002,0.025,0.008,0.042,0.01c-0.015,0.021-0.042,0.028-0.042,0.065c0.075,0,0.075,0.151,0.15,0.151
		c0.331,0.03,0.563,0.099,0.727,0.229c0.124,0.214,0.181,0.499,0.181,0.904c0,2.041,0,4.082,0,6.123c0,0.831-0.151,1.285-1.058,1.36
		c-0.076,0-0.227,0.076-0.152,0.227c0.087,0,0.195,0,0.303,0c-0.075,0-0.227,0.076-0.15,0.228c0.15,0,0.302,0,0.529,0
		c0.831,0,1.662,0,2.569,0c1.285,0,2.57,0,3.78,0c0.227,0,0.453,0.075,0.68-0.151c0.151-0.907,0.151-1.512,0-1.966
		C122.121,98.807,122.101,98.828,122.075,98.845z"/>
	<path d="M44.296,95.999c-0.227,0-0.529-0.075-0.756-0.075c-5.669,0-11.263,0-16.933,0c-0.151,0-0.378,0-0.529,0
		c-0.076,0-0.151,0-0.227,0c-0.076,0.075-0.151,0.151-0.151,0.227c0,0.013,0.012,0.025,0.016,0.038
		c-0.004,0.013-0.016,0.025-0.016,0.038c0,0.075,0.075,0.227,0.151,0.227c0.227,0,0.454,0,0.681,0c2.797,0,5.669,0,8.466,0
		c2.873,0,5.745,0,8.618,0.075c0.227,0,0.454-0.075,0.68-0.075c0.076,0,0.151-0.076,0.151-0.151c0-0.013-0.012-0.032-0.017-0.049
		c0.004-0.008,0.017-0.026,0.017-0.026C44.448,96.15,44.372,95.999,44.296,95.999z"/>
	<path d="M107.566,91.539c-0.075,0-0.151,0.076-0.303,0.151c0.017,0.003,0.027,0.005,0.042,0.008
		c-0.035,0.022-0.068,0.043-0.117,0.068c0.303,0.075,0.529,0.075,0.756,0.15c0.378,0.076,0.604,0.378,0.604,0.756
		c0,0.076,0,0.228,0,0.303c0,1.588,0,3.251,0,4.838c0,0.378-0.075,0.756-0.227,1.134c-0.108,0.359-0.289,0.664-0.525,0.912
		c-0.249,0.236-0.552,0.417-0.911,0.524c-0.756,0.227-1.436,0.227-2.191,0.075c-0.832-0.151-1.361-0.604-1.512-1.436
		c-0.076-0.303-0.152-0.681-0.152-1.059c0-1.588,0-3.251,0-4.838c0-0.4,0.058-0.689,0.204-0.896
		c0.164-0.172,0.403-0.279,0.779-0.313c0.05,0,0.13-0.037,0.157-0.104c0.08-0.028,0.125-0.085,0.069-0.197
		c0-0.076-0.075-0.076-0.075-0.076c-1.135,0-2.344,0-3.478,0c-0.075,0-0.075,0-0.151,0h-0.076c0,0-0.008,0.015-0.025,0.052
		c-0.007-0.007-0.021-0.005-0.049,0.024h0.037c-0.011,0.022-0.016,0.032-0.037,0.075c0.15,0.076,0.302,0.076,0.377,0.076
		c0.605,0.075,0.907,0.453,0.832,1.058c0,0.151,0,0.378,0,0.529c0,1.512,0,3.023,0,4.535c0,0.378,0.075,0.756,0.075,1.135
		c0.151,0.906,0.756,1.512,1.587,1.813c0.228,0.076,0.379,0.151,0.605,0.151c0.832,0.151,1.738,0.151,2.57,0
		c0.63-0.118,1.131-0.366,1.515-0.742c0.395-0.352,0.674-0.829,0.829-1.45c0-0.151,0.074-0.302,0.074-0.453
		c0-0.529,0.076-0.982,0.076-1.512c0-1.285,0-2.57,0-3.855c0-0.438,0.02-0.681,0.141-0.841c0.143-0.122,0.374-0.195,0.767-0.293
		c0.057,0,0.14-0.021,0.186-0.088c0.069-0.011,0.116-0.036,0.116-0.139l-0.075-0.076C109.229,91.539,108.397,91.539,107.566,91.539z
		"/>
	<path d="M68.637,91.464c-0.604,0-0.604,0-0.907,0.151c0.04,0.014,0.067,0.017,0.103,0.026c-0.033,0.016-0.061,0.027-0.103,0.049
		c0.227,0.076,0.378,0.076,0.529,0.151c0.277,0.111,0.429,0.264,0.463,0.485c0,0.063,0.003,0.121-0.009,0.195
		c-0.076,0.378-0.151,0.756-0.302,1.134c-0.681,1.738-1.361,3.401-2.041,5.14c-0.076,0.076-0.151,0.151-0.227,0.303
		c-0.151-0.604-0.378-1.059-0.529-1.512c-0.529-1.588-1.134-3.1-1.663-4.687c-0.105-0.291-0.161-0.495-0.155-0.651
		c0.031-0.259,0.273-0.342,0.835-0.482c0.151,0,0.151-0.076,0.151-0.228c-0.004,0-0.004,0-0.008,0
		c0.001-0.026,0.008-0.042,0.008-0.075c-0.076,0-0.076,0-0.151,0c-0.378,0-0.68,0-0.982,0c-0.756,0-1.587-0.075-2.419-0.075
		c-0.076,0-0.076,0-0.151,0h-0.076c0,0.037,0,0.057,0,0.075c0,0,0,0.033,0,0.075c0,0.023,0,0.049,0,0.076
		c0.076,0.075,0.151,0.151,0.227,0.151c0.68,0.075,0.982,0.453,1.134,1.058c0.021,0.042,0.029,0.084,0.042,0.126
		c0.006,0.017,0.01,0.034,0.017,0.051c0.024,0.093,0.046,0.185,0.092,0.277c0.832,2.268,1.739,4.535,2.57,6.803
		c0.076,0.227,0.151,0.454,0.302,0.681c0.076,0.151,0.227,0.227,0.302,0.302c0.303-0.075,0.378-0.302,0.454-0.453
		c0.151-0.378,0.303-0.756,0.454-1.059c0.756-1.89,1.512-3.704,2.268-5.594c0.151-0.378,0.303-0.756,0.529-1.134
		c0.227-0.529,0.529-0.907,1.134-0.982c0-0.032,0.019-0.067,0.041-0.105c0.033-0.03,0.055-0.087,0.11-0.197
		c-0.378-0.075-0.68,0-0.983-0.075C69.317,91.464,69.015,91.464,68.637,91.464z"/>
	<path d="M147.438,96.103c-0.028-0.057-0.067-0.104-0.11-0.104c-0.227,0-0.529-0.075-0.756-0.075c-5.594,0-11.264,0-16.857,0
		c-0.15,0-0.377,0-0.529,0c-0.074,0-0.15,0-0.227,0c-0.075,0.075-0.15,0.151-0.227,0.227c0,0.063,0.056,0.162,0.117,0.198
		c0.028,0.056,0.066,0.104,0.109,0.104c0.227,0,0.454,0,0.681,0c2.797,0,5.669,0,8.466,0c2.873,0,5.746,0,8.618,0.075
		c0.227,0,0.453,0,0.681,0c0.075-0.075,0.15-0.151,0.15-0.227C147.554,96.238,147.499,96.139,147.438,96.103z"/>
	<path d="M56.24,79.595c1.965-0.528,3.704-1.285,5.367-2.569c0.982-0.756,1.814-1.588,2.494-2.646
		c1.134-1.89,1.512-4.006,1.209-6.198c-0.227-1.663-1.134-3.099-2.343-4.157c-0.982-0.907-2.192-1.512-3.401-2.041
		c-1.512-0.604-3.099-0.982-4.762-1.285c-0.151,0-0.378-0.075-0.529-0.075c-0.151-0.076-0.378,0-0.529-0.151
		c0.227-0.151,0.454-0.227,0.681-0.303c0.832-0.378,1.587-0.756,2.343-1.285s1.436-1.058,2.041-1.738
		c2.343-2.57,2.494-6.576,0.907-9.223c-0.378-0.604-0.831-1.209-1.285-1.662c-0.681-0.756-1.512-1.361-2.419-1.966
		c-1.285-0.831-2.646-1.437-4.082-1.89c-2.797-0.907-5.594-1.437-8.542-1.663c-3.326-0.227-6.652,0.075-9.902,0.831
		c-1.965,0.454-3.855,1.21-5.594,2.269c-1.587,0.906-2.873,2.191-3.855,3.703c-1.361,2.041-1.89,4.233-1.587,6.652
		c0.151,1.21,0.454,2.344,1.058,3.401c0.68,1.21,1.587,2.041,2.873,2.646c1.134,0.453,2.268,0.831,3.477,0.906
		c0.907,0.076,1.814,0.076,2.721-0.227c1.663-0.604,2.419-2.57,1.587-4.082c-0.227-0.378-0.529-0.68-0.982-0.831
		c-0.983-0.303-1.965,0.151-2.343,1.059c-0.302,0.68-0.302,1.36-0.076,2.04c0.076,0.228,0.151,0.529,0.302,0.832
		c-0.832,0.075-1.587,0-2.343-0.151c-2.797-0.681-4.46-2.494-4.838-5.216c-0.454-3.099,0.529-5.82,2.873-7.861
		c0.529-0.453,1.134-0.907,1.739-1.285c0.982-0.681,2.041-1.134,3.175-1.587c2.494-0.983,5.14-1.437,7.786-1.663
		c2.797-0.228,5.594,0,8.315,0.68c1.739,0.454,3.402,1.059,4.914,2.041c1.134,0.756,2.192,1.588,2.948,2.722
		c0.529,0.756,0.907,1.663,1.134,2.57c0.227,1.209,0.151,2.494-0.076,3.704c-0.378,1.134-0.756,2.418-1.512,3.477
		c-0.832,1.21-1.965,2.041-3.478,2.268c-0.529,0.076-1.058,0.151-1.587,0.228c-0.303,0.075-0.529,0.15-0.832,0.227
		c-0.227,0.075-0.378,0.302-0.378,0.529c0,0.227,0.151,0.453,0.378,0.604c0.227,0.075,0.453,0.151,0.68,0.227
		c0.454,0.075,0.832,0.151,1.285,0.151c1.436,0,2.797,0.302,4.157,0.831c1.361,0.529,2.646,1.285,3.78,2.344
		c1.058,1.059,1.738,2.268,1.965,3.779c0.151,1.059,0.076,2.116-0.227,3.1c-0.907,3.25-2.948,5.442-6.198,6.425
		c-2.646,0.832-5.292,0.756-7.861-0.378c-0.832-0.378-1.663-0.831-2.495-1.285c-1.059-0.604-2.117-1.209-3.175-1.813
		c-0.076-0.076-0.151-0.151-0.227-0.151c0-0.076,0-0.076,0.076-0.076c0.076-0.075,0.151-0.15,0.227-0.227
		c1.134-1.285,1.89-2.721,2.419-4.309c0.529-1.437,0.907-3.023,1.134-4.535c0.227-1.437,0.378-2.948,0.529-4.385
		c0.227-2.192,0.454-4.384,0.605-6.651c0.076-0.529,0.076-1.059,0.151-1.588c0.076-1.738,0.454-3.401,1.588-4.838
		c0.302-0.378,0.529-0.831,0.604-1.285c0.076-0.151,0-0.378,0-0.604c-0.227,0-0.378,0-0.604,0.075
		c-0.681,0.151-1.285,0.454-1.814,0.907c-1.436,1.285-2.419,2.797-2.797,4.763c-0.076,0.529-0.151,1.134-0.227,1.663
		c-0.076,0.982-0.151,1.89-0.303,2.872c-0.075,1.134-0.227,2.268-0.302,3.401c-0.227,2.268-0.454,4.536-0.832,6.728
		c-0.227,1.437-0.604,2.873-1.058,4.233c-0.302,0.832-0.756,1.738-1.285,2.419c-0.076,0.151-0.227,0.227-0.378,0.378
		c-0.302-0.151-0.604-0.303-0.907-0.453c-0.302-0.151-0.604-0.303-0.982-0.378c-2.797-0.983-5.669-1.361-8.618-1.059
		c-1.058,0.075-2.116,0.378-3.023,0.831c-0.907,0.454-1.663,1.059-2.192,1.891c-1.134,1.662-0.68,3.779,0.983,4.837
		c0.529,0.303,1.134,0.605,1.739,0.757c2.116,0.528,4.309,0.604,6.425,0.227c2.344-0.378,4.46-1.361,6.274-2.797
		c0.151-0.151,0.378-0.303,0.529-0.454c0.227,0.076,0.378,0.228,0.604,0.303c2.797,1.512,5.82,2.494,8.995,2.948
		C51.1,80.427,53.67,80.276,56.24,79.595z M35.679,77.101c-0.605,0.453-1.285,0.756-1.965,0.982
		c-2.495,0.832-5.065,0.907-7.635,0.378c-0.529-0.075-0.983-0.302-1.361-0.529c-1.134-0.756-1.285-2.268-0.378-3.175
		c0.227-0.227,0.529-0.453,0.832-0.604c0.982-0.604,2.041-0.907,3.25-0.982c1.36-0.076,2.721,0.075,4.006,0.529
		c1.587,0.529,3.023,1.285,4.611,2.116C36.662,76.345,36.208,76.723,35.679,77.101z"/>
	<path d="M88.744,75.212c1.058-2.041,1.512-4.157,1.134-6.35c-0.68-3.553-2.721-6.198-6.047-7.711
		c-2.343-1.058-4.838-0.982-7.257-0.227c-4.46,1.361-7.181,5.292-7.105,9.752c0,0.03,0,0.081,0,0.15c0,0.076,0,0.228,0,0.303
		c0.302,4.082,2.268,6.954,5.972,8.617c1.058,0.454,2.192,0.681,3.402,0.832c2.268,0.15,4.459-0.228,6.425-1.513
		C86.703,78.084,87.913,76.799,88.744,75.212z M85.342,74.758c-0.227,0.832-0.529,1.588-0.982,2.344
		c-0.983,1.587-2.419,2.419-4.309,2.57c-0.529,0-1.134,0-1.663-0.076c-1.209-0.227-2.192-0.907-2.948-1.813
		c-0.68-0.832-1.134-1.891-1.361-2.948c-0.453-1.814-0.604-3.704-0.453-5.594c0.075-1.059,0.227-2.117,0.529-3.1
		c0.302-0.907,0.681-1.814,1.285-2.646c2.343-3.25,6.728-2.57,8.542,0c0.756,1.059,1.134,2.192,1.436,3.401
		c0.302,1.134,0.378,2.344,0.378,3.478C85.796,71.885,85.645,73.322,85.342,74.758z"/>
	<path d="M57.525,99.779c-0.076-0.228-0.227-0.454-0.302-0.681c-0.227-0.604-0.529-1.285-0.756-1.89
		c-0.681-1.739-1.361-3.478-2.041-5.216c-0.076-0.227-0.227-0.454-0.303-0.604c0-0.076-0.227-0.076-0.227,0
		c-0.151,0.227-0.227,0.453-0.378,0.68c-0.983,2.344-1.965,4.687-2.948,7.105c-0.302,0.681-0.68,1.285-1.436,1.437
		c-0.076,0-0.076,0.151-0.151,0.303c0.983,0,1.89,0,2.797,0c0.076,0,0.076-0.076,0.227-0.151c-0.151-0.076-0.227-0.076-0.303-0.151
		c-0.68-0.227-0.831-0.529-0.604-1.209c0.151-0.605,0.454-1.21,0.68-1.814c0.832-0.076,2.948-0.076,3.553,0
		c0.227,0.604,0.454,1.285,0.681,1.89c0.227,0.756,0.151,0.831-0.681,1.059c-0.151,0-0.302,0-0.227,0.227
		c0.076,0,0.076,0.075,0.151,0.075c1.134,0,2.268,0,3.401,0c0.076,0,0.227,0,0.302-0.075c0-0.076,0-0.076,0.076-0.151
		c-0.378,0-0.529-0.075-0.604-0.075C58.054,100.459,57.751,100.157,57.525,99.779z M54.804,97.057c-0.983,0-1.965,0-3.024,0
		c0.529-1.36,1.059-2.57,1.587-3.779c0.076,0.075,0.151,0.075,0.151,0.075c0.454,1.134,0.907,2.268,1.361,3.401
		C54.879,96.831,54.879,96.906,54.804,97.057z"/>
</g>
</svg>
