<?xml version="1.0" encoding="utf-8"?>
<!-- Generator: Adobe Illustrator 21.0.2, SVG Export Plug-In . SVG Version: 6.00 Build 0)  -->
<svg version="1.1" id="Layer_1" xmlns="http://www.w3.org/2000/svg" xmlns:xlink="http://www.w3.org/1999/xlink" x="0px" y="0px"
	 viewBox="0 0 198.4 28.8" style="enable-background:new 0 0 198.4 28.8;" xml:space="preserve">
<style type="text/css">
	.st0{fill:#0175BA;}
</style>
<g>
	<g>
		<path class="st0" d="M74.9,23.1c-0.4,3.5-2.3,5.5-5.7,5.5c-7.6,0.1-15.3,0.1-22.9,0c-3.4,0-5.6-2.2-5.6-5.5
			c-0.1-5.8-0.1-11.7,0-17.5C40.8,2,42.9,0.1,46.8,0C53.9,0,61,0,68.1,0c2,0,4,0.1,5.4,1.9C74,2.6,74.6,3.3,74.7,4
			c0.1,2.9,0.4,5.8,0,8.8c-0.2,2.7-2.5,4.2-5.1,4.2c-7.1,0-14.4,0-21.5,0c-0.5,0-1.1,0-1.6,0c0,2,0,4,0,6.1
			C55.9,23.1,65.3,23.1,74.9,23.1z M46.4,11.6c7.5,0,14.8,0,22.2,0c0.4,0,0.8-0.4,0.8-0.6c0.1-1.8,0-3.4,0-5.1c-7.8,0-15.4,0-23.1,0
			C46.4,7.8,46.4,9.6,46.4,11.6z"/>
		<path class="st0" d="M181.3,28.6c-2,0-3.7,0-5.6,0c0-7.6,0-15.1,0-22.8c-2,0-3.9,0-5.8,0c0,7.6,0,15.1,0,22.8c-1.9,0-3.6,0-5.5,0
			c0-9.5,0-18.9,0-28.5c0.5,0,0.9-0.1,1.3-0.1c8.9,0,17.6,0,26.5,0c4.1,0,6.3,2.2,6.3,6.3c0,6.9,0,13.8,0,20.7c0,0.5,0,0.9,0,1.5
			c-1.9,0-3.6,0-5.6,0c0-7.6,0-15.1,0-22.8c-4,0-7.7,0-11.7,0C181.3,13.4,181.3,21,181.3,28.6z"/>
		<path class="st0" d="M34.2,11.3c-1.9,0-3.6,0-5.5,0c0-1.8,0-3.5,0-5.4C21,6,13.2,6,5.5,6c0,0.4-0.1,0.7-0.1,1.1c0,5,0,9.9,0,14.9
			c0,0.8,0.1,1.4,1.2,1.4c7.1,0,14.1,0,21.3,0c0.2,0,0.4,0,0.7-0.1c0-1.9,0-3.6,0-5.6c1.9,0,3.7,0,5.6,0c0,2.3,0.2,4.7,0,7
			c-0.2,2.3-2.8,4.2-5.5,4.2c-7.6,0-15.3,0-22.9,0c-3.3,0-5.7-2.5-5.7-5.7c0-5.6,0-11.3,0-16.9c0-2.7,1.5-5.8,6-5.8
			c7.9,0,15.9,0,23.8,0.1c2.3,0,4.3,2.2,4.4,4.7c0,0.2,0,0.5,0,0.7C34.2,7.5,34.2,9.3,34.2,11.3z"/>
		<path class="st0" d="M151.5,0.2c2,0,3.7,0,5.5,0c0,9.5,0,18.9,0,28.5c-0.5,0-0.9,0.1-1.4,0.1c-8.9,0-17.8,0-26.6,0
			c-4,0-6.3-2.6-6.2-6.2c0.1-6.9,0-13.7,0-20.6c0-0.6,0-1.1,0-1.8c1.9,0,3.6,0,5.5,0c0,7.6,0,15.2,0,22.9c0.6,0,1.1,0.1,1.4,0.1
			c6.8,0,13.5,0,20.3,0c1.2,0,1.5-0.4,1.5-1.5c0-6.7,0-13.3,0-19.9C151.5,1.3,151.5,0.8,151.5,0.2z"/>
		<path class="st0" d="M82,0.2c1.9,0,3.6,0,5.5,0c0,0.6,0,1.2,0,1.6c0,6.5,0,13.2,0,19.7c0,1.3,0.4,1.6,1.6,1.6c8.5,0,17.2,0,25.7,0
			c0.4,0,0.8,0,1.3,0c0,1.9,0,3.6,0,5.5c-0.5,0-0.9,0.1-1.4,0.1c-8.9,0-17.8,0-26.6,0c-3.2,0-5.3-1.5-6-4.4C82,24.1,82,23.7,82,23.4
			c0-7.5,0-14.9,0-22.4C81.9,0.7,82,0.5,82,0.2z"/>
	</g>
</g>
</svg>
