<?xml version="1.0" encoding="utf-8"?>
<!-- Generator: Adobe Illustrator 19.2.1, SVG Export Plug-In . SVG Version: 6.00 Build 0)  -->
<svg version="1.1" id="Layer_1" xmlns="http://www.w3.org/2000/svg" xmlns:xlink="http://www.w3.org/1999/xlink" x="0px" y="0px" viewBox="0 0 109 107.7" style="fill: #307FE2; enable-background:new 0 0 109 107.7;" xml:space="preserve">
    <g>
        <g>
            <path d="M38.3,58.8c-0.5,0-1-0.1-1.4-0.4c-8.9-5.9-14.2-15.9-14.2-26.6C22.7,14.3,36.9,0,54.6,0
			c17.5,0,31.7,14.3,31.7,31.8c0,10.6-5.2,20.5-14,26.4c-1.1,0.8-2.7,0.5-3.5-0.7c-0.8-1.1-0.5-2.7,0.7-3.5
			c7.4-5,11.8-13.3,11.8-22.2C81.3,17,69.3,5,54.6,5S27.8,17,27.8,31.8c0,9.1,4.5,17.3,12.1,22.4c1.2,0.8,1.5,2.3,0.7,3.5
			C40,58.4,39.2,58.8,38.3,58.8z" />
        </g>
        <g>
            <path d="M3.1,107.7c-1.4,0-2.5-1.1-2.5-2.5c0-23.4,14.9-44,37.1-51.3c1.3-0.4,2.7,0.3,3.2,1.6
			c0.4,1.3-0.3,2.7-1.6,3.2C19.1,65.3,5.6,83.9,5.6,105.2C5.6,106.5,4.5,107.7,3.1,107.7z" />
        </g>
        <g>
            <path d="M105.9,107.7c-1.4,0-2.5-1.1-2.5-2.5c0-21.2-13.5-39.9-33.7-46.5c-1.3-0.4-2-1.8-1.6-3.2
			c0.4-1.3,1.8-2,3.2-1.6c22.2,7.3,37.1,27.9,37.1,51.3C108.5,106.5,107.4,107.7,105.9,107.7z" />
        </g>
    </g>
</svg>
