<?xml version="1.0" encoding="utf-8"?>
<!-- Generator: Adobe Illustrator 21.0.2, SVG Export Plug-In . SVG Version: 6.00 Build 0)  -->
<svg version="1.1" id="Layer_1" xmlns="http://www.w3.org/2000/svg" xmlns:xlink="http://www.w3.org/1999/xlink" x="0px" y="0px"
	 viewBox="0 0 109 107.7" style="enable-background:new 0 0 109 107.7;" xml:space="preserve">
<style type="text/css">
	.st0{fill:#307FE2;}
</style>
<g>
	<g>
		<path class="st0" d="M54.1,56.8c-13.9,0-25.2-12.7-25.2-28.2S40.2,0.3,54.1,0.3c13.9,0,25.2,12.7,25.2,28.2S67.9,56.8,54.1,56.8z
			 M54.1,4.6c-11.5,0-20.9,10.7-20.9,23.9s9.4,23.9,20.9,23.9c11.5,0,20.9-10.7,20.9-23.9S65.6,4.6,54.1,4.6z"/>
	</g>
	<g>
		<path class="st0" d="M99.5,107.3h-90c-0.7,0-1.3-0.3-1.7-0.8c-0.4-0.5-0.6-1.2-0.5-1.9C12,82.5,31.8,66.4,54.5,66.4
			c22.7,0,42.5,16.1,47.2,38.3c0.1,0.7,0,1.3-0.5,1.9C100.8,107,100.2,107.3,99.5,107.3z M12.3,102.9h84.3
			c-5.2-18.7-22.5-32.1-42.2-32.1C34.8,70.8,17.5,84.2,12.3,102.9z"/>
	</g>
</g>
</svg>
