<?xml version="1.0" encoding="utf-8"?>
<!-- Generator: Adobe Illustrator 21.0.2, SVG Export Plug-In . SVG Version: 6.00 Build 0)  -->
<svg version="1.1" id="Layer_1" xmlns="http://www.w3.org/2000/svg" xmlns:xlink="http://www.w3.org/1999/xlink" x="0px" y="0px"
	 viewBox="0 0 198.4 51.5" style="enable-background:new 0 0 198.4 51.5;" xml:space="preserve">
<style type="text/css">
	.st0{fill:#FFFFFF;}
	.st1{fill:#4189DD;}
	.st2{fill:#45545B;}
</style>
<g>
	<path class="st0" d="M183.7,7.6h7.6c0.5,0.5,0.8,0.9,1.3,1.4v5.1h-1.6V9.3h-1.9v4.9h-1.6V9.3h-1.9v4.9h-1.6V7.6H183.7z"/>
	<path class="st1" d="M147.2,25.7C147.2,11.6,158.7,0,173,0c7.1,0,13.7,2.9,18.2,7.6h-7.6v6.5h1.6V9.3h1.9v4.9h1.6V9.3h1.9v4.9h1.6
		V9.1c3.9,4.4,6.2,10.3,6.2,16.7c0,14.1-11.5,25.7-25.7,25.7C158.8,51.4,147.2,40,147.2,25.7L147.2,25.7z"/>
	<polygon class="st0" points="160.1,21.4 165,16.4 183.7,16.4 183.7,21.4 166.9,21.4 165.4,22.9 165.4,30.5 166.9,32 183.7,32 
		183.7,37.2 165,37.2 160.1,32.1 	"/>
	<polygon class="st2" points="120.8,16.6 120.8,2 122.6,2 122.6,16.6 	"/>
	<polygon class="st2" points="0,13.6 0,5.1 3,2 14,2 14,4.7 4.2,4.7 2.6,6.2 2.6,12.4 4.2,14 14,14 14,16.6 3,16.6 	"/>
	<path class="st2" d="M20,4.7V14h8.3V4.7H20L20,4.7z M17.4,16.6V2H31v14.7L17.4,16.6L17.4,16.6z"/>
	<path class="st2" d="M44.1,11.8l4.8,4.8h-3.7l-4.8-4.8h-2.9v4.8h-2.7V2H45l2.6,2.6v7.2L44.1,11.8L44.1,11.8z M37.4,9.1H45V5.6
		l-1.1-0.9h-6.5V9.1L37.4,9.1z"/>
	<polygon class="st2" points="50.7,16.6 50.7,2 64,2 64,4.7 53.4,4.7 53.4,7.9 61.4,7.9 61.4,10.6 53.4,10.6 53.4,14 64,14 64,16.6 
			"/>
	<polygon class="st2" points="83.1,16.6 83.1,5.4 81.5,3.6 76.9,3.6 76.9,16.6 75.3,16.6 75.3,3.6 68.9,3.6 68.9,16.6 67.3,16.6 
		67.3,2 82.2,2 84.8,4.7 84.8,16.6 	"/>
	<polygon class="st2" points="101.5,16.6 88.2,16.6 88.2,2 101.5,2 101.5,3.6 89.9,3.6 89.9,8.3 98.7,8.3 98.7,10 89.9,10 89.9,15 
		101.5,15 	"/>
	<path class="st2" d="M114.3,15l1.6-1.6V5.4l-1.6-1.6h-8.4v11.3h8.4V15z M117.7,14l-2.7,2.7h-10.8V2H115l2.7,2.7V14L117.7,14z"/>
	<path class="st2" d="M126,2h10.8l2.7,2.7v12h-1.6v-6.1h-10v6.1h-1.6V2H126z M136,3.6h-8.4v5.3h10V5.3L136,3.6L136,3.6z"/>
</g>
</svg>
