<?xml version="1.0" encoding="utf-8"?>
<!-- Generator: Adobe Illustrator 19.2.1, SVG Export Plug-In . SVG Version: 6.00 Build 0)  -->
<svg version="1.1" id="Layer_1" xmlns="http://www.w3.org/2000/svg" xmlns:xlink="http://www.w3.org/1999/xlink" x="0px" y="0px"
	 viewBox="0 0 92.1 107.9" style="fill: #307FE2; enable-background:new 0 0 92.1 107.9;" xml:space="preserve">
<g>
	<g>
		<path d="M57.3,107.8H34.6c-1.4,0-2.5-1.1-2.5-2.5s1.1-2.5,2.5-2.5h22.8c1.4,0,2.5,1.1,2.5,2.5S58.7,107.8,57.3,107.8z
			 M58.4,98.6H33.8c-1.4,0-2.5-1.1-2.5-2.5s1.1-2.5,2.5-2.5h24.8c1.4,0,2.5,1.1,2.5,2.5S59.8,98.6,58.4,98.6z M59.5,89.4h-27
			c-1.4,0-2.5-1.1-2.5-2.5s1.1-2.5,2.5-2.5h27c1.4,0,2.5,1.1,2.5,2.5S60.9,89.4,59.5,89.4z"/>
	</g>
	<g>
		<path d="M50.9,77.1c-1.4,0-2.5-1.1-2.5-2.5V51.2H36.6c-1.4,0-2.5-1.1-2.5-2.5c0-1.4,1.1-2.5,2.5-2.5h11.8V40
			c0-6.2,5-11.2,11.2-11.2s11.2,5,11.2,11.2s-5,11.2-11.2,11.2h-6.2v23.4C53.4,76,52.3,77.1,50.9,77.1z M53.4,46.2h6.2
			c3.4,0,6.2-2.8,6.2-6.2c0-3.4-2.8-6.2-6.2-6.2s-6.2,2.8-6.2,6.2V46.2z"/>
	</g>
	<g>
		<path d="M41.6,77.1c-1.4,0-2.5-1.1-2.5-2.5V51.2h-6.2c-6.2,0-11.2-5-11.2-11.2s5-11.2,11.2-11.2s11.2,5,11.2,11.2v6.2
			h11.8c1.4,0,2.5,1.1,2.5,2.5c0,1.4-1.1,2.5-2.5,2.5H44.1v23.4C44.1,76,43,77.1,41.6,77.1z M32.9,33.8c-3.4,0-6.2,2.8-6.2,6.2
			c0,3.4,2.8,6.2,6.2,6.2h6.2V40C39.1,36.6,36.3,33.8,32.9,33.8z"/>
	</g>
	<g>
		<path d="M69.2,84.2c-0.8,0-1.6-0.4-2.1-1.2c-0.7-1.2-0.4-2.7,0.8-3.5C79.6,72,86.7,59.2,86.7,45.4
			C86.6,23.3,68.4,5.1,46.1,5.1S5.6,23.3,5.6,45.5c0,13.7,6.8,26.3,18.2,33.7c1.2,0.8,1.5,2.3,0.7,3.5c-0.8,1.2-2.3,1.5-3.5,0.7
			C8.3,75.1,0.6,60.9,0.6,45.5c0-25,20.4-45.4,45.5-45.4s45.4,20.4,45.4,45.4c0,15.6-7.9,29.9-21.1,38.3
			C70.1,84.1,69.6,84.2,69.2,84.2z"/>
	</g>
</g>
</svg>
