<?xml version="1.0" encoding="utf-8"?>
<!-- Generator: Adobe Illustrator 21.0.2, SVG Export Plug-In . SVG Version: 6.00 Build 0)  -->
<svg version="1.1" id="Layer_1" xmlns="http://www.w3.org/2000/svg" xmlns:xlink="http://www.w3.org/1999/xlink" x="0px" y="0px"
	 viewBox="0 0 198.4 31.6" style="enable-background:new 0 0 198.4 31.6;" xml:space="preserve">
<style type="text/css">
	.st0{fill:#013A80;}
</style>
<g>
	<path class="st0" d="M138.4,22.9c-1.4,0.4-2.8,1-4.2,1.4c-3.4,0.9-6-1-6-4.6c0-2.6-0.1-5.2,0-7.8c0.1-1.4-0.3-2-1.7-2.2
		c-0.6-0.1-1.1-0.1-1.2-0.8c-0.1-0.8,0.7-0.6,1.1-0.7c1.1-0.2,2.2-0.3,3.2-0.8c1.7-0.7,1.7,0.1,1.7,1.3c0,3.2,0,6.5,0,9.8
		c0,2.6,1,3.4,3.6,3.4c3.6,0,3.6,0,3.6-3.6c0-2.2-0.1-4.3,0-6.6c0.1-1.3-0.2-2.2-1.7-2.3c-0.4,0-1.2-0.1-1.1-0.8
		c0-0.6,0.7-0.6,1.1-0.6c1.7-0.2,3.7-1.7,4.8-0.7c0.9,0.7,0.2,3.1,0.2,4.8c0,2.4,0.1,5,0,7.5c-0.1,1.3,0.2,2.2,1.8,2.4
		c0.4,0,1,0.2,0.9,0.9c-0.1,0.6-0.6,0.4-1,0.6c-1,0.2-2.1,0.3-3.1,0.8C138.9,24.9,138.1,24.7,138.4,22.9z"/>
	<path class="st0" d="M13.2,22.6c1.9,0.6,3.1-0.6,3.9-2.7c0.1-0.4,0.4-0.9,0.7-1.2c0.2-0.4,0.7-0.4,1.1-0.4c0.7,0.1,0.3,0.6,0.3,1
		c-0.3,4.7-0.7,5-5.8,5.5c-2,0.1-4,0.1-6-0.3c-2.6-0.7-4.6-2.1-5.8-4.4C-1,15.1-0.4,8.6,3.2,4.4C5.1,2.3,7.5,1.2,10.3,1
		c2.4-0.2,4.9-0.1,7.3,0.3c1,0.2,1.6,0.6,1.4,1.8c-0.1,1,0,2,0,3c0,0.3,0.2,0.9-0.4,0.9c-0.4,0-0.9,0-1.1-0.6C17.3,6,17.2,5.4,17,5
		c-0.9-2.3-1.3-2.6-3.8-2.4C5.3,3,3.4,8.2,3.7,14.2c0,0.8,0.2,1.7,0.4,2.4C5.2,20.8,7.7,22.6,13.2,22.6z"/>
	<path class="st0" d="M170,7.7c0.7,0,1.3-0.1,1.9,0c2.1,0.2,3,1.8,2.3,3.8c-0.2,0.7-1.9,0.7-2.3,0.1c-0.2-0.2-0.2-0.6-0.4-0.8
		c-1.1-2.1-1.9-2.4-4.1-1.3c-2.9,1.4-4.2,5.6-3,9.1c1,2.9,4.1,4.4,7.6,3.9c0.8-0.1,1.9-0.9,2.1,0.1c0.4,1.3-1.1,1.1-1.8,1.3
		c-2.7,0.9-5.3,1.4-8-0.1c-3-1.8-3.9-4.7-3.7-8c0.2-3.9,2.2-6.5,5.9-7.8C167.6,7.6,168.7,7.6,170,7.7z"/>
	<path class="st0" d="M55.5,13.4c-0.6-4.8-4.8-7.3-9.2-5.5c-0.8,0.3-1.4,0.7-2.3,1.1c0-3.2,0-6.2,0-9.2c-1.8,0.3-3.4,0.7-5.1,1.1
		c-0.3,0.1-1,0-1.1,0.7c-0.1,0.9,0.8,0.8,1.1,0.8c1.6,0.2,1.9,1,1.9,2.6c-0.1,5.2,0,10.5,0,15.8c0,3,0,3,3.1,3.7
		C50.9,25.7,56.3,20.8,55.5,13.4z M51.9,18.2c-0.8,3.8-4.3,4.8-7.1,4.6c-0.7,0-1-0.4-1-1.1c0.1-1.8,0-3.6,0-5.3c0-1.7,0.1-3.3,0-5
		c0-0.9,0.3-1.3,1.1-1.4c3.2-0.6,6,0.4,7,4.2C52.4,15.4,52.3,16.8,51.9,18.2z"/>
	<path class="st0" d="M123.9,15.8c0.2-6.1-4.7-9.1-9-8.3c-4.7,0.8-7.6,4.8-7.1,9.6c0.3,3.3,1.6,6.1,4.8,7.3
		C118.9,26.5,124.2,21.6,123.9,15.8z M119.7,20.7c-0.7,1.6-1.9,2.4-3.6,2.4c-1.6,0-2.9-0.7-3.6-2.1c-1.6-3.1-1.6-6.5-0.2-9.7
		c0.6-1.3,1.7-2.2,3.2-2.2c1.8-0.1,2.9,0.8,3.8,2.1c0.9,1.6,1.2,3.4,1.1,5.1C120.5,17.9,120.2,19.3,119.7,20.7z"/>
	<path class="st0" d="M38.4,7.9c-0.2-0.4-0.6-0.3-0.9-0.3c-1.4,0-3,0-4.4,0c-0.4,0-1.1-0.4-1.2,0.4c-0.1,0.7,0.4,0.9,1,1
		c1,0.3,1.2,0.9,0.8,2c-1.2,3-2.2,6-3.3,9.2c-1.2-3.1-2.2-6.1-3.4-9c-0.6-1.2-0.8-2,0.9-2.3c0.4-0.1,1-0.3,0.9-1
		c-0.1-0.6-0.7-0.4-1-0.4c-2,0-4,0-6,0c-0.3,0-0.9-0.2-1,0.4c0,0.6,0.2,0.8,0.7,0.9c1.4,0.2,1.8,1.3,2.2,2.4c1.3,3.3,2.4,6.8,4.1,10
		c1.6,3,0.2,5.3-1.3,7.6c-1,1.6-1.7,1.6-2.6-0.1c-0.6-1-1.4-1-2.1-0.7c-0.1,0-0.2,0.1-0.2,0.1v3.1c0.2,0.1,0.4,0.2,0.8,0.2
		c3.9,0.3,5.9-0.8,7.3-4.3c2.1-5.1,4.1-10.1,6.2-15.2c0.6-1.3,0.9-2.7,2.4-3.2C38.2,8.8,38.6,8.4,38.4,7.9z"/>
	<path class="st0" d="M159.4,10.4c0.1-0.3,0-0.7,0-1.1c0.2-1.4-0.6-1.9-1.8-1.9c-1.8,0-3.2,1.1-4.9,1.7c-0.1-2-0.1-2-1.9-1.6
		c-1,0.2-2,0.4-3.1,0.7c-0.6,0.1-1.1,0.1-1.2,0.8c-0.1,0.8,0.8,0.7,1.1,0.8c1.4,0.2,1.9,1,1.8,2.4c-0.1,2,0,4,0,6s0.7,4.3-2.4,4.8
		c-0.4,0.1-0.6,0.4-0.4,0.8c0.1,0.3,0.4,0.3,0.7,0.3c2.7,0,5.5,0,8.1,0c0.3,0,0.8,0.1,0.8-0.4c0-0.4-0.2-0.6-0.6-0.7
		c-0.4-0.1-0.9-0.4-1.3-0.4c-1.3-0.2-1.8-0.9-1.7-2.2c0.1-2.8,0-5.6,0.1-8.3c0-0.7-0.6-1.8,0.8-2c1.2-0.2,2.4-0.8,3,1
		c0.4,1.3,1.6,0.9,2.3,0.8C159.8,11.8,159.3,10.9,159.4,10.4z"/>
	<path class="st0" d="M101.5,12.3c-2-1.3-4-2.6-5.8-3.9c-1.6-1.2-1.7-3.4-0.3-4.7c1.6-1.3,3.6-1.2,5.3-1.1c1.3,0.1,1.1,1.6,1.6,2.4
		c0.2,0.3,0.4,0.9,0.6,1.3c0.1,0.6,0.6,0.4,1,0.4c0.7,0,0.6-0.4,0.6-0.9c0-0.9-0.1-1.9,0-2.8c0.1-1-0.3-1.6-1.3-1.7
		c-1.4-0.2-2.9-0.6-4.3-0.7c-4.1-0.2-7.9,2.1-7.2,7.2c0.2,1.9,1.4,3,2.9,4c1.8,1.2,3.7,2.4,5.6,3.7c1.4,1,1.8,2.4,1.4,4
		c-0.3,1.6-1.6,2.2-2.9,2.4c-3.1,0.8-4.2,0.1-5.3-2.8c-0.1-0.2-0.2-0.6-0.3-0.8c-0.2-0.4-0.7-0.7-1.1-0.6c-0.1,0-0.2,0-0.2,0v5.2
		c0.1,0.1,0.2,0.1,0.4,0.2c1.9,0.6,3.9,0.9,5.9,0.9c3.6,0,6.2-1.7,7-4.4C105.9,16.9,104.8,14.4,101.5,12.3z"/>
	<path class="st0" d="M88.1,7.9c-0.3-0.3-1.1-0.3-1.7-0.3c-1.8,0-3.1,1.1-4.9,1.6c-0.1-1.9-0.1-1.9-1.8-1.6c-1,0.2-2,0.4-3.1,0.7
		c-0.4,0.1-1.1,0.1-1.2,0.8c-0.1,0.8,0.7,0.7,1.1,0.8c1.6,0.2,1.8,1.1,1.7,2.4c-0.1,2.2-0.1,4.4,0,6.7c0,1.8,0.3,3.7-2.2,4.1
		c-0.3,0-0.7,0.3-0.6,0.8c0.1,0.7,0.6,0.4,0.9,0.4c2.6,0,5.2,0,7.8,0c0.3,0,0.8,0.1,0.9-0.3c0.1-0.6-0.2-0.8-0.7-0.9
		c-0.4-0.2-0.9-0.4-1.3-0.4c-1.2-0.2-1.7-0.8-1.7-2.1c0.1-2.8,0-5.6,0-8.3c0-0.8-0.4-1.9,1-2c1.2-0.2,2.4-0.8,3,1
		c0.2,0.7,2.1,1.1,2.7,0.8v-4H88.1z"/>
	<path class="st0" d="M195,7.8h0.7l0.9,1.7h0.7l-0.9-1.7c0.4,0,0.9-0.2,0.9-0.9s-0.4-1-1.2-1h-1.7v3.6h0.7V7.8L195,7.8z M195,6.3
		h0.7c0.7,0,0.9,0.2,0.9,0.7c0,0.4-0.2,0.4-0.9,0.4H195V6.3L195,6.3z M195.5,10.6c1.7,0,2.9-1.2,2.9-2.9s-1.2-2.9-2.9-2.9
		s-2.9,1.2-2.9,2.9C192.7,9.2,193.9,10.6,195.5,10.6L195.5,10.6L195.5,10.6z M195.5,10.1c-1.4,0-2.6-1-2.6-2.6c0-1.2,1-2.6,2.6-2.6
		c1.2,0,2.3,1.2,2.3,2.6C197.9,9,196.9,10.1,195.5,10.1L195.5,10.1L195.5,10.1z"/>
	<path class="st0" d="M65.6,7.3c-3.7,0.2-6.3,2.8-7.2,6.5s0.4,7.7,3.1,9.5c2.2,1.6,8.1,1.6,10.3,0c0.4-0.3,0.4-0.7,0.3-1
		c-0.1-0.6-0.6-0.2-0.9-0.2c-1,0.1-2,0.2-3,0.2c-3.9,0.1-6.3-2.1-6.5-5.7c0-1.1,0.3-1.2,1.2-1.2c1.3,0.1,2.7,0,4.1,0
		c1.4,0,3,0,4.4,0c0.4,0,0.9,0.1,0.9-0.7C72.8,9.8,69.8,7.1,65.6,7.3z M68.7,13.6h-6.9c-0.1-1.8,1.7-4.3,3.3-4.6
		c2.4-0.3,3.8,1,3.8,3.6C69,13,69.1,13.3,68.7,13.6z"/>
	<path class="st0" d="M181,15.4c1.3,0,2.7,0,4.1,0s3,0,4.4,0c0.9,0,1.1-0.2,1.1-1.1c0-5.2-4.4-8.3-9.3-6.3
		c-4.1,1.7-6.2,6.9-4.7,11.6c1.7,4.9,9,7,13.2,3.8c0.3-0.2,0.4-0.6,0.3-0.9c-0.1-0.4-0.4-0.3-0.7-0.3c-0.7,0-1.3,0.1-1.9,0.2
		c-3.4,0.7-7.5-0.9-7.8-5.5C179.5,15.6,180,15.4,181,15.4z M183.8,9c1.8,0,3.6,2.4,3.1,4.1h-7C180.2,10.6,181.6,9,183.8,9z"/>
</g>
</svg>
