<?xml version="1.0" encoding="utf-8"?>
<!-- Generator: Adobe Illustrator 21.0.2, SVG Export Plug-In . SVG Version: 6.00 Build 0)  -->
<svg version="1.1" id="Layer_1" xmlns="http://www.w3.org/2000/svg" xmlns:xlink="http://www.w3.org/1999/xlink" x="0px" y="0px"
	 viewBox="0 0 30.8 33" style="enable-background:new 0 0 30.8 33;" xml:space="preserve">
<g>
	<g>
		<g>
			<path d="M29.8,33H1c-0.6,0-1-0.4-1-1s0.4-1,1-1h28.8c0.6,0,1,0.4,1,1S30.3,33,29.8,33z"/>
		</g>
	</g>
	<g>
		<path d="M20.8,15.6c-0.4-0.4-1-0.4-1.4,0.1l-3,3.2V1.4c0-0.6-0.4-1-1-1s-1,0.4-1,1V19l-3-3.2c-0.4-0.4-1-0.4-1.4-0.1
			c-0.4,0.4-0.4,1-0.1,1.4l5.5,5.9l5.5-5.9C21.2,16.6,21.2,16,20.8,15.6z"/>
	</g>
</g>
</svg>
