<?xml version="1.0" encoding="utf-8"?>
<!-- Generator: Adobe Illustrator 21.0.2, SVG Export Plug-In . SVG Version: 6.00 Build 0)  -->
<svg version="1.1" id="Layer_1" xmlns="http://www.w3.org/2000/svg" xmlns:xlink="http://www.w3.org/1999/xlink" x="0px" y="0px"
	 viewBox="0 0 198.4 49.1" style="enable-background:new 0 0 198.4 49.1;" xml:space="preserve">
<style type="text/css">
	.st0{fill:#CDE310;}
	.st1{fill:#6D7EC7;}
	.st2{fill:#43887C;}
	.st3{fill:#55C26D;}
	.st4{fill:#172633;}
</style>
<g>
	<path id="path3721" class="st0" d="M16.9,22.7v7.6l16.9-7.6v-7.6L16.9,22.7"/>
	<path id="path3723" class="st1" d="M33.8,37.9L8.6,49.1v-7.6l25.2-11.2V37.9"/>
	<path id="path3725" class="st2" d="M16.9,22.7v7.6L0,22.7v-7.6L16.9,22.7"/>
	<path id="path3727" class="st3" d="M33.8,7.6L0.1,22.7v-7.6L33.8,0V7.6"/>
	<g>
		<path id="path3729" class="st4" d="M61,23.2c-0.5-2.8-2.2-4.5-5.9-4.5c-3.4,0-5.5,1.7-6.1,4.5H61z M64.9,25.5V26H48.8
			c0.2,3.8,2.9,5.4,6.5,5.4c3.1,0,5.4-1,6.5-2.6l2.1,2.9c-1.7,1.5-4.5,2.9-8.9,2.9c-5.8,0-10.1-3.1-10.1-9v-0.5
			c0-5.4,3.8-9.6,10.1-9.6C62.5,15.6,65,20.6,64.9,25.5"/>
		<path id="path3731" class="st4" d="M101,24.6v9.8h-4.3v-9.8c0-3.4-1.4-5.2-4.9-5.2c-2.3,0-4,0.8-5,2.1v12.8h-4.3V23.9
			c0-2.9-1.3-4.7-4.5-4.7c-2.2,0-4.2,0.8-5.2,2.4v12.6h-4.3V16h3.8l0.2,2.7c1.2-1.5,3.4-3,6.9-3c2.9,0,5.2,1.3,6.3,3.4
			c1.4-1.7,3.8-3.4,7.1-3.4C98.1,15.6,101,18.7,101,24.6"/>
		<path id="path3733" class="st4" d="M119.2,29.4v-2.6c-1.6-0.6-3.7-1-5.8-1c-3.3,0-5.1,0.6-5.1,2.9c0,2.2,2.2,2.9,4.9,2.9
			C115.4,31.5,117.8,30.8,119.2,29.4z M119.6,34.3c-0.2-0.6-0.3-1.5-0.3-2.2c-1.2,1.3-3.4,2.7-7.1,2.7c-4,0-7.9-1.6-7.9-5.8
			c0-4.5,3.6-6.1,8.2-6.1c2.7,0,5,0.7,6.9,1.4v-1.2c0-3.3-2.3-4.2-5.7-4.2c-2.9,0-5.1,0.8-6.4,2l-1.4-3.3c2-1,4.4-2,8.3-2
			c5.1,0,9.1,2.2,9,7.9c0,1.9,0,4.1,0,5.8c0,2.9,0.1,4.1,0.3,4.9H119.6"/>
		<path id="path3735" class="st4" d="M139.1,16.3l-0.7,4c-0.6-0.3-1.4-0.7-2.6-0.7c-2.1,0-3.7,1.6-4.4,3.7v11h-4.2V16h3.8l0.2,4.2
			c0.8-2.8,2.6-4.3,5.1-4.3C137.5,15.9,138.5,16,139.1,16.3"/>
		<path id="path3737" class="st4" d="M140.3,32.4l1.4-3.5c1.6,1.5,4.4,2.4,7.3,2.4c3.4,0,5.4-0.8,5.4-2.8c0-2.1-2.3-2-6.2-2.3
			c-4.5-0.6-7.2-1.3-7.2-4.7s2.7-6.1,8.3-6.1c3.1,0,5.8,0.6,7.9,1.5l-1.3,3.3c-1.6-1-4.1-1.5-6.6-1.5c-3,0-4.7,0.8-4.7,2.6
			c0,1.6,2.3,1.6,6.1,2c3.4,0.3,7.3,0.9,7.3,5c0,4.2-3.4,6.2-8.9,6.2C145.6,34.6,142.5,33.8,140.3,32.4"/>
		<path id="path3739" class="st4" d="M180.8,16c-4.7,10.5-9.1,19.9-12.9,26.2l-4.1-1.3c1.7-2.4,3.1-5,4-6.8L159.3,16h4.5l6.2,14.9
			l6.3-14.9L180.8,16"/>
		<path id="path3741" class="st4" d="M180.6,32.4l1.4-3.5c1.6,1.5,4.4,2.4,7.3,2.4c3.4,0,5.4-0.8,5.4-2.8c0-2.1-2.3-2-6.2-2.3
			c-4.5-0.6-7.2-1.3-7.2-4.7s2.7-6.1,8.3-6.1c3.1,0,5.8,0.6,7.9,1.5l-1.3,3.3c-1.6-1-4.1-1.5-6.6-1.5c-3,0-4.7,0.8-4.7,2.6
			c0,1.6,2.3,1.6,6.1,2c3.4,0.3,7.3,0.9,7.3,5c0,4.2-3.4,6.2-8.9,6.2C186,34.6,182.9,33.8,180.6,32.4"/>
	</g>
</g>
</svg>
