<?xml version="1.0" encoding="utf-8"?>
<!-- Generator: Adobe Illustrator 21.0.2, SVG Export Plug-In . SVG Version: 6.00 Build 0)  -->
<svg version="1.1" id="Layer_1" xmlns="http://www.w3.org/2000/svg" xmlns:xlink="http://www.w3.org/1999/xlink" x="0px" y="0px"
	 viewBox="0 0 198.4 39.1" style="enable-background:new 0 0 198.4 39.1;" xml:space="preserve">
<style type="text/css">
	.st0{fill:#4D4D4F;}
	.st1{fill:#E42328;}
</style>
<g>
	<g>
		<path class="st0" d="M36.2,24.5c0,3.6-2.6,6.7-7.9,6.7c-2.9,0-5.8-0.5-7.7-2.2c-0.1-0.1,0.6-0.6,1.1-1.3c0.5-0.7,1.1-1.4,1.2-1.3
			c1.4,1.1,3.3,1.4,5.5,1.4c2.5,0,4.1-0.9,4.1-3.2c0-4.9-11.8-1.5-11.8-9.8c0-3.9,3-6.4,7.5-6.4c2.9,0,4.8,0.8,6.9,2.2l-1.6,3
			c-2-1.4-3.4-1.9-5.3-1.9c-2.3,0-3.6,1.2-3.6,2.9C24.4,20.2,36.2,16.2,36.2,24.5"/>
		<path class="st0" d="M41.6,0v9.5c1.4-0.6,2.9-1.1,4.9-1.1c5.6,0,9.1,1.9,9.1,7.4v14.5h-3.7v-14c0-3.3-2.5-4.2-5.7-4.2
			c-2.8,0-4.6,1.3-4.6,3.2v15.2h-3.6V0H41.6z"/>
		<path class="st0" d="M67.6,31c-6.7,0-10-5.5-10-11.3c0-5.7,3.4-11.2,10-11.2s9.9,5.4,9.9,11.2C77.5,25.4,74.1,31,67.6,31
			 M67.6,27.4c4.4,0,6.3-4.1,6.3-7.7c0-3.7-1.9-7.7-6.3-7.7s-6.4,3.9-6.4,7.7S63.1,27.4,67.6,27.4"/>
		<path class="st0" d="M79.6,39.1v-30h3.7V11c0.4-0.5,0.8-0.8,1.4-1.2c1.1-0.7,2.7-1.2,5.4-1.2c5,0,8.6,3.5,8.6,11.1
			c0,7.4-3.5,10.7-9.5,11.2c-1.6,0.1-3.2,0-4.2-0.2c-0.5-0.1-0.9-0.2-1.3-0.2c-0.4-0.1-0.5,2.8-0.5,8.6
			C83.3,39.1,79.6,39.1,79.6,39.1z M89.2,12.1c-5.3,0-5.8,3.6-5.8,9v5.5c10.4,2.8,11.6-2.7,11.6-7.2C94.9,16.8,94.5,12.1,89.2,12.1"
			/>
		<path class="st1" d="M14.9,30.2c2.3-1.2,4.1-2.5,5.1-4l0.5-0.8c0-0.1-0.7-0.7-0.8-0.8c-0.1,0-0.6,0.5-0.9,0.7
			c-0.2,0.1-1.5,1.2-3.9,2c-1.3,0.5-4.1,0.8-5.5,0.5C8.3,27.5,7.1,27,6.3,26c-2.2-2.5-1.2-7-1.2-7c0.1-0.7,0.5-1.4,0.7-2.1
			c0.8-1.8,2.3-2.8,2.9-3.2c0.6-0.4,1.3-0.5,2.1-0.5c0.6,0,1.2,0.2,1.5,0.6c0.4,0.4,0.6,0.8,0.6,1.4c0,0.8-0.2,1.6-1.1,2.5
			c-0.2,0.2-1.3,1.4-3.5,2c-0.6,0.1-0.8,0.4-1.1,0.5c-1.2,0.7-0.9,1.8-0.8,2.1c0.2,0,1.1-0.1,1.6-0.2c0.4-0.1,2.5-0.5,3.7-0.8
			c1.2-0.4,2.2-0.8,3.2-1.4c0.9-0.6,1.6-1.4,2.2-2.2c0.6-0.8,0.8-1.9,0.8-3c0-0.8-0.1-1.5-0.5-2.2c-0.4-0.6-0.7-1.2-1.3-1.5
			c-0.6-0.5-1.2-0.7-2-0.9c-0.7-0.2-1.5-0.4-2.5-0.4c-1.9,0-3.5,0.4-5,1.2c-1.5,0.7-2.7,1.8-3.7,3c-1.1,1.3-1.9,2.7-2.3,4.2
			C0.2,19.5,0,21.1,0,22.8c0,1.3,0.2,2.5,0.6,3.5s0.9,1.9,1.6,2.7C2.9,29.6,4,30.2,5,30.6c1.2,0.4,2.6,0.6,4.2,0.6
			c0.5,0,1.1,0,1.8-0.1c0.6-0.1,1.3-0.1,2-0.2C13.4,30.8,14.4,30.6,14.9,30.2"/>
		<polygon class="st1" points="102.7,9.1 108,27.1 113.5,9.1 117.2,9.1 122.4,27.1 127.9,9.1 131.7,9.1 125.2,30.3 119.8,30.3 
			115.2,15.3 110.7,30.3 105.3,30.3 98.7,9.1 		"/>
		<path class="st1" d="M168.2,11.8c-0.1,0-0.4,0-0.5,0c-0.4,0-0.8,0-1.4,0.1c-5,0.7-5.3,4.4-5.3,5.6v13h-3.7V9.1h3.7v1.5
			c1.2-1.3,2.3-2.1,5.7-2.2c0.9,0,1.8,0.1,2.5,0.4L168.2,11.8z"/>
		<path class="st1" d="M175,25.8c0,1.2,0.5,1.9,2,1.9c0.9,0,1.3-0.1,2-0.2c0.4,0.7,0.5,0.8,0.8,1.4c0.4,0.7,1.3,1.5,1.3,1.5
			c-0.9,0.4-3.2,0.8-5.5,0.7c-2.8-0.1-4.2-2.1-4.2-4.7V0h3.7v25.8H175z"/>
		<path class="st1" d="M198.4,30c-1.6,0.7-5,1.1-7.7,1.1c-7.7,0-11.4-3.6-11.4-11.3c0-7.6,3.5-11.1,8.6-11.1c2.8,0,4.4,0.6,5.4,1.2
			c0.6,0.4,1.1,0.7,1.4,1.2V0h3.7L198.4,30L198.4,30z M194.7,20.7c0-5.4-0.7-8.5-5.8-8.5c-4.4,0-5.7,3.2-5.7,7.2
			c0,5.6,2.2,8.1,6.9,8.1c2.9,0,4-0.2,4.7-0.7V20.7z"/>
		<path class="st1" d="M150.3,11.1c-1.3,1.4-2.6,1.3-4.2,1.3c-1.1,0-1.9,1.2-2.3,2c-0.5,0.7-0.5,1.4,0.2,1.8
			c0.4,0.1,0.7,0.2,1.1,0.1c0.4-0.1,0.7-0.7,0.7-0.7c-0.2-0.1-0.6-0.1-0.8-0.2c1.1,1.3-4.1,5.5-0.4,6.2c0.8,0.1,2.3-0.2,2.7-1.1
			c0.2-0.4-0.1-2.2,0.5-0.6c0.2,0.6,0.2,1.3,0.8,1.6c0.4,0.2,0.9,0.1,1.3-0.2c0.5-0.5,0.6-0.9,0.8-1.5c0.2-0.8,2-2.2,3-1.3
			c0.5,0.5,1.9-0.1,1.4-0.7c-0.9-0.9-2.3-0.8-3.5-0.4c-0.6,0.2-1.3,0.6-1.8,1.1c-0.6,0.7-0.6,1.6-1.3,2.3c0.4-0.1,0.8-0.1,1.3-0.2
			c-0.8-0.5-0.2-2.2-1.4-2.5c-0.8-0.1-2.1-0.1-2.5,0.7c-0.1,0.1-0.2,1.3-0.1,1.3c-1.9,0.5-0.4-1.6,0-2.2c0.7-0.7,1.3-2.6,0.6-3.4
			c-0.2-0.2-0.6-0.2-0.8-0.2c-0.7,0.1-0.8,0.5-1.3,1.1c0.4-0.1,0.6-0.2,0.9-0.4c-0.8,0,0.9-1.6,1.5-1.6c0.7,0,1.4,0,2-0.2
			c1.2-0.2,2.1-0.9,2.9-1.9C152.3,10.9,150.8,10.6,150.3,11.1"/>
		<path class="st1" d="M150.5,27.7c-0.2,0,0.8-1.9,0.8-2c0.4-0.7,0.1-1.5-0.1-2.1c-0.5-1.2-2.2-1.3-3.3-1.4c-1.4,0-5.8,0.9-4.2,3.4
			c0.5,0.7,1.2,0.8,1.9,1.4c0.7,0.7,0.7,1.5,1.5,2.1c0.9,0.6-4.1,1.2-4.4,1.2c-1.6,0-3.3-0.7-4.7-1.4c-2.6-1.4-4.2-3.9-5-6.5
			c-0.5-1.5-0.5-3-0.2-4.6c0-0.4,0.9-3.9,1.1-4c-0.2-0.1-0.5-0.2-0.7-0.4c0.4,1.1,0.1,2.3,0.5,3.4c0.1,0.7,0.7,1.3,0.9,1.9
			c0.4,0.8,0.1,2-0.1,2.9c-0.5,2.7,1.9,4.4,3.7,5.7c2.5,1.8,2.2-2.6,2.2-3.5c0-1.2-0.4-2.6-1.3-3.3c-2.3-1.9-2.2-3.4,0.4-5.1
			c0.5-0.4,4-2.2,2.3-3.3c-1.1-0.7-2.9-0.4-4.1-0.5c-2.8-0.2,0.8-2.2,1.1-2.3c1.2-0.6,2.5-0.8,3.7-0.8c4.9-0.4,9.2,2.8,11,7.4
			c1.4,3.7,0.5,9.8-3.3,12c-0.9,0.6,0.4,1.1,1.1,0.7c6.2-3.7,5.5-13.9,0.5-18.1c-3-2.6-6.7-3.3-10.5-2.8c-1.9,0.2-5.6,1.4-5.8,3.6
			c-0.1,0.7,0.6,1.3,1.2,1.4c1.1,0.2,5.6,0.1,2.8,1.8c-2.2,1.3-4.4,3.4-3,6.1c0.1,0.4,1.2,0.6,1.4,0.6c1.6,0.8,1.5,3.2,1.5,4.6
			c0,1.1,0.2,0.7-0.4,0.2c-1.4-0.8-2-2-2.5-3.6c-0.4-1.6,0.6-3-0.2-4.7s-0.6-3-1.1-4.7c-0.1-0.2-0.5-0.4-0.7-0.4
			c-1.5,0.2-2,2.1-2.3,3.4c-0.8,2.6-0.6,5.5,0.5,7.9c1.9,4.9,7,7.5,12,7.2c1.8-0.1,3.9-0.4,4.8-1.9c0.1-0.1,0.1-0.6-0.2-0.9
			c-0.2-0.2-0.5-0.5-0.7-0.8c-0.6-0.7-1.2-1.6-1.4-1.8c-1.4-0.9-0.8-2.5,0.7-2.6c2.6-0.2,3.2,1.5,2,3.5c-0.7,1.2,0.1,2,1.2,1.9
			C151.2,28.6,151.5,27.5,150.5,27.7"/>
	</g>
</g>
</svg>
