<?xml version="1.0" encoding="utf-8"?>
<!-- Generator: Adobe Illustrator 21.0.2, SVG Export Plug-In . SVG Version: 6.00 Build 0)  -->
<svg version="1.1" id="Layer_1" xmlns="http://www.w3.org/2000/svg" xmlns:xlink="http://www.w3.org/1999/xlink" x="0px" y="0px"
	 viewBox="0 0 198.4 46.8" style="enable-background:new 0 0 198.4 46.8;" xml:space="preserve">
<style type="text/css">
	.st0{fill:#757378;}
	.st1{fill:#6B1041;}
	.st2{fill:#7B174C;}
	.st3{fill:#C9789A;}
	.st4{fill:#A01F5F;}
	.st5{fill:#B41169;}
	.st6{fill:#5E0937;}
	.st7{fill:#D395B1;}
	.st8{fill:#8C1B55;}
	.st9{fill:#BB537F;}
</style>
<g>
	<g>
		<g>
			<path class="st0" d="M126.3,19.5c1.9-0.6,3.6-1.4,5.4-1.5c3.8-0.2,6.5,1.9,7.3,5.6c1,5-1.1,10.4-7.1,11.9c-1.5,0.3-3,0.3-4.5,0.3
				c-0.8,0-1.1,0.2-1.1,1c0,2,0,4.1,0,6.1c0,1.4,0.5,1.8,1.9,1.9c0.2,0,0.6,0,0.8,0.1c0.2,0.2,0.5,0.6,0.7,0.8
				c-0.2,0.2-0.6,0.6-0.8,0.6c-3,0-6.2,0-9.3,0c-0.2,0-0.7-0.3-0.7-0.5c0-0.3,0.3-0.8,0.5-0.8c2.1,0,2.4-1.2,2.4-2.9
				c0-3.3,0.1-6.5,0.1-9.8c0-3,0-6.1-0.1-9c0-1-0.3-1.7-1.2-2.3c-0.8-0.6-0.7-1,0.2-1.4c1.6-0.7,3-1.5,4.6-2.1
				c0.2-0.1,0.7-0.2,0.8-0.1c0.2,0.2,0.2,0.6,0.2,0.9C126.4,18.7,126.3,19.2,126.3,19.5z M134.4,27.3c-0.1-0.7-0.1-1.5-0.3-2.3
				c-0.6-2.5-2.3-4.1-4.5-4.4c-2-0.3-3.3,0.7-3.3,2.7c0,2.5,0,5,0,7.3c0,1.7,0.9,2.6,2.3,3.3c1.4,0.6,2.7,0.3,3.8-0.7
				C134,31.6,134.2,29.6,134.4,27.3z"/>
			<path class="st0" d="M109.8,6.4c1.5,0.2,3.2,0.6,5,0.9c0.3,0.1,0.8,0.5,0.8,0.8c0.3,1.6,0.5,3.2,0.7,4.7c0,0.2-0.3,0.7-0.5,0.7
				c-0.3,0-0.8-0.2-1-0.5c-0.5-0.7-0.7-1.5-1-2.1c-1.5-2.4-4.4-3.2-7-2c-2.1,1-3,3.8-1.8,6c0.9,1.5,2.1,2.4,3.6,3.2
				c2.1,1.1,4.3,2.1,6,4c2.7,2.9,3.2,7.4,0.8,10.6c-1.4,1.9-3.3,2.8-5.5,3.3c-3.2,0.6-6.3,0.3-9.3-1.1c-0.5-0.2-1-0.7-1.1-1.1
				c-0.3-1.7-0.6-3.5-0.8-5.3c0-0.2,0.3-0.7,0.6-0.7c0.3,0,0.8,0.2,0.9,0.6c0.8,1.4,1.5,2.8,2.5,4c1.4,1.7,3.2,2.6,5.4,2.3
				c4-0.7,5.6-4.6,3-7.8c-0.9-1.1-2.1-1.9-3.3-2.7c-1.8-1.2-3.7-2.4-5.3-3.8c-2.4-2.1-3-5-2-8c1-2.9,3.4-4.4,6.3-5.1
				C107.7,6.7,108.6,6.7,109.8,6.4z"/>
			<path class="st0" d="M188.3,26.4c0-1.6,0-3.2,0-4.7c0-0.9-0.3-1.4-1.2-1.2c-0.3,0-0.7-0.1-1.1-0.1c0.1-0.3,0-1,0.2-1.1
				c2.1-0.9,4.1-2.1,5.4-4.2c0.1-0.2,0.6-0.3,0.9-0.2c0.2,0,0.3,0.5,0.5,0.7c0.1,0.1,0,0.3,0,0.5c0,2.5,0,2.5,2.5,2.5
				c0.6,0,1.2,0,1.8,0s1.1,0.1,1,0.8c0,0.7-0.1,1.2-1,1.2c-1.1,0-2.3,0-3.4,0c-0.8,0-1,0.2-0.9,1c0,2.8,0,5.6,0,8.4
				c0,2.4,1.2,3.7,3.2,3.6c0.5,0,0.9-0.3,1.4-0.5c0.3-0.1,0.7,0,1,0c-0.1,0.3,0,0.8-0.2,1c-1,1.1-2.4,1.7-3.8,1.9
				c-0.8,0.1-1.7,0.1-2.6,0c-1.9-0.2-3.2-1.6-3.4-3.5c0-0.5-0.1-0.9-0.1-1.4C188.3,29.6,188.3,28,188.3,26.4L188.3,26.4z"/>
			<path class="st0" d="M163,20.3c0.9-0.6,1.6-1.1,2.3-1.5c0.7-0.3,1.5-0.7,2.1-0.8c1-0.2,1.9,0.2,2.3,1.2c0.3,0.9,0.2,1.9-0.6,2.7
				s-1.8,0.8-2.8,0.3c-0.6-0.2-1-0.6-1.6-0.7c-0.8-0.2-1.2,0-1.5,0.8c0,0.1,0,0.1,0,0.2c0,3.4-0.1,6.9,0,10.3c0,1.5,1.5,1.1,2.4,1.4
				c0.3,0.1,0.7,0.3,0.9,0.6c-0.2,0.2-0.5,0.8-0.6,0.8c-3,0-6.2,0-9.3,0c-0.2,0-0.5-0.3-0.7-0.6c0.2-0.2,0.5-0.7,0.7-0.7
				c1.4-0.1,1.9-0.8,1.9-2.1c0-2.9,0.1-6,0.1-8.9c0-0.9-0.2-1.7-1.1-2.1c-0.2-0.1-0.6-0.5-0.5-0.8c0-0.2,0.3-0.6,0.6-0.7
				c1.5-0.7,3-1.4,4.6-2c0.7-0.3,1,0,1,0.7C163,18.8,163,19.5,163,20.3z"/>
			<path class="st0" d="M74.3,24.5c-1.6,0-3.2,0-4.7,0c-0.6,0-1,0-1,0.7c-0.2,3.4,1.5,7.2,5.2,8.1c1.9,0.5,3.7,0.2,5.2-1.4
				c0.2-0.2,0.7-0.2,1-0.3c0,0.3,0,0.8-0.1,1c-1.8,2.7-4.4,3.6-7.6,3.3c-2.9-0.3-5-2-6.1-4.9c-1.9-5.2,0.7-11.2,5.5-12.6
				c3-0.9,6.3,0,7.8,2.4c0.2,0.5,0.5,0.9,0.6,1.4c0.6,2,0.1,2.5-1.9,2.5C76.9,24.5,75.6,24.5,74.3,24.5z M69.1,23.3
				c2.4-0.1,4.5-0.2,6.8-0.3c1,0,1.4-0.7,0.9-1.5c-0.3-0.8-1-1.6-1.7-1.9C72.7,18.6,69.3,20.7,69.1,23.3z"/>
			<path class="st0" d="M151.9,35.4c-3,0-6.2,0-9.4,0c-0.3-0.9-0.1-1.2,0.8-1.4c1-0.1,1.5-0.7,1.5-1.7c0-3.2,0-6.3,0-9.4
				c0-0.9-0.3-1.5-1-1.9c-0.2-0.2-0.6-0.6-0.6-0.8c0-0.2,0.5-0.6,0.7-0.7c1.5-0.7,2.9-1.2,4.4-1.9c0.9-0.5,1.1-0.3,1.1,0.7
				c0,3.8,0,7.6-0.1,11.4c0,0.7,0,1.5,0.1,2.1c0.1,1.7,0.2,1.8,1.8,2.3C152.1,34.3,152.1,34.3,151.9,35.4z"/>
			<path class="st0" d="M182.1,35.6c-2.9,0-5.9,0-8.7,0c-0.2,0-0.6-0.3-0.8-0.6c0.2-0.2,0.5-0.7,0.8-0.7c1.1-0.1,1.7-0.7,1.7-1.8
				c0-3.3,0.1-6.5,0-9.7c0-0.6-0.7-1-1-1.6c-0.2-0.3-0.6-0.6-0.6-0.9c0-0.2,0.5-0.6,0.7-0.7c1.5-0.7,2.9-1.1,4.3-1.8
				c1-0.5,1.2-0.3,1.2,0.8c0,4.1-0.1,8.2-0.1,12.3c0,0.6,0.1,1.1,0.1,1.7c0,1,0.7,1.6,1.6,1.7C182.4,34.2,182.3,34.7,182.1,35.6z"/>
			<path class="st0" d="M94.5,26.3c0.1,0.8-0.3,1-1.1,1.1c-2.8,0.2-5.5,0.5-8.4,0.8c-1,0.1-1.2-0.5-1.4-1.1c-0.1-0.8,0.1-1.4,1-1.5
				c2.8-0.2,5.5-0.5,8.4-0.7C94.1,24.8,94.5,25.1,94.5,26.3z"/>
			<path class="st0" d="M147.2,12.4c-1.7,0-2.8-1-2.8-2.7c0-1.6,1.1-2.7,2.7-2.7s2.8,1.1,2.8,2.7C150,11.2,148.9,12.4,147.2,12.4z"
				/>
			<path class="st0" d="M180.1,9.8c0,1.7-1,2.6-2.8,2.6c-1.6,0-2.7-1.1-2.7-2.7s1.1-2.7,2.8-2.6C179,7,180.1,8.1,180.1,9.8z"/>
		</g>
	</g>
	<g>
		<g>
			<g>
				<rect x="37.5" y="37.5" class="st1" width="9.4" height="9.4"/>
			</g>
		</g>
		<g>
			<g>
				<rect x="37.5" y="28.1" class="st2" width="9.4" height="9.4"/>
			</g>
		</g>
		<g>
			<g>
				<rect x="37.5" y="18.7" class="st3" width="9.4" height="9.4"/>
			</g>
		</g>
		<g>
			<g>
				<rect x="37.5" y="9.4" class="st4" width="9.4" height="9.4"/>
			</g>
		</g>
		<g>
			<g>
				<rect x="37.5" y="0" class="st1" width="9.4" height="9.4"/>
			</g>
		</g>
		<g>
			<g>
				<rect x="28.1" y="37.5" class="st3" width="9.4" height="9.4"/>
			</g>
		</g>
		<g>
			<g>
				<rect x="28.1" y="28.1" class="st5" width="9.4" height="9.4"/>
			</g>
		</g>
		<g>
			<g>
				<rect x="28.1" y="18.7" class="st6" width="9.4" height="9.4"/>
			</g>
		</g>
		<g>
			<g>
				<rect x="28.1" y="9.4" class="st5" width="9.4" height="9.4"/>
			</g>
		</g>
		<g>
			<g>
				<rect x="28.1" y="0" class="st5" width="9.4" height="9.4"/>
			</g>
		</g>
		<g>
			<g>
				<rect x="18.7" y="37.5" class="st4" width="9.4" height="9.4"/>
			</g>
		</g>
		<g>
			<g>
				<rect x="18.7" y="28.1" class="st7" width="9.4" height="9.4"/>
			</g>
		</g>
		<g>
			<g>
				<rect x="18.7" y="18.7" class="st8" width="9.4" height="9.4"/>
			</g>
		</g>
		<g>
			<g>
				<rect x="18.7" y="9.4" class="st3" width="9.4" height="9.4"/>
			</g>
		</g>
		<g>
			<g>
				<rect x="18.7" y="0" class="st6" width="9.4" height="9.4"/>
			</g>
		</g>
		<g>
			<g>
				<rect x="9.4" y="37.5" class="st8" width="9.4" height="9.4"/>
			</g>
		</g>
		<g>
			<g>
				<rect x="9.4" y="28.1" class="st9" width="9.4" height="9.4"/>
			</g>
		</g>
		<g>
			<g>
				<rect x="9.4" y="18.7" class="st5" width="9.4" height="9.4"/>
			</g>
		</g>
		<g>
			<g>
				<rect x="9.4" y="9.4" class="st7" width="9.4" height="9.4"/>
			</g>
		</g>
		<g>
			<g>
				<rect x="9.4" y="0" class="st2" width="9.4" height="9.4"/>
			</g>
		</g>
		<g>
			<g>
				<rect x="0" y="37.5" class="st6" width="9.4" height="9.4"/>
			</g>
		</g>
		<g>
			<g>
				<rect x="0" y="28.1" class="st2" width="9.4" height="9.4"/>
			</g>
		</g>
		<g>
			<g>
				<rect x="0" y="18.7" class="st8" width="9.4" height="9.4"/>
			</g>
		</g>
		<g>
			<g>
				<rect x="0" y="9.4" class="st4" width="9.4" height="9.4"/>
			</g>
		</g>
		<g>
			<g>
				<rect x="0" y="0" class="st9" width="9.4" height="9.4"/>
			</g>
		</g>
	</g>
</g>
</svg>
