<svg version="1.1" id="Layer_1" xmlns="http://www.w3.org/2000/svg" xmlns:xlink="http://www.w3.org/1999/xlink" x="0px" y="0px"
	 viewBox="0 0 225 126.5" style="enable-background:new 0 0 225 126.5;" xml:space="preserve">
<g>
	<path d="M5,58.8c0-4.7,0-9.3,0-14c0-1,0.1-1.2,1.2-1.2c5.8,0,11.6,0,17.5,0c1,0,1.1,0.1,1.2,1.2c0,2,0,1.9-1.9,1.9
		c-4.6,0-9.1,0-13.7,0c-0.6,0-0.7,0.1-0.7,0.7c0,2.8,0,5.6,0,8.4c0,0.6,0.2,0.7,0.8,0.7c4.6,0,9.2,0,13.9,0c1,0,1.1,0.1,1.1,1.1
		c0,2.1,0.1,2-2,2c-4.3,0-8.6,0-12.9,0c-0.6,0-0.8,0.1-0.8,0.8c0,3.2,0,6.4,0,9.6c0,0.7,0.2,0.8,0.9,0.8c4.7,0,9.5,0,14.2,0
		c1.2,0,1.3,0.1,1.3,1.3c0,2,0,1.8-1.8,1.8c-5.6,0-11.2,0-16.8,0c-1.1,0-1.2-0.1-1.2-1.2C5,68.1,5,63.4,5,58.8z"/>
	<path d="M109.8,60.2c0-4.2,0-8.5,0-12.7c0-0.6-0.2-0.8-0.8-0.8c-2.9,0-5.8,0-8.7,0c-1,0-1.2-0.1-1.2-1.1c0-2-0.2-2,1.9-2
		c7.2,0,14.3,0,21.5,0c1.2,0,1.2,0.1,1.2,1.2c0,1.7,0.4,1.9-1.9,1.9c-2.6,0-5.3,0-7.9,0c-0.7,0-0.8,0.2-0.8,0.8c0,8.3,0,16.6,0,24.9
		c0,1.4,0,1.4-1.4,1.4c-2.3,0-2.1,0.2-2.1-2.1C109.8,68,109.8,64.1,109.8,60.2z"/>
	<path d="M88.3,57.8c0-3.7,0-7.3,0-11c0-0.7,0.2-1,0.9-1.1c0.5-0.1,1-0.3,1.5-0.4c0.6-0.2,0.9,0,0.9,0.7c0,1.9,0,3.9,0,5.8
		c0,0.5,0.1,0.6,0.6,0.6c2,0,3.9,0,5.9,0c0.7,0,1,0.3,1,1c0,1.6,0,1.6-1.6,1.6c-1.8,0-3.6,0-5.4,0c-0.4,0-0.6,0.1-0.6,0.6
		c0,4.6,0,9.1,0,13.7c0,1.5,0.7,2.2,2.1,2.5c1.5,0.3,2.9,0,4.3-0.3c0.4-0.1,0.9-0.4,1.1,0.1c0.3,0.6,0.5,1.2,0.4,1.9
		c0,0.2-0.2,0.3-0.4,0.3c-2.5,0.7-5,1.1-7.5,0.4c-2-0.5-3-1.9-3.3-3.9c-0.2-1.3-0.1-2.5-0.1-3.8C88.3,63.5,88.3,60.7,88.3,57.8z"/>
	<path d="M68.9,63.2c0.1-1.8,0.1-3.6,0.5-5.3c0.9-3.5,2.8-5.3,6.3-5.8c3-0.4,5.9-0.1,8.8,0.7c0.6,0.2,0.8,0.4,0.7,1.1
		c-0.4,1.7-0.3,1.7-2,1.3c-2.1-0.5-4.2-0.8-6.3-0.5c-2.3,0.3-3.7,1.6-4.1,3.8c-0.7,3.1-0.7,6.2,0,9.3c0.5,2.4,2.1,3.7,4.6,3.9
		c2.2,0.2,4.3-0.2,6.5-0.7c1.1-0.3,1.1-0.3,1.3,0.8c0,0.2,0.1,0.4,0.1,0.5c0.3,0.7-0.1,1-0.7,1.2c-1.9,0.6-3.9,0.9-5.9,0.9
		c-1.4,0-2.7-0.1-4.1-0.5c-3.1-0.9-4.7-3.1-5.2-6.1C68.9,66.3,68.9,64.8,68.9,63.2z"/>
	<path d="M199.4,46.8c0-0.7,0.2-1.1,0.9-1.2c0.5-0.1,1-0.2,1.4-0.4c0.6-0.2,0.9,0.1,0.9,0.7c0,1.9,0,3.8,0,5.8
		c0,0.5,0.1,0.7,0.7,0.7c1.9,0,3.8,0,5.8,0c0.9,0,1,0.1,1,1c0,1.6,0,1.6-1.6,1.6c-1.8,0-3.5,0-5.3,0c-0.5,0-0.6,0.1-0.6,0.6
		c0,4.5,0,9.1,0,13.6c0,1.7,0.9,2.5,2.7,2.6c1.3,0.1,2.5-0.1,3.8-0.4c0.4-0.1,0.9-0.3,1.1,0.1c0.3,0.5,0.4,1.2,0.4,1.8
		c0,0.2-0.2,0.3-0.4,0.4c-2.2,0.7-4.5,0.9-6.8,0.5c-2.6-0.5-3.9-2.1-4-4.7C199.4,65.8,199.4,50.6,199.4,46.8z"/>
	<path d="M143.2,64.5c0-2.7,0-5.4,0-8.1c0-2,0.5-2.7,2.4-3.4c2.5-0.8,5-1.1,7.6-1.1c0.6,0,0.8,0.3,0.9,0.8c0.1,1.9,0.1,1.9-1.8,2
		c-1.7,0.1-3.4,0.2-5,0.6c-0.6,0.1-0.8,0.3-0.8,1c0,5.5,0,11,0,16.4c0,1.1,0,1.1-1.1,1.1c-2.4,0-2.1,0.3-2.1-2.1
		C143.2,69.4,143.2,66.9,143.2,64.5z"/>
	<path d="M29.2,73.9c-0.3,0-0.7,0-1,0c-0.3,0-0.6,0.1-0.8-0.2c-0.2-0.4,0.1-0.6,0.3-0.9c0.8-1.1,1.5-2.1,2.3-3.2
		c1.3-1.8,2.6-3.7,4-5.5c0.4-0.5,0.3-0.8,0-1.2c-2.1-2.8-4.1-5.7-6.2-8.6c-0.2-0.3-0.5-0.6-0.3-1c0.2-0.4,0.6-0.2,0.9-0.2
		c1.9-0.3,3.1,0.4,4.2,2c1.7,2.7,3.8,5.3,5.7,7.9c0.2,0.3,0.3,0.5,0,0.9c-2.3,3.1-4.6,6.3-6.8,9.4c-0.3,0.4-0.6,0.5-1,0.5
		C29.9,73.9,29.5,73.9,29.2,73.9z"/>
	<path d="M39.7,61.8c-0.7-0.9-1.3-1.8-1.9-2.6c-0.2-0.2-0.1-0.4,0.1-0.5c1.2-1.7,2.5-3.4,3.7-5.1c0.1-0.2,0.3-0.3,0.5-0.3
		c1,0,2-0.1,3,0c0.6,0.1,0.4,0.6,0.2,0.9c-0.5,0.7-1,1.4-1.4,2C42.4,58,41.1,59.9,39.7,61.8z"/>
	<path d="M39.7,65.3c1.8,2.5,3.6,5,5.4,7.5c0.2,0.3,0.4,0.5,0.2,0.9c-0.2,0.3-0.5,0.2-0.8,0.2c-2.1,0.4-3.5-0.4-4.5-2.2
		c-0.6-1.1-1.4-2-2.2-3c-0.3-0.4-0.3-0.6,0-1C38.6,66.9,39.1,66.1,39.7,65.3z"/>
	<path d="M175.6,52.9c0-0.1-0.1-0.2-0.1-0.3c-0.4-1-0.4-1-1.3-0.5c-1.7,0.8-3.5,1.2-5.3,0.6c-2.4-0.7-4.9-0.9-7.4-0.6
		c-1.5,0.2-3,0.7-4.2,1.7c-1.9,1.6-2.3,3.8-2.2,6.1c0,1.6,0.4,3.1,1.7,4.3c0.5,0.5,1.7,1.1,2.2,1.1c0.1,0.4-0.9,0.3-2,0.8
		c-1.5,0.7-1.8,2.1-1.7,3.6c0.2,1.6,1.1,2.4,2.6,2.7c0.2,0,0.4,0.1,0.5,0.1c0.1,0,0.2,0.1,0.2,0.3c0,0.2-0.1,0.2-0.2,0.3
		c-0.2,0-0.3,0.1-0.5,0.1c-3.1,0.7-3.8,2.8-3.2,5.6c0.5,2.3,2.3,3.1,4.3,3.5c2.8,0.6,5.6,0.6,8.4,0.3c1.7-0.2,3.2-0.7,4.6-1.7
		c1.8-1.3,2.7-3.9,2.1-6.3c-0.5-1.8-1.9-3-4.3-3.3c-2.4-0.3-4.8-0.1-7.2-0.2c-0.8,0-1.7,0-2.5-0.1c-1.1-0.2-1.6-0.8-1.7-1.8
		c-0.1-1.5,0.7-2.3,2.2-2.3c1.9-0.1,3.9,0.1,5.8-0.2c4.8-0.5,7-3.5,6.5-8.4c-0.1-1.2-0.7-2.3-1.6-3.3c1.2,0.3,2.2,0.3,3.1,0
		C176.1,54.5,176.2,54.4,175.6,52.9z M160.9,74c2.6-0.1,5.2-0.2,7.9,0.1c1.4,0.2,2.1,0.8,2.3,1.8c0.3,1.4-0.3,2.7-1.4,3.4
		c-1.7,1-3.6,1-5.4,1.1c-1.5-0.1-2.9-0.1-4.3-0.5c-2-0.6-2.9-2.4-1.9-4.3C158.6,74.4,159.7,74,160.9,74z M169.7,60.7
		c-0.3,1.8-1.4,2.9-3.2,3.4c-1.7,0.4-3.5,0.4-5.2-0.1c-1.7-0.5-2.7-1.6-3-3.3c-0.2-1.1-0.2-2.2,0.1-3.2c0.5-1.8,2-2.9,4.1-3.1
		c0.5,0,0.9,0,1.4,0c0.8,0,1.6,0,2.3,0.2c1.8,0.4,3,1.5,3.3,3.4C169.9,58.9,169.9,59.8,169.7,60.7z"/>
	<path d="M195.4,58.5c-0.5-3.2-2.5-5.5-5.7-6.3c-2.2-0.5-4.4-0.5-6.6-0.1c-3.2,0.6-5.1,2.4-5.9,5.6c-0.7,3.2-0.7,6.4-0.2,9.7
		c0.6,3.5,2.5,5.9,6,6.6c3.3,0.7,6.7,0.6,10-0.4c1.7-0.5,1.7-0.5,1.2-2.2c-0.2-0.6-0.4-0.7-1-0.5c-2.6,0.8-5.2,1.2-7.9,0.9
		c-3.4-0.4-5.2-2.3-5.2-5.8c0-0.5,0.1-0.7,0.6-0.7c2.3,0,4.6,0,6.9,0c0,0,0,0,0,0c2.3,0,4.6,0,6.9,0c0,0,0.1,0,0.1,0
		c0.7,0,1-0.2,1-1C195.7,62.4,195.7,60.5,195.4,58.5z M191.7,62.6c-1.4,0-8.5,0.1-10.6,0.1c-1.3,0-1,0-1-1c0-1.3,0.1-2.5,0.5-3.8
		c0.5-1.7,1.5-2.9,3.3-3.2c1.6-0.3,3.1-0.3,4.7,0c1.6,0.3,2.6,1.3,3,2.8c0.5,1.5,0.6,3,0.7,4.5C192.3,62.5,192.1,62.6,191.7,62.6z"
		/>
	<path d="M65.6,64.2c0-2.7,0-4.9,0-7c0-2.7-1.1-4.1-3.7-4.7c-4-0.9-7.9-0.5-11.9,0.4c-1.7,0.4-1.6,0.4-1.3,2.1
		C49,56,49,56,50.1,55.7c2.5-0.6,5.1-1.1,7.8-1c1.1,0,2.2,0.1,3.2,0.6c0.7,0.3,1.1,0.8,1.2,1.6c0.1,0.8,0,1.5,0.1,2.3
		c0.1,0.8-0.2,1-0.9,1.1c-2.9,0.4-5.9,0.9-8.8,1.4c-3.2,0.5-4.5,1.7-5,4.3c-0.1,0.5-0.1,1-0.1,1.5c-0.2,3.6,1.5,5.9,5,6.7
		c1.8,0.4,3.5,0.4,5.3,0.4c2-0.1,4-0.4,5.9-1c1.1-0.4,1.8-1.1,1.9-2.3C65.8,68.7,65.5,66.2,65.6,64.2z M62,71.3
		c-2.6,0.7-5.3,0.9-7.9,0.4c-2.7-0.5-4.1-3.6-2.8-6.1c0.5-0.9,1.3-1.3,2.2-1.5c3-0.5,5.9-1,9-1.5c0,2.8,0,5.5,0,8.1
		C62.4,71.1,62.3,71.2,62,71.3z"/>
	<path d="M138.9,63.7c-0.1-2.3,0-4.6-0.1-6.8c-0.1-2.5-1.1-3.9-3.6-4.5c-4-0.9-8-0.5-12,0.5c-1.6,0.4-1.6,0.4-1.2,2
		c0.2,1.1,0.3,1.2,1.5,0.9c2.8-0.7,5.6-1.2,8.5-1c0.8,0.1,1.5,0.2,2.2,0.5c0.7,0.3,1.2,0.8,1.3,1.6c0.2,0.9,0.2,1.2,0.1,2.6
		c0,0.6-0.2,0.7-0.7,0.8c-1.4,0.2-2.8,0.4-4.1,0.7c-2.2,0.4-4.5,0.6-6.6,1.2c-1.7,0.5-2.8,1.6-3.2,3.4c-0.2,0.8-0.2,1.7-0.2,2.6
		c0,3.3,1.6,5.4,4.8,6c3.7,0.8,7.4,0.5,11.1-0.5c1.5-0.4,2-1.3,2.1-2.9C139,68.4,138.9,66,138.9,63.7z M135.7,63.5
		c0,1.6,0,2.3,0,3.4c0,0,0,0,0,0c0,1.2,0,2.4,0,3.7c0,0.3,0,0.6-0.4,0.7c-2.7,0.7-5.5,1-8.2,0.3c-2.6-0.7-3.8-3.9-2.4-6.2
		c0.7-1.1,1.8-1.2,2.9-1.4c2.4-0.4,4.8-0.8,7.3-1.3C135.5,62.6,135.7,62.7,135.7,63.5z"/>
	<path d="M219.3,68.2c-0.2-0.3-0.5-0.6-0.8-0.8c0,0,0,0,0,0c-1.1-0.9-2.3-0.9-3.6-0.4c0,0,0,0,0,0c-1.8,0.8-2.6,2.7-2,4.5
		c0.5,1.7,2.1,2.7,4,2.5c1.5-0.1,2.8-1.4,3.1-3C220.2,70,219.7,68.8,219.3,68.2z M219.6,70.8c-0.3,1.6-1.2,2.6-2.8,2.9
		c-1.3,0.2-2.3-0.3-3.1-1.3c-1.2-1.7-0.6-3.7,1.3-5c1.1-0.5,2.2-0.3,3.2,0.3c0.2,0.2,0.4,0.4,0.6,0.6
		C219.4,69.1,219.6,69.9,219.6,70.8z"/>
	<path d="M217.4,70.5c0.7-0.2,0.8-0.7,0.8-1.3c-0.1-0.6-0.6-0.8-1.1-0.8c-0.6-0.1-1.1,0-1.7,0c-0.2,0-0.4,0.1-0.4,0.3
		c0,1.2,0,2.4,0,3.6c0,0.1,0,0.3,0.2,0.3c0.2,0,0.3-0.1,0.3-0.3c0-0.4,0-0.7,0-1.1c0-0.2-0.1-0.6,0.3-0.6c0.3,0,0.6-0.1,0.8,0.3
		c0.2,0.5,0.5,0.9,0.8,1.3c0.2,0.3,0.3,0.4,0.7,0.3c-0.3-0.5-0.6-1-0.9-1.4C217,70.7,217,70.6,217.4,70.5z M216.3,70.2
		c-1.1,0-1-0.5-1-1.2c0-0.3,0.3-0.3,0.5-0.3c0.4,0,0.8,0,1.2,0.1c0.4,0.1,0.7,0.2,0.7,0.7c0,0.5-0.3,0.7-0.8,0.7
		C216.8,70.2,216.5,70.2,216.3,70.2z"/>
</g>
</svg>
