<?xml version="1.0" encoding="utf-8"?>
<!-- Generator: Adobe Illustrator 21.0.2, SVG Export Plug-In . SVG Version: 6.00 Build 0)  -->
<svg version="1.1" id="Layer_1" xmlns="http://www.w3.org/2000/svg" xmlns:xlink="http://www.w3.org/1999/xlink" x="0px" y="0px"
	 viewBox="0 0 225 126.5" style="enable-background:new 0 0 225 126.5;" xml:space="preserve">
<g>
	<path d="M74.3,56.2c0-0.3-0.1-3.5-1.8-6.6c-1.1-1.9-2.6-3.4-4.5-4.5c-2.2-1.3-4.9-1.9-8.1-1.9c-3.1,0-5.8,0.6-8,1.9
		c-1.9,1.1-3.4,2.6-4.5,4.5c-1.8,3.1-1.8,6.1-1.8,6.4v14.7c0,0.3,0.1,3.3,1.9,6.3c1.7,2.8,5.3,6.2,12.5,6.2c7.3,0,10.9-3.4,12.6-6.2
		c1.8-3,1.9-6,1.9-6.3V62h-3.4l0,0H57.8l1.6,6.1h8.2v2.5c0,0.1-0.1,1.7-1,3.1c-1.2,1.8-3.5,2.8-6.7,2.8c-3.2,0-5.4-0.9-6.6-2.7
		c-0.9-1.4-1-2.9-1-3V56.1c0-0.1,0.1-1.7,1-3.2c1.2-1.9,3.4-2.9,6.6-2.9c3.3,0,5.4,0.9,6.7,2.9c1,1.5,1,3.3,1,3.4c0,0,0,0,0,0H74.3z
		"/>
	<path d="M118.9,56.2c0-0.3-0.1-3.5-1.8-6.6c-1.1-1.9-2.6-3.4-4.5-4.5c-2.2-1.3-4.9-1.9-8.1-1.9c-3.1,0-5.8,0.6-8,1.9
		c-1.9,1.1-3.4,2.6-4.5,4.5c-1.8,3.1-1.8,6.1-1.8,6.4v14.7c0,0.3,0.1,3.3,1.9,6.3c1.7,2.8,5.3,6.2,12.5,6.2c7.3,0,10.9-3.4,12.6-6.2
		c1.8-3,1.9-6,1.9-6.3V62h-3.4l0,0h-13.1l1.6,6.1h8.2v2.5c0,0.1-0.1,1.7-1,3.1c-1.2,1.8-3.5,2.8-6.7,2.8c-3.2,0-5.4-0.9-6.6-2.7
		c-0.9-1.4-1-2.9-1-3V56.1c0-0.1,0.1-1.7,1-3.2c1.2-1.9,3.4-2.9,6.6-2.9c3.3,0,5.4,0.9,6.7,2.9c1,1.5,1,3.3,1,3.4c0,0,0,0,0,0H118.9
		z"/>
	<rect x="78.8" y="44" width="6.7" height="38.4"/>
	<path d="M139.7,44l-5.9,17.5L127.2,44H120l10.3,27.5c-0.6,1.3-1.2,2.6-1.9,3.5c-0.7,0.7-1.3,0.7-4.1,0.7c-0.4,0-0.8,0-1.2,0v6.7
		c0.4,0,0.8,0,1.1,0c0.3,0,0.6,0,0.9,0c2.9,0,5.6-0.2,8.1-2.8c0.1-0.1,0.2-0.2,0.2-0.3c2.6-3.2,4.5-9.3,4.8-10.2l8.5-25.1H139.7z"/>
	<path d="M146.2,82.4l3-8.2h14.4l3,8.2h7.2l-3-8.2h8.6l-1.6-6.1h-9.3L159.7,44h-6.5L139,82.4H146.2z M156.5,54.7l5,13.5h-9.9
		L156.5,54.7z"/>
</g>
</svg>
