<svg version="1.1" id="Layer_1" xmlns="http://www.w3.org/2000/svg" xmlns:xlink="http://www.w3.org/1999/xlink" x="0px" y="0px"
	 viewBox="0 0 225 126.5" style="enable-background:new 0 0 225 126.5;" xml:space="preserve">
<g id="XMLID_11_">
	<path id="XMLID_10_" d="M46.9,55.3v5.9h14.1c-0.4,3.3-1.5,5.7-3.2,7.4c-2.1,2.1-5.3,4.3-10.9,4.3c-8.7,0-15.4-7-15.4-15.7
		s6.8-15.7,15.4-15.7c4.7,0,8.1,1.8,10.6,4.2l4.1-4.1c-3.5-3.4-8.2-6-14.7-6C35,35.7,25,45.4,25,57.3s10,21.5,21.9,21.5
		c6.4,0,11.3-2.1,15-6C65.8,68.9,67,63.4,67,59c0-1.4-0.1-2.6-0.3-3.7H46.9z"/>
	<path id="XMLID_24_" d="M84.6,50.5c-7.7,0-14,5.8-14,13.9c0,8,6.3,13.9,14,13.9s14-5.9,14-13.9C98.5,56.4,92.3,50.5,84.6,50.5z
		 M84.6,72.9c-4.2,0-7.9-3.5-7.9-8.4c0-5,3.6-8.4,7.9-8.4c4.2,0,7.9,3.4,7.9,8.4C92.4,69.4,88.8,72.9,84.6,72.9z"/>
	<path id="XMLID_21_" d="M153,53.7h-0.2c-1.4-1.6-4-3.1-7.3-3.1c-6.9,0-13,6.1-13,13.9c0,7.8,6.1,13.9,13,13.9c3.3,0,6-1.5,7.3-3.2
		h0.2v1.9c0,5.3-2.8,8.2-7.4,8.2c-3.7,0-6.1-2.7-7-5l-5.3,2.2c1.5,3.7,5.6,8.2,12.3,8.2c7.2,0,13.2-4.2,13.2-14.5v-25H153V53.7z
		 M146,72.9c-4.2,0-7.4-3.6-7.4-8.4c0-4.9,3.2-8.4,7.4-8.4c4.2,0,7.4,3.6,7.4,8.5C153.4,69.4,150.2,72.9,146,72.9z"/>
	<path id="XMLID_18_" d="M115.7,50.5c-7.7,0-14,5.8-14,13.9c0,8,6.3,13.9,14,13.9s14-5.9,14-13.9C129.7,56.4,123.4,50.5,115.7,50.5z
		 M115.7,72.9c-4.2,0-7.9-3.5-7.9-8.4c0-5,3.6-8.4,7.9-8.4c4.2,0,7.9,3.4,7.9,8.4C123.6,69.4,119.9,72.9,115.7,72.9z"/>
	<path id="XMLID_3_" d="M163.6,36.3h6v42.1h-6V36.3z"/>
	<path id="XMLID_14_" d="M188.1,72.9c-3.1,0-5.3-1.4-6.8-4.2L200,61l-0.6-1.6c-1.1-3.1-4.7-8.9-11.9-8.9c-7.2,0-13.1,5.6-13.1,13.9
		c0,7.8,5.9,13.9,13.8,13.9c6.4,0,10.1-3.9,11.6-6.2l-4.7-3.2C193.4,71.4,191.3,72.9,188.1,72.9L188.1,72.9z M187.7,55.8
		c2.5,0,4.6,1.3,5.3,3.1L180.4,64C180.4,58.2,184.6,55.8,187.7,55.8z"/>
</g>
</svg>
