<svg version="1.1" id="Layer_1" xmlns="http://www.w3.org/2000/svg" xmlns:xlink="http://www.w3.org/1999/xlink" x="0px" y="0px"
	 viewBox="0 0 225 126.5" style="enable-background:new 0 0 225 126.5;" xml:space="preserve">
<g>
	<g>
		<path d="M101.4,42.8V28.8h-5v48.3h5V46.3c0-0.3,0.1-0.8,0.4-1.1c1.3-1.3,2.7-1.1,3.5-0.6c0.7,0.3,1.1,1,1.1,1.8v30.8h5V46.5
			c0-1.1-0.3-2.2-1-3C108.3,41,103,41.5,101.4,42.8z"/>
		<polygon points="128.3,43.1 123.8,66.8 119.8,43.1 115.3,43.1 121.5,79.1 117.7,98.8 121.8,98.8 132.4,43.1 		"/>
		<rect x="174.3" y="42" width="4.6" height="35.1"/>
		<rect x="174.3" y="29.6" width="4.6" height="4.6"/>
		<path d="M38,72.3c0,0-4.7-0.5-6.4-1.4c-0.1-0.5-0.2-1-0.3-1.5c-1-5-1.5-10-1.5-15.1c0-0.1,0-0.2,0-0.3c0-1.2,0-2.3,0.1-3.5
			c0-0.2,0-0.5,0-0.7c0.2-4,0.6-7.9,1.4-11.8l0.3-1.8c1.7-0.9,6.4-1.4,6.4-1.4V29l-0.5,0c-3.6,0.2-7.2,0.9-10.7,2.1
			c-1.1,3.6-1.8,8-2.2,12.5c-0.3,2.8-0.5,6.2-0.5,9.8c0,3.6,0.1,7,0.5,9.8c0.4,4.6,1.1,9,2.2,12.5c3.5,1.2,7.1,1.9,10.7,2.1l0.5,0
			V72.3z"/>
		<path d="M56.9,37.9c0.7,3.9,1.2,7.9,1.4,11.8c0,0.2,0,0.5,0,0.7c0,1.2,0.1,2.3,0.1,3.5c0,0.1,0,0.2,0,0.3c0,5.1-0.5,10.1-1.5,15.1
			c-0.1,0.5-0.2,1-0.3,1.5c-1.7,0.9-6.4,1.4-6.4,1.4V78l0.5,0c3.6-0.2,7.2-0.9,10.7-2.1c1.1-3.6,1.8-8,2.2-12.5
			c0.3-2.8,0.5-6.2,0.5-9.8c0-3.6-0.1-7-0.5-9.8c-0.4-4.6-1.1-9-2.2-12.5c-3.5-1.2-7.1-1.9-10.7-2.1l-0.5,0v5.7c0,0,4.7,0.5,6.4,1.4
			L56.9,37.9z"/>
		<path d="M46.5,58.2c2.3-5.1,4-10.5,4.6-16l-4.8-0.7c-0.7,2.9-1.6,6-2.7,9.1c-1.1-3.1-2-6.2-2.7-9.1l-4.8,0.7
			c0.9,8.8,4.7,17,8.8,24.5l5.4-0.4C49,63.8,47.7,61,46.5,58.2z"/>
		<path d="M163.1,46.9c2.8-4.4,7.3-0.8,7.3-0.8v-3.4c-2.4-1.4-5.9-0.4-7.3,0.9V42h-4.5v35.1h4.5V46.9z"/>
		<path d="M142,76.4c1.6,1.3,6.8,1.8,9-0.7c0.7-0.8,1-1.9,1-3v-2.7V49.5v-3c0-1.1-0.3-2.2-1-3c-2.1-2.5-7.4-2-9-0.7V42V28.8h-5V42
			v23.1v12h5V76.4z M142,65.1V46.3c0-0.3,0.1-0.8,0.4-1.1c1.3-1.3,2.7-1.1,3.5-0.6c0.7,0.3,1.1,1,1.1,1.8v3.2v18.3v4.9
			c0,0.7-0.4,1.4-1.1,1.8c-0.9,0.4-2.3,0.6-3.5-0.6c-0.2-0.2-0.4-0.7-0.4-1.1V65.1z"/>
		<path d="M193.1,77.6c4.3,0,7.8-3.5,7.8-7.8c0-0.1,0-0.2,0-0.3c0-6.5-7.1-13-10.1-17.6c-0.8-1.3-0.9-3.2-0.9-4c0-1.8,1-3.7,2.8-3.7
			c2,0,3.2,1,3.4,3.5v4.4h4.6c0-0.1,0-3.1-0.3-4.4v0h0c-0.7-3.5-3.9-6.2-7.6-6.2c-4.3,0-7.8,3.5-7.8,7.8c0,0.1,0,0.2,0,0.3
			c0,4.2,4.7,9.1,8,13.3c0.7,0.9,1.3,1.7,1.7,2.3c0.8,1.2,1.2,2.6,1.3,4.1c0,0.8,0,1.6,0,2c-0.2,1.8-1,3.7-2.8,3.7
			c-1.6,0-2.6-0.7-3.1-2.4c-0.2-0.6-0.3-1.3-0.3-2V67h-4.5c0,0.1,0.1,3.4,0.3,4.4l0,0h0C186.2,75,189.3,77.6,193.1,77.6z"/>
	</g>
	<g>
		<path d="M31.4,94.9h-4.4c0,1.3,0.6,2,1.8,2c0.6,0,1.1-0.1,1.6-0.4c0.2-0.1,0.4-0.2,0.4-0.2c0.1,0,0.1,0,0.2,0.1l0.4,1
			c0,0.1,0,0.1,0,0.1c0,0.1-0.1,0.2-0.3,0.4c-0.6,0.4-1.5,0.6-2.6,0.6c-0.7,0-1.2-0.1-1.7-0.3c-0.5-0.2-0.8-0.5-1.1-0.8
			c-0.2-0.3-0.4-0.7-0.6-1.1c-0.1-0.4-0.2-0.8-0.3-1s0-0.6,0-0.9c0-1.3,0.3-2.4,0.9-3.2c0.6-0.8,1.5-1.3,2.6-1.3
			c1.6,0,2.7,0.9,3.1,2.6c0.1,0.5,0.2,1.1,0.2,1.7c0,0.2,0,0.4-0.1,0.4S31.6,94.9,31.4,94.9z M27.1,93.4h2.5c0-0.3,0-0.6-0.1-0.8
			c-0.1-0.7-0.5-1-1.1-1C27.6,91.6,27.2,92.2,27.1,93.4z"/>
		<path d="M38.1,93.7v1.2v0.1c0,0,0,0.1,0,0.1c0,0,0,0,0,0.1c0,0,0,0.1,0,0.1c0,0,0,0-0.1,0c0,0-0.1,0-0.1,0c0,0-0.1,0-0.1,0h-4
			c-0.1,0-0.2,0-0.3-0.1c-0.1,0-0.1-0.1-0.1-0.1c0,0,0-0.1,0-0.2v-1.2v-0.1c0,0,0-0.1,0-0.1c0,0,0,0,0-0.1c0,0,0-0.1,0-0.1
			s0,0,0.1,0c0,0,0.1,0,0.1,0c0,0,0.1,0,0.1,0h4c0.1,0,0.2,0,0.3,0.1c0.1,0,0.1,0.1,0.1,0.1C38.1,93.5,38.1,93.6,38.1,93.7z"/>
		<path d="M45.8,91.2l-0.6,1.1c0,0.1-0.1,0.1-0.1,0.1c0,0-0.2-0.1-0.5-0.3c-0.4-0.2-0.7-0.4-1.1-0.4c-0.6,0-1,0.3-1.2,0.8
			c-0.2,0.5-0.3,1.1-0.3,2c0,0.8,0.1,1.4,0.3,1.8c0.3,0.5,0.7,0.7,1.3,0.7c0.4,0,0.7-0.1,1-0.3c0.3-0.2,0.5-0.3,0.5-0.3
			c0.1,0,0.1,0,0.1,0.1l0.4,1.1c0,0.1,0,0.1,0,0.2c0,0.1-0.1,0.3-0.4,0.4c-0.5,0.3-1.1,0.4-1.8,0.4c-1,0-1.9-0.3-2.6-1
			c-0.7-0.6-1-1.7-1-3.1c0-1.5,0.4-2.6,1.1-3.4c0.7-0.7,1.6-1.1,2.7-1.1c0.7,0,1.4,0.2,2,0.6c0.2,0.2,0.4,0.3,0.4,0.4
			C45.8,91.1,45.8,91.2,45.8,91.2z"/>
		<path d="M53.2,91.2c0.7,0.7,1,1.8,1,3.2c0,1.4-0.3,2.5-1,3.2c-0.7,0.7-1.5,1.1-2.5,1.1c-1,0-1.8-0.4-2.5-1.1c-0.7-0.7-1-1.8-1-3.2
			c0-1.4,0.3-2.5,1-3.2c0.7-0.7,1.5-1.1,2.5-1.1C51.7,90.1,52.6,90.5,53.2,91.2z M50.2,96.9c0.2,0.1,0.3,0.1,0.5,0.1
			c0.2,0,0.4,0,0.5-0.1s0.3-0.2,0.4-0.3c0.1-0.1,0.2-0.3,0.2-0.4c0.1-0.2,0.1-0.3,0.1-0.6c0-0.2,0-0.4,0-0.6c0-0.2,0-0.4,0-0.6
			c0-0.2,0-0.5,0-0.6c0-0.2,0-0.4,0-0.6c0-0.2-0.1-0.4-0.1-0.6c-0.1-0.2-0.1-0.3-0.2-0.4c-0.1-0.1-0.2-0.2-0.4-0.3s-0.3-0.1-0.5-0.1
			c-0.2,0-0.4,0-0.5,0.1c-0.2,0.1-0.3,0.2-0.4,0.3c-0.1,0.1-0.2,0.3-0.2,0.4c-0.1,0.2-0.1,0.3-0.1,0.6c0,0.2,0,0.4,0,0.6
			c0,0.2,0,0.4,0,0.6c0,0.2,0,0.5,0,0.6c0,0.2,0,0.4,0,0.6c0,0.2,0.1,0.4,0.1,0.6c0.1,0.2,0.1,0.3,0.2,0.4
			C49.9,96.8,50.1,96.9,50.2,96.9z"/>
		<path d="M66.8,92.7v5.5c0,0.1,0,0.2,0,0.2c0,0-0.1,0-0.2,0H65c-0.1,0-0.2,0-0.2,0c0,0,0-0.1,0-0.2v-5c0-0.5,0-0.8-0.1-1
			c-0.1-0.2-0.3-0.3-0.6-0.3c-0.4,0-0.9,0.2-1.4,0.7v5.7c0,0.1,0,0.2,0,0.2c0,0-0.1,0-0.2,0h-1.6c-0.1,0-0.2,0-0.2,0
			c0,0,0-0.1,0-0.2v-5c0-0.2,0-0.4,0-0.5c0-0.1,0-0.3-0.1-0.4c0-0.2-0.1-0.3-0.2-0.3s-0.3-0.1-0.4-0.1c-0.4,0-0.9,0.2-1.3,0.7v5.7
			c0,0.1,0,0.2,0,0.2c0,0-0.1,0-0.2,0h-1.6c-0.1,0-0.2,0-0.2,0c0,0,0-0.1,0-0.2v-4.9c0-0.8-0.1-1.5-0.2-2c0-0.1,0-0.2-0.1-0.2
			c0-0.1,0-0.1-0.1-0.2c0,0,0-0.1,0-0.1c0-0.1,0.1-0.2,0.2-0.2l1.2-0.4c0.2-0.1,0.3-0.1,0.3,0c0.1,0,0.1,0.1,0.2,0.3
			c0.1,0.2,0.1,0.4,0.2,0.8c0.9-0.7,1.7-1.1,2.5-1.1c0.4,0,0.7,0.1,1,0.3c0.3,0.2,0.5,0.5,0.6,0.8c0.4-0.4,0.9-0.7,1.2-0.8
			c0.4-0.2,0.8-0.3,1.3-0.3c0.4,0,0.7,0.1,0.9,0.2c0.3,0.1,0.4,0.3,0.6,0.5c0.1,0.2,0.2,0.4,0.3,0.7c0.1,0.3,0.1,0.5,0.1,0.6
			C66.8,92.2,66.8,92.4,66.8,92.7z"/>
		<path d="M79.7,92.7v5.5c0,0.1,0,0.2,0,0.2c0,0-0.1,0-0.2,0h-1.6c-0.1,0-0.2,0-0.2,0c0,0,0-0.1,0-0.2v-5c0-0.5,0-0.8-0.1-1
			c-0.1-0.2-0.3-0.3-0.6-0.3c-0.4,0-0.9,0.2-1.4,0.7v5.7c0,0.1,0,0.2,0,0.2c0,0-0.1,0-0.2,0h-1.6c-0.1,0-0.2,0-0.2,0
			c0,0,0-0.1,0-0.2v-5c0-0.2,0-0.4,0-0.5c0-0.1,0-0.3-0.1-0.4c0-0.2-0.1-0.3-0.2-0.3c-0.1-0.1-0.3-0.1-0.4-0.1
			c-0.4,0-0.9,0.2-1.3,0.7v5.7c0,0.1,0,0.2,0,0.2c0,0-0.1,0-0.2,0h-1.6c-0.1,0-0.2,0-0.2,0c0,0,0-0.1,0-0.2v-4.9
			c0-0.8-0.1-1.5-0.2-2c0-0.1,0-0.2-0.1-0.2c0-0.1,0-0.1-0.1-0.2c0,0,0-0.1,0-0.1c0-0.1,0.1-0.2,0.2-0.2l1.2-0.4
			c0.2-0.1,0.3-0.1,0.3,0c0.1,0,0.1,0.1,0.2,0.3c0.1,0.2,0.1,0.4,0.2,0.8c0.9-0.7,1.7-1.1,2.5-1.1c0.4,0,0.7,0.1,1,0.3
			c0.3,0.2,0.5,0.5,0.6,0.8c0.4-0.4,0.9-0.7,1.2-0.8c0.4-0.2,0.8-0.3,1.3-0.3c0.4,0,0.7,0.1,0.9,0.2s0.4,0.3,0.6,0.5
			c0.1,0.2,0.2,0.4,0.3,0.7c0.1,0.3,0.1,0.5,0.1,0.6C79.7,92.2,79.7,92.4,79.7,92.7z"/>
		<path d="M88.2,94.9h-4.4c0,1.3,0.6,2,1.8,2c0.6,0,1.1-0.1,1.6-0.4c0.2-0.1,0.4-0.2,0.4-0.2c0.1,0,0.1,0,0.2,0.1l0.4,1
			c0,0.1,0,0.1,0,0.1c0,0.1-0.1,0.2-0.3,0.4c-0.6,0.4-1.5,0.6-2.6,0.6c-0.7,0-1.2-0.1-1.7-0.3c-0.5-0.2-0.8-0.5-1.1-0.8
			c-0.2-0.3-0.4-0.7-0.6-1.1c-0.1-0.4-0.2-0.8-0.3-1s0-0.6,0-0.9c0-1.3,0.3-2.4,0.9-3.2c0.6-0.8,1.5-1.3,2.6-1.3
			c1.6,0,2.7,0.9,3.1,2.6c0.1,0.5,0.2,1.1,0.2,1.7c0,0.2,0,0.4-0.1,0.4S88.3,94.9,88.2,94.9z M83.8,93.4h2.5c0-0.3,0-0.6-0.1-0.8
			c-0.1-0.7-0.5-1-1.1-1C84.4,91.6,84,92.2,83.8,93.4z"/>
		<path d="M90.7,98.2v-4.9c0-0.8-0.1-1.5-0.3-2.1c-0.1-0.1-0.1-0.2-0.1-0.3c0-0.1,0-0.1,0.1-0.1l1.2-0.5c0.1,0,0.2-0.1,0.2-0.1
			c0.1,0,0.2,0.1,0.2,0.2c0.2,0.4,0.3,0.7,0.4,1.1c0.6-0.9,1.3-1.3,2.1-1.3c0.3,0,0.5,0,0.7,0.1c0.2,0.1,0.2,0.2,0.2,0.4L94.9,92
			c0,0.1-0.1,0.1-0.1,0.1c0,0,0,0,0,0c0,0-0.1,0-0.1,0c0,0-0.1,0-0.1-0.1C94.2,92,94.1,92,94.1,92c-0.5,0-0.9,0.3-1.3,0.8v5.4
			c0,0.1,0,0.2,0,0.2c0,0-0.1,0-0.2,0h-1.6c-0.1,0-0.2,0-0.2,0C90.7,98.3,90.7,98.3,90.7,98.2z"/>
		<path d="M102.5,91.2l-0.6,1.1c0,0.1-0.1,0.1-0.1,0.1c0,0-0.2-0.1-0.5-0.3c-0.4-0.2-0.7-0.4-1.1-0.4c-0.6,0-1,0.3-1.2,0.8
			c-0.2,0.5-0.3,1.1-0.3,2c0,0.8,0.1,1.4,0.3,1.8c0.3,0.5,0.7,0.7,1.3,0.7c0.4,0,0.7-0.1,1-0.3c0.3-0.2,0.5-0.3,0.5-0.3
			c0.1,0,0.1,0,0.1,0.1l0.4,1.1c0,0.1,0,0.1,0,0.2c0,0.1-0.1,0.3-0.4,0.4c-0.5,0.3-1.1,0.4-1.8,0.4c-1,0-1.9-0.3-2.6-1
			c-0.7-0.6-1-1.7-1-3.1c0-1.5,0.4-2.6,1.1-3.4c0.7-0.7,1.6-1.1,2.7-1.1c0.7,0,1.4,0.2,2,0.6c0.2,0.2,0.4,0.3,0.4,0.4
			C102.6,91.1,102.5,91.2,102.5,91.2z"/>
		<path d="M110.4,94.9H106c0,1.3,0.6,2,1.8,2c0.6,0,1.1-0.1,1.6-0.4c0.2-0.1,0.4-0.2,0.4-0.2c0.1,0,0.1,0,0.2,0.1l0.4,1
			c0,0.1,0,0.1,0,0.1c0,0.1-0.1,0.2-0.3,0.4c-0.6,0.4-1.5,0.6-2.6,0.6c-0.7,0-1.2-0.1-1.7-0.3c-0.5-0.2-0.8-0.5-1.1-0.8
			c-0.2-0.3-0.4-0.7-0.6-1.1c-0.1-0.4-0.2-0.8-0.3-1c0-0.3,0-0.6,0-0.9c0-1.3,0.3-2.4,0.9-3.2c0.6-0.8,1.5-1.3,2.6-1.3
			c1.6,0,2.7,0.9,3.1,2.6c0.1,0.5,0.2,1.1,0.2,1.7c0,0.2,0,0.4-0.1,0.4S110.5,94.9,110.4,94.9z M106,93.4h2.5c0-0.3,0-0.6-0.1-0.8
			c-0.1-0.7-0.5-1-1.1-1C106.6,91.6,106.1,92.2,106,93.4z"/>
		<path d="M137.1,91l-0.4,1c0,0.1-0.1,0.1-0.1,0.1c0,0-0.1,0-0.1,0c0,0-0.1,0-0.2-0.1c-0.1,0-0.2-0.1-0.4-0.1
			c-0.4-0.1-0.8-0.2-1.2-0.2c-0.7,0-1.1,0.3-1.1,0.8c0,0.1,0,0.1,0,0.2c0,0.1,0,0.1,0,0.1c0,0,0,0.1,0.1,0.1c0,0,0.1,0.1,0.1,0.1
			c0,0,0.1,0.1,0.1,0.1c0.1,0,0.1,0.1,0.1,0.1c0,0,0.1,0,0.2,0.1c0.1,0,0.1,0,0.2,0.1c0,0,0.1,0,0.2,0.1c0.1,0,0.2,0.1,0.2,0.1
			c0.8,0.3,1.4,0.6,1.7,0.9c0.5,0.5,0.8,1,0.8,1.7c0,0.7-0.2,1.3-0.7,1.8c-0.5,0.5-1.2,0.8-2.1,0.8c-0.8,0-1.6-0.2-2.4-0.5
			c-0.4-0.2-0.6-0.3-0.6-0.5c0-0.1,0-0.1,0-0.2l0.4-1c0-0.1,0.1-0.1,0.1-0.1c0,0,0.1,0,0.1,0c0,0,0.1,0.1,0.3,0.1
			c0.1,0.1,0.3,0.1,0.5,0.2c0.6,0.2,1.1,0.3,1.5,0.3c0.3,0,0.6-0.1,0.7-0.2c0.2-0.2,0.2-0.3,0.2-0.6c0-0.2,0-0.3-0.1-0.4
			c-0.1-0.1-0.2-0.2-0.4-0.3c-0.2-0.1-0.3-0.2-0.4-0.2c-0.1,0-0.3-0.1-0.5-0.2c-0.8-0.3-1.4-0.6-1.7-0.9c-0.4-0.4-0.5-0.9-0.5-1.4
			c0-0.7,0.2-1.4,0.7-1.9c0.5-0.5,1.2-0.8,2.2-0.8c0.7,0,1.4,0.1,2,0.4C137,90.7,137.1,90.8,137.1,91z"/>
		<path d="M146.1,91.2c0.7,0.7,1,1.8,1,3.2c0,1.4-0.3,2.5-1,3.2c-0.7,0.7-1.5,1.1-2.5,1.1c-1,0-1.8-0.4-2.5-1.1
			c-0.7-0.7-1-1.8-1-3.2c0-1.4,0.3-2.5,1-3.2c0.7-0.7,1.5-1.1,2.5-1.1C144.6,90.1,145.4,90.5,146.1,91.2z M143.1,96.9
			c0.2,0.1,0.3,0.1,0.5,0.1s0.4,0,0.5-0.1s0.3-0.2,0.4-0.3c0.1-0.1,0.2-0.3,0.2-0.4c0.1-0.2,0.1-0.3,0.1-0.6c0-0.2,0-0.4,0-0.6
			c0-0.2,0-0.4,0-0.6c0-0.2,0-0.5,0-0.6c0-0.2,0-0.4,0-0.6c0-0.2-0.1-0.4-0.1-0.6c-0.1-0.2-0.1-0.3-0.2-0.4
			c-0.1-0.1-0.2-0.2-0.4-0.3s-0.3-0.1-0.5-0.1s-0.4,0-0.5,0.1c-0.2,0.1-0.3,0.2-0.4,0.3c-0.1,0.1-0.2,0.3-0.2,0.4
			c-0.1,0.2-0.1,0.3-0.1,0.6c0,0.2,0,0.4,0,0.6c0,0.2,0,0.4,0,0.6c0,0.2,0,0.5,0,0.6c0,0.2,0,0.4,0,0.6c0,0.2,0.1,0.4,0.1,0.6
			c0.1,0.2,0.1,0.3,0.2,0.4C142.8,96.8,142.9,96.9,143.1,96.9z"/>
		<path d="M151.2,91.9h-1.3c-0.1,0-0.1,0-0.2,0c0,0,0-0.1,0-0.2v-1.1c0-0.1,0-0.1,0-0.2c0,0,0.1,0,0.2,0h1.3v-0.7
			c0-2,0.9-3.1,2.6-3.1c0.5,0,1,0.1,1.5,0.3c0.3,0.1,0.4,0.3,0.4,0.5l-0.3,1.1c0,0.1-0.1,0.2-0.2,0.2c0,0-0.1,0-0.2-0.1
			c-0.3-0.1-0.6-0.2-1-0.2c-0.2,0-0.4,0-0.5,0.1c-0.1,0.1-0.2,0.2-0.3,0.3c0,0.1-0.1,0.3-0.1,0.4c0,0.1,0,0.2,0,0.4v0.8h1.8
			c0.2,0,0.2,0,0.3,0.1c0,0.1,0,0.1,0,0.2l-0.2,1c0,0.2-0.1,0.2-0.2,0.2h-1.6v6.3c0,0.1,0,0.2,0,0.2c0,0-0.1,0-0.2,0h-1.6
			c-0.1,0-0.2,0-0.2,0c0,0,0-0.1,0-0.2V91.9z"/>
		<path d="M159,95.5v-3.6h-1.1c-0.1,0-0.1,0-0.2,0c0,0,0-0.1,0-0.2v-1.1c0-0.1,0-0.1,0-0.2c0,0,0.1-0.1,0.2,0h1.1v-2
			c0-0.2,0.1-0.3,0.3-0.3l1.4-0.2c0.1,0,0.1,0,0.1,0s0.1,0,0.1,0s0,0,0.1,0c0,0,0,0,0,0c0,0,0,0,0,0c0,0,0,0,0,0c0,0,0,0,0,0.1
			c0,0,0,0.1,0,0.1v2.3h1.8c0.2,0,0.2,0,0.3,0.1c0,0.1,0,0.1,0,0.2l-0.2,1c0,0.2-0.1,0.2-0.2,0.2h-1.7v3.9c0,0,0,0.1,0,0.1
			c0,0.2,0,0.4,0,0.5c0,0.1,0.1,0.2,0.2,0.3c0.1,0.1,0.2,0.1,0.5,0.1c0.2,0,0.5-0.1,0.9-0.2c0.2-0.1,0.3-0.1,0.3-0.1
			c0.1,0,0.1,0,0.1,0.1l0.3,1.3c0,0.1,0,0.2,0,0.3c-0.1,0.1-0.2,0.1-0.4,0.2c-0.5,0.2-1.1,0.3-1.7,0.3c-0.4,0-0.8-0.1-1-0.2
			c-0.3-0.1-0.5-0.3-0.6-0.4c-0.1-0.2-0.3-0.4-0.3-0.7c-0.1-0.3-0.1-0.6-0.1-0.8C159,96.3,159,95.9,159,95.5z"/>
		<path d="M175.7,90.9l-2.3,7.4c0,0.1-0.1,0.2-0.1,0.2c0,0-0.1,0-0.2,0h-1.4c-0.1,0-0.2-0.1-0.3-0.3l-0.8-4.1
			c-0.1-0.3-0.1-0.9-0.2-1.8h0c0,0.1,0,0.1,0,0.2c0,0.1,0,0.2,0,0.2l0,0.4c0,0.2-0.1,0.3-0.1,0.5c0,0.2-0.1,0.3-0.1,0.4l0,0.1
			l-1,4.1c0,0.2-0.1,0.3-0.3,0.3h-1.3c-0.1,0-0.2-0.1-0.3-0.2l-1.9-7.4l0-0.1c0-0.1,0-0.1,0-0.2c0-0.1,0.1-0.2,0.4-0.2l1.2-0.1
			c0.1,0,0.2,0,0.3,0c0.1,0,0.1,0,0.1,0.1c0,0,0.1,0.1,0.1,0.2l0.7,3.5c0.1,0.7,0.3,1.6,0.4,2.7h0c0.1-1.2,0.2-2.1,0.3-2.5l0.7-3.6
			c0-0.2,0.1-0.2,0.1-0.2c0,0,0,0,0.1,0h1.6c0.1,0,0.1,0,0.1,0c0,0,0,0,0.1,0.1c0,0,0,0.1,0.1,0.2l0.7,3.6c0.2,0.8,0.3,1.7,0.3,2.5
			h0c0.1-1.2,0.2-2.1,0.4-2.7l0.8-3.5c0-0.2,0.1-0.3,0.1-0.3c0,0,0.2,0,0.3,0l1.1,0.1c0.2,0,0.4,0.1,0.4,0.2
			C175.7,90.6,175.7,90.7,175.7,90.9z"/>
		<path d="M184.2,98.1l-1.3,0.5c-0.1,0.1-0.3,0-0.3-0.2c-0.1-0.3-0.2-0.5-0.3-0.8c-0.3,0.3-0.7,0.6-1,0.7s-0.7,0.2-1.1,0.2
			c-0.7,0-1.3-0.2-1.7-0.7c-0.4-0.4-0.7-1-0.7-1.8c0-0.9,0.3-1.6,1-2.1c0.4-0.3,0.8-0.4,1.5-0.5c0.6-0.1,1.2-0.1,1.8-0.1v-0.5
			c0-0.4-0.1-0.7-0.2-0.9c-0.2-0.2-0.5-0.3-0.9-0.3c-0.4,0-0.8,0.1-1.3,0.2c-0.1,0-0.2,0.1-0.3,0.1c-0.1,0-0.2,0.1-0.2,0.1
			c0,0-0.1,0-0.1,0c0,0-0.1,0-0.1,0c-0.1,0-0.1-0.1-0.2-0.2l-0.3-1c-0.1-0.1-0.1-0.2,0-0.3c0-0.1,0.2-0.1,0.4-0.2
			c0.6-0.3,1.5-0.4,2.5-0.4c1.2,0,2,0.3,2.4,1c0.2,0.4,0.4,0.9,0.4,1.6v3.1c0,0.7,0.1,1.2,0.2,1.6c0.1,0.3,0.2,0.5,0.2,0.5
			C184.3,98,184.3,98.1,184.2,98.1z M182,96.5v-1.8c-1.5,0-2.3,0.4-2.3,1.3c0,0.3,0.1,0.6,0.3,0.8c0.2,0.2,0.5,0.3,0.8,0.3
			C181.2,97.1,181.6,96.9,182,96.5z"/>
		<path d="M187.4,98.2v-4.9c0-0.8-0.1-1.5-0.3-2.1c-0.1-0.1-0.1-0.2-0.1-0.3c0-0.1,0-0.1,0.1-0.1l1.2-0.5c0.1,0,0.2-0.1,0.2-0.1
			c0.1,0,0.2,0.1,0.2,0.2c0.2,0.4,0.3,0.7,0.4,1.1c0.6-0.9,1.3-1.3,2.1-1.3c0.3,0,0.5,0,0.7,0.1c0.2,0.1,0.2,0.2,0.2,0.4l-0.5,1.4
			c0,0.1-0.1,0.1-0.1,0.1c0,0,0,0,0,0c0,0-0.1,0-0.1,0c0,0-0.1,0-0.1-0.1c-0.2-0.1-0.3-0.1-0.4-0.1c-0.5,0-0.9,0.3-1.3,0.8v5.4
			c0,0.1,0,0.2,0,0.2c0,0-0.1,0-0.2,0h-1.6c-0.1,0-0.2,0-0.2,0C187.4,98.3,187.4,98.3,187.4,98.2z"/>
		<path d="M200.3,94.9H196c0,1.3,0.6,2,1.8,2c0.6,0,1.1-0.1,1.6-0.4c0.2-0.1,0.4-0.2,0.4-0.2c0.1,0,0.1,0,0.2,0.1l0.4,1
			c0,0.1,0,0.1,0,0.1c0,0.1-0.1,0.2-0.3,0.4c-0.6,0.4-1.5,0.6-2.6,0.6c-0.7,0-1.2-0.1-1.7-0.3c-0.5-0.2-0.8-0.5-1.1-0.8
			c-0.2-0.3-0.4-0.7-0.6-1.1c-0.1-0.4-0.2-0.8-0.3-1c0-0.3,0-0.6,0-0.9c0-1.3,0.3-2.4,0.9-3.2c0.6-0.8,1.5-1.3,2.6-1.3
			c1.6,0,2.7,0.9,3.1,2.6c0.1,0.5,0.2,1.1,0.2,1.7c0,0.2,0,0.4-0.1,0.4C200.6,94.9,200.5,94.9,200.3,94.9z M196,93.4h2.5
			c0-0.3,0-0.6-0.1-0.8c-0.1-0.7-0.5-1-1.1-1C196.5,91.6,196.1,92.2,196,93.4z"/>
	</g>
</g>
</svg>
