<svg version="1.1" id="Layer_1" xmlns="http://www.w3.org/2000/svg" xmlns:xlink="http://www.w3.org/1999/xlink" x="0px" y="0px"
	 viewBox="0 0 225 126.5" style="enable-background:new 0 0 225 126.5;" xml:space="preserve">
<g>
	<path d="M32.3,93.2v-4.3h28.5v4.3H32.3z M65.2,93.2v-4.3h42.4c-1.8,2-6.2,4.3-11.8,4.3H65.2z M114.6,93.3v-4.3h20.2l0.1,4.3
		L114.6,93.3z M160.1,93.3l0-4.4l20.2,0l-0.1,4.3L160.1,93.3z M147.3,93.2l-1.4-4.3h3.4l-1.2,4.3H147.3z M32.3,85.2v-4.3h28.5v4.3
		H32.3z M65.2,85.2l-0.1-4.5l46.4,0c-0.1,1-0.8,3.6-1.5,4.4L65.2,85.2z M114.6,85.2l0-4.4l20.3,0l0,4.4L114.6,85.2z M144.7,85.2
		l-1.7-4.3l9,0l-1.4,4.3L144.7,85.2z M160.2,85.2v-4.3h20.1v4.3H160.2z M40.5,77.2l0-4.3h12.2v4.3L40.5,77.2z M73.4,72.9l12.2,0v4.3
		l-12.2,0L73.4,72.9z M111.9,77.2h-14v-4.3h12.7C111.5,73.9,111.9,77.2,111.9,77.2z M122.8,77.2v-4.3h12.1v4.3H122.8z M142,77.1
		l-1.6-4.3h14.5l-1.5,4.3H142z M160.2,77.2l0-4.2H172v4.2L160.2,77.2z M40.5,69.1l0-4.3h12.2v4.3L40.5,69.1z M109,69.1
		c-0.9-1.4-1.8-3-4.9-4.3H73.4v4.3H109z M122.8,69.2l0-4.4h12v4.4H122.8z M156.2,69.2l-16.9,0l-1.8-4.4h20.1L156.2,69.2z
		 M160.2,64.8l11.8,0v4.4h-11.8L160.2,64.8z M52.7,61.2l-12.2,0v-4.3h12.2V61.2z M73.4,56.9H109c0,0-1,1.4-1.2,1.5
		c-0.9,1.1-2.6,2.3-3.8,2.8H73.4V56.9z M122.8,61.2v-4.3h23.4l1.4,3.8l1.3-3.8H172v4.3l-11.8,0v-3.5l-1.3,3.5h-22.6l-1.5-3.5v3.5
		L122.8,61.2z M52.7,49.1v4.2H40.5v-4.2H52.7z M85.7,53.3v-4.2H73.4v4.2H85.7z M97.9,53.3v-4.2l13.6,0c0,1.3-0.6,3.1-1.1,4.2H97.9z
		 M122.8,53.3v-4.2h20.5l1.6,4.2L122.8,53.3z M150.3,53.3l1.5-4.3H172v4.3H150.3z M32.2,45.5l0-4.4h28.5l0,4.4H32.2z M65.2,45.5
		l0-4.4c14.5,0,29.1,0,43.6,0c0.7,0.9,1.7,3,1.9,4.4H65.2z M114.6,45.5l0-4.4h26l1.5,4.4H114.6z M154.4,41h25.8l0,4.4h-27.4
		L154.4,41z M32.3,37.5l0-4.2h28.4l0,4.2H32.3z M65.2,37.5l0-4.2c9.9,0,19.8,0,29.7,0c3.9,0.3,8,1.6,10.7,4.1c0,0-0.4-0.2,0,0
		L65.2,37.5z M114.5,37.5v-4.2h23.4l1.4,4.2H114.5z M155.7,37.4l1.5-4.2h23v4.2H155.7"/>
	<path d="M184.3,88.7c0-2.3,1.9-4.2,4.2-4.2c2.3,0,4.2,1.9,4.2,4.2c0,2.3-1.9,4.2-4.2,4.2C186.2,92.9,184.3,91.1,184.3,88.7
		 M192.1,88.7c0-2.1-1.5-3.7-3.5-3.7c-2.1,0-3.6,1.6-3.6,3.7c0,2.1,1.5,3.7,3.6,3.7C190.6,92.4,192.1,90.8,192.1,88.7z M190.7,91.1
		H190l-1.3-2.2h-1.1v2.2H187v-4.7h2.1c1.2,0,1.7,0.5,1.7,1.2c0,0.9-0.6,1.3-1.5,1.3L190.7,91.1z M188.4,88.4c0.7,0,1.7,0.1,1.7-0.8
		c0-0.7-0.6-0.8-1.2-0.8h-1.4v1.7H188.4"/>
</g>
</svg>
