<svg version="1.1" id="Layer_1" xmlns="http://www.w3.org/2000/svg" xmlns:xlink="http://www.w3.org/1999/xlink" x="0px" y="0px"
	 viewBox="0 0 225 126.5" style="enable-background:new 0 0 225 126.5;" xml:space="preserve">
<g>
	<g>
		<g>
			<path d="M70.2,58.4h13.2c0.3-0.2,0.6-0.5,0.9-0.7H70.7C70.6,58,70.4,58.2,70.2,58.4z M68.8,60.5h12.1c0.3-0.2,0.6-0.5,1-0.7H69.3
				C69.1,60,68.9,60.2,68.8,60.5z M71.6,56.4h14.3c0.3-0.2,0.5-0.5,0.8-0.7H72.1C71.9,55.9,71.8,56.2,71.6,56.4z M74.1,52.4H90
				c0.2-0.2,0.4-0.5,0.6-0.7H74.4C74.3,51.9,74.2,52.1,74.1,52.4z M67.1,62.5h10.8c0.3-0.2,0.7-0.5,1-0.7H67.7
				C67.5,62,67.3,62.2,67.1,62.5z M63.4,66.5h8c0.4-0.2,0.8-0.5,1.2-0.7h-8.5C63.9,66.1,63.7,66.3,63.4,66.5z M65.4,64.5h9.4
				c0.4-0.2,0.7-0.5,1.1-0.7H66C65.8,64,65.6,64.3,65.4,64.5z M60.6,70.6h2.6c0.5-0.2,1.1-0.4,1.7-0.7h-4.3
				C60.5,70.1,60.5,70.4,60.6,70.6z M72.9,54.4h15.2c0.2-0.2,0.5-0.5,0.7-0.7H73.3C73.2,53.9,73,54.1,72.9,54.4z M75.1,50.3h16.6
				c0.2-0.2,0.4-0.5,0.5-0.7H75.5C75.4,49.9,75.2,50.1,75.1,50.3z M61.6,68.2c-0.1,0-0.2,0.2-0.3,0.3h6.3c0.4-0.2,0.9-0.5,1.4-0.7
				h-6.9C61.8,68.1,61.7,68.2,61.6,68.2z M88,33.4h-7.6c0,0.2-0.1,0.5-0.1,0.7h8.4C88.5,33.9,88.3,33.7,88,33.4z M92.3,37.5H79.7
				c-0.1,0.2-0.1,0.5-0.2,0.7h13.5C92.9,38,92.6,37.8,92.3,37.5z M90.2,35.4H80.1c0,0.2-0.1,0.5-0.1,0.7h11
				C90.7,35.9,90.5,35.7,90.2,35.4z M85.8,31.4h-5.1c0,0,0,0,0,0c0,0.2-0.1,0.5-0.1,0.7h6C86.3,31.9,86,31.6,85.8,31.4z M83.8,29.8
				c-1-0.4-1.8-0.2-2.4,0.3h2.8C84,29.9,83.8,29.8,83.8,29.8z M77,46.3h17.3c0.1-0.2,0.2-0.5,0.3-0.7H77.2
				C77.2,45.8,77.1,46,77,46.3z M76.1,48.3h17c0.2-0.2,0.3-0.5,0.4-0.7H76.4C76.3,47.8,76.2,48.1,76.1,48.3z M77.7,44.3H95
				c0.1-0.2,0.1-0.5,0.1-0.7H78C77.9,43.8,77.8,44,77.7,44.3z M95.1,41.5H78.7c-0.1,0.2-0.1,0.5-0.2,0.7h16.8
				C95.2,42,95.2,41.8,95.1,41.5z M94.3,39.5H79.2c-0.1,0.2-0.1,0.5-0.2,0.7h15.7C94.6,40,94.5,39.7,94.3,39.5z"/>
			<path d="M34.3,76.7h6.5c0.5-0.2,1-0.5,1.5-0.7H34C34.1,76.2,34.2,76.4,34.3,76.7z M52.6,67.8H31.9c0,0.2,0.1,0.5,0.1,0.7h21.3
				C53,68.3,52.8,68.1,52.6,67.8z M37.5,78.3c0.2-0.1,0.4-0.2,0.6-0.3h-2.9C36,78.5,37.1,78.5,37.5,78.3z M54.2,69.9H32.2
				c0,0.2,0.1,0.5,0.2,0.7h22C54.4,70.4,54.4,70.1,54.2,69.9z M32.9,72.6h18.6c0.1,0,0.1,0,0.2-0.1c0.4-0.1,1-0.3,1.5-0.6H32.7
				C32.7,72.1,32.8,72.4,32.9,72.6z M37.8,60.2c0,0-1.5-0.1-2,0c-0.3,0.1-0.6,0.2-0.9,0.3h4.4C38.7,60.4,38.2,60.3,37.8,60.2z
				 M43.1,61.8H33c-0.2,0.2-0.3,0.5-0.5,0.7h12C44.1,62.2,43.6,62,43.1,61.8z M50.1,65.8H31.8c0,0.2,0,0.5,0,0.7H51
				C50.7,66.3,50.4,66.1,50.1,65.8z M33.3,74.1c0.1,0.2,0.1,0.4,0.2,0.6h11.9c0.6-0.2,1.2-0.5,1.9-0.7h-14
				C33.3,74,33.3,74,33.3,74.1z M47,63.8H32c-0.1,0.2-0.1,0.5-0.1,0.7h16.3C47.8,64.3,47.4,64,47,63.8z"/>
		</g>
		<path d="M68.5,28.4c-3.3,0.6-4.3,2.4-4.3,4.9c1.2,10.4-3.1,25.1-5.2,33.5c-0.6,2.5,0,2.3,0.9,1.4c7.8-8.7,16.2-23.1,13.1-37.7
			C72.7,28.9,71,27.8,68.5,28.4L68.5,28.4z"/>
		<path d="M44.2,35.1c6.7-3.7,10.5,5.3,11.6,9.8c1.2,4.7,2.5,17.1,1.6,22.8c-0.1,0.9-1.6,1.7-2.9,0.4c-7.3-7.3-16.5-12.8-26.3-15.3
			c0,0-2.7-1.6,0-4.3C33.5,43.4,38.7,39.4,44.2,35.1L44.2,35.1z"/>
		<path d="M93,57.7c1.1-0.9,2.5-2.2,3.7-1.8c0.9,0.3,2,2,1.6,3.9C97.1,66,92.6,67,90,68.1c-10.2,4.3-29.5,6.7-28.7,4.9
			C61.7,72,78.3,68.6,93,57.7C93,57.7,91.9,58.7,93,57.7z"/>
		<path d="M53.4,73c1.5-0.6,2.8-0.4,2.4,0.6c-2.6,6.7-7.1,11.6-8.6,18.9c-0.3,1.6-1.1,2.3-1.8,2.4c-4.9,0.7-7-5.5-7.9-9.8
			c-0.5-2.5,1.9-5.4,3.7-6.7C43,77.2,49.1,74.8,53.4,73L53.4,73z"/>
		<path d="M85.2,93.1c0,1.2-3.2,2.7-4.4,3.1c-3.8,1.4-5.7,3.5-9.7,1.1C64.3,92.8,61,85,58.4,77.2c-0.2-0.5-0.8-2.3,0.3-2.9
			c0.6-0.4,1.4,0.4,1.9,1.1c5.4,6.2,16.3,11.3,18.3,12.4C81.3,89,85.3,90.4,85.2,93.1z"/>
		<g>
			<path d="M195.9,78.1h-0.4v1.5c0,0,0,0.1-0.1,0.1h-0.2c0,0-0.1,0-0.1-0.1v-1.5h-0.4c0,0-0.1,0-0.1-0.1v-0.2c0-0.1,0-0.1,0.1-0.1
				h1.2c0,0,0.1,0,0.1,0.1L195.9,78.1C196,78.1,195.9,78.1,195.9,78.1z M198.1,79.7h-0.2c0,0-0.1,0-0.1-0.1l-0.1-1.2
				c0-0.1,0-0.2,0-0.2c0,0.1,0,0.2,0,0.2l-0.3,1c0,0.1-0.1,0.1-0.1,0.1H197c0,0-0.1,0-0.1-0.1l-0.3-1c0-0.1,0-0.2-0.1-0.3
				c0,0.1,0,0.2,0,0.3l-0.1,1.2c0,0,0,0.1-0.1,0.1h-0.2c0,0-0.1,0-0.1-0.1l0.2-1.8c0-0.1,0-0.1,0.1-0.1h0.3c0,0,0.1,0,0.1,0.1l0.3,1
				c0,0.1,0,0.2,0,0.2c0-0.1,0-0.2,0-0.2l0.3-1c0,0,0.1-0.1,0.1-0.1h0.3c0,0,0.1,0,0.1,0.1L198.1,79.7
				C198.1,79.6,198.1,79.7,198.1,79.7z"/>
		</g>
	</g>
	<g>
		<g>
			<g>
				<path d="M114.4,98.1h-2.5c-0.5,0-0.9-0.4-0.9-0.9v-12c0-1.2-0.5-2-1.8-2c-1.9,0-3.3,1.7-3.3,4v10c0,0.5-0.4,0.9-0.9,0.9h-2.5
					c-0.5,0-1-0.4-1-0.9V80.6c0-0.5,0.5-0.9,1-0.9h1.8c0.6,0,0.9,0.3,1,0.8l0.3,1.4c1.5-1.7,3.1-2.5,5.1-2.5c2.8,0,4.7,1.9,4.7,4.7
					v12.9C115.3,97.7,114.9,98.1,114.4,98.1z"/>
				<path d="M142.4,77.4c-1.4,0-2.3-1.1-2.3-2.4c0-1.4,1-2.5,2.3-2.5c1.4,0,2.4,1.1,2.4,2.5C144.8,76.3,143.8,77.4,142.4,77.4z
					 M143.7,98.1h-2.5c-0.5,0-0.9-0.4-0.9-0.9V80.6c0-0.5,0.4-0.9,0.9-0.9h2.5c0.5,0,0.9,0.5,0.9,1v16.5
					C144.7,97.7,144.3,98.1,143.7,98.1z"/>
				<path d="M94.4,77.4c-1.4,0-2.3-1.1-2.3-2.4c0-1.4,1-2.5,2.3-2.5c1.4,0,2.4,1.1,2.4,2.5C96.7,76.3,95.7,77.4,94.4,77.4z
					 M95.7,98.1h-2.5c-0.5,0-0.9-0.4-0.9-0.9V80.6c0-0.5,0.4-0.9,0.9-0.9h2.5c0.5,0,0.9,0.5,0.9,1v16.5
					C96.6,97.7,96.2,98.1,95.7,98.1z"/>
				<path d="M158.3,97.2c-0.2,0.6-0.5,0.9-1.1,0.9h-3.4c-0.6,0-0.9-0.3-1.1-0.9l-4.8-16.4c-0.2-0.8,0.2-1.2,0.7-1.2h3
					c0.5,0,0.9,0.4,1.1,0.9l2.5,11.3c0.3,1.1,0.4,2.6,0.5,3.9c0.1-1.2,0.2-2.7,0.5-3.9l2.5-11.3c0.1-0.5,0.5-0.9,1.1-0.9h2.8
					c0.5,0,0.9,0.5,0.7,1.2L158.3,97.2z"/>
				<path d="M178.1,90h-8.9c0.2,2.8,0.9,4.5,4.1,4.5c1.5,0,2.5-0.3,3.6-0.7c0.6-0.2,0.9,0.2,1.1,0.6l0.6,1.8
					c0.2,0.5-0.1,0.9-0.6,1.1c-1.5,0.7-3,1-5.4,1c-5,0-8-3.1-8-9.5c0-5.6,2.8-9.3,7.3-9.3c4.6,0,7.1,3.1,7.1,9.6
					C179.1,89.6,178.7,90,178.1,90z M172.1,82.9c-1.6,0-2.6,1.6-2.8,4.2h5.4C174.6,84.9,174,82.9,172.1,82.9z"/>
				<path d="M193.1,83.5c-0.2,0.6-0.7,0.8-1.1,0.8c-0.9-0.1-1.7-0.8-2.5-0.8c-1.4,0-2.3,1.5-2.3,5.2v8.4c0,0.5-0.4,0.9-0.9,0.9h-2.5
					c-0.5,0-1-0.4-1-0.9V80.6c0-0.5,0.5-0.9,1-0.9h1.7c0.5,0,1,0.4,1.1,0.9L187,82c1-1.5,2.3-2.5,4.2-2.5c0.8,0,1.3,0.1,1.7,0.3
					c0.8,0.3,1,0.8,0.8,1.4L193.1,83.5z"/>
			</g>
			<path d="M136,98.1h-2.8c-0.5,0-0.9-0.2-1.1-0.8c-0.9-2.6-1.5-5.3-2.6-7.3c-0.9-1.7-2-3.2-4.3-3.2h-1.6v10.4
				c0,0.5-0.4,0.9-0.9,0.9h-2.2c-0.5,0-0.9-0.4-0.9-0.9V73.5c0-0.5,0.4-0.9,0.9-0.9h6.7c6.4,0,7.7,3.9,7.7,6.5c0,3-1.7,5.7-5.3,6.2
				c-0.1,0-0.3,0-0.3,0c1.8,0.4,3.3,2,4.1,3.6c0.6,1.3,2.1,5,3.2,8C136.9,97.6,136.8,98.1,136,98.1z M127.2,76.1h-3.5v7.5h3
				c2.6,0,4.2-1.6,4.2-4C130.9,77.7,129.7,76.1,127.2,76.1z"/>
		</g>
	</g>
</g>
</svg>
