<?xml version="1.0" encoding="utf-8"?>
<!-- Generator: Adobe Illustrator 21.0.2, SVG Export Plug-In . SVG Version: 6.00 Build 0)  -->
<svg version="1.1" id="Layer_1" xmlns="http://www.w3.org/2000/svg" xmlns:xlink="http://www.w3.org/1999/xlink" x="0px" y="0px"
	 viewBox="0 0 198.4 38.4" style="enable-background:new 0 0 198.4 38.4;" xml:space="preserve">
<style type="text/css">
	.st0{fill:#CF1C37;}
</style>
<g>
	<path class="st0" d="M19,37.7c-9.4,0-17.4-6.7-18.8-16.1C-1.3,10.3,6.5,1.7,15.9,0.3c4.9-0.8,9.2,0.2,13.3,2.8
		c2.1,1.3,2.7,3.6,1.4,5.3c-1.1,1.7-3.3,2-5.3,0.8c-4.4-2.7-8.8-2.8-13.1,0.2c-4,2.8-5.6,6.8-4.8,11.6c0.9,5,4.1,8.2,9.1,9.2
		c4.7,1,8.7-0.7,11.7-4.4c1.8-2.2,4.7-2.2,6.1,0c0.9,1.3,0.7,3.2-0.7,4.9C30.1,35.2,24.8,37.7,19,37.7z"/>
	<path class="st0" d="M193.3,36.3c-1.9,1.6-4,2.2-6.4,2c-3.2-0.4-5.3-2.2-6.2-5.3c-0.9-2.9-1-5.8-0.1-8.8c1.8-6,7.8-7.7,13-3.4
		c0-1.9,0-3.6,0-5.2s0-3.3,0-5c1.7,0,3.2,0,4.9,0c0,9.1,0,18.1,0,27.1C194.9,38.4,193.8,38.2,193.3,36.3z M185,28.3
		c0,1.4,0.6,2.8,1.1,4c1.3,2.7,4.7,2.8,6.2,0.3c1.4-2.2,1.4-6.2-0.1-8.4c-1.7-2.3-5-2.2-6.2,0.3C185.5,25.6,185,26.9,185,28.3z"/>
	<path class="st0" d="M146.1,17.3c-5.9-2-9.6-1.3-12.1,2c-2.2,2.9-2.4,8.1-0.4,11.2c3.3,4.8,7.9,4,12.8,2.8c0,1.4,0,2.9,0,4.3
		c-4.3,1.2-8.6,1.2-12.8-0.6c-4.9-2.1-7.4-7.1-6.9-13.1c0.7-6,3.7-9.9,9.3-11.4c3-0.8,6-0.7,9-0.1c1.4,0.3,1.8,1,1.6,2.3
		C146.3,15.5,146.3,16.3,146.1,17.3z"/>
	<path d="M64.4,37.9c-1.9,0-3.3,0-5,0c0-6.3,0-12.7,0-19c1.6,0,3,0,4.7,0c0.1,0.6,0.2,1.1,0.2,1.4c1.7-0.7,3.2-1.6,4.9-1.8
		c5.1-0.6,7.3,2.4,7.6,6.9c0.2,3.8,0,7.4,0.1,11.2c0,1-0.2,1.3-1.3,1.3c-4,0.1-4,0.1-4-3.9c0-2.7,0-5.4,0-8.1c0-1.9-0.9-3.2-2.3-3.6
		c-1.4-0.3-3.3,0.6-3.9,2.1c-0.6,1.4-0.8,3-0.9,4.4C64.3,31.9,64.4,34.8,64.4,37.9z"/>
	<path d="M108.7,32.7c0.1,0.1,0.1,0.2,0.1,0.2c0,4.4,1,4-3.9,5.1c-3,0.7-6,0.4-8.7-1.3c-3.6-2.3-4.3-5.9-3.9-9.8
		c0.3-3.3,1.6-6.2,4.9-7.7c4.3-1.9,11.6-1.1,12.6,6.3c0.2,1.4,0.3,2.8,0.4,4.3c-4.4,0-8.7,0-12.9,0C98.1,34.8,101.9,35.7,108.7,32.7
		z M105.1,26.4c0.1-2.3-1.1-3.8-3.2-4c-2.7-0.2-4.1,1-4.6,4C100,26.4,102.5,26.4,105.1,26.4z"/>
	<path d="M81.8,22.7c-1.3,0-2.3,0-3.6,0c0-1.3,0-2.4,0-3.9c1.1,0,2.2,0,3.6,0c0-1.1,0-2,0-2.9c0-1.6,1.3-1.1,2.1-1.4
		c0.8-0.3,1.8-0.6,2.8-0.9c0,1.8,0,3.3,0,5.1c1.4,0,2.8,0,4.2,0c0,1.4,0,2.7,0,4c-1.3,0-2.7,0-4.1,0c0,3.2-0.1,6.3,0,9.4
		c0.1,1.8,1.4,2.4,3.2,2c0.3-0.1,0.8-0.1,1.2-0.2c0,1.3,0,2.6,0,3.9c-1.9,0.7-3.9,0.8-5.9,0.1c-2.3-0.8-3.7-2.7-3.7-5.1
		C81.8,29.6,81.8,26.3,81.8,22.7z"/>
	<path d="M55.5,37.9c-1.8,0-3.3,0-5,0c0-8.6,0-17,0-25.7c1.6,0,3.2,0,5,0C55.5,20.8,55.5,29.3,55.5,37.9z"/>
	<path d="M113,18.8c1.4,0,2.8,0,4.2,0c0.1,0.9,0.1,1.8,0.2,2.7c0.9-0.9,1.8-1.9,2.8-2.4s2.3-0.6,3.8-0.8c0,2,0,3.7,0,5.4
		c-5-1.1-5.8,1.3-6.1,6c-0.2,2.7,0,5.3,0,8.2c-1.6,0-3.1,0-4.9,0C113,31.6,113,25.3,113,18.8z"/>
	<path d="M24.2,18.8c0,3.2-2.3,5.6-5.4,5.6c-3,0-5.4-2.4-5.4-5.3c0-3.1,2.3-5.6,5.4-5.6C21.9,13.5,24.2,15.8,24.2,18.8z"/>
	<path class="st0" d="M178.4,18.4c-0.4-0.1-1-0.1-1.8,0.2c-1.1,0.3-2,1.2-3,1.9c-0.4,0.3-0.7,0.9-1.3,1.7c0-1.3,0-2.2,0-3.1
		c-1.6,0-2.9,0-4.2,0c0,6.3,0,12.7,0,18.9c1.7,0,3.2,0,4.9,0c0-2.9-0.1-5.6,0-8.3c0.2-4.6,1-6.4,5.4-6.1L178.4,18.4L178.4,18.4z"/>
	<path class="st0" d="M165.2,24.6c-0.3-3.9-2.1-5.4-6-6c-1.2-0.2-2.4-0.2-3.7,0c-2.7,0.3-4,0.6-4.6,1.3v3.9c1.8-0.6,3.4-1.2,5.1-1.6
		c2.9-0.4,4.6,1,4.6,3.7c-2.2,0.1-4.4,0.2-6.6,0.6c-2.3,0.3-4.4,1.4-5.2,3.9c-0.8,2.1-0.4,4.1,1.1,5.9c2.3,2.6,7.1,2.8,9.8,0.4
		c0.4-0.3,0.8-0.7,1.3-1.2c0.1,0.9,0.1,1.6,0.2,2.3c1.6,0,2.9,0,4.1,0C165.3,33.4,165.5,28.9,165.2,24.6z M155.5,34.4
		c-0.8-0.2-1.8-1-2-1.7c-0.4-1.2,0.3-2.4,1.4-2.8c1.8-0.6,3.7-0.7,5.6-1C160.9,32.7,158.5,35.2,155.5,34.4z"/>
</g>
</svg>
