<?xml version="1.0" encoding="utf-8"?>
<!-- Generator: Adobe Illustrator 21.0.2, SVG Export Plug-In . SVG Version: 6.00 Build 0)  -->
<svg version="1.1" id="Layer_1" xmlns="http://www.w3.org/2000/svg" xmlns:xlink="http://www.w3.org/1999/xlink" x="0px" y="0px"
	 viewBox="0 0 225 126.5" style="enable-background:new 0 0 225 126.5;" xml:space="preserve">
<g>
	<path d="M17.2,75.1c-1.2,1.8-3,2.9-5.1,3.1h-2c-3.5-0.4-5.7-2.5-5.7-5.3c0-2.1,1.2-3.9,3.4-5.1l0.4,0.3c-1.2,1.3-1.7,2.7-1.7,4.5
		c0,2.9,1.9,4.9,4.7,4.9c3.6,0,5.1-2.2,5.1-6.6V53.6c0-2.6,0-3.2-2.5-3.2c-0.4,0-0.7,0-1.2,0v-0.7H21v0.7h-2.5v17.9
		C18.5,71.1,18.4,73.2,17.2,75.1"/>
	<path d="M24.2,50.6h-0.3v-0.7h6.7v0.7h-2.3v22.7c0,3,0,4.1,2,4.1h0.4v0.7H24v-0.7h2.3V54.7C26.3,51.6,26.3,50.6,24.2,50.6"/>
	<path d="M39.6,77.5h0.2v0.7h-6.6v-0.7h2.5V53.8c0-2.4,0-3.2-2.1-3.2h-0.4V50h3.9l6.7,16L50,50h4.3v0.7h-2.4v22.7v0.3
		c0,2.8,0,3.8,2.1,3.8h0.3v0.7h-7v-0.7h2.5V52.9l-6.4,16.7l-6.6-15.9v19.6C36.7,76.6,36.7,77.5,39.6,77.5"/>
	<path d="M64.4,77.4h0.2v0.7H58v-0.7h2.5V53.7c0-2.4,0-3.2-2.1-3.2H58v-0.7h3.9l6.7,16l6.2-16H79v0.7h-2.4v22.7v0.3
		c0,2.8,0,3.8,2.1,3.8H79v0.7h-7v-0.7h2.5V52.9l-6.4,16.7l-6.6-15.9v19.6C61.4,76.5,61.5,77.4,64.4,77.4"/>
	<path d="M93.7,73.4c0,3.3,0,4.1,3,4.1h0.8v0.7h-8.4v-0.7h2.6V65.3l-6.3-13c-0.7-1.5-1-1.5-2.3-1.5h-0.5v-0.7h7v0.7h-2.8l6.5,13.1
		l4.2-10.4c0.3-0.7,0.4-1.4,0.4-1.6c0-0.9-0.4-1.1-1.6-1.1h-0.4v-0.7h5.5v0.7h-1.9l-5.7,14.3V73.4z"/>
	<path d="M125.9,78c-3.5,0-6.4-0.8-8.9-2.5c-3.9-2.6-6.2-6.8-6.2-11.4c0-4.2,1.5-7.6,4.4-10.4c2.7-2.5,6.7-4,10.9-4
		c2.1,0,4.1,0.4,6.2,1.2v-2.6h0.6v10.6h-0.6v-3.4c0-3-2.3-4.7-6.6-4.7c-2.5,0-4.9,0.8-7.1,2.1c-3.8,2.5-5.7,6-5.7,10.6
		c0,3.7,1,6.6,3.3,9.1c2.6,2.8,6.3,4.4,10,4.4c3.2,0,6-1,8-3l0.5,0.6C132.6,76.8,129.4,78,125.9,78"/>
	<path d="M153.9,73.7c0,2.8,0,3.8,2.2,3.8h0.3v0.7h-7v-0.7h2.4V58.3h-9.1v15c0,3.2,0,4.1,2.8,4.1h0.4v0.7H138v-0.7h2.4V53.9
		c0-2.4,0-3.2-2.1-3.2H138V50h7v0.7h-2.5v6.9h9.1v-3.7c0-2.5,0-3.2-2-3.2h-0.4V50h7v0.7h-2.4v22.6V73.7z"/>
	<path d="M182.9,74.3c-2.9,2.4-6.7,3.8-10.9,3.8c-4.1,0-7.5-1.3-10.4-4c-2.8-2.7-4.2-6.1-4.2-10.2c0-4.3,1.6-8.1,4.7-10.9
		c2.8-2.5,6.7-4,10.8-4c3.2,0,6.2,0.9,8.8,2.7c4.1,2.8,6.1,6.7,6.1,11.6C187.9,67.6,186.1,71.5,182.9,74.3 M182.1,54.3
		c-2.6-2.8-6-4.2-9.7-4.2c-3.4,0-6.5,1.3-8.9,3.6c-2.6,2.6-3.8,5.8-3.8,9.8c0,8.2,5.5,13.7,13.1,13.7c3.6,0,6.7-1.3,9.1-3.6
		c2.5-2.5,4-6,4-9.7C185.8,60.2,184.5,56.8,182.1,54.3"/>
	<path d="M215.6,74.3c-2.9,2.4-6.7,3.8-10.8,3.8c-4.1,0-7.5-1.3-10.4-4c-2.8-2.7-4.2-6.1-4.2-10.2c0-4.3,1.6-8.1,4.7-10.9
		c2.8-2.5,6.7-4,10.8-4c3.2,0,6.2,0.9,8.8,2.7c3.7,2.6,5.8,6.1,6.1,10.5v2.1C220.3,68.2,218.5,71.8,215.6,74.3 M214.8,54.3
		c-2.6-2.8-6-4.2-9.7-4.2c-3.4,0-6.5,1.3-8.9,3.6c-2.6,2.6-3.8,5.8-3.8,9.8c0,8.2,5.5,13.7,13.1,13.7c3.6,0,6.7-1.3,9.1-3.6
		c2.5-2.5,4-6,4-9.7C218.5,60.2,217.2,56.8,214.8,54.3"/>
</g>
</svg>
