<svg version="1.1" id="Layer_1" xmlns="http://www.w3.org/2000/svg" xmlns:xlink="http://www.w3.org/1999/xlink" x="0px" y="0px"
	 viewBox="0 0 225 126.5" style="enable-background:new 0 0 225 126.5;" xml:space="preserve">
<g>
	<g>
		<polygon points="20.1,80.7 20.1,60.9 33.3,47.9 53.1,47.9 		"/>
		<polygon points="22.4,80.7 38.7,64.5 55.1,80.7 		"/>
	</g>
	<g>
		<g>
			<path d="M183.3,47.1c-9.8,0-17.1,7.3-17.2,17.1c0,9.7,7.2,17,16.7,17c9.6,0,16.9-7.4,16.9-17.1C199.8,54.6,192.6,47.1,183.3,47.1
				z M190.3,75.5c-7.6,5.3-18.1,0.9-20-8.2c-0.2-1-0.2-2.1-0.3-3.3c0-6.5,4.5-12.2,10.7-13.2c6.9-1.1,12.9,2.8,14.7,9.7
				C197,66.2,194.9,72.4,190.3,75.5z"/>
			<rect x="110" y="47.8" width="3.5" height="32.9"/>
			<polygon points="92.5,47.8 73.1,67.2 73.1,47.8 69.3,51.7 69.3,80.7 73.1,80.7 73.1,71.9 78.4,66.5 92.5,80.7 97,80.7 80.7,64.2 
				97,47.8 			"/>
			<path d="M150.6,63.6c0.8-0.5,1.5-0.9,2.2-1.5c3.8-3.1,3.7-9.2-0.1-12.2c-1.8-1.4-3.9-2.1-6.1-2.1v0h0c0,0-0.1,0-0.1,0
				c-1.6,0-3.1,0-4.7,0v0h-7.8h-3.5v3.5v11.3V66v11.3v3.5h3.5h7.8v0c1.6,0,3.1,0,4.7,0c0,0,0,0,0,0h0.2v0c2.2,0,4.4-0.5,6.4-1.6
				c3-1.6,4.4-4.2,4.4-7.6C157.4,66.5,151.7,64,150.6,63.6z M133.9,51.3h10.8c0.8,0,1.5,0,2.4,0.1c4.4,0.3,6.2,5.4,3.5,8.6
				c-1.6,1.9-3.9,2.4-6.2,2.5c-0.5,0-10.5,0-10.5,0V51.3z M151,76c-1.7,1.1-3.5,1.2-5.5,1.2c-0.7,0-1.5,0-2.2,0h-9.5V66h7.8
				c1.9,0,2.5-0.1,4.9,0c0.9,0,2.7,0.1,4,0.8c1.7,0.9,2.9,2.2,3,4.2C153.7,73.1,152.9,74.8,151,76z"/>
		</g>
		<g>
			<path d="M202.4,45.3c1.4,0,2.6,1.1,2.6,2.5c0,1.4-1.1,2.6-2.6,2.6c-1.4,0-2.6-1.1-2.6-2.6C199.8,46.4,201,45.3,202.4,45.3z
				 M202.4,49.6c1,0,1.8-0.8,1.8-1.8c0-1-0.8-1.8-1.8-1.8c-1,0-1.8,0.8-1.8,1.8C200.6,48.8,201.4,49.6,202.4,49.6z M201.4,46.4h1.1
				c0.7,0,1.1,0.3,1.1,0.9c0,0.5-0.3,0.7-0.7,0.8l0.7,1.1h-0.7l-0.7-1.1H202v1.1h-0.6V46.4z M202,47.6h0.5c0.3,0,0.5-0.1,0.5-0.3
				c0-0.3-0.3-0.3-0.5-0.3H202V47.6z"/>
		</g>
	</g>
</g>
</svg>
