<?xml version="1.0" encoding="utf-8"?>
<!-- Generator: Adobe Illustrator 21.0.2, SVG Export Plug-In . SVG Version: 6.00 Build 0)  -->
<svg version="1.1" id="Layer_1" xmlns="http://www.w3.org/2000/svg" xmlns:xlink="http://www.w3.org/1999/xlink" x="0px" y="0px"
	 viewBox="0 0 225 126.5" style="enable-background:new 0 0 225 126.5;" xml:space="preserve">
<g>
	<polygon points="41.5,74.2 41.5,78.3 15.9,78.3 15.9,50.1 20.5,50.1 20.5,74.2 41.5,74.2 	"/>
	<polygon points="37.9,60.4 43.1,50.6 38.2,50.6 34.3,60.4 37.9,60.4 	"/>
	<path d="M79.9,54.7c-1.7-2.6-4.1-4.8-7-6.3c-2.9-1.5-6.2-2.3-9.5-2.3c-3.3,0-6.6,0.8-9.4,2.3c-2.9,1.5-5.3,3.7-7,6.3
		c-1.7,2.6-2.6,5.7-2.6,8.7c0,3,0.9,6.1,2.6,8.7c1.7,2.6,4.1,4.8,7,6.3c2.9,1.5,6.2,2.3,9.4,2.3c3.3,0,6.6-0.8,9.5-2.3
		c2.9-1.5,5.3-3.7,7-6.3c1.7-2.6,2.6-5.7,2.6-8.7C82.5,60.4,81.6,57.4,79.9,54.7L79.9,54.7L79.9,54.7L79.9,54.7z M75.9,70.4
		c-1.2,2.1-3.1,3.8-5.2,5c-2.1,1.2-4.6,1.8-7.1,1.8c-2.5,0-4.9-0.6-7.1-1.8c-2.1-1.2-4-2.9-5.2-5c-1.2-2.1-1.9-4.4-1.9-6.8
		c0-2.4,0.7-4.8,1.9-6.8c1.2-2.1,3.1-3.8,5.2-5c2.1-1.2,4.6-1.8,7.1-1.8c2.5,0,4.9,0.6,7.1,1.8c2.1,1.2,4,2.9,5.2,5
		c1.2,2.1,1.9,4.4,1.9,6.8C77.8,65.9,77.1,68.3,75.9,70.4L75.9,70.4L75.9,70.4L75.9,70.4z"/>
	<path d="M114.7,62.3c-0.8,1.8-2.4,2.9-3.7,3.5c-1.2,0.6-2.1,0.9-3,0.8l0,0l9,11.7h-5.1l-8.7-11.3H91.8v11.3h-4.6V50.1h18.5l0,0
		c1.9,0,3.8,0.4,5.4,1.3c1.7,0.9,3.1,2.4,3.8,4.4C115.6,57.8,115.5,60.4,114.7,62.3L114.7,62.3z M109.5,62.1c1-0.8,1.5-2.2,1.5-3.5
		c0-1.3-0.7-2.7-1.7-3.5c-1-0.8-2.2-0.9-3.4-0.9l0,0H91.8v8.7H106l0,0C107.2,62.9,108.5,62.9,109.5,62.1L109.5,62.1z"/>
	<polygon points="141.4,62.2 141.4,66 125.7,66 125.7,74.2 146.8,74.2 146.8,78.3 121.1,78.3 121.1,50.1 146.8,50.1 146.8,54.2 
		125.7,54.2 125.7,62.2 141.4,62.2 	"/>
	<polygon points="141.6,45.8 134.7,45.8 131.9,49.3 141.6,45.8 	"/>
	<path d="M155.8,71.2l-3.7,7.2h-4.6l14.4-28.2h4.6l14.4,28.2h-4.6l-3.7-7.2H155.8L155.8,71.2z M164.2,54.7l-6.6,12.9h13.2
		L164.2,54.7L164.2,54.7z"/>
	<polygon points="208.9,74.2 208.9,78.3 183.2,78.3 183.2,50.1 187.8,50.1 187.8,74.2 208.9,74.2 	"/>
	<path d="M206.9,55.8l0-0.7l0,0c0-0.1,0-0.2,0-0.4c0-0.1-0.1-0.3-0.2-0.4c-0.1-0.1-0.2-0.1-0.3-0.2c0.2-0.1,0.4-0.2,0.5-0.4
		c0.1-0.2,0.2-0.5,0.2-0.7c0-0.3-0.1-0.6-0.2-0.8c-0.3-0.5-0.9-0.5-1.4-0.5l0,0h-2v4.7h0.8v-1.9h1.2l0,0c0.1,0,0.3,0,0.6,0.2
		c0.3,0.3,0.2,0.8,0.2,1.2c0,0.2,0,0.4,0.1,0.6l0,0h0.9v-0.1l0,0C206.9,56.3,206.9,56,206.9,55.8L206.9,55.8L206.9,55.8L206.9,55.8z
		 M205.9,53.7c-0.2,0.2-0.5,0.2-0.7,0.2l0,0h-1.1v-1.4l0,0c0.5,0,1,0,1.5,0c0.2,0,0.4,0.1,0.5,0.4C206.2,53.1,206.2,53.5,205.9,53.7
		L205.9,53.7L205.9,53.7L205.9,53.7z"/>
	<path d="M208.6,52.1c-0.3-0.6-0.9-1.1-1.5-1.5c-0.6-0.3-1.3-0.5-2-0.5c-0.7,0-1.4,0.2-2,0.5c-0.6,0.3-1.1,0.9-1.5,1.5
		c-0.3,0.6-0.5,1.3-0.5,2c0,0.7,0.2,1.4,0.5,2c0.3,0.6,0.9,1.1,1.5,1.5c0.6,0.3,1.3,0.5,2,0.5c0.7,0,1.4-0.2,2-0.5
		c0.6-0.3,1.1-0.9,1.5-1.5c0.3-0.6,0.5-1.3,0.5-2C209.1,53.4,209,52.7,208.6,52.1L208.6,52.1L208.6,52.1L208.6,52.1z M208.1,55.8
		c-0.3,0.5-0.7,0.9-1.2,1.2c-0.5,0.3-1.1,0.5-1.7,0.5c-0.6,0-1.2-0.2-1.7-0.5c-0.5-0.3-0.9-0.7-1.2-1.2c-0.3-0.5-0.5-1.1-0.5-1.7
		c0-0.6,0.2-1.2,0.5-1.7c0.3-0.5,0.7-0.9,1.2-1.2c0.5-0.3,1.1-0.5,1.7-0.5c0.6,0,1.2,0.2,1.7,0.5c0.5,0.3,0.9,0.7,1.2,1.2
		c0.3,0.5,0.5,1.1,0.5,1.7C208.6,54.7,208.4,55.3,208.1,55.8L208.1,55.8L208.1,55.8L208.1,55.8z"/>
</g>
</svg>
