<?xml version="1.0" encoding="utf-8"?>
<!-- Generator: Adobe Illustrator 21.0.2, SVG Export Plug-In . SVG Version: 6.00 Build 0)  -->
<svg version="1.1" id="Layer_1" xmlns="http://www.w3.org/2000/svg" xmlns:xlink="http://www.w3.org/1999/xlink" x="0px" y="0px"
	 viewBox="0 0 198.4 174.9" style="enable-background:new 0 0 198.4 174.9;" xml:space="preserve">
<style type="text/css">
	.st0{fill:#2CB4E1;}
</style>
<g>
	<path class="st0" d="M142.8,16.9c-4.7,1.2-9.2,2.9-12.9,5.5c-2.3,1.4-3.7,1.2-5.7,0c-18.9-11.9-44.3-4.9-54.6,15
		c-1,1.8-1.8,3.9-2.7,5.7c-3.5-1.4-7-3.1-10.5-4.1c-16-4.5-33.2,4.9-38.6,20.9c-6.2,18.5,5.3,38.1,24.4,41.8
		c10.3,2.1,19.5-0.4,27.3-7.8c6.2-5.7,12.1-11.3,18-17.2c6.8-6.6,13.3-13.3,20.1-19.9c0.2-0.2,0.4-0.4,0.6-0.8
		c-1.4-1.4-3.1-2.7-4.5-4.1c0-0.2,0.2-0.2,0.2-0.4c6.8,0,13.5,0,20.3,0c0,6.8,0,13.5,0,20.3c-1.4-1.4-2.7-3.1-4.3-4.5
		c-0.8,0.8-1.2,1-1.6,1.4C106.3,80.4,94.2,92.3,82.1,104c-6.6,6.4-14.2,10.9-23.4,12.9c-26,5.9-52.7-11.3-57.8-37.5
		C-4,53.8,11.2,29.2,36.2,22.6c7.2-1.8,14.6-1.8,21.7-0.4c1,0.2,1.4,0,2.1-0.8C68.6,10.3,79.7,3.1,93.6,0.9
		c18.5-3.1,34.5,2.1,48.2,14.8C142.2,16.3,142.4,16.5,142.8,16.9z"/>
	<path class="st0" d="M94,109.8c2.7-2.9,5.3-5.7,8-8.6c2.3-2.3,4.3-4.3,6.8-6.4c0.6-0.6,1.4-1,2.3-1c15,0,29.7,0,44.7,0
		c12.7,0,22.8-8.4,25.4-20.7c2.9-14.2-7.2-28.3-21.5-30.1c-7.6-1-14.2,1.2-19.9,6.2c-0.4,0.4-1,0.8-1.4,1.2c0,0-0.2,0-0.4,0.2
		c-3.1-4.5-6.8-8.2-11.3-11.3c4.9-4.9,10.5-8.4,17-10.5c24.2-7.8,49.8,8,53.5,33.4c3.3,22.1-11.1,42.7-32.8,47.2
		c-2.5,0.6-5.1,0.8-7.6,0.8c-20.5,0-41.2,0-61.7,0C94.4,109.8,94,109.8,94,109.8z"/>
	<path d="M28.8,142c4.7-4.3,10.3-4.7,16-3.1c3.5,1,5.3,3.7,5.5,7.4c0.2,4.7,0.2,9.4,0.2,14.2c0,3.9,0,7.6,0,11.5
		c0,1.6-0.2,1.8-1.8,1.8c-0.8,0-1.6,0-2.5,0c-1.2,0.2-1.6-0.4-1.6-1.8c0-7.4,0-14.8,0-22.1c0-1.4-0.2-2.9-0.6-4.1
		c-0.8-2.9-3.1-4.1-6.8-3.9c-2.9,0.2-5.1,2.1-5.5,4.7c-0.2,0.8-0.2,1.4-0.2,2.3c0,7.6,0,15.4,0,23c0,1.8,0,1.8-1.8,1.8
		c-0.8,0-1.4,0-2.3,0c-1.8,0-1.8,0-1.8-1.8c0-7.2,0-14.4,0-21.5c0-1,0-2.3-0.2-3.3c-0.6-3.9-2.9-5.7-6.8-5.3
		c-3.7,0.2-5.9,2.5-5.9,6.4c0,7.4,0,14.8,0,22.4c0,0.6,0,1.4,0,2.1c0,1-0.4,1.4-1.4,1.4c-5.7-0.2-4.5,0.8-4.7-4.3
		c0-8.2,0-16.2,0-24.4c0-2.7,1-4.3,3.5-5.3c3.9-1.6,8-2.1,12.3-1.4C24.9,138.9,27.2,139.9,28.8,142z"/>
	<path d="M141.6,142.2c1.8-1,3.3-2.1,5.1-2.9c7.2-3.1,14.2,0.2,16.6,7.6c2.1,5.9,1.8,11.9-0.4,17.8c-2.9,7.6-9.8,10.9-17.2,10
		c-2.1-0.2-4.3-1-6.4-1.8c-2.7-1.2-3.9-3.5-3.7-6.4c0-14.2,0-28.3,0-42.5c0-1.2,0.4-1.6,1.6-1.6c1,0,2.1,0,2.9,0
		c1.2,0,1.6,0.4,1.6,1.6c0,5.5,0,11.1,0,16.6C141.6,141.2,141.6,141.6,141.6,142.2z M141.6,156.1L141.6,156.1c0,2.9,0,5.9,0,8.8
		c0.2,3.3,2.3,5.3,5.5,5.5c4.5,0.2,7.8-1.6,9.6-5.5c2.7-5.9,2.5-11.9-0.2-17.8c-1.2-2.7-3.5-4.1-6.6-4.3c-2.9-0.2-5.3,1-7.4,2.9
		c-0.4,0.4-0.8,1.2-0.8,1.8C141.6,150.4,141.6,153.3,141.6,156.1z"/>
	<path d="M198.4,156.5c0,4.3-1,8.4-3.5,11.9c-5.7,8.4-17.6,8.6-23.6,0.2c-5.1-7.2-4.7-18.3,0.8-25c5.7-7.2,16.8-7,22.4,0.4
		C197.2,147.5,198.2,152,198.4,156.5z M174,155.5c0,3.3,0.6,6.6,2.1,9.6c0.4,0.6,0.8,1.2,1.2,1.8c3.7,4.9,9.8,4.5,12.7-1
		c3.3-6.6,2.9-13.3-0.6-19.9c-0.4-0.8-1-1.4-1.6-2.1c-4.1-3.7-9.4-2.5-11.9,2.9C174.4,149.8,174.2,152.6,174,155.5z"/>
	<path d="M70,158.4c0-4.3,0-8.8,0-13.1c0-2.5,1-4.1,3.3-5.1c5.5-2.1,11.1-2.7,16.6-1.2c4.5,1,7,3.9,7,8.6c0.2,8.2,0,16.6,0,24.8
		c0,1-0.4,1.6-1.6,1.6c-0.8,0-1.6,0-2.5,0c-1.6,0-1.8-0.2-1.8-2.1c0-7.4-0.2-14.6,0-21.9c0.2-6.6-3.1-8.8-9.6-8
		c-3.9,0.4-5.3,2.3-5.3,6.2c0,7.8,0,15.6,0,23.4c0,2.3,0,2.5-2.5,2.5c-4.1,0-3.7,0.6-3.7-3.7C70,166.4,70,162.3,70,158.4z"/>
	<path d="M129.3,154.1c0,4.5,0,8.8,0,13.3c0,2.7-1.4,4.3-3.7,5.3c-5.1,2.1-10.5,2.5-15.8,1c-4.3-1.2-6.6-4.1-6.6-8.4
		c-0.2-8.4,0-16.8,0-25c0-1,0.4-1.4,1.2-1.4c1,0,2.1,0,3.1,0c1.2,0,1.6,0.4,1.6,1.6c0,6.8,0,13.5,0,20.5c0,1.4,0,2.9,0.2,4.3
		c0.2,2.7,1.8,4.5,4.5,4.9c1.6,0.2,3.3,0.4,4.9,0.2c3.1-0.4,4.5-2.3,4.7-5.5c0-7.8,0-15.6,0-23.6c0-2.3,0-2.3,2.5-2.3
		c3.9,0,3.7-0.4,3.7,3.7C129.3,146.5,129.3,150.4,129.3,154.1L129.3,154.1z"/>
	<path d="M57.1,156.5c0-5.1,0-10.5,0-15.6c0-1.6,0.2-1.8,1.8-1.8c0.8,0,1.6,0,2.5,0c1.6,0,1.8,0.2,1.8,2.1c0,10.3,0,20.7,0,31
		c0,1.8-0.2,2.1-2.1,2.1c-4.1,0-4.1,0-4.1-4.1C57.1,165.4,57.1,160.8,57.1,156.5z"/>
	<path d="M60.2,132.9c-2.1,0-3.7-1.4-3.7-3.5c0-2.1,1.4-3.7,3.7-3.7c2.1,0,3.7,1.4,3.7,3.5C63.9,131.5,62.2,132.9,60.2,132.9z"/>
</g>
</svg>
