<?xml version="1.0" encoding="utf-8"?>
<!-- Generator: Adobe Illustrator 21.0.2, SVG Export Plug-In . SVG Version: 6.00 Build 0)  -->
<svg version="1.1" id="Layer_1" xmlns="http://www.w3.org/2000/svg" xmlns:xlink="http://www.w3.org/1999/xlink" x="0px" y="0px"
	 viewBox="0 0 198.4 43.8" style="enable-background:new 0 0 198.4 43.8;" xml:space="preserve">
<style type="text/css">
	.st0{fill:#1D426A;}
</style>
<g>
	<path class="st0" d="M33.6,13c-1.1-0.4-2.2-0.8-3.3-1.2c-6.1-1.7-12.1-1.7-18,0.7c-1.3,0.5-2.5,1.1-3.5,2.2c-1.1,1.1-1.6,2.4-1.8,4
		c-0.2,2.3,0.5,4.5,1.3,6.6c2.2,5.3,5.1,10.3,9.3,14.4c1.6,1.6,3.3,2.9,5.3,4.1c-1,0-1.9,0-2.8,0c-2.4-0.2-4.2-1.3-6-2.8
		C6.8,34.8,2.3,27,0.5,17.6c-0.3-1.7-0.5-3.4-0.4-5.1C0.1,10.9,1,9.8,2.3,9.1c3-1.7,6.2-2.6,9.6-3.2c4.5-0.7,9-0.6,13.5,0
		c1.7,0.2,3.4,0.7,5,1.5c2.1,1.1,3.2,2.7,3.4,5.1C33.7,12.6,33.7,12.8,33.6,13z"/>
	<path class="st0" d="M10.8,13.9c0.3,2.5,0.9,4.9,1.8,7.3c1.9,5,4.9,9.1,9.4,12.1c3.1,2.2,6,2.1,9-0.4c2.1-1.7,3.6-3.8,5.1-6
		c2.5-3.8,4.6-7.9,5.8-12.3c0.6-2.2,0.9-4.4,1-6.8c1.4,2.2,2.4,4.4,2.1,7c-0.9,8.7-4.6,16.2-10.5,22.6c-2,2.1-4.2,3.9-6.6,5.5
		c-1.6,1-3.3,1-4.9,0c-4.6-2.8-8-6.8-10.7-11.4c-1.6-2.8-3.1-5.6-4-8.7c-0.5-1.8-0.8-3.6-0.3-5.4C8.2,15.9,9.3,14.8,10.8,13.9z"/>
	<path class="st0" d="M23.1,33.3c2.4-1.8,4.4-3.9,6.2-6.3c2.6-3.6,4.3-7.6,4.9-12.1c0.2-1.3,0.3-2.6-0.1-4c-0.5-2.1-1.9-3.4-3.8-4.3
		c-1.8-0.8-3.6-1.2-5.5-1.5c-3.2-0.4-6.4-0.5-9.7-0.3C10.6,5.2,6.3,6.2,2.3,8.3C2.2,8.4,2.1,8.5,2,8.5c0.1-0.6,1.2-2.1,1.9-3
		c1.3-1.5,3-2.3,4.8-3C12.9,0.8,17.4,0.1,22,0c5.6-0.1,10.9,0.9,16,3.2c0.4,0.2,0.9,0.4,1.3,0.6c2.2,1.1,3,2.6,2.9,5.1
		c-0.4,5.7-2.4,10.9-5.3,15.7c-1.4,2.3-2.9,4.6-4.8,6.6c-1.1,1.1-2.2,2.1-3.6,2.7C26.6,34.6,24.7,34.4,23.1,33.3z"/>
	<path class="st0" d="M197.5,30.9c-0.3-0.1-0.4,0-0.5,0.3c-0.5,1.2-1,2.4-1.8,3.5c-0.6,0.8-1.3,1.3-2.2,1.5
		c-1.8,0.4-3.7,0.4-5.5,0.1c-1-0.2-1.4-0.7-1.5-1.7c-0.1-0.5-0.1-1-0.1-1.4c0-5.6,0-11.3,0-16.9c0-0.5,0-1,0.1-1.5
		c0.1-1.2,0.6-1.7,1.8-1.9c0.3-0.1,0.6-0.1,0.9-0.1c0.9-0.1,0.9-0.1,0.9-1c0-0.4-0.1-0.5-0.5-0.5c-2.5,0-4.9,0-7.4,0
		c-0.4,0-0.6,0.1-0.6,0.5c0,5.2,0,10.4,0,15.6c0,2.1,0,4.2,0,6.3c0,2-1.8,3.5-3.8,3.3c-1.5-0.2-2.7-0.8-3.8-1.8
		c-1.4-1.4-2.6-3-3.9-4.5c-2.2-2.6-4.3-5.3-6.4-8c-0.1-0.2-0.3-0.3-0.1-0.6c2.1-2.1,4.3-4.3,6.5-6.3c1.7-1.6,3.6-2.7,5.9-2.9
		c0.8-0.1,0.8-0.1,0.8-1c0-0.4-0.1-0.5-0.5-0.5c-3,0-6.1,0-9.1,0c-1.1,0-1.1,0-1,1.1c0,0.3,0.1,0.4,0.4,0.4c0.5,0,1,0.1,1.5,0.2
		c0.7,0.2,0.8,0.6,0.5,1.2c-0.2,0.3-0.4,0.6-0.6,0.9c-1.9,2.3-4,4.5-6.1,6.6c-0.8,0.8-1.7,1.6-2.7,2.1c-0.4,0.2-0.5,0.2-0.5-0.3
		c0-1.9,0-3.8,0-5.7c0-0.9,0-1.9,0.1-2.8c0.1-1.3,0.6-1.9,1.9-2.1c0.2,0,0.5-0.1,0.7-0.1c0.8-0.1,0.8-0.1,0.8-1
		c0-0.4-0.1-0.6-0.5-0.5c-3.4,0-6.8,0-10.2,0c-1.1,0-1.1,0-1,1c0,0,0,0.1,0,0.1c0,0.2,0.1,0.3,0.3,0.3c0.4,0,0.8,0.1,1.1,0.1
		c1.3,0.2,1.8,0.6,2,1.6c0.1,0.3,0.1,0.7,0.1,1c0,5,0,10.1,0,15.1c0,1.1,0,2.1,0,3.2c-0.1,1.5-1,2.7-2.5,3.1
		c-1.4,0.4-2.8-0.1-3.7-1.3c-0.4-0.6-0.8-1.3-1-2c-1.4-3.6-2.7-7.3-4.1-10.9c-1.4-3.8-2.8-7.7-4.2-11.5c-0.1-0.3-0.3-0.5-0.6-0.3
		c-0.3,0.1-0.6,0.2-0.9,0.2c-0.3,0.1-0.5,0.2-0.7,0.6c-2.9,7.6-5.9,15.2-8.9,22.8c-0.3,0.8-0.8,1.3-1.6,1.5
		c-1.2,0.4-2.3-0.2-3.1-1.4c-1.7-2.9-3.3-5.8-5-8.8c-0.2-0.4-0.2-0.6,0.2-0.8c2.6-1.2,4.4-2.9,4.7-5.9c0.2-2.8-0.6-5-3.1-6.5
		c-1.3-0.8-2.8-1.1-4.3-1.2c-3.2-0.2-6.5,0-9.7-0.1c-0.3,0-0.4,0.1-0.4,0.4c0,0.8,0,1.6,0,2.3c0,6.4,0,12.8,0,19.2
		c0,0.2,0,0.4,0,0.5c-0.1,1.8-1.6,3.2-3.4,3.2c-1.9,0-3.4-1.5-3.4-3.6c0-5.8,0-11.5,0-17.3c0-0.5,0-1,0.1-1.5c0.1-1,0.6-1.5,1.6-1.7
		c0.3-0.1,0.7-0.1,1-0.2c0.8-0.1,0.8-0.1,0.8-1c0-0.4-0.1-0.5-0.5-0.5c-3.5,0-6.9,0-10.4,0c-1.1,0-1.1,0-1.1,1.1
		c0,0.3,0.1,0.3,0.3,0.3c0.5,0,1.1,0.1,1.6,0.2c1,0.2,1.4,0.7,1.6,1.7c0.1,0.5,0.1,1,0.1,1.4c0,5.9,0,11.8,0,17.6
		c0,1.8-1.5,3.3-3.4,3.3c-1.8,0-3.4-1.5-3.4-3.3c-0.1-3.3-0.2-6.6-0.3-9.9c-0.1-4-0.3-8-0.2-12c0-0.3-0.1-0.4-0.4-0.4
		c-1.1,0-2.2,0-3.3,0c-0.4,0-0.6,0.1-0.8,0.5c-2.8,6.1-5.6,12.2-8.4,18.3c-0.1,0.1-0.1,0.3-0.3,0.4c-0.1-0.2-0.2-0.3-0.2-0.5
		c-2.8-6.1-5.5-12.1-8.3-18.2C64,11.1,63.8,11,63.4,11c-2.2,0-4.3,0-6.5,0c-1.1,0-1,0-1,1.1c0,0.3,0.1,0.4,0.4,0.4
		c0.7,0.1,1.3,0.1,2,0.4c0.6,0.2,1,0.6,1.2,1.3c0.1,0.5,0.2,0.9,0.2,1.4c0,1.5-0.2,3.1-0.3,4.6c-0.3,4.5-0.6,9-1.2,13.5
		c-0.3,1.9-0.9,2.6-2.8,2.9c-0.9,0.1-0.8,0.1-0.9,1c0,0.4,0.1,0.5,0.5,0.5c2.8,0,5.7,0,8.5,0c1.1,0,1.1,0,1-1c0-0.2-0.1-0.3-0.3-0.4
		c-0.7-0.1-1.4-0.2-2.1-0.4c-0.7-0.3-1.2-0.7-1.3-1.5c-0.2-1.3-0.2-2.5-0.2-3.8c0.2-4.2,0.4-8.5,0.6-12.7c0-0.7,0.1-1.3,0.1-2
		c0.1,0.1,0.2,0.3,0.3,0.4c2.9,6.9,5.7,13.8,8.6,20.7c0.1,0.3,0.2,0.5,0.6,0.5c0.4,0,0.7,0,0.9-0.5c2.7-6.2,5.5-12.5,8.2-18.7
		c0.4-1,0.9-1.9,1.3-2.9c0,0,0.1,0,0.1,0c0,0.4,0.1,0.7,0.1,1.1c0,3.1,0,6.1,0,9.2c0,1.3,0.1,2.7,0.1,4c0,1.5,0.1,3-0.1,4.5
		c-0.1,1.2-0.6,1.7-1.7,1.9c-0.4,0.1-0.8,0.2-1.3,0.2c-0.2,0-0.3,0.1-0.3,0.3c0,0.1,0,0.3,0,0.4C78,38,78.2,38,78.7,38
		c11.1,0,22.2,0,33.3,0c1,0,1,0,1-1c0-0.3-0.1-0.4-0.4-0.4c-0.4,0-0.8-0.1-1.2-0.2c-1.3-0.3-1.8-0.8-1.9-2.1c-0.2-2.3,0-4.6-0.1-7
		c0-1,0-1,1-1c1.5,0,2.6,0.7,3.3,2c0.3,0.6,0.6,1.2,0.9,1.8c0.9,1.9,1.7,3.9,2.9,5.7c1.6,2.3,4.2,3.5,6.9,2.9c2.5-0.5,4.1-2,5-4.4
		c0.7-1.7,1.1-3.5,1.6-5.2c0.1-0.3,0.2-0.4,0.5-0.4c2.6,0,5.1,0,7.7,0c0.3,0,0.4,0.1,0.5,0.4c0.6,1.6,1.2,3.3,1.8,4.9
		c0.6,1.7,0.4,2.1-1.4,2.5c-0.8,0.2-0.8,0.2-0.8,1c0,0.4,0.1,0.5,0.5,0.5c7.1,0,14.2,0,21.3,0c0.9,0,0.9,0,0.9-0.9
		c0-0.4-0.1-0.5-0.5-0.5c-0.4,0-0.8-0.1-1.2-0.2c-1.4-0.3-1.9-0.8-2-2.2c-0.2-3,0-6-0.1-9c0-0.3,0.1-0.3,0.3-0.3
		c0.3,0,0.6,0.1,0.8,0.3c0.3,0.3,0.6,0.6,0.9,0.9c3,3.8,5.9,7.7,9,11.5c0.2,0.2,0.4,0.4,0.7,0.4c8.9,0,17.7,0,26.6,0
		c0.4,0,0.5-0.1,0.6-0.5c0.4-1.8,0.8-3.6,1.2-5.4C198.5,31.1,198.5,31.2,197.5,30.9z M112.4,24.7c-0.9,0.1-1.8,0.1-2.7,0.1
		c-0.3,0-0.4-0.1-0.4-0.4c0-1.7,0-3.4,0-5c0-1.6,0-3.2,0-4.7c0-0.1,0-0.2,0-0.3c0.1-1.1,0.3-1.4,1.4-1.6c3.3-0.4,5.9,1.3,6.3,4.9
		c0.2,1.4,0.1,2.8-0.5,4.1C115.8,23.5,114.4,24.5,112.4,24.7z M131.8,26.7c1.1-3.2,2.3-6.4,3.6-9.5c1.1,3.2,2.2,6.3,3.3,9.5
		C136.4,26.7,134.1,26.7,131.8,26.7z"/>
</g>
</svg>
