<?xml version="1.0" encoding="utf-8"?>
<!-- Generator: Adobe Illustrator 21.0.2, SVG Export Plug-In . SVG Version: 6.00 Build 0)  -->
<svg version="1.1" id="Layer_1" xmlns="http://www.w3.org/2000/svg" xmlns:xlink="http://www.w3.org/1999/xlink" x="0px" y="0px"
	 viewBox="0 0 225 126.5" style="enable-background:new 0 0 225 126.5;" xml:space="preserve">
<g>
	<path d="M108.6,48h-4.2c-0.7,0-1.2,0.3-1.4,1l-8,19.7l-7.7-19.7c-0.3-0.7-0.7-1-1.5-1h-4.2c-0.8,0-1.3,0.4-1.3,1.3l-0.9,24
		c0,0.4,0.1,0.8,0.3,1c0.2,0.2,0.5,0.3,0.9,0.3h1.9c0.8,0,1.3-0.4,1.3-1.3L84.5,58c0-1.4,0-2.7,0-3.7c0.3,0.8,0.6,1.9,1.2,3.2
		l6.4,16c0.3,0.7,0.7,1,1.5,1h2.7c0.7,0,1.2-0.3,1.4-1l6.5-15.9c0.5-1.3,0.9-2.4,1.3-3.4c0,1,0,2.3,0.1,3.8l0.7,15.2
		c0,0.9,0.5,1.3,1.3,1.3h2.3c0.4,0,0.7-0.1,0.9-0.3c0.2-0.2,0.3-0.6,0.3-1l-1-24C109.9,48.5,109.4,48,108.6,48"/>
	<path d="M122.7,55.3c-2.7,0-5.2,0.9-6.9,2.5c-1.9,1.8-2.8,4.3-2.8,7.4c0,6.7,4.8,9.8,9.3,9.8c2.6,0,5-0.9,6.7-2.5
		c1.9-1.8,2.9-4.5,2.9-7.7c0-2.9-0.9-5.3-2.6-7C127.6,56.1,125.3,55.3,122.7,55.3 M122.6,71.3h-0.3c-2.8,0-4.8-2.7-4.8-6.5
		c0-3.8,1.8-6,4.8-6c3,0,4.9,2.4,4.9,6.3C127.2,68.9,125.4,71.3,122.6,71.3"/>
	<path d="M144,55.2c-2.2,0-4.1,0.8-5.4,2.3c0-0.1,0-0.2,0-0.3c0-0.5,0-1.2,0-2.1v-8.4c0-0.7-0.4-1.1-1.1-1.1c-0.1,0-0.1,0-0.2,0
		l-2.2,0.2c-0.7,0.1-1.1,0.5-1.1,1.2v23.1c0,1,0,1.6-0.1,2.2c0,0.1,0,0.3,0,0.4c0,0.8,0.3,1.2,1.2,1.5c1.7,0.5,4.1,0.9,6.1,0.9
		c6.7,0,10.7-3.9,10.7-10.4c0-2.9-0.8-5.3-2.3-6.9C148.2,56.1,146.2,55.2,144,55.2 M137.4,45.7c0.1,0,0.1,0,0.2,0c0,0,0,0,0,0
		C137.5,45.7,137.4,45.7,137.4,45.7 M141.8,71.4c-0.8,0-1.9-0.1-3.2-0.5c0-0.3,0-0.6,0-0.9c0-0.3,0-0.7,0-1.2v-8
		c1.2-1.2,2.6-1.8,4.2-1.8c2.2,0,4.5,1.9,4.5,6.2C147.2,69,145.2,71.4,141.8,71.4"/>
	<path d="M157.6,56.5c-0.1,0-0.1,0-0.2,0l-2.2,0.1c-0.7,0.1-1.1,0.5-1.1,1.2v15.5c0,0.7,0.4,1.2,1.2,1.2h2.2c0.7,0,1.2-0.4,1.2-1.2
		V57.6C158.7,56.9,158.3,56.5,157.6,56.5 M157.5,56.6c0.1,0,0.1,0,0.2,0c0,0,0,0,0,0C157.6,56.6,157.5,56.6,157.5,56.6"/>
	<path d="M156.4,46.7c-1.7,0-2.9,1.1-2.9,2.7c0,1.7,1.1,2.8,2.8,2.8c1.7,0,2.9-1.1,2.9-2.7C159.3,47.8,158.1,46.7,156.4,46.7"/>
	<path d="M174.9,48.1l0.1-1.2c0.1-0.7-0.3-1.2-1-1.3c-0.9-0.2-1.9-0.3-2.6-0.3c-4.1,0-6.9,1.8-7.8,5.2c-0.4,1.4-0.5,2.8-0.5,4.6v1
		l-1,0.1c-0.7,0.1-1.1,0.5-1.1,1.2v1c0,0.8,0.4,1.2,1.2,1.2h0.9v13.8c0,0.7,0.4,1.2,1.2,1.2h2.2c0.7,0,1.2-0.4,1.2-1.2V59.6h3.5
		c0.7,0,1.1-0.4,1.2-1.1l0.1-1.2c0-0.4-0.1-0.7-0.3-0.9c-0.2-0.2-0.5-0.3-0.9-0.3h-3.6v-1.4c0-1.1,0-1.8,0.2-2.5
		c0.3-2.2,1.5-3.2,3.9-3.2c0.7,0,1.2,0.1,1.6,0.1c0.2,0,0.4,0.1,0.5,0.1C174.5,49.2,174.8,48.8,174.9,48.1"/>
	<path d="M194.1,56.4c-0.2-0.2-0.5-0.4-0.9-0.4h-2.7c-0.7,0-1,0.3-1.3,1c-0.4,1.1-2.6,6-5.1,11.7c-2.3-5.1-4.8-10.5-5.3-11.7
		c-0.2-0.6-0.6-1-1.3-1H175c-0.4,0-0.7,0.1-0.9,0.4c-0.2,0.2-0.2,0.6-0.1,1c0.5,1.5,3.2,7.1,5.8,12.9c0.7,1.4,1.3,2.9,1.9,4.3
		c-1.8,4.2-3.5,8.2-3.9,9.4c-0.1,0.4-0.1,0.7,0.1,1c0.2,0.2,0.5,0.4,0.9,0.4h2.7c0.7,0,1.1-0.3,1.3-0.9c0.4-1.2,3.1-7.5,5.7-13.5
		c2.6-5.9,5.3-11.9,5.7-13.3C194.3,57,194.3,56.7,194.1,56.4"/>
	<path d="M53.3,43.9L53.3,43.9c0,0-6.1-3-7.3-2.5c-1,0.5-4.6,6.9-5.6,8.6L53.3,43.9z"/>
	<path d="M40.2,50.3c-4.8,2.5-9.2,4.8-9.5,5.3c-0.6,1.1,1.9,7.4,1.9,7.4s10.6-2.2,14.1-5.4c3.5-3.2,6.4-13.7,6.4-13.7L40.2,50.3z"/>
	<path d="M48.6,65.1c-4.5-1.4-15.1,1.3-15.1,1.3l12.1,8c4.6,3,8.8,5.6,9.3,5.6c1.3,0,5.5-5.4,5.5-5.4S53.2,66.5,48.6,65.1"/>
	<path d="M33.5,66.5c0,0,0.5,6.8,1.5,7.5c0.9,0.6,8.3,0.5,10.2,0.5L33.5,66.5z"/>
	<path d="M63.7,57.7L63.7,57.7c0.3-5.4,0.5-10.4,0.2-10.9c-0.7-1.1-7.4-2-7.4-2S53,55.1,54.1,59.7c1.1,4.6,8.7,12.4,8.7,12.4
		L63.7,57.7z"/>
	<path d="M63.8,58l-1.1,14.2c0,0,5.7-3.8,5.8-5.1C68.6,66,64.8,59.7,63.8,58"/>
	<path d="M108.7,48h-4.2c-0.7,0-1.2,0.3-1.4,1l-8,19.7L87.3,49c-0.3-0.7-0.7-1-1.5-1h-4.2c-0.8,0-1.3,0.5-1.3,1.3l-0.9,24
		c0,0.4,0.1,0.8,0.3,1c0.2,0.2,0.5,0.3,0.9,0.3h1.9c0.8,0,1.3-0.4,1.3-1.3L84.5,58c0-1.4,0-2.7,0-3.7c0.3,0.8,0.6,1.9,1.2,3.2
		l6.4,16c0.3,0.7,0.8,1,1.5,1h2.7c0.7,0,1.2-0.3,1.4-1l6.5-15.9c0.5-1.3,0.9-2.4,1.3-3.4c0,1,0,2.3,0.1,3.8l0.7,15.2
		c0,0.9,0.5,1.3,1.3,1.3h2.3c0.4,0,0.7-0.1,0.9-0.3c0.2-0.2,0.3-0.6,0.3-1l-1-24C109.9,48.5,109.5,48,108.7,48"/>
	<path d="M122.7,55.3c-2.7,0-5.2,0.9-6.9,2.5c-1.9,1.8-2.8,4.3-2.8,7.4c0,6.8,4.8,9.8,9.3,9.8c2.6,0,5-0.9,6.7-2.5
		c1.9-1.8,2.9-4.5,2.9-7.7c0-2.9-0.9-5.3-2.6-7C127.7,56.1,125.4,55.3,122.7,55.3 M122.6,71.3h-0.3c-2.8,0-4.8-2.7-4.8-6.5
		c0-3.8,1.8-6,4.8-6c3,0,4.9,2.4,4.9,6.3C127.3,68.9,125.5,71.3,122.6,71.3"/>
	<path d="M144,55.2c-2.2,0-4.1,0.8-5.4,2.3c0-0.1,0-0.2,0-0.3c0-0.5,0-1.2,0-2.1v-8.4c0-0.7-0.4-1.1-1.1-1.1c-0.1,0-0.1,0-0.2,0
		l-2.2,0.2c-0.7,0.1-1.1,0.5-1.1,1.2v23.1c0,1,0,1.6-0.1,2.2c0,0.1,0,0.2,0,0.4c0,0.8,0.3,1.2,1.2,1.5c1.7,0.5,4.1,0.9,6.1,0.9
		c6.7,0,10.7-3.9,10.7-10.4c0-2.9-0.8-5.3-2.3-6.9C148.2,56.1,146.2,55.2,144,55.2 M141.8,71.4c-0.8,0-1.9-0.1-3.2-0.5
		c0-0.3,0-0.6,0-0.9v-1.2v-8c1.2-1.2,2.6-1.8,4.2-1.8c2.2,0,4.5,1.9,4.5,6.2C147.3,69,145.3,71.4,141.8,71.4 M138.5,46.5
		c0,0.1,0,0.2,0,0.3C138.6,46.6,138.6,46.5,138.5,46.5 M138.5,46.2c0,0,0,0.1,0,0.1C138.5,46.3,138.5,46.3,138.5,46.2 M138.5,46.2
		c0,0,0-0.1-0.1-0.1C138.4,46.1,138.4,46.1,138.5,46.2 M138.3,46C138.3,46,138.3,45.9,138.3,46C138.3,45.9,138.3,46,138.3,46
		 M138.2,45.9C138.2,45.8,138.1,45.8,138.2,45.9C138.1,45.8,138.2,45.8,138.2,45.9 M138,45.8c0,0-0.1,0-0.1,0
		C138,45.7,138,45.7,138,45.8 M137.8,45.7c0,0-0.1,0-0.1,0C137.8,45.7,137.8,45.7,137.8,45.7 M137.6,45.7
		C137.6,45.7,137.6,45.7,137.6,45.7c0,0-0.1,0-0.2,0C137.5,45.7,137.5,45.7,137.6,45.7"/>
	<path d="M157.7,56.5c-0.1,0-0.1,0-0.2,0l-2.2,0.1c-0.7,0.1-1.1,0.5-1.1,1.2v15.5c0,0.7,0.4,1.2,1.2,1.2h2.2c0.7,0,1.2-0.4,1.2-1.2
		V57.6C158.8,56.9,158.4,56.5,157.7,56.5 M158.5,56.9C158.4,56.9,158.4,56.9,158.5,56.9C158.4,56.9,158.4,56.9,158.5,56.9
		 M158.3,56.8C158.3,56.8,158.3,56.7,158.3,56.8C158.3,56.7,158.3,56.8,158.3,56.8 M158.2,56.7c0,0-0.1,0-0.1,0
		C158.1,56.6,158.1,56.7,158.2,56.7 M158,56.6c0,0-0.1,0-0.1,0C157.9,56.6,157.9,56.6,158,56.6 M157.7,56.6
		C157.7,56.6,157.7,56.6,157.7,56.6c0,0-0.1,0-0.2,0C157.6,56.6,157.6,56.6,157.7,56.6 M158.7,57.4c0,0.1,0,0.2,0,0.3
		C158.7,57.5,158.7,57.5,158.7,57.4 M158.5,57c0,0,0,0.1,0.1,0.1C158.5,57,158.5,57,158.5,57 M158.6,57.2c0,0,0,0.1,0,0.1
		C158.6,57.3,158.6,57.2,158.6,57.2"/>
	<path d="M156.5,46.7c-1.7,0-2.9,1.1-2.9,2.7c0,1.7,1.1,2.8,2.8,2.8c1.7,0,2.9-1.1,2.9-2.7C159.3,47.8,158.1,46.7,156.5,46.7"/>
	<path d="M167.9,52.2c0.3-2.2,1.5-3.2,3.9-3.2c0.7,0,1.2,0.1,1.6,0.1c0.2,0,0.4,0.1,0.5,0.1c0.6,0,1-0.4,1-1l0.2-1.2
		c0.1-0.7-0.3-1.2-1-1.3c-0.9-0.2-1.9-0.3-2.6-0.3c-4.1,0-6.9,1.8-7.8,5.2c-0.4,1.4-0.5,2.8-0.5,4.6v1l-1,0.1
		c-0.7,0.1-1.1,0.5-1.1,1.2v1.1c0,0.7,0.4,1.2,1.2,1.2h0.9v13.8c0,0.7,0.4,1.2,1.2,1.2h2.2c0.7,0,1.2-0.4,1.2-1.2V59.5h3.5
		c0.7,0,1.1-0.4,1.2-1.1l0.1-1.2c0-0.4-0.1-0.7-0.3-0.9c-0.2-0.2-0.5-0.3-0.9-0.3h-3.6v-1.4C167.7,53.6,167.7,52.8,167.9,52.2"/>
	<path d="M194.2,56.4c-0.2-0.2-0.5-0.4-0.9-0.4h-2.7c-0.7,0-1,0.3-1.3,0.9c-0.4,1.1-2.6,6-5.1,11.7c-2.3-5.1-4.8-10.5-5.3-11.7
		c-0.2-0.6-0.6-0.9-1.3-0.9h-2.7c-0.4,0-0.7,0.1-0.9,0.4c-0.2,0.2-0.2,0.6-0.1,1c0.5,1.5,3.2,7.2,5.8,12.9c0.7,1.4,1.3,2.9,1.9,4.3
		c-1.8,4.2-3.5,8.2-3.9,9.4c-0.1,0.4-0.1,0.7,0.1,1c0.2,0.3,0.5,0.4,0.9,0.4h2.7c0.7,0,1.1-0.3,1.3-0.9c0.4-1.2,3.1-7.5,5.7-13.5
		c2.6-5.9,5.3-11.9,5.7-13.3C194.4,57,194.4,56.6,194.2,56.4"/>
</g>
</svg>
