<svg version="1.1" id="Layer_1" xmlns="http://www.w3.org/2000/svg" xmlns:xlink="http://www.w3.org/1999/xlink" x="0px" y="0px"
	 viewBox="0 0 225 126.5" style="enable-background:new 0 0 225 126.5;" xml:space="preserve">
<g>
	<path d="M29.1,39.6c0.9,0.2,1.9,0.3,2.8,0.6c0.9,0.3,1.9,0.7,2.7,1.3c1.9,1.4,1.9,3.6,0.1,5.1c-0.9,0.7-2,1.2-3.1,1.8
		c-1,0.5-1.3,1.6-0.3,2.3c0.6,0.4,1.4,0.8,2.2,0.8c2.7,0.1,5.4,0,8.1,0c3.5,0,6,2.5,6,6c0,2.7,0,5.4,0,8.1c-0.9,0.3-1.3,0.1-1.7-0.7
		c-0.5-0.9-1-1.8-1.7-2.6c-1.4-1.6-3.4-1.5-4.8,0.1c-0.9,1-1.3,2.2-1.5,3.5c-0.5,2.6-0.4,5.2,0.8,7.7c0.5,1,1.1,1.7,2.2,2.1
		c1.2,0.4,2.3,0.3,3.1-0.6c0.8-0.9,1.3-2,2-3c0.2-0.3,0.5-0.6,0.8-0.7c0.6-0.3,0.9-0.1,0.9,0.6c0,2.9,0,5.9,0,8.8
		c0,3.2-1.7,5.3-4.8,6.1c-0.1,0-0.2,0.1-0.3,0.1c-4.1,0-8.1,0-12.2,0c-0.3-1-0.1-1.3,0.8-1.7c1-0.5,2-1,2.9-1.6
		c0.9-0.6,1-1.4,0.6-2.4c-0.4-1.1-1.3-1.7-2.3-2.1c-3.2-1.2-6.4-1.2-9.5,0c-0.8,0.3-1.5,0.9-2.1,1.6c-0.9,1.1-0.7,2.2,0.5,3
		c0.8,0.6,1.7,1,2.6,1.4c1,0.5,1.2,0.7,1,1.7c-4.1,0-8.1,0-12.2,0c-0.2-0.1-0.4-0.1-0.5-0.2c-2-0.5-3.4-1.7-4.2-3.6
		c-0.1-0.3-0.2-0.7-0.4-1c0-3.6,0-7.1,0-10.7c1-0.5,1.5-0.3,2.1,0.7c0.5,0.9,1.1,1.9,1.8,2.7c1.2,1.3,3,1.3,4.3,0.1
		c0.6-0.7,1.2-1.5,1.5-2.4c0.9-2.7,0.9-5.4,0-8.1c-0.3-0.8-0.7-1.6-1.3-2.2c-1.5-1.6-3.4-1.5-4.8,0.1c-0.6,0.7-1,1.5-1.4,2.2
		c-0.6,1.1-0.9,1.3-2.2,0.9c0-3.1,0-6.2,0-9.3c0-0.1,0.1-0.1,0.1-0.2c0.5-2.7,3.2-4.7,6.1-4.6c2.6,0.1,5.3,0.1,8,0
		c0.7,0,1.5-0.4,2.1-0.8c1-0.7,0.7-1.8-0.3-2.3c-1-0.5-2.1-1-3-1.7c-1.9-1.5-1.9-3.8,0.1-5.2c0.8-0.5,1.7-0.9,2.6-1.2
		c0.9-0.3,1.9-0.4,2.9-0.6C27,39.6,28,39.6,29.1,39.6z"/>
	<path d="M55.6,58.5c1.5,0,3,0,4.5,0c0.1,0,0.4,0.3,0.4,0.5c0.1,0.7,0.1,1.3,0.2,2.2c1.4-2.1,3.3-3.2,5.7-3.2c2.5,0,4.3,1,5.3,3.1
		c0.6-0.5,1.2-1,1.8-1.5c1.8-1.4,3.8-1.9,6-1.4c2.4,0.5,3.7,2.2,4.3,4.4c0.3,1.1,0.5,2.2,0.5,3.3c0.1,4,0,7.9,0,11.9
		c0,0.1,0,0.3,0,0.5c-1.9,0-3.8,0-5.7,0c0-0.3,0-0.6,0-0.9c0-3.5,0-6.9-0.1-10.4c0-0.6-0.1-1.3-0.3-1.8c-0.4-1.5-1.3-2.1-2.6-2.1
		c-1.3,0.1-2.4,1.1-2.6,2.4c-0.1,0.4-0.1,0.9-0.1,1.4c0,3.5,0,7,0,10.6c0,0.3,0,0.5,0,0.8c-1.9,0-3.8,0-5.8,0c0-0.3,0-0.6,0-0.9
		c0-3.6,0-7.2,0-10.8c0-0.7-0.2-1.4-0.4-2c-0.7-1.7-2.7-2.1-4-0.8c-0.8,0.8-1.2,1.7-1.2,2.8c0,3.6,0,7.2,0,10.8c0,0.3,0,0.5,0,0.8
		c-1.9,0-3.8,0-5.8,0C55.6,71.6,55.6,65.1,55.6,58.5z"/>
	<path d="M106.5,68.6c0,2.4-1,5.3-3.6,7.5c-4.1,3.3-12,3.1-15-2.6c-2.1-3.9-1.9-8,0.5-11.8c2.2-3.5,5.7-4.5,9.6-4.1
		C103.4,58.2,106.5,62.1,106.5,68.6z M100.3,68.3c0-2-0.3-3.3-0.9-4.4c-0.6-1.1-1.4-1.8-2.7-1.9c-1.4-0.1-2.5,0.5-3.1,1.7
		c-1.4,2.7-1.4,5.5,0,8.3c0.6,1.2,1.6,1.8,3,1.8c1.4,0,2.2-0.8,2.8-1.9C100.2,70.6,100.3,69.2,100.3,68.3z"/>
	<path d="M126.8,78.2c-2,0-3.9,0-5.9,0c0-0.3,0-0.5,0-0.8c0-3.3,0-6.7,0-10c0-0.8-0.1-1.7-0.4-2.5c-0.7-2-3-2.5-4.6-1.1
		c-0.9,0.8-1.2,1.8-1.2,3c0,3.5,0,7.1,0,10.6c0,0.3,0,0.5,0,0.8c-2,0-3.9,0-6,0c0-6.5,0-13.1,0-19.7c1.6,0,3.3,0,5,0
		c0.1,0.8,0.2,1.7,0.3,2.6c0.2-0.2,0.3-0.2,0.4-0.4c1.9-2.4,4.4-3.2,7.3-2.5c2.9,0.6,4.3,2.7,4.8,5.4c0.2,0.9,0.3,1.9,0.3,2.9
		c0,3.6,0,7.2,0,10.8C126.8,77.6,126.8,77.9,126.8,78.2z"/>
	<path d="M173.1,64.6c0.1-1.6-0.8-2.5-2.4-2.7c-2-0.2-3.8,0.2-5.6,1.1c-0.2,0.1-0.4,0.2-0.7,0.3c-0.4-1.3-0.7-2.6-1.1-4.1
		c1.2-0.4,2.4-0.9,3.5-1.2c2-0.5,3.9-0.6,5.9-0.3c3.4,0.5,5.7,2.9,6.1,6.4c0.1,1.1,0.1,2.3,0.2,3.5c0,3.4,0.1,6.8,0.1,10.2
		c-1.6,0-3.3,0-5.1,0c-0.1-0.6-0.2-1.2-0.4-2c-0.2,0.2-0.4,0.4-0.6,0.6c-2.2,2.1-6.2,2.4-8.6,0.7c-3.4-2.5-3.2-8.1,0.5-10.5
		c2.1-1.4,4.4-1.8,6.9-1.9C172.2,64.6,172.6,64.6,173.1,64.6z M173.3,68.5c-0.6,0-1.1,0-1.6,0.1c-0.5,0.1-1,0.1-1.5,0.3
		c-0.5,0.2-1.1,0.5-1.5,0.8c-1.3,1.2-1,3.5,0.6,4c1.7,0.6,3.8-0.7,4-2.4C173.3,70.4,173.3,69.5,173.3,68.5z"/>
	<path d="M134.8,69.9c0.1,1.5,0.9,2.4,2,3c1.6,0.9,3.4,0.8,5.2,0.6c1.1-0.1,2.2-0.4,3.4-0.6c0.2,1.2,0.5,2.5,0.7,3.8
		c0,0.1-0.2,0.4-0.3,0.4c-3.9,1.3-7.8,1.8-11.7,0.1c-2.6-1.2-4.1-3.3-4.7-6c-0.8-3.9-0.2-7.4,2.4-10.5c3.2-3.9,10.9-4.3,13.8,0.7
		c1.3,2.2,1.7,4.6,1.5,7.2c-0.1,1.5-0.1,1.5-1.6,1.5c-3.3,0-6.5,0-9.8,0C135.5,69.9,135.2,69.9,134.8,69.9z M141.6,65.6
		c0.1-2.3-1.2-3.9-3.2-3.9c-1.9,0-3.7,1.9-3.5,3.9C137.1,65.6,139.3,65.6,141.6,65.6z"/>
	<path d="M212.8,69.9c-4.2,0-8.3,0-12.4,0c0,1.2,0.6,2.2,1.5,2.7c0.9,0.5,2,0.9,3,1c1.8,0.2,3.6-0.1,5.3-0.6
		c0.2-0.1,0.4-0.1,0.6-0.2c0.3,1.4,0.5,2.8,0.8,4.1c-2.1,0.9-4.2,1.3-6.4,1.2c-1.5,0-3-0.2-4.4-0.6c-3-0.9-5-3-5.8-6.1
		c-1-3.8-0.5-7.4,1.9-10.5c3-4,9.5-4.5,12.9-1.2c1.9,1.9,2.6,4.3,2.8,6.9C212.8,67.7,212.8,68.8,212.8,69.9z M207.2,65.6
		c0-2.3-1.2-3.8-3-3.9c-2.1-0.1-3.6,1.5-3.8,3.9C202.6,65.6,204.9,65.6,207.2,65.6z"/>
	<path d="M160.2,61.8c-1.4,0-2.7,0-4.1,0c-0.1,0.1-0.1,0.2-0.1,0.3c0,2.8,0,5.5,0,8.3c0,0.4,0.1,0.9,0.3,1.3
		c0.3,0.7,0.8,1.1,1.6,1.1c0.6,0,1.3,0,2,0c0,0.1,0.1,0.4,0.1,0.6c0,1.2,0,2.5,0,3.7c0,0.2-0.2,0.6-0.3,0.6
		c-2.1,0.5-4.2,0.8-6.2-0.1c-2.3-1-3.1-3-3.2-5.2c-0.2-3.2-0.1-6.5-0.1-9.7c0-0.3,0-0.6,0-0.9c-0.9,0-1.7,0-2.5,0c0-1.6,0-3.2,0-4.8
		c0.8,0,1.6,0,2.5,0c0-1.1,0-2.2,0-3.2c0-0.5,0.1-0.7,0.6-0.8c1.7-0.5,3.4-1,5.2-1.6c0,1.9,0,3.7,0,5.6c1.5,0,2.8,0,4.2,0
		C160.2,58.6,160.2,60.1,160.2,61.8z"/>
	<path d="M188.7,51.5c0,1.9,0,3.6,0,5.5c1.4,0,2.8,0,4.2,0c0,1.6,0,3.2,0,4.8c-1.4,0-2.7,0-4.1,0c0,0.3,0,0.5,0,0.7
		c0,2.4,0,4.8,0,7.2c0,2.6,0.9,3.4,3.5,3.1c0.1,0,0.3,0,0.5-0.1c0,0.4,0,0.7,0,1c0,1.1,0,2.2,0,3.3c0,0.5-0.1,0.8-0.6,0.8
		c-1.3,0.1-2.6,0.4-3.9,0.3c-2.9-0.2-4.7-2-5.2-4.9c-0.1-0.9-0.2-1.8-0.2-2.7c0-2.6,0-5.2,0-7.7c0-0.3,0-0.6,0-1c-0.9,0-1.7,0-2.5,0
		c0-1.7,0-3.2,0-4.8c0.8,0,1.6,0,2.5,0c0-1.1,0-2.2,0-3.3c0-0.2,0.2-0.6,0.4-0.7c1.7-0.5,3.4-1,5-1.5
		C188.4,51.5,188.5,51.5,188.7,51.5z"/>
	<g>
		<path d="M217.5,56.4c0,1.7-1.3,3-3,3c-1.7,0-3-1.3-3-3c0-1.6,1.3-2.9,3-2.9C216.2,53.5,217.5,54.8,217.5,56.4z M212.2,56.4
			c0,1.3,1,2.4,2.3,2.4c1.3,0,2.2-1,2.2-2.3c0-1.3-1-2.4-2.3-2.4C213.2,54.1,212.2,55.1,212.2,56.4z M214,58h-0.7V55
			c0.3-0.1,0.6-0.1,1.1-0.1c0.6,0,0.8,0.1,1,0.2c0.2,0.1,0.3,0.4,0.3,0.6c0,0.3-0.3,0.6-0.6,0.7v0c0.3,0.1,0.4,0.3,0.5,0.7
			c0.1,0.4,0.1,0.6,0.2,0.7h-0.7c-0.1-0.1-0.1-0.4-0.2-0.7c-0.1-0.3-0.2-0.5-0.6-0.5H214V58z M214,56.3h0.3c0.4,0,0.7-0.1,0.7-0.4
			c0-0.3-0.2-0.4-0.6-0.4c-0.2,0-0.3,0-0.4,0V56.3z"/>
	</g>
</g>
</svg>
