<?xml version="1.0" encoding="utf-8"?>
<!-- Generator: Adobe Illustrator 21.0.2, SVG Export Plug-In . SVG Version: 6.00 Build 0)  -->
<svg version="1.1" id="Layer_1" xmlns="http://www.w3.org/2000/svg" xmlns:xlink="http://www.w3.org/1999/xlink" x="0px" y="0px"
	 viewBox="0 0 225 126.5" style="enable-background:new 0 0 225 126.5;" xml:space="preserve">
<g>
	<path d="M12.7,57.2c0,0,0.2-1.6,1.9-1.6s1.8,1.6,1.8,1.6s2.3-1.6,6-1.6c3.8,0,7,3.8,7,3.8s2.3-3.8,7.7-3.8c6.8,0,8.4,7.2,8.4,7.2
		v13.8c0,0,0.3,1.5-1.5,1.5s-1.9-1.5-1.9-1.5l0-12.8c0,0-0.5-4.7-5.1-4.7c-4.6,0-5.7,4.7-5.7,4.7v12.8c0,0,0.2,1.5-1.7,1.5
		s-1.9-1.5-1.9-1.5V63.7c0,0-0.9-4.4-5.4-4.4c-4.5,0-5.9,4.4-5.9,4.4l0,12.8c0,0,0.2,1.5-1.7,1.5s-1.9-1.5-1.9-1.5L12.7,57.2z"/>
	<path d="M71.7,56.4l0-6.4c0,0,0.5-1.4,1.9-1.4c1.4,0,1.6,1.5,1.6,1.5v6.2l3.8,0c0,0,1.2,0.1,1.2,1.7c0,1.7-1.2,1.7-1.2,1.7h-3.9
		v11.4c0,0,0.9,3.1,4.2,3.9c1,0.8,1.1,1,0.7,2.3c-0.5,1.2-2,0.9-2,0.9s-5.4-1-6.3-6.2c0-5.5,0-12.2,0-12.2h-2.8c0,0-1.2-0.2-1.2-1.6
		c0-1.4,1.2-1.8,1.2-1.8L71.7,56.4z"/>
	<path d="M81.8,49.7c0,0,0.4-1.4,1.8-1.4c1.4,0,1.7,1.3,1.7,1.3v7.9c0,0,2.7-1.9,6.3-1.9c4.1,0,9.1,4.1,9.1,7.3c0,3.2,0,13.7,0,13.7
		s0.1,1.5-1.7,1.5c-1.8,0-1.7-1.5-1.7-1.5V63.7c0,0-1-4.7-5.9-4.7c-4.8,0-6.2,4.7-6.2,4.7v12.8c0,0,0.2,1.5-1.7,1.5
		c-1.9,0-1.8-1.5-1.8-1.5V49.7z"/>
	<path d="M113.3,55.6c12.4,0.8,11.5,12.2,11.3,13c-0.9,0-18.5,0-18.5,0s1.5,6,7.2,6c4.6,0,6-2.7,6-2.7s1.4-1.1,2.4,0.1
		c1,1.2,0.2,2.5,0.2,2.5s-3.2,3.7-8.6,3.7c-5.5,0-11-4.7-11-11C102.3,60.7,107.3,55.6,113.3,55.6z M106.1,65.1H121
		c0,0-1-5.8-7.5-5.8C107,59.3,106.1,65.1,106.1,65.1z"/>
	<path d="M125.7,57.2c0,0,0.1-1.6,1.9-1.6c1.7,0,1.7,1.6,1.7,1.6s1.8-1.4,4-1.6c1.4-0.2,1.8,0.7,2,1.2c0.2,0.6,0,1.6-1,2
		c-1,0.4-3.4,0.2-4.9,4.9c0,4.9,0,12.8,0,12.8s-0.5,1.5-1.8,1.5c-1.3,0-1.8-1.5-1.8-1.5V57.2z"/>
	<path d="M154.3,59.5c0,0,0.8,1.6-0.2,2.3c-1,0.8-2.2,0.1-2.2,0.1s-2.2-2.8-5.9-2.8s-7.5,2.9-7.5,7.6c0,5.5,4.7,7.8,7.5,7.8
		s4.8-1.5,5.7-2.5c1-1,2-0.2,2.4,0.2c0.4,0.4,0.6,1.5,0,2c-0.6,0.5-2.1,3.8-8.1,3.8c-6.1,0-11.1-4.7-11.1-11.1
		c0-6.4,5.3-11.3,11.1-11.3C151.8,55.6,154.3,59.5,154.3,59.5z"/>
	<path d="M50.3,66.9c0-4.2,3.4-7.7,7.7-7.7s7.7,3.4,7.7,7.7s-3.4,7.7-7.7,7.7S50.3,71.1,50.3,66.9z M58,78.1c6.2,0,11.2-5,11.2-11.2
		s-5-11.2-11.2-11.2s-11.2,5-11.2,11.2S51.8,78.1,58,78.1z"/>
	<path d="M159.6,66.8c0-4.2,3.4-7.7,7.7-7.7c4.2,0,7.7,3.4,7.7,7.7c0,4.2-3.4,7.7-7.7,7.7C163,74.5,159.6,71.1,159.6,66.8z
		 M175,76.7c0,0,0.5,1.5,1.8,1.5s1.8-1.5,1.8-1.5V57.3c0,0,0-1.6-1.7-1.6c-1.7,0-1.9,1.6-1.9,1.6l0,1.4c-2-1.9-4.7-3.1-7.7-3.1
		c-6.2,0-11.2,5-11.2,11.2s5,11.2,11.2,11.2c3,0,5.7-1.2,7.7-3L175,76.7z"/>
	<path d="M181.4,57.2c0,0,0.1-1.6,1.9-1.6c1.7,0,1.7,1.6,1.7,1.6s1.8-1.4,4-1.6c1.4-0.2,1.8,0.7,2,1.2c0.2,0.6,0,1.6-1,2
		c-1,0.4-3.4,0.2-4.9,4.9c0,4.9,0,12.8,0,12.8s-0.5,1.5-1.8,1.5s-1.8-1.5-1.8-1.5V57.2z"/>
	<path d="M200.9,55.7c12.4,0.8,11.5,12.2,11.3,13c-0.9,0-18.5,0-18.5,0s1.5,6,7.2,6c4.6,0,6-2.7,6-2.7s1.4-1.1,2.4,0.1
		c1,1.2,0.2,2.5,0.2,2.5s-3.2,3.7-8.6,3.7c-5.5,0-11-4.7-11-11C189.9,60.8,194.9,55.7,200.9,55.7z M193.7,65.2h14.9
		c0,0-1-5.8-7.5-5.8C194.6,59.4,193.7,65.2,193.7,65.2z"/>
</g>
</svg>
