<?xml version="1.0" encoding="utf-8"?>
<!-- Generator: Adobe Illustrator 21.0.2, SVG Export Plug-In . SVG Version: 6.00 Build 0)  -->
<svg version="1.1" id="Layer_1" xmlns="http://www.w3.org/2000/svg" xmlns:xlink="http://www.w3.org/1999/xlink" x="0px" y="0px"
	 viewBox="0 0 225 126.5" style="enable-background:new 0 0 225 126.5;" xml:space="preserve">
<g>
	<path d="M182.5,45.8c-9.6,0-17.5,7.9-17.5,17.5c0,9.6,7.8,17.5,17.5,17.5c9.7,0,17.5-7.9,17.5-17.5C200,53.6,192.1,45.8,182.5,45.8
		 M182.5,71.9c-4.8,0-8.7-3.9-8.7-8.7c0-4.8,3.9-8.7,8.7-8.7c4.8,0,8.7,3.9,8.7,8.7C191.1,68,187.2,71.9,182.5,71.9 M115.7,47.1
		v19.2c0,8.9-4.4,13.2-13.5,13.2c-9.1,0-13.5-4.3-13.5-13.2V47.1h9V67c0,1.7,0,5.7,4.5,5.7c4.4,0,4.4-3.9,4.4-5.7V47.1H115.7z
		 M128.1,73c1-0.2,1.8-0.8,2.3-1.7c0.5-0.8,0.5-1.7,0.2-2.6c-0.6-1.4-2.2-2.7-4.4-3.4c-3.6-1.1-5.3-2.9-6.3-4.1
		c-1-1.2-3-6.3,0.2-10.6c3.2-4.4,7.6-4.4,11.5-3.8c3.3,0.5,5.8,2.3,6.8,3c-0.5,0.7-3.2,4.2-3.7,4.8c-0.6-0.3-1.6-0.9-2.6-1.3
		c-1.3-0.5-3.3-0.5-4.5,0.2c-0.6,0.4-0.9,1-1,1.7c-0.1,2.1,1.8,2.8,4,3.5c1.1,0.4,2.3,0.8,3.6,1.4c3.7,1.9,5.3,4.7,5.3,9.5
		c0,4.9-4.1,10.1-11.7,10.1c-6.7,0-10.3-3.8-11.2-4.9c0.4-0.5,3.4-4.3,3.9-5.1c0.5,0.4,1.3,1.1,2.7,2
		C124.8,72.9,126.6,73.4,128.1,73 M164.8,47.1h-24.6v7.7h7.9v24.3h8.8V54.8h7.9V47.1z M75.5,47.1h10v32h-8.8V59.5L60.8,79.1l-8.4,0
		V59.2L36.3,79.1H25l26-32h10.2v17.7L75.5,47.1z"/>
</g>
</svg>
