<?xml version="1.0" encoding="utf-8"?>
<!-- Generator: Adobe Illustrator 21.0.2, SVG Export Plug-In . SVG Version: 6.00 Build 0)  -->
<svg version="1.1" id="Layer_1" xmlns="http://www.w3.org/2000/svg" xmlns:xlink="http://www.w3.org/1999/xlink" x="0px" y="0px"
	 viewBox="0 0 198.4 48.4" style="enable-background:new 0 0 198.4 48.4;" xml:space="preserve">
<style type="text/css">
	.st0{fill:#23224A;}
	.st1{fill:#CA0086;}
</style>
<g>
	<path class="st0" d="M79.3,14.5c3.3,0,6.4,0.9,9.2,2.3c1.1,0.5,1,1,0.4,1.8c-0.9,1.3-1.7,2.7-2.6,4c-0.4,0.6-0.8,0.8-1.5,0.3
		c-2-1.2-4.3-2-6.7-1.3c-0.9,0.3-1.8,0.5-2,1.7c-0.2,1.3,0.8,1.7,1.6,2c2.2,0.9,4.4,1.5,6.6,2.5c2.6,1.1,4.7,2.7,5.7,5.4
		c1.7,4.8-1.2,9.9-6.7,11.5C77.5,46.5,72.1,45.1,67,42c-0.5-0.3-0.8-0.5-0.3-1.2c1-1.3,1.9-2.7,2.8-4.1c0.5-0.9,0.9-1.1,1.8-0.3
		c2.5,1.7,5.3,2.5,8.3,2c1.2-0.2,2.4-0.6,2.6-1.9c0.2-1.4-0.9-2-1.8-2.5c-2-0.9-4.2-1.5-6.2-2.4c-2.9-1.3-5.4-2.8-6.1-6.4
		c-0.8-3.1,1.2-6.9,3.7-8.6C74.1,15.2,76.7,14.4,79.3,14.5z"/>
	<path class="st1" d="M192.1,0.1c-10.8,0-21.5,0-32.2,0c-4.8,0-8.8,3.7-9.5,8.7c-0.5,4.1,2.4,8.7,6.8,10c2.8,0.8,5.7,0.2,8.9,0.4
		c-3.7,3.7-7.2,7.1-10.7,10.7c-2.7,2.8-2.8,6.2-0.1,9.2c1.3,1.3,2.6,2.6,3.9,3.9c3.4,3.4,6.7,3.4,10.2,0c3.2-3.2,6.5-6.5,9.8-9.8
		c0.2,2.7-0.2,5.3,0.3,7.9c1.1,4.6,5.2,7.8,9.7,7.4c5.4-0.4,9-4.3,9-9.2c0-10.9,0-21.9,0-32.7C198.4,2.8,195.7,0.1,192.1,0.1z
		 M189,44c-3,0-5.3-2.3-5.4-5.6c0-5,0-9.9,0-14.9c0-0.2,0-0.4,0-1c-5.9,5.9-11.6,11.6-17.2,17.2c-1.6,1.6-2.4,1.6-4,0
		c-1.3-1.3-2.5-2.5-3.8-3.8c-1.3-1.3-1.3-2,0-3.3c5.6-5.7,11.3-11.3,17-17c0.2-0.2,0.5-0.3,0.4-1c-2.4,0-4.6,0-7,0c-3,0-6.1,0-9.2,0
		c-3,0-5.3-2.3-5.4-5.2c0-2.8,2.3-5.2,5.2-5.3c4.8-0.1,9.8,0,14.6,0c5.7,0,11.5,0,17.2,0c2,0,2.6,0.4,2.6,2.6c0,10.4,0,21,0,31.4
		C194.2,41.7,192,44,189,44z"/>
	<path class="st0" d="M65.2,30c0.3-8.2-6.8-15.5-15.8-15.5c-8.7,0-16,6.5-16,15.5s7,15.2,15.3,15.6C58.3,46,65.6,38.2,65.2,30z
		 M49.3,38c-4.8,0-7.9-3.8-7.5-8.1c-0.1-4.3,3.1-8,7.6-7.9c4.6,0,7.9,3.3,7.8,8.1C57,35.2,53.7,38,49.3,38z"/>
	<path class="st0" d="M129.9,14.5C121.1,14.3,114,21.2,114,30s7.1,15.2,15.4,15.5c9.9,0.3,16.4-7.5,16.6-15
		C146.2,21.8,138.8,14.2,129.9,14.5z M129.9,38c-4.5,0-7.5-3.2-7.6-7.9c-0.1-4.8,3.2-8,7.6-8.2c4.4,0.3,7.8,2.9,7.8,8
		C137.7,35,134.7,38,129.9,38z"/>
	<path class="st0" d="M29.9,43.8c0-1.8,0-3.7,0-5.5v-7.5c0-0.1,0-0.2,0-0.3c0,0-0.2-4.4-0.4-5.6c-1.1-5.6-6.4-10-12-10.3
		c-3.2-0.1-6.1,0.5-9,2.5v-1.8H7.1c-0.2,0-0.4,0-0.8,0c-0.1,0-0.2,0-0.4,0H0v29.7h8.4c0,0,0-5.6,0-7.8V31c0-1.4,0-2.9,0-4.3
		c0-0.1,0-0.2,0-0.3v-0.3c0-0.3,0.1-0.5,0.3-0.9c1.9-2.7,7.1-3.9,10-2.4c2.3,1.2,2.9,3.3,2.9,5.7c0,1.4,0,2.7,0,4.1
		c0,0,0,11.4,0,11.6v0.9h8.2v-0.9C29.9,43.9,29.9,43.9,29.9,43.8z"/>
	<path class="st0" d="M103.5,22h9.5v-6.9h-9.8c-0.1-0.1,0-0.3,0-0.6v-1.6c0-1.6,0-3.2,0-5c0-0.1,0-0.2,0-0.2V6.8H95
		c0,0,0.1,27.9,0.2,28.5c0.2,3.8,1.8,6.8,5.4,8.6c3,1.6,6.2,1.8,9.5,1.4l0,0h0.1c0.1,0,0.2,0,0.3,0c0.8-0.1,2.3-0.5,2.3-0.5
		l-1.3-6.9l-2.9,0.2c-3.4,0.3-5.3-1.4-5.3-4.8c0-2.7,0-5.5,0-8.2v-2.5C103.3,22.3,103.2,22.1,103.5,22z"/>
</g>
</svg>
