<?xml version="1.0" encoding="utf-8"?>
<!-- Generator: Adobe Illustrator 21.0.2, SVG Export Plug-In . SVG Version: 6.00 Build 0)  -->
<svg version="1.1" id="Layer_1" xmlns="http://www.w3.org/2000/svg" xmlns:xlink="http://www.w3.org/1999/xlink" x="0px" y="0px"
	 viewBox="0 0 225 126.5" style="enable-background:new 0 0 225 126.5;" xml:space="preserve">
<g>
	<g>
		<path d="M187.6,43.4V37h4.9c2.5,0,4,1.1,4,3.2c0,2-1.5,3.2-4,3.2H187.6z M195.3,45.8c2.7-0.7,4.6-2.7,4.6-5.8
			c0-3.8-2.7-6.1-7.1-6.1h-8.6v19.2h3.4v-6.7h4.2l4.9,7h0l3.3-0.9L195.3,45.8z"/>
		<path d="M60.1,43.4V37H65c2.5,0,4,1.1,4,3.2c0,2-1.5,3.2-4,3.2H60.1z M67.8,45.8c2.7-0.7,4.6-2.7,4.6-5.8c0-3.8-2.7-6.1-7.1-6.1
			h-8.6v19.2h3.4v-6.7h4.2l4.9,7h0.1l3.2-0.9L67.8,45.8z"/>
		<polygon points="87.2,33.4 83.8,34.3 83.8,53.1 96.4,53.1 97.3,50.1 97.3,50 87.2,50 		"/>
		<path d="M165.6,39.7l2.8,5.8h-5.6L165.6,39.7z M165.2,33.6l-9.3,18.9l3.1,0.8l2.3-4.7h8.6l2.3,4.8l3.2-0.8L166,33.6H165.2z"/>
		<path d="M35.1,50.3c-3.8,0-6.5-3.1-6.5-6.9c0-3.8,2.7-6.8,6.5-6.8c3.8,0,6.5,3.1,6.5,6.9C41.6,47.3,38.9,50.3,35.1,50.3
			 M35.1,33.6c-5.9,0-10.1,4.5-10.1,10c0,5.4,4.1,9.9,10,9.9c5.9,0,10.1-4.5,10.1-10C45.1,38,41,33.6,35.1,33.6"/>
		<polygon points="106,33.9 106,53.1 120.7,53.1 120.7,53 120,50.1 109.3,50.1 109.3,44.9 119.4,44.9 119.4,41.9 109.3,41.9 
			109.3,36.9 119.4,36.9 120.2,33.9 120.2,33.9 		"/>
		<path d="M141.6,50.1H136v-5.3h5.4c2.7,0,4,1,4,2.6C145.3,49.2,143.9,50.1,141.6,50.1 M136,36.9h4.9c2.2,0,3.4,0.9,3.4,2.5
			c0,1.8-1.5,2.6-3.6,2.6H136V36.9z M144.9,43.1c1.4-0.7,2.7-1.9,2.7-4.3c0-3-2.4-4.9-6.3-4.9h-8.6v19.2h8.9c4.3,0,7.1-1.8,7.1-5.3
			C148.7,45.2,147.1,43.9,144.9,43.1"/>
	</g>
	<g>
		<polygon points="162.2,73.2 162.2,92.7 165.5,91.8 165.5,80.3 178.2,93 178.9,93 178.9,73.5 178.8,73.5 175.6,74.4 175.6,85.7 
			163,73.2 		"/>
		<path d="M77.4,83.1v-6.5h4.9c2.5,0,4,1.1,4,3.2c0,2-1.5,3.2-4,3.2H77.4z M85.1,85.5c2.7-0.7,4.6-2.7,4.6-5.8
			c0-3.8-2.7-6.1-7.1-6.1H74v19.2h3.4V86h4.2l4.9,7h0.1l3.2-0.9L85.1,85.5z"/>
		<path d="M55,89.8h-5.6v-5.3h5.4c2.7,0,4,1,4,2.6C58.7,88.8,57.3,89.8,55,89.8 M49.4,76.5h4.9c2.2,0,3.4,0.9,3.4,2.5
			c0,1.8-1.5,2.6-3.6,2.6h-4.6V76.5z M58.3,82.8c1.4-0.7,2.7-1.9,2.7-4.3c0-3-2.4-4.9-6.3-4.9h-8.6v19.2H55c4.3,0,7.1-1.8,7.1-5.3
			C62.1,84.8,60.5,83.5,58.3,82.8"/>
		<path d="M109.6,90c-3.8,0-6.5-3.1-6.5-6.9c0-3.8,2.7-6.8,6.5-6.8c3.8,0,6.5,3.1,6.5,6.9C116.1,86.9,113.4,90,109.6,90 M109.6,73.2
			c-5.9,0-10.1,4.5-10.1,10c0,5.4,4.1,9.9,10,9.9c5.9,0,10.1-4.5,10.1-10C119.6,77.7,115.5,73.2,109.6,73.2"/>
		<polygon points="139.2,73.2 134.5,84.7 130.6,73.5 130.5,73.5 127.3,74.4 134,93.1 134.8,93.1 139.6,80.5 144.4,93.1 145.2,93.1 
			151.9,74.4 148.7,73.5 148.7,73.5 144.7,84.7 140,73.2 		"/>
	</g>
</g>
</svg>
