<svg version="1.1" id="Layer_1" xmlns="http://www.w3.org/2000/svg" xmlns:xlink="http://www.w3.org/1999/xlink" x="0px" y="0px"
	 viewBox="0 0 225 126.5" style="enable-background:new 0 0 225 126.5;" xml:space="preserve">
<g>
	<path d="M131.8,46h3l2.3,10.3l2.5-10.3c0.5,0,2.5,0,2.5,0l2.8,10.3l2.5-10.3h2.8l-3.9,15.2h-2.5L141,51.1l-2.8,10.1h-2.8L131.8,46z
		"/>
	<path d="M166,63.9h3l2.3,10.3l2.5-10.3c0.5,0,2.5,0,2.5,0l2.8,10.3l2.5-10.3h2.8l-3.9,15.2H178L175.2,69l-2.8,10.1h-2.8L166,63.9z"
		/>
	<path d="M163,48.5V46c0,0-8.6,0.1-8.8,0.1c-1.3,0-1.8,0.5-1.8,1.9c0,2,0,4.1,0,6.1c0,1.5,0,7.1,0,7.1H163v-2.5h-7.8v-3.9
		c2.1,0,4.2,0,5.5,0c0.9,0,1.3-0.2,1.3-1.2c0,0,0-0.2,0-0.9V52h-6.9v-3.4H163z"/>
	<path d="M130.6,52c0-3.5-1.7-5.6-5.1-6.1c-3.4-0.6-7.1,1.6-7.1,5.3c0,1.7-0.1,3.4,0,5.1c0.1,1.1,0.3,2,0.9,2.9
		c1.6,2,4.8,2.8,7.4,1.9c2.5-0.9,3.9-2.8,3.9-5.6c0-0.6,0-1.2,0-1.8C130.6,53.1,130.6,52.5,130.6,52z M127.7,56.2
		c-0.1,1.7-1.3,2.7-3.2,2.7c-1.9,0-3.2-1.1-3.2-2.7c0-0.9,0-1.8,0-2.6c0-0.8,0-1.7,0-2.5c0.1-1.6,1.3-2.7,3.2-2.7
		c1.8,0,3.2,1.1,3.3,2.7C127.7,52.7,127.7,54.5,127.7,56.2z"/>
	<path d="M113.6,73.1c0,0,0.7-0.2,1.1-0.6c1.5-1.1,2.2-2.9,1.8-4.7c-0.4-2.1-1.8-3.4-4-3.7c-1.6-0.2-3-0.1-4.9-0.1
		c-1.8,0-2.1,0.3-2.2,2.1c0,3.7,0,12.7,0,13h2.9c0-0.1,0-5.7,0-5.7h2.3l0.9,1.4c0.4,0.7,0.9,1.4,1.3,2.2l1.2,1.9
		c0.1,0.1,0.1,0.2,0.2,0.3h3.1c0,0,0,0,0,0L113.6,73.1z M111.8,71.1c-0.4,0-0.8,0-1.1,0c-0.6,0-0.7,0-1.4,0h-0.9v-4.6h1
		c1,0,0.7,0,1.3,0c2,0,2.7,0.4,3.1,1.6C114.2,69.5,113.3,70.9,111.8,71.1z"/>
	<path d="M173.6,55.2c0,0,0.7-0.2,1.1-0.6c1.5-1.1,2.2-2.9,1.8-4.7c-0.4-2.1-1.8-3.4-4-3.7c-1.6-0.2-3-0.1-4.9-0.1
		c-1.8,0-2.1,0.3-2.2,2.1c0,3.7,0,12.7,0,13h2.9c0-0.1,0-5.7,0-5.7h2.3l0.9,1.4c0.4,0.7,0.9,1.4,1.3,2.2l1.2,1.9
		c0.1,0.1,0.1,0.2,0.2,0.3h3.1c0,0,0,0,0,0L173.6,55.2z M171.8,53.1c-0.4,0-0.8,0-1.1,0c-0.6,0-0.7,0-1.4,0h-0.9v-4.6h1
		c1,0,0.7,0,1.3,0c2,0,2.7,0.4,3.1,1.6C174.1,51.6,173.3,52.9,171.8,53.1z"/>
	<path d="M113.6,55.2c0.3-0.1,0.7-0.2,1.1-0.6c1.5-1.1,2.2-2.9,1.8-4.7c-0.4-2.1-1.8-3.4-4-3.7c-1.6-0.2-3-0.1-4.9-0.1
		c-1.8,0-2.1,0.3-2.2,2.1c0,3.7,0,12.7,0,13h2.9c0-0.1,0-0.1,0-0.2c0-4,0-5.6,0-5.6s1.7,0,2.3,0C112.5,55.4,112.9,55.4,113.6,55.2z
		 M111.8,53.1c-0.4,0-0.8,0-1.1,0c-0.6,0-0.5,0-1.4,0h-0.9v-4.6h1c0.6,0,0.9,0,1.5,0c2,0,2.5,0.4,2.9,1.6
		C114.2,51.6,113.3,52.9,111.8,53.1z"/>
	<path d="M129.7,66.5v-2.5c0,0-8.6,0.1-8.8,0.1c-1.3,0-1.8,0.5-1.8,1.9c0,2,0,4.1,0,6.1c0,1.5,0,7.1,0,7.1h10.6v-2.5h-7.8v-3.9
		c2.1,0,4.2,0,5.5,0c0.9,0,1.3-0.2,1.3-1.2c0,0,0-0.2,0-0.9v-0.7h-6.9v-3.4H129.7z"/>
	<path d="M164.2,66.5v-2.5c0,0-8.6,0.1-8.8,0.1c-1.3,0-1.8,0.5-1.8,1.9c0,2,0,4.1,0,6.1c0,1.5,0,7.1,0,7.1h10.6v-2.5h-7.8v-3.9
		c2.1,0,4.2,0,5.5,0c0.9,0,1.3-0.2,1.3-1.2c0,0,0-0.2,0-0.9v-0.7h-6.9v-3.4H164.2z"/>
	<path d="M132,63.9c0.2,0,3.2,0,3.2,0l3.2,10.9l3.4-10.9h3l-5.1,15.2h-2.8L132,63.9z"/>
	<path d="M149.5,63.9c-0.9,0-1.2,0.1-1.4,0.2c-0.7,0.4-0.7,1.2-0.7,1.8c0,0.4,0,1.4,0,1.4v11.8h3V63.9H149.5z"/>
	<path d="M193.5,70.8c-1.4-0.5-2.9-0.6-4.3-1.2c-0.7-0.3-1.2-0.8-1.1-1.6c0-0.8,0.6-1.4,1.3-1.7c1-0.4,2.1-0.1,3,0.2
		c0.7,0.3,1.5,1.3,1.6,1.4c0.6-0.3,1.5-0.8,2.2-1.2c-0.6-0.9-1.1-1.5-2.2-2.1c-2.8-1.6-6.4-1-8,1.3c-0.2,0.3-0.4,0.6-0.5,0.9
		c-0.9,2.3,0.1,4.5,2.5,5.3c1.3,0.4,2.7,0.7,4.1,1.1c0.8,0.3,1.5,0.9,1.4,1.9c-0.1,1-0.8,1.4-1.7,1.7c-1.7,0.5-3.1,0.1-4.2-1.1
		c-0.1-0.1-0.5-0.7-0.7-1l-2.6,1.2c0,0,0,0.1,0,0.1c0.1,0.2,0.7,1,0.8,1.1c1.3,1.7,3.2,2.2,5.2,2.3c0.5,0,0.9,0,1.3-0.1
		c2.1-0.3,3.8-1.2,4.5-3.4C196.9,73.7,195.8,71.6,193.5,70.8z"/>
	<path d="M65.2,46c-3.8-0.3-7.6-0.1-11.4-0.1c-2,0-3.1,1-3.2,2.9h0v27.6c0,0.8,0,1.6,0,2.4c0,0.1,0,0.2,0,0.3v0.7h0.9c0,0,0,0,0,0
		h3.4c0.1,0,0.1,0,0.2,0h0.6v-0.3v-4.3v-8.5v-0.3c0.3,0,0.7,0,1.3,0c2.8,0,5.7,0.2,8.5-0.2c5.5-0.7,8.9-4.8,8.9-10.4
		C74.3,50.5,70.5,46.5,65.2,46z M64.2,61.6c-2.5,0.1-6,0-8.5,0.1c0,0,0,0,0,0V50.5c0.1,0,0.1,0,0.2,0c2.4,0,7.1,0,8.4,0.1
		c3,0.2,5,2.5,5,5.5C69.2,59.2,67.2,61.5,64.2,61.6z"/>
	<path d="M68.7,79.8h6.4c-0.1-0.1-0.1-0.2-0.3-0.3c-2.4-3.5-4.8-7-7.2-10.5c-0.1-0.2-0.2-0.4-0.5-0.4c-1.8,0.5-3.8,0.3-5.8,0.4
		c2.5,3.6,4.8,7,7.1,10.4C68.5,79.6,68.6,79.7,68.7,79.8z"/>
	<path d="M78.7,35.3c-1.1,1.1-1.9,2.4-2.4,3.8c8.3,4.9,13.8,14,13.8,24.3c0,1.4-0.1,2.7-0.3,4c1.4,0.2,2.8,0.4,4.2,0.6
		c0.2-1.5,0.3-3.1,0.3-4.7C94.3,51.5,88.1,41.1,78.7,35.3z"/>
	<path d="M61.5,96.1C78,96.1,91.7,83.9,94,68c-1.5-0.3-3.1-0.6-4.2-0.7c-0.9,6.6-4.1,12.5-8.7,16.8c-2.3,2.2-4.9,3.9-7.8,5.2
		c-3.5,1.5-7.3,2.4-11.3,2.4c0,0,0,0,0,0c0,0-0.1,0-0.1,0c0,0,0,0,0,0c-0.1,0-0.2,0-0.4,0c0,0,0,0,0,0
		C61.4,93.1,61.4,94.6,61.5,96.1C61.4,96.1,61.4,96.1,61.5,96.1z"/>
	<path d="M61.5,30.4c-3.4,0-6.8,0.5-9.9,1.5c-0.1,1.7,0.5,3.2,1.4,4.6c2.8-0.9,5.7-1.4,8.8-1.4c5.3,0,10.3,1.5,14.6,4
		c0.8-1.3,1.6-2.6,2.4-3.8C73.7,32.2,67.8,30.4,61.5,30.4z"/>
	<path d="M36.4,42c1.1,0.9,2.7,2.1,3.8,3.1c3.3-3.9,7.7-6.9,12.7-8.6c0,0,0-0.1,0-0.1c-0.5-1.5-0.9-3-1.4-4.5
		C45.6,33.8,40.4,37.3,36.4,42z"/>
	<path d="M56.7,91.2c-1.4-0.2-2.8-0.6-4.2-1.1c-3.4-1.2-6.5-3-9.2-5.3C41.2,83,39.4,81,38,78.7c-3.1-4.6-4.5-9.8-4.5-15.5
		c0-5.8,1.6-10.9,4.8-15.5c0.6-0.9,1.3-1.8,2-2.6c0,0-0.1-0.1-0.1-0.1l-3.7-3c-4.9,5.7-7.9,13.2-7.9,21.3
		c0,18.1,14.7,32.9,32.9,32.9v-4.5C59.8,91.6,58.2,91.5,56.7,91.2z"/>
</g>
</svg>
