<?xml version="1.0" encoding="utf-8"?>
<!-- Generator: Adobe Illustrator 15.0.0, SVG Export Plug-In . SVG Version: 6.00 Build 0)  -->
<!DOCTYPE svg PUBLIC "-//W3C//DTD SVG 1.1//EN" "http://www.w3.org/Graphics/SVG/1.1/DTD/svg11.dtd">
<svg version="1.1" id="Layer_1" xmlns="http://www.w3.org/2000/svg" xmlns:xlink="http://www.w3.org/1999/xlink" x="0px" y="0px"
	 width="170.08px" height="141.73px" viewBox="0 0 170.08 141.73" enable-background="new 0 0 170.08 141.73" xml:space="preserve">
<g>
	<path d="M130.697,61.454h-15.27v-1.89h3.931h1.512v-1.512v-4.385v-1.512h-1.512h-15.346h-1.209h-1.512h-8.355L85.04,28.194
		l-8.025,25.222c-1.678-1.263-3.558-2.375-5.657-3.301l-2.116-0.982v2.344v9.978h-3.351c-2.515-4.978-6.763-8.998-12.373-11.414
		l-2.117-0.907V51.4v10.054H39.383l12.019,8.571v29.603v1.512h1.512h4.536h1.512v-1.512v-8.089c3.51-2.598,6.242-6.326,7.864-10.515
		l0.753,0.537L56.92,115.124l18.8-13.909h1.005v-0.743l1.969-1.457c1.923,1.138,4.271,1.891,7.026,2.276l1.739,0.227v-1.738v-3.391
		l0.604,0.435v2.427v1.512h1.512h3.967l19.77,14.211l-4.737-14.211h0.882h4.46h1.512V99.25V72.571L130.697,61.454z M104.013,59.564
		h3.932v1.89H96.001l-0.453-1.375v-0.515h5.744h1.209H104.013z M57.374,90.633v8.919h-4.46V51.4
		c9.071,3.931,13.984,11.868,13.984,20.863C66.898,79.445,63.345,86.626,57.374,90.633z M85.947,99.703
		c-4.46-0.604-8.769-2.419-10.734-6.803v6.651h-4.46V51.4c9.146,4.082,13.984,11.565,14.06,20.863
		c0.075,6.35-2.797,11.339-6.652,15.95c0.454,4.309,3.553,6.803,7.786,7.256V99.703z M89.651,53.668h11.717v4.385H94.11v27.515
		h7.258v4.46H94.11v4.687h7.258v4.46H89.651V53.668z M102.351,82.091l5.594-4.072v20.853L102.351,82.091z M113.916,99.25h-4.46
		V58.052h-5.442v-4.385h15.345v4.385h-5.442V99.25z"/>
	<path d="M75.213,59.791v25.021c3.326-3.931,5.064-7.332,5.064-12.473C80.278,67.35,78.615,63.495,75.213,59.791z"/>
	<path d="M57.449,59.942v24.794c3.326-3.931,5.064-7.257,4.989-12.397C62.363,67.426,60.775,63.57,57.449,59.942z M58.961,75.416
		l1.498,1.068c-0.313,1.236-0.795,2.421-1.498,3.641V75.416z"/>
</g>
</svg>
