<svg version="1.1" id="Layer_1" xmlns="http://www.w3.org/2000/svg" xmlns:xlink="http://www.w3.org/1999/xlink" x="0px" y="0px"
	 viewBox="0 0 225 126.5" style="enable-background:new 0 0 225 126.5;" xml:space="preserve">

<g>
	<path class="st0" d="M29.6,52.2c-0.8,1.8-0.5,3.2,0.7,3.2c1.2,0,2.9-1.4,3.8-3.1c0.8-1.8,0.5-3.2-0.7-3.2
		C32.2,49,30.5,50.5,29.6,52.2z M39.8,45.9C39.8,45.9,39.8,45.9,39.8,45.9C39.8,45.9,39.8,45.9,39.8,45.9c-0.7,2.1-2,4.5-3.2,6.4
		c-2.6,3.8-6.3,6.2-8.3,5.4c-2-0.9-1.5-4.6,1.1-8.5c0.6-0.9,1.2-1.6,1.9-2.3c0,0,0,0,0,0c0,0,0,0,0,0c0,0,0,0,0,0
		c-0.8,0.1-1.6,0.3-2.5,0.5c0,0,0,0,0,0c-8.7,10.7-12.4,24.6-11.9,37l0,0c0,0,0,0,0,0c0,0,0,0,0,0c-5.1-2.1-8.9-7-9.3-13.3l0-0.1
		c-0.6-11.2,8.3-22.6,19.9-25.6C32,44.1,36.2,44.4,39.8,45.9z"/>
	<path d="M36.5,76c-0.8,0.6-1.7,1.1-2.6,1.6c0,0,0,0,0,0c0,0,0,0,0,0c-0.2-2.7-0.7-5.3-1.7-7.5c-2.7-5.8-7.3-6.2-10.4-1
		c-1.9,3.2-2.7,7.8-2.5,12.2c0,0,0,0,0,0c3.3,1,7,1.1,11,0.1c11.6-3,20.5-14.4,19.9-25.6c-0.6-9.8-8.3-16.2-18.1-15.6c0,0,0,0,0,0
		c-0.9,1-1.8,1.9-2.7,2.9c0,0,0,0,0,0c0,0,0,0,0,0c0,0,0,0,0,0c5.7-0.7,10.3,0.4,13.3,2.8c0,0,0,0,0,0c0,0,0,0,0,0
		C32.4,60.7,33.6,69,36.5,76C36.5,76,36.5,76,36.5,76C36.5,76,36.5,76,36.5,76z"/>
	<path d="M132.6,59.4c2.4,0,4.2,0.5,5.1,1c0,0,0,0,0,0l-0.8,4.4c0,0,0,0,0,0c0,0,0,0,0,0c-1-0.5-2.7-1.1-4.5-1.1
		c-1.5,0-2.5,0.6-2.5,1.7c0,0.8,0.8,1.5,2.4,2.3c2.1,1.1,4.5,2.6,4.5,5.4c0,1.8-0.6,3.4-1.8,4.6c-1.6,1.6-4.2,2.5-7.4,2.4
		c-2.4,0-4.9-0.7-6.1-1.6c0,0,0,0,0,0l0.8-4.4c0,0,0,0,0,0c0,0,0,0,0,0c1.3,0.8,3.9,1.7,5.8,1.7c1.5,0,2.5-0.7,2.5-1.8
		c0-1-0.7-1.7-2.5-2.5c-2.8-1.4-4.2-3.2-4.2-5.3C123.9,62.2,127.4,59.4,132.6,59.4z"/>
	<path d="M68.1,59.4c0.4,0,0.8,0,1.1,0.1c0,0,0,0,0,0c0,0,0,0,0,0l-1.1,5.7c0,0,0,0,0,0c0,0,0,0,0,0c-0.2,0-0.5-0.1-0.9-0.1
		c-4,0-5.6,3.9-6.2,7.2L59.5,80c0,0,0,0,0,0h-5.9c0,0,0,0,0,0c0,0,0,0,0,0l3.8-20.1c0,0,0,0,0,0l5.1,0c0,0,0,0,0,0c0,0,0,0,0,0
		L62,63.3c0,0,0,0.1,0,0.1c0,0,0.1,0,0.1,0C63.6,60.8,65.7,59.4,68.1,59.4z"/>
	<path d="M75.9,65.1c-1.6,1.6-2.8,4.6-2.8,7c0,2.1,0.8,3.4,2.1,3.4c2.2,0,4-2.3,4.6-5.5c0.1-0.7,0.3-1.5,0.4-2.2
		c0.1-0.7,0.2-1.3,0.2-1.7c-0.1-1.4-0.8-2.2-2.1-2.2C77.5,63.9,76.6,64.3,75.9,65.1z M78.1,79.8C78.1,79.8,78.1,79.8,78.1,79.8
		l0.5-2.5c0,0,0-0.1,0-0.1c0,0-0.1,0-0.1,0c-1.1,1.8-3.2,3-5.6,3c-3.9,0-5.7-3.5-5.7-7c0-4,1.6-7.9,4.2-10.5c2.2-2.2,5-3.3,8.2-3.3
		c2.4,0,4.2,0.7,5.3,2.1c1.6,2,1.5,5,1.1,7.2l-2.1,11.1c0,0,0,0,0,0L78.1,79.8C78.1,79.8,78.1,79.8,78.1,79.8z"/>
	<path d="M146.5,75.7c3.1,0,5.4-4.4,5.4-8.3c0-0.9-0.2-3.2-2.4-3.2c-2.2,0-4.1,2.5-4.8,6.3C144.4,71.8,143.8,75.7,146.5,75.7z
		 M151.6,59.4c3.9,0,6.5,3,6.5,7.6c0,4.9-2.3,9.8-6.5,12.1c-3.8,2-7.2,1.1-8.3-0.5c0,0,0,0,0,0l-1.4,7.6c0,0,0,0,0,0h-5.9
		c0,0,0,0,0,0c0,0,0,0,0,0l5-26.4c0,0,0,0,0,0l5.2,0c0,0,0,0,0,0c0,0,0,0,0,0l-0.5,2.7c0,0,0,0.1,0,0.1c0,0,0.1,0,0.1,0l0,0
		C147.2,60.5,149.3,59.4,151.6,59.4z"/>
	<path d="M107.7,52.8h5.8c0,0,0,0,0,0c0,0,0,0,0,0l-3,16c0,0,0,0,0,0c0,0,0,0,0,0l7.8-9c0,0,0,0,0,0h6.4c0,0,0,0,0,0c0,0,0,0,0,0
		c0,0,0,0,0,0l-8.1,9.1l4.9,10.7c0,0,0,0,0,0c0,0,0,0,0,0c0,0,0,0,0,0h-6.3c0,0,0,0,0,0l-4.8-10.6c0,0,0,0,0,0c0,0,0,0,0,0l-2,10.6
		c0,0,0,0,0,0h-5.8c0,0,0,0,0,0c0,0,0,0,0,0L107.7,52.8C107.7,52.8,107.7,52.8,107.7,52.8z"/>
	<path d="M207.1,65.4c0-1-0.9-1.7-2.1-1.7c-2.5,0-4.1,2-4.6,4l0,0.1c0,0,0,0,0,0c0,0,0,0,0,0h0.1c3.4,0,5.4-0.3,6.2-1.2
		C207,66.3,207.1,65.9,207.1,65.4z M205.7,59.4c4.2,0,6.9,2.4,6.9,6c0,1.7-0.5,3-1.6,4.1c-2,1.9-5.6,2.8-11.2,2.6l-0.1,0
		c0,0,0,0,0,0c0,0,0,0,0,0l0,0.1c0,0.6,0.2,1.4,0.6,1.9c0.8,1,2.1,1.5,3.8,1.5c2.5,0,4.6-0.6,6.9-1.9c0,0,0,0,0,0c0,0,0,0,0,0
		l-0.9,4.9c0,0,0,0,0,0c-2.8,1.4-6.1,1.6-7.4,1.6c-5.5,0-8.7-3.1-8.7-8.4c0-3.1,1.1-6.2,3.1-8.5C199.4,60.8,202.4,59.4,205.7,59.4z"
		/>
	<path d="M212.7,77.7c-0.1,1.2,0.8,2.2,2,2.2c1.2,0,2.3-1,2.5-2.3c0.1-1.2-0.8-2.2-2-2.2C213.9,75.4,212.8,76.5,212.7,77.7z
		 M212.3,77.7c0.1-1.4,1.4-2.6,2.8-2.6s2.5,1.2,2.3,2.6c-0.1,1.4-1.4,2.6-2.8,2.6S212.2,79.1,212.3,77.7z M214.3,76.2
		C214.3,76.1,214.4,76.1,214.3,76.2l0.7,0l0,0c0.2,0,0.3,0,0.4,0c0.1,0,0.2,0,0.3,0.1c0.3,0.1,0.5,0.4,0.5,0.7c0,0.1,0,0.1,0,0.2
		c-0.1,0.4-0.3,0.7-0.8,0.9l0.4,1.2c0,0,0,0,0,0c0,0,0,0,0,0c0,0,0,0,0,0h-0.4c0,0,0,0,0,0l-0.4-1.2l-0.3,0h0h-0.3l-0.2,1.2
		c0,0,0,0,0,0h-0.3c0,0,0,0,0,0c0,0,0,0,0,0L214,78l0,0l0.2-0.9L214.3,76.2z M214.9,76.5h-0.3l-0.1,0.6l-0.1,0.6h0.3h0
		c0.1,0,0.2,0,0.3,0c0.1,0,0.1,0,0.2,0c0.3-0.1,0.5-0.3,0.5-0.5c0-0.2-0.1-0.4-0.3-0.5c-0.1,0-0.1,0-0.2,0
		C215.2,76.5,215.1,76.5,214.9,76.5L214.9,76.5z"/>
	<path d="M167.2,65.1c-1.6,1.6-2.8,4.6-2.8,7c0,2.1,0.8,3.4,2.1,3.4c2.2,0,4-2.3,4.6-5.5c0.1-0.7,0.3-1.5,0.4-2.2
		c0.1-0.7,0.2-1.3,0.2-1.7c-0.1-1.4-0.8-2.2-2.1-2.2C168.8,63.9,167.9,64.3,167.2,65.1z M169.4,79.8
		C169.4,79.8,169.4,79.8,169.4,79.8l0.5-2.5c0,0,0-0.1,0-0.1c0,0-0.1,0-0.1,0c-1.1,1.8-3.2,3-5.6,3c-3.9,0-5.7-3.5-5.7-7
		c0-4,1.6-7.9,4.2-10.5c2.2-2.2,5-3.3,8.2-3.3c2.4,0,4.2,0.7,5.3,2.1c1.6,2,1.5,5,1.1,7.2L175,79.8c0,0,0,0,0,0L169.4,79.8
		C169.4,79.8,169.4,79.8,169.4,79.8z"/>
	<path d="M191.1,59.4c1.5,0,3,0.3,4.1,0.7c0,0,0,0,0,0l-0.9,4.7c0,0,0,0,0,0c0,0,0,0,0,0c-0.9-0.5-2-0.8-3.2-0.8
		c-4.2,0-6.7,3.7-6.7,7.2c0,3,2,4.1,3.9,4.1c1.7,0,3.1-0.4,4.9-1.3c0,0,0,0,0,0c0,0,0,0,0,0l-0.9,4.9c0,0,0,0,0,0
		c-1.4,0.7-3.5,1.1-5.7,1.1c-5.1,0-8.4-3.2-8.4-8.2C178.1,64.9,183.7,59.4,191.1,59.4z"/>
	<path d="M99.8,59.4c1.5,0,3,0.3,4.1,0.7c0,0,0,0,0,0l-0.9,4.7c0,0,0,0,0,0c0,0,0,0,0,0c-0.9-0.5-2-0.8-3.2-0.8
		c-4.2,0-6.7,3.7-6.7,7.2c0,3,2,4.1,3.9,4.1c1.7,0,3.1-0.4,4.9-1.3c0,0,0,0,0,0c0,0,0,0,0,0l-0.9,4.9c0,0,0,0,0,0
		c-1.4,0.7-3.5,1.1-5.7,1.1c-5.1,0-8.4-3.2-8.4-8.2C86.8,64.9,92.4,59.4,99.8,59.4z"/>
</g>
</svg>
