<?xml version="1.0" encoding="utf-8"?>
<!-- Generator: Adobe Illustrator 21.0.2, SVG Export Plug-In . SVG Version: 6.00 Build 0)  -->
<svg version="1.1" id="Layer_1" xmlns="http://www.w3.org/2000/svg" xmlns:xlink="http://www.w3.org/1999/xlink" x="0px" y="0px"
	 viewBox="0 0 225 126.5" style="enable-background:new 0 0 225 126.5;" xml:space="preserve">
<g>
	<path d="M60.9,75.3c4,5.3,8.1,10.5,12.1,15.8c-16.4,0-32.7,0-49.1,0c0-18.6,0-37.1,0-55.7c0.1,0,0.3,0,0.5,0c7.9,0,15.8-0.1,23.7,0
		c6.1,0.1,11.7,2,16.3,6.1c3.7,3.4,5.9,7.7,6.5,12.7c0.6,5-0.2,9.7-2.9,14c-1.6,2.7-3.8,4.8-6.5,6.6C61.3,75,61.1,75.2,60.9,75.3z
		 M28.7,40.2c0,15.4,0,30.7,0,46.1c11.5,0,23,0,34.5,0c-0.1-0.1-0.1-0.2-0.1-0.2c-2.1-2.8-4.3-5.6-6.4-8.4c-0.2-0.2-0.3-0.2-0.6-0.1
		c-2.7,0.9-5.5,1.4-8.4,1.4c-3.6,0-7.3,0-10.9,0c-0.2,0-0.3,0-0.5,0c0-10.5,0-20.9,0-31.4c0.2,0,0.3,0,0.5,0c3.7,0,7.3,0,11,0
		c0.8,0,1.7,0,2.5,0.2c2.7,0.4,5,1.6,6.6,3.8c1.7,2.2,2.1,4.7,1.7,7.4c-0.4,2.3-1.5,4.2-3.4,5.5c-0.5,0.4-1.1,0.7-1.8,1
		c1.5,2,3,3.9,4.5,5.9c0.1,0,0.2-0.1,0.2-0.1c2.4-1.4,4.4-3.2,5.8-5.6c2-3.3,2.6-6.8,2.2-10.5c-0.5-4.2-2.2-7.7-5.4-10.5
		c-3.5-3-7.7-4.4-12.2-4.5c-6.5-0.1-13,0-19.6,0C28.9,40.2,28.8,40.2,28.7,40.2z M53.3,73.3c-2.9-3.8-5.8-7.5-8.7-11.3
		c1.4,0,2.7,0,4.1,0c0.4,0,0.9,0,1.3-0.1c1.8-0.4,3.2-1.4,3.7-3.3c0.5-1.9,0.1-3.6-1.5-4.9c-1-0.9-2.3-1.3-3.6-1.3
		c-2.3,0-4.6,0-6.9,0c-0.2,0-0.3,0-0.5,0c0,7.2,0,14.4,0,21.7C45.1,74.1,49.2,74.5,53.3,73.3z"/>
	<path d="M89.7,48.8c0.2,0,0.4,0,0.5,0c3.5,0,6.9,0,10.4,0c2.2,0,4.4,0.3,6.4,1.2c3.2,1.5,4.8,4.1,5.2,7.5c0.2,1.8,0,3.5-0.6,5.2
		c-0.9,2.3-2.6,3.8-4.8,4.8c-0.1,0-0.2,0.1-0.3,0.1c0,0,0,0-0.1,0.1c2.1,3.3,4.3,6.6,6.4,9.9c-0.2,0-0.3,0-0.4,0c-2,0-4.1,0-6.1,0
		c-0.3,0-0.5-0.1-0.6-0.3c-2.8-4.5-5.7-8.9-8.5-13.3c-0.1-0.1-0.1-0.2-0.2-0.4c0.2,0,0.4,0,0.6,0c1.5,0,3.1,0.1,4.6-0.1
		c3.4-0.4,5.1-4.2,3.2-7.1c-0.8-1.2-2-1.8-3.4-1.9c-2-0.1-4.1-0.1-6.1-0.1c0,0-0.1,0-0.1,0.1c0,7.7,0,15.4,0,23.2c-2,0-4,0-6,0
		C89.7,68.1,89.7,58.5,89.7,48.8z"/>
	<path d="M158,77.7c-1.5,0-2.9,0-4.3,0c-0.3-0.9-0.6-1.9-0.9-2.9c-0.1,0.1-0.2,0.1-0.2,0.2c-1.8,2.4-4.3,3.3-7.2,3.2
		c-4.9-0.2-8.4-3.4-9.3-8.3c-0.5-3-0.3-6,1.3-8.7c1.8-3.1,4.6-4.6,8.1-4.8c2.6-0.1,4.8,0.7,6.7,2.7c0-0.3,0-0.5,0-0.6
		c0-3.1,0-6.1,0-9.2c0-0.4,0.1-0.5,0.5-0.5c1.6,0,3.2,0,4.8,0c0.2,0,0.3,0,0.5,0C158,58.4,158,68,158,77.7z M152.4,67.2
		c-0.2-0.8-0.2-1.6-0.5-2.4c-0.7-2.1-2.2-3.3-4.4-3.5c-2.1-0.2-3.8,0.7-4.8,2.6c-1.1,2.1-1.1,4.3-0.1,6.4c1.5,3.3,5.8,3.9,8.3,1.3
		C151.9,70.4,152.3,68.9,152.4,67.2z"/>
	<path d="M190.6,77.7c-1.4,0-2.8,0-4.2,0c-0.1,0-0.3-0.2-0.3-0.3c-0.2-0.6-0.4-1.2-0.6-1.9c-0.2,0.3-0.4,0.5-0.6,0.7
		c-1.7,1.6-3.8,2.2-6,2c-1-0.1-2-0.2-3-0.5c-3.1-1-4.3-3.5-4-6.5c0.2-2.3,1.4-3.8,3.5-4.7c1.7-0.8,3.5-1.1,5.3-1.4
		c1.3-0.2,2.5-0.4,3.8-0.6c0.1,0,0.3-0.2,0.3-0.3c0.1-1.8-0.7-2.8-2.6-3c-2.3-0.3-4.5,0.3-6.5,1.5c-0.2,0.1-0.4,0.2-0.6,0.4
		c0,0,0,0-0.1,0c-0.7-1.3-1.4-2.7-2.2-4.1c0.7-0.4,1.4-0.8,2.1-1.1c3.4-1.5,6.9-1.9,10.5-0.9c2.6,0.7,4.4,2.3,5.1,5.1
		c0.1,0.5,0.2,1.1,0.2,1.7c0,4.6,0,9.1,0,13.7C190.6,77.4,190.6,77.5,190.6,77.7z M184.8,68.3c-0.7,0.1-1.4,0.2-2,0.3
		c-1.2,0.2-2.4,0.5-3.5,0.8c-1,0.3-1.5,1.2-1.4,2.1c0.1,1,0.6,1.7,1.6,2c0.7,0.2,1.4,0.3,2.1,0.2c1.8-0.1,2.9-1.1,3.2-2.9
		C184.9,70,184.8,69.2,184.8,68.3z"/>
	<path d="M117.2,63c-0.7-1.4-1.4-2.7-2.2-4.2c0.8-0.4,1.6-0.8,2.4-1.2c3.2-1.4,6.6-1.7,10-0.9c3,0.8,5,2.6,5.5,5.8
		c0.1,0.4,0.1,0.7,0.1,1.1c0,4.5,0,9,0,13.5c0,0.2,0,0.3,0,0.5c-0.8,0-1.5,0-2.2,0c-0.6,0-1.2,0-1.8,0c-0.3,0-0.4-0.1-0.5-0.4
		c-0.2-0.6-0.3-1.2-0.5-1.8c-0.1,0.1-0.1,0.1-0.2,0.1c-1.7,1.9-3.9,2.6-6.4,2.5c-1.7-0.1-3.3-0.4-4.7-1.4c-1.5-1-2.2-2.5-2.3-4.3
		c-0.1-1.6,0.2-3.2,1.3-4.4c1-1.1,2.2-1.8,3.6-2.1c1.9-0.5,3.8-0.8,5.7-1.1c0.6-0.1,1.3-0.2,1.9-0.3c0.3,0,0.3-0.1,0.3-0.4
		c0.1-1.9-0.8-2.8-2.7-3c-2.5-0.3-4.7,0.4-6.8,1.6C117.6,62.8,117.4,62.9,117.2,63z M127.2,68.3c-0.7,0.1-1.4,0.2-2.1,0.3
		c-1.2,0.2-2.4,0.4-3.5,0.8c-1.1,0.3-1.5,1.2-1.5,2.2c0,1,0.6,1.8,1.7,2c0.7,0.2,1.5,0.2,2.2,0.2c1.3-0.1,2.3-0.7,2.8-2
		C127.3,70.6,127.2,69.5,127.2,68.3z"/>
	<path d="M195.4,48.8c1.9,0,3.8,0,5.8,0c0,9.6,0,19.2,0,28.8c-1.9,0-3.8,0-5.8,0C195.4,68.1,195.4,58.5,195.4,48.8z"/>
	<path d="M162.8,57.9c1.9,0,3.8,0,5.8,0c0,6.6,0,13.1,0,19.7c-1.9,0-3.8,0-5.8,0C162.8,71.1,162.8,64.5,162.8,57.9z"/>
	<path d="M162.4,51.7c0-1.9,1.4-3.3,3.3-3.3c2,0,3.4,1.4,3.3,3.4c0,1.8-1.5,3.3-3.3,3.2C163.8,55,162.4,53.6,162.4,51.7z"/>
</g>
</svg>
