<svg version="1.1" id="Layer_1" xmlns="http://www.w3.org/2000/svg" xmlns:xlink="http://www.w3.org/1999/xlink" x="0px" y="0px"
	 viewBox="0 0 225 126.5" style="enable-background:new 0 0 225 126.5;" xml:space="preserve">
<g>
	<g>
		<path d="M77.5,60.4c0,0-1.2-0.2-2.5-0.2c-1.9,0-2.7,0.7-2.7,0.7c-0.6,0.4-0.8,1-0.8,1.8c0,0.5,0.1,0.9,0.3,1.2
			c0.1,0.2,0.2,0.3,0.5,0.5c0,0,0.8,0.7,2.7,0.5c1.3-0.1,2.5-0.3,2.5-0.3h0V60.4z"/>
	</g>
	<g>
		<path d="M133,54.8c-1.2,0-2.1,0.4-2.7,1.3c-0.6,0.9-0.9,2.1-0.9,3.7c0,1.6,0.3,2.8,0.9,3.7c0.6,0.9,1.4,1.3,2.7,1.3
			c1.2,0,2.1-0.4,2.7-1.3c0.6-0.9,0.9-2.1,0.9-3.7c0-1.6-0.3-2.8-0.9-3.7C135.1,55.2,134.2,54.8,133,54.8z"/>
	</g>
	<g>
		<path d="M95.7,54.8c-1.2,0-2.1,0.5-2.7,1.3c-0.4,0.6-0.6,1.3-0.7,2.2l6.6,0c-0.1-0.9-0.2-1.6-0.6-2.2
			C97.7,55.2,96.9,54.8,95.7,54.8z"/>
	</g>
	<g>
		<path d="M170,54.8c-1.2,0-2.1,0.5-2.7,1.3c-0.4,0.6-0.6,1.3-0.7,2.2l6.6,0c-0.1-0.9-0.2-1.6-0.6-2.2C172,55.2,171.2,54.8,170,54.8
			z"/>
	</g>
	<g>
		<g>
			<path d="M158,22.4c-5,0-9.7,1.1-14,3c-4.9-8.7-14.1-14.6-24.7-14.6c-7.9,0-15.1,3.3-20.3,8.7C93.4,12,84.4,7.3,74.4,7.3
				c-17.2,0-31.1,13.9-31.1,31c0,4.4,0.9,8.6,2.6,12.3C37.9,55.3,32.5,64,32.5,74c0,14.9,12,27,26.7,27c1.9,0,3.7-0.2,5.5-0.6
				c4.1,11,14.6,18.8,27,18.8c11.9,0,22.1-7.2,26.5-17.5c3.3,1.6,7.1,2.5,11,2.5c9.5,0,17.7-5.2,22-12.9c2.2,0.4,4.5,0.7,6.8,0.7
				c19,0,34.5-15.6,34.5-34.8C192.5,38,177.1,22.4,158,22.4z M66.8,62.8c0,2.8-2,4.6-5.3,4.6c-1.6,0-3.2-0.3-4.8-1.1
				c-0.3-0.2-0.6-0.3-0.9-0.6c0,0-0.2-0.1-0.1-0.4l0.6-1.8c0.1-0.3,0.3-0.2,0.4-0.1c0.2,0.1,0.3,0.2,0.5,0.3
				c1.9,1.2,3.7,1.2,4.2,1.2c1.4,0,2.3-0.8,2.3-1.8v-0.1c0-1.1-1.4-1.5-2.9-2L60.5,61c-2.2-0.6-4.5-1.5-4.5-4.2v-0.1
				c0-2.6,2.1-4.4,5.1-4.4l0.3,0c1.8,0,3.5,0.5,4.7,1.3c0.1,0.1,0.2,0.2,0.2,0.4c-0.1,0.2-0.6,1.6-0.7,1.8c-0.1,0.3-0.4,0.1-0.4,0.1
				c-1.1-0.6-2.8-1.1-4.2-1.1c-1.3,0-2.1,0.7-2.1,1.6v0.1c0,1.1,1.4,1.5,3,2.1l0.3,0.1C64.5,59.2,66.8,60.2,66.8,62.8L66.8,62.8z
				 M80.2,66.5c0,0-0.3,0.1-0.6,0.2c-0.3,0.1-1.4,0.3-2.3,0.5c-0.9,0.2-1.9,0.2-2.8,0.2c-0.9,0-1.7-0.1-2.5-0.3
				c-0.7-0.2-1.4-0.4-1.9-0.8c-0.5-0.4-0.9-0.9-1.2-1.5c-0.3-0.6-0.4-1.3-0.4-2.1c0-0.8,0.2-1.5,0.5-2.1c0.3-0.6,0.8-1.1,1.3-1.5
				c0.6-0.4,1.2-0.7,1.9-0.9c0.7-0.2,1.5-0.3,2.3-0.3c0.6,0,1.1,0,1.4,0c0,0,0.7,0.1,1.5,0.2v-0.4c0-1.2-0.3-1.8-0.8-2.2
				c-0.5-0.4-1.3-0.6-2.3-0.6c0,0-2.3,0-4,0.9c-0.1,0-0.2,0.1-0.2,0.1s-0.2,0.1-0.3-0.2l-0.7-1.8c-0.1-0.3,0.1-0.4,0.1-0.4
				c0.8-0.7,2.9-1,2.9-1c0.7-0.1,1.8-0.2,2.5-0.2c1.9,0,3.3,0.4,4.3,1.3c1,0.9,1.5,2.2,1.5,4.1l0,8.5C80.4,66.2,80.4,66.4,80.2,66.5
				z M86.4,66.7c0,0.2-0.1,0.3-0.3,0.3h-2.5c-0.2,0-0.3-0.1-0.3-0.3V46.9c0-0.2,0.1-0.3,0.3-0.3h2.5c0.2,0,0.3,0.1,0.3,0.3V66.7z
				 M101.8,60.4c0,0.2-0.3,0.2-0.3,0.2l-9.3,0c0.1,1.4,0.4,2.4,1.1,3.1c0.7,0.7,1.7,1.1,3.2,1.1c2.2,0,3.1-0.4,3.8-0.7
				c0,0,0.3-0.1,0.3,0.2l0.6,1.7c0.1,0.3,0,0.4-0.1,0.4c-0.6,0.3-2,0.9-4.7,0.9c-1.3,0-2.4-0.2-3.4-0.5c-0.9-0.4-1.7-0.9-2.3-1.5
				c-0.6-0.7-1.1-1.5-1.3-2.4C89.2,62,89,61,89,59.9c0-1.1,0.1-2,0.4-3c0.3-0.9,0.7-1.7,1.3-2.4c0.6-0.7,1.3-1.2,2.1-1.6
				c0.9-0.4,1.9-0.6,3.1-0.6c1,0,1.9,0.2,2.7,0.5c0.6,0.2,1.2,0.7,1.8,1.3c0.4,0.4,1,1.3,1.2,2.2C102.1,58.5,101.8,60.3,101.8,60.4z
				 M109.5,67.4c-1.6,0-3.2-0.3-4.8-1.1c-0.3-0.2-0.6-0.3-0.9-0.6c0,0-0.2-0.1-0.1-0.4l0.6-1.8c0.1-0.3,0.4-0.2,0.4-0.1
				c0.2,0.1,0.3,0.2,0.5,0.3c1.9,1.2,3.7,1.2,4.2,1.2c1.4,0,2.3-0.8,2.3-1.8v-0.1c0-1.1-1.4-1.5-2.9-2l-0.3-0.1
				c-2.2-0.6-4.5-1.5-4.5-4.2v-0.1c0-2.6,2.1-4.4,5.1-4.4l0.3,0c1.8,0,3.5,0.5,4.7,1.3c0.1,0.1,0.2,0.2,0.2,0.4
				c-0.1,0.2-0.6,1.6-0.7,1.8c-0.1,0.3-0.4,0.1-0.4,0.1c-1.1-0.6-2.8-1.1-4.2-1.1c-1.3,0-2.1,0.7-2.1,1.6v0.1c0,1.1,1.4,1.5,3,2.1
				l0.3,0.1c2.2,0.7,4.5,1.6,4.5,4.2v0.1C114.8,65.6,112.8,67.4,109.5,67.4z M125.7,54.8c-0.1,0.3-0.3,0.3-0.3,0.3h-3.1l-2.1,11.8
				c-0.2,1.2-0.5,2.3-0.8,3.1c-0.3,0.9-0.7,1.5-1.2,2.1c-0.5,0.6-1.1,1-1.7,1.2c-0.6,0.2-1.4,0.4-2.3,0.4c-0.4,0-0.8,0-1.4-0.1
				c-0.4-0.1-0.6-0.2-0.8-0.2c-0.1,0-0.2-0.2-0.1-0.4c0.1-0.2,0.6-1.7,0.7-1.9c0.1-0.2,0.3-0.1,0.3-0.1c0.2,0.1,0.3,0.1,0.5,0.2
				c0.2,0,0.5,0.1,0.7,0.1c0.4,0,0.8,0,1.1-0.2c0.4-0.1,0.6-0.4,0.8-0.7c0.2-0.3,0.4-0.7,0.6-1.3c0.2-0.6,0.4-1.4,0.6-2.3l2.1-11.6
				h-2c-0.2,0-0.3-0.1-0.3-0.3l0.3-1.9c0.1-0.3,0.3-0.3,0.3-0.3h2.1l0.1-0.6c0.3-1.9,0.9-3.3,1.9-4.2c0.9-0.9,2.3-1.4,3.9-1.4
				c0.5,0,0.9,0,1.3,0.1c0.4,0.1,0.6,0.1,0.9,0.2c0.1,0,0.2,0.1,0.2,0.3l-0.7,1.9c-0.1,0.1-0.1,0.2-0.4,0.1c-0.1,0-0.2-0.1-0.5-0.1
				c-0.2,0-0.5-0.1-0.8-0.1c-0.4,0-0.7,0-1,0.1c-0.3,0.1-0.5,0.3-0.8,0.5c-0.2,0.2-0.5,0.6-0.7,1c-0.3,1-0.5,2-0.5,2.1h3
				c0.2,0,0.3,0.1,0.3,0.3L125.7,54.8z M139.3,62.8c-0.3,0.9-0.7,1.7-1.2,2.4c-0.6,0.7-1.3,1.2-2.1,1.6c-0.8,0.4-1.8,0.6-2.9,0.6
				c-1.1,0-2.1-0.2-2.9-0.6c-0.8-0.4-1.5-0.9-2.1-1.6c-0.6-0.7-1-1.5-1.2-2.4c-0.3-0.9-0.4-1.9-0.4-2.9c0-1,0.1-2,0.4-2.9
				c0.3-0.9,0.7-1.7,1.2-2.4c0.6-0.7,1.3-1.2,2.1-1.6c0.8-0.4,1.8-0.6,2.9-0.6c1.1,0,2.1,0.2,2.9,0.6c0.8,0.4,1.5,0.9,2.1,1.6
				c0.6,0.7,1,1.5,1.2,2.4c0.3,0.9,0.4,1.9,0.4,2.9C139.7,60.9,139.5,61.9,139.3,62.8z M150.7,53.1c-0.1,0.3-0.5,1.5-0.7,1.9
				c-0.1,0.2-0.2,0.3-0.3,0.3c0,0-0.5-0.1-1-0.1c-0.3,0-0.8,0-1.2,0.2c-0.4,0.1-0.8,0.4-1.1,0.7c-0.3,0.3-0.6,0.8-0.8,1.4
				c-0.2,0.6-0.3,1.5-0.3,2.4v6.9c0,0.2-0.1,0.3-0.3,0.3h-2.4c-0.2,0-0.3-0.1-0.3-0.3V52.9c0-0.2,0.1-0.3,0.3-0.3h2.4
				c0.2,0,0.3,0.1,0.3,0.3l0,1.1c0.4-0.5,1-0.9,1.6-1.2c0.6-0.3,1.2-0.5,2.4-0.4c0.6,0,1.4,0.2,1.6,0.3
				C150.6,52.8,150.8,52.9,150.7,53.1z M162.3,66.6c-1,0.4-2.5,0.7-3.9,0.7c-2.4,0-4.2-0.7-5.4-2c-1.2-1.3-1.8-3.2-1.8-5.5
				c0-1.1,0.1-2,0.4-2.9c0.3-0.9,0.7-1.7,1.3-2.4c0.6-0.7,1.3-1.2,2.2-1.6c0.9-0.4,1.9-0.6,3.1-0.6c0.8,0,1.5,0,2.1,0.1
				c0.6,0.1,1.5,0.3,1.8,0.5c0.1,0,0.2,0.1,0.2,0.3c-0.3,0.7-0.4,1.2-0.7,1.9c-0.1,0.3-0.3,0.2-0.3,0.2c-0.9-0.3-1.8-0.4-2.9-0.4
				c-1.4,0-2.4,0.5-3,1.3c-0.7,0.9-1,2.1-1.1,3.6c0,1.7,0.4,3,1.2,3.7c0.8,0.8,1.8,1.2,3.1,1.2c0.5,0,1,0,1.5-0.1
				c0.5-0.1,0.9-0.2,1.3-0.4c0,0,0.3-0.1,0.3,0.2l0.7,1.9C162.5,66.5,162.3,66.6,162.3,66.6z M176.1,60.4c0,0.2-0.3,0.2-0.3,0.2
				l-9.3,0c0.1,1.4,0.4,2.4,1.1,3.1c0.7,0.7,1.7,1.1,3.2,1.1c2.2,0,3.1-0.4,3.8-0.7c0,0,0.3-0.1,0.3,0.2l0.6,1.7
				c0.1,0.3,0,0.4-0.1,0.4c-0.6,0.3-2,0.9-4.7,0.9c-1.3,0-2.4-0.2-3.4-0.5c-0.9-0.4-1.7-0.9-2.3-1.5c-0.6-0.7-1.1-1.5-1.3-2.4
				c-0.3-0.9-0.4-1.9-0.4-3c0-1.1,0.1-2,0.4-3c0.3-0.9,0.7-1.7,1.3-2.4c0.6-0.7,1.3-1.2,2.1-1.6c0.9-0.4,1.9-0.6,3.1-0.6
				c1,0,1.9,0.2,2.7,0.5c0.6,0.2,1.2,0.7,1.8,1.3c0.4,0.4,1,1.3,1.2,2.2C176.4,58.5,176.1,60.3,176.1,60.4z"/>
		</g>
	</g>
</g>
</svg>
