<?xml version="1.0" encoding="utf-8"?>
<!-- Generator: Adobe Illustrator 21.0.2, SVG Export Plug-In . SVG Version: 6.00 Build 0)  -->
<svg version="1.1" id="Layer_1" xmlns="http://www.w3.org/2000/svg" xmlns:xlink="http://www.w3.org/1999/xlink" x="0px" y="0px"
	 viewBox="0 0 198.4 51.2" style="enable-background:new 0 0 198.4 51.2;" xml:space="preserve">
<style type="text/css">
	.st0{fill:#2A8451;}
	.st1{fill:#2A8452;}
	.st2{fill:#32AA5C;}
	.st3{fill:#33AC5C;}
	.st4{fill:#34AC5D;}
</style>
<g>
	<path class="st0" d="M6.5,6.1c0.1,15,0.2,29.7,0.4,44.6c-0.1,0-0.1,0.1-0.2,0.1C5.8,49.6,5,48.4,4.2,47c-0.8-1.4-2.2-1.9-3.4-2.6
		C0.1,44.1-0.1,43.7,0,43c0.6-11.3,1.2-22.6,1.8-34c0-0.4-0.1-1.1,0.6-0.9c1.7,0.6,2.7-0.2,3.4-1.5C6,6.5,6,6.4,6.2,6.3
		C6.2,6.3,6.3,6.3,6.5,6.1z"/>
	<path class="st1" d="M13.6,0c3.7,0.3,7.2,0.9,10.9,1.5c0.4,0.8,0.5,1.5,0,2.2c-3.7-0.4-7.2-1-10.9-1.4C13,1.5,13.2,0.8,13.6,0z"/>
	<path class="st2" d="M32.8,13.4c0-2.6-1.7-4.3-4.3-4.6C22.1,7.9,15.7,7,9.4,6C8.3,5.9,8,6,8.1,7.2c0.1,7.1,0.2,24.1,0.2,25.5
		c0,5.8,0.1,11.7,0.2,17.6c0,0.5-0.1,1,0.8,0.9c6.9-1,13.7-1.9,20.6-2.9c2-0.3,3.2-1.7,3.2-3.9C33,34,32.9,23.7,32.8,13.4z
		 M22.5,45.9c0,1-0.8,1.3-1.6,1.5c-1-0.2-1.6-0.5-1.5-1.6c0.1-1,0.8-1.4,1.6-1.4C21.9,44.5,22.5,44.9,22.5,45.9z M29,41.5
		c-5.5,0.4-11.1,0.9-16.6,1.3c-1,0.1-0.8-0.5-0.8-1.1c0-4.4-0.2-21.9-0.3-26.3c0-1.1,0.3-1.2,1.3-1.2c5.4,0.4,10.8,0.9,16,1.3
		c0.8,0.1,1.1,0.3,1.1,1.1c0,7.9,0.1,15.7,0.2,23.6C30,41.2,29.7,41.4,29,41.5z"/>
	<path class="st2" d="M83.6,28.1c-0.4-3.7-2.2-5.3-5.8-5.5c-2.2-0.1-4.2,0.2-6.4,1.3v-8.8h-3.6v26.8h3.6V28.5
		c0.1-1.7,0.8-2.3,2.9-2.6c0.8-0.1,1.4-0.2,2.2-0.1c2.3,0.3,3.2,1.2,3.6,3.6c0,0.3,0.1,0.6,0.1,1v11.5h3.7V30.3l0,0
		C83.7,29.6,83.7,28.9,83.6,28.1z"/>
	<path class="st2" d="M145.1,24.6c0-0.8-0.4-0.8-1-1c-3.1-1-6.4-1.3-9.6-1c-3.2,0.4-5.2,2.2-5.8,5.4c-0.6,2.9-0.6,5.7,0,8.6
		c0.8,3.4,2.4,5,5.8,5.5c2.5,0.4,4.7,0.1,7-1.1c0.1,3.1-1.4,4.7-4.3,5.1c-1.8,0.2-3.7,0.1-5.5-0.3l-1.8-0.4l-0.9,2.8l0.2,0.1
		c0.1,0.2,6.6,1.4,9.5,1c3.9-0.6,6-2.8,6.2-6.8C145.3,36.4,145,30.5,145.1,24.6z M141.5,31.9c0,1.5,0,3,0,4.5c0,1.2-0.5,1.9-1.6,2.3
		c-1.7,0.6-3.4,0.6-5.2,0.2c-1.5-0.3-2.3-1.5-2.5-2.9c-0.4-2.5-0.4-5,0-7.4c0.3-1.9,1.4-2.9,3.4-3c1.6-0.1,3.2,0,4.7,0.3
		c0.6,0.1,1.1,0.4,1.1,1.3C141.5,28.8,141.5,30.3,141.5,31.9z"/>
	<path class="st2" d="M119.9,22.9c-3.6-0.6-6.9-0.3-10.3,0.6c-0.9,0.2-1.1,0.6-1.1,1.5c0,0.3,0,0.8,0,1.1l0,0V49h3.6
		c0,0,0-5.5,0-7.9c1.9,1.2,4,1.4,6,1.2c3.4-0.2,5.7-1.8,6.6-5c0.9-3.3,0.9-6.7,0-10C124,25,122.4,23.4,119.9,22.9z M121.2,36.4
		c-0.4,1.5-1.4,2.5-2.9,2.7c-1.6,0.3-3.1,0.2-4.6-0.3c-1.1-0.3-1.6-1.1-1.6-2.3c0.1-3,0-6.1,0-9.2c0-0.8,0.2-1.2,1-1.3
		c1.6-0.3,3.3-0.4,5.1-0.2c1.8,0.2,2.7,1.1,3.2,2.9c0.3,1.2,0.2,2.5,0.3,3.7C121.5,33.7,121.5,35.1,121.2,36.4z"/>
	<path class="st2" d="M159.7,22.8c-2.7-0.5-5.4-0.4-8,0.1c-2.7,0.5-2.3-0.1-1.7,2.8v0.1c0.1,0.5,0.3,0.5,0.8,0.4
		c2-0.6,4.1-0.8,6.2-0.6c2.7,0.1,3.8,1.2,3.9,3.9c0,0.5-0.1,0.9-0.8,0.6c-1.9-0.4-3.9-0.4-5.8-0.3c-4.3,0.2-6.1,2.2-6,6.5
		c0,0.4,0.1,1,0.1,1.4c0.4,2.5,1.6,3.8,4,4.2c3.7,0.6,7.3,0.2,11-0.9c0.8-0.2,0.9-0.6,0.9-1.3c0-0.1,0-0.3,0-0.4l0,0l-0.1-11.5
		C164.1,25.1,162.7,23.5,159.7,22.8z M161,34.5c0,0.4,0,0.9,0,1.3v1c0,2.3-0.3,2.3-3,2.6c-1.1,0.1-2.2,0.1-3.2,0
		c-1.7-0.2-2.2-0.8-2.4-2.4c-0.1-0.8-0.1-1.5,0-2.3c0.2-1.2,0.9-1.8,2-1.9c1.7-0.2,3.4-0.1,5.2,0c0.6,0,1.2,0.2,1.4,0.8V34.5z"/>
	<path class="st2" d="M104.7,29.8c-0.3-4.1-2.2-6.4-5.7-7c-1.9-0.3-4-0.3-6,0c-3.1,0.5-4.7,2.5-5.4,5.4c-0.5,2.7-0.5,5.5,0,8.3
		c0.5,2.9,2.2,4.8,5.2,5.5c1.9,0.4,3.9,0.4,5.9,0.1c3.4-0.6,5.2-2.4,5.9-5.8c0.2-1.3,0.3-2.7,0.2-4
		C104.7,31.6,104.8,30.7,104.7,29.8z M100.7,36.5c-0.4,1.5-1.3,2.5-2.8,2.7c-1.2,0.2-2.5,0.2-3.7,0c-1.5-0.2-2.5-1.2-2.8-2.7
		c-0.6-2.7-0.6-5.5,0-8.3c0.3-1.6,1.3-2.5,2.9-2.7c1-0.1,1.8-0.2,2.8-0.1c2.6,0.3,3.6,1.3,3.9,3.9c0.1,1,0.1,2,0.2,3
		C101,33.8,101,35.2,100.7,36.5z"/>
	<path class="st2" d="M179.3,38.9c-0.1,0-0.3,0-0.5,0c-0.9,0.2-1.6,0.3-2.5,0.3c-2.2,0-3.1-0.8-3.2-2.8c-0.1-3.1-0.1-6.4-0.1-9.5
		c0-0.4,0.1-0.5,0.3-0.6h6.4v-3.3h-6.6c-0.2-0.2-0.2-0.6-0.2-1.6c0-0.6,0-1.3,0-1.9v-0.8v-0.1v-0.8l-3.6,1.8v3c0,0.2,0,0.3-0.1,0.3
		h-3.1v3.3h1c0.1,0,0.1,0,0.2,0h1.7c0.2,0.1,0.3,0.2,0.3,0.4v0.2l0,0c0,0.1,0,0.2,0,0.3c-0.1,1.5,0,3,0,4.5c0,2-0.1,4.2,0.2,6.2
		c0.3,2.6,1.5,3.9,4.1,4.2c1.5,0.2,3,0.1,4.5-0.1c1.1-0.2,1.6-0.3,1.8-0.5L179.3,38.9z"/>
	<path class="st2" d="M196.2,38.6c-0.2,0-0.4,0-0.8,0.1c-1.5,0.4-3.1,0.6-4.7,0.6c-3.4-0.1-5-1.5-5.2-5c0-0.8,0.1-1.2,1-1.1
		c1.8,0.1,3.7,0,5.4,0c1.8,0,3.7,0,5.6,0c0.8,0,1-0.2,1-0.9c0-1.7-0.1-3.3-0.5-5c-0.6-2.5-2.2-4.1-4.7-4.5c-1.8-0.3-3.7-0.3-5.5,0
		c-2.9,0.5-4.6,2.4-5.4,5.2c-0.6,2.8-0.6,5.7,0,8.5c0.8,3.2,2.8,5.2,6.1,5.7c2.5,0.4,4.8,0.1,7.2-0.4c0.8-0.1,1.2-0.2,1.4-0.4
		L196.2,38.6z M185.6,29.7c0.3-2,0.8-3.8,3.6-4.1c0.8-0.1,1.5-0.1,2.3-0.1c2.3,0.2,3.7,1.9,3.4,4.3c-0.1,0.6-0.4,0.5-0.8,0.5
		c-1.3,0-2.6,0-3.9,0c-1.3,0-2.6,0-3.9,0C185.9,30.3,185.5,30.3,185.6,29.7z"/>
	<path class="st2" d="M58.8,27.5c-0.4-0.1-0.9-0.2-1.4-0.3c-1.7-0.3-3.6-0.3-5.4-0.9c-2.2-0.6-2.9-1.8-2.7-4.1
		c0.2-1.7,1.3-2.8,3.2-3.1c2.6-0.5,5.3-0.3,7.9,0.1c0.8,0.1,1.2,0.2,1.5,0.2l1.1-3c-0.1-0.1-0.4-0.2-0.8-0.3c-3.2-0.6-6.6-1-9.9-0.5
		c-5.4,0.8-8,4-7.2,9.4c0.4,2.7,2.3,4.3,5.7,5.1c2,0.4,4.2,0.3,6.2,1c2.2,0.8,3.1,1.9,3,4c-0.1,1.9-1.2,3.2-3.3,3.7
		c-2.7,0.5-5.5,0.3-8.2-0.1c-0.9-0.1-1.4-0.2-1.7-0.2l-1.1,2.9c0.1,0.1,0.3,0.2,0.5,0.2c2.3,0.5,4.5,0.9,7.1,0.9
		c1.1,0.1,2.4-0.1,3.7-0.3c4.1-0.5,6.2-2.6,6.9-6.1C65,31.7,63,28.5,58.8,27.5z"/>
	<path class="st3" d="M11.3,4.5c0.6,0.1,1.3,0.2,2,0.3c0.1-0.2,0.2-0.6,0.2-1.3c0-0.4,0-0.9,0-1.3c0-0.8,0-1.5,0-2.3
		c-0.4,0.3-0.8,0.6-1.2,0.9c-1.4,0.8-1.2,2-1.2,3.2C11.3,4.3,11.3,4.4,11.3,4.5z"/>
	<path class="st4" d="M24.7,5.9c0,0.1,0,0.2,0.1,0.3c0.9,0.1,1.6,0.2,2.3,0.3c0-0.2-0.1-0.4,0-0.6c0.2-2-1.4-3.1-2.5-4.4
		c0,0.8,0,1.5,0,2.2C24.8,4.4,24.6,5.2,24.7,5.9z"/>
</g>
</svg>
