<?xml version="1.0" encoding="utf-8"?>
<!-- Generator: Adobe Illustrator 21.0.2, SVG Export Plug-In . SVG Version: 6.00 Build 0)  -->
<svg version="1.1" id="Layer_1" xmlns="http://www.w3.org/2000/svg" xmlns:xlink="http://www.w3.org/1999/xlink" x="0px" y="0px"
	 viewBox="0 0 198.4 94.7" style="enable-background:new 0 0 198.4 94.7;" xml:space="preserve">
<style type="text/css">
	.st0{fill:#DE3919;}
	.st1{fill:#666766;}
</style>
<g>
	<g>
		<path class="st0" d="M50.5,7.7c4.1-4.8,10-7.8,16.8-7.8h15.1v11H67.3c-3.4,0-6.4,1.5-8.4,4L31.9,47.1c-4.1,4.8-10,7.8-16.8,7.8H0
			v-11h15.1c3.4,0,6.4-1.5,8.4-4L50.5,7.7z"/>
		<rect x="93.5" y="-0.1" class="st0" width="11.6" height="55.1"/>
		<path class="st0" d="M147.9,7.7l9.3,11.1l9.3-11.1c4.1-4.8,10-7.8,16.8-7.8h15.1v11h-15.1c-3.4,0-6.4,1.5-8.4,4l-10.5,12.6
			L175,40.1c2,2.5,5,4,8.4,4h15.1v11h-15.1c-6.8,0-12.8-3-16.8-7.8l-9.3-11.1l-9.3,11.1c-4.1,4.8-10,7.8-16.8,7.8H116V44h15.1
			c3.4,0,6.4-1.5,8.4-4L150,27.4l-10.5-12.6c-2-2.5-5-4-8.4-4H116v-11h15.1C137.8-0.1,143.9,2.9,147.9,7.7"/>
	</g>
	<g>
		<path class="st1" d="M10.9,69.1c1.2,0,2.1,0.1,2.7,0.2c1.3,0.4,2.2,1.1,3,2.1c0.7,1.1,1.1,2.3,1.1,3.9c0,1.4-0.4,2.7-1.1,3.9
			c-0.8,1.1-1.9,1.8-3.2,2.1c-0.6,0.1-1.4,0.2-2.7,0.2H9v7.1H7.1V69.1H10.9z M10.9,71.1H9.1v8.5h1.8c0.5,0,0.8,0,1.1,0
			s0.5,0,0.7-0.1c0.2,0,0.6-0.1,0.8-0.2c0.7-0.4,1.3-0.8,1.6-1.5c0.4-0.7,0.6-1.5,0.6-2.5c0-0.8-0.2-1.6-0.6-2.5
			c-0.4-0.7-0.9-1.3-1.6-1.5c-0.2-0.1-0.5-0.1-0.8-0.2c-0.2,0-0.6-0.1-0.7-0.1S11.3,71.1,10.9,71.1z"/>
		<path class="st1" d="M29.1,79.6v8.9h-1.9V87c-0.9,1.2-2.1,1.8-3.4,1.8c-1.3,0-2.2-0.5-3-1.3c-0.8-0.9-1.2-2-1.2-3.3
			c0-0.9,0.2-1.9,0.7-2.6c0.5-0.7,1.2-1.3,2.1-1.6c0.2-0.1,0.6-0.1,0.9-0.2c0.4,0,0.6-0.1,0.8-0.1s0.6,0,1.2,0h1.9
			c0-0.7,0-1.3,0-1.5c0-0.4-0.1-0.6-0.1-0.9c-0.2-0.6-0.6-1.1-1.1-1.4c-0.5-0.4-1.1-0.5-1.6-0.5c-0.9,0-2,0.4-3.3,1.1l-0.7-1.8
			c1.5-0.7,2.8-1.2,4-1.2c1.1,0,2.1,0.4,2.9,0.9s1.4,1.4,1.6,2.5C28.9,77.4,29.1,78.3,29.1,79.6z M21.4,84.2c0,0.8,0.2,1.4,0.7,2
			c0.5,0.6,1.2,0.8,2,0.8c0.7,0,1.3-0.2,1.8-0.6c0.6-0.4,0.9-0.9,1.2-1.6c0.1-0.2,0.1-0.6,0.1-0.9s0-0.7,0.1-0.9c0-0.4,0-0.8,0-1.5
			h-1.8c-1.2,0-2,0.1-2.3,0.2c-0.6,0.2-0.9,0.5-1.3,0.9C21.5,83,21.4,83.5,21.4,84.2z"/>
		<path class="st1" d="M31.9,94.1l0.4-1.8c0.5,0.1,0.8,0.2,1.2,0.2c0.6,0,1.1-0.1,1.5-0.5c0.1-0.1,0.4-0.4,0.5-0.5
			c0.1-0.1,0.2-0.4,0.2-0.6s0.1-0.4,0.2-0.7l0.5-1.6l-4.8-14.8h1.8L37,86l3.2-12.1H42l-4.7,17c-0.1,0.6-0.4,1.1-0.6,1.5
			c-0.2,0.4-0.5,0.7-0.8,1.1c-0.7,0.7-1.6,1.1-2.7,1.1C32.9,94.4,32.4,94.3,31.9,94.1z"/>
		<path class="st1" d="M54,88.5h-1.9v-8.8c0-0.6,0-0.9,0-1.3c0-0.2,0-0.6-0.1-0.8c0-0.4-0.1-0.6-0.2-0.8c-0.2-0.5-0.6-0.9-0.9-1.2
			c-0.5-0.2-0.9-0.5-1.5-0.5c-0.6,0-1.1,0.1-1.5,0.5c-0.5,0.2-0.8,0.7-0.9,1.2c-0.1,0.2-0.1,0.5-0.2,0.8c0,0.4-0.1,0.6-0.1,0.8
			c0,0.2,0,0.7,0,1.3v8.8h-1.9V73.7h1.9v1.5c0.9-1.2,2-1.8,3.2-1.8c0.8,0,1.5,0.2,2.1,0.6c0.6,0.5,1.1,0.9,1.4,1.8
			c0.5-0.7,0.9-1.3,1.6-1.8c0.7-0.5,1.4-0.6,2.2-0.6c0.9,0,1.8,0.2,2.5,0.8c0.7,0.6,1.2,1.3,1.5,2.2c0.1,0.4,0.2,0.7,0.2,1.1
			s0.1,0.7,0.1,0.9c0,0.2,0,0.7,0,1.2v8.9h-1.9v-8.8c0-0.6,0-0.9,0-1.3c0-0.2,0-0.6-0.1-0.8c0-0.4-0.1-0.6-0.2-0.8
			c-0.2-0.5-0.6-0.9-0.9-1.2c-0.5-0.2-0.9-0.5-1.5-0.5s-1.1,0.1-1.5,0.5c-0.5,0.2-0.8,0.7-0.9,1.2c-0.1,0.2-0.1,0.5-0.2,0.8
			c0,0.4-0.1,0.6-0.1,0.8s0,0.7,0,1.3v8.8H54z"/>
		<path class="st1" d="M70,88.7c-0.9,0-1.8-0.2-2.6-0.6c-0.7-0.4-1.3-0.9-1.8-1.6c-0.4-0.5-0.6-1.1-0.7-1.8s-0.2-1.3-0.2-1.6
			c0-0.5,0-1.2,0-2c0-0.7,0-1.3,0-1.6s0-0.8,0.1-1.3c0.1-0.5,0.1-0.9,0.4-1.4c0.4-1.1,0.9-1.8,1.8-2.5c0.8-0.6,1.8-0.9,2.8-0.9
			c1.1,0,2,0.4,2.8,0.9s1.4,1.4,1.8,2.5c0.2,0.6,0.4,1.2,0.4,1.8s0.1,1.4,0.1,2.6v0.5h-8.2c0,0.6,0,1.1,0,1.4c0,0.4,0.1,0.8,0.2,1.3
			c0.1,0.5,0.2,0.9,0.5,1.3c0.6,0.9,1.5,1.4,2.7,1.4c1.1,0,2.2-0.4,3.5-1.1l0.7,1.8C72.8,88.4,71.4,88.7,70,88.7z M73,79.9
			c0-1.1-0.1-1.9-0.4-2.5c-0.2-0.6-0.6-1.2-1.1-1.5c-0.5-0.4-1.1-0.6-1.8-0.6s-1.3,0.2-1.8,0.6c-0.5,0.4-0.8,0.9-0.9,1.5
			c-0.2,0.6-0.4,1.5-0.4,2.5H73z"/>
		<path class="st1" d="M83.6,73.6c0.9,0,1.8,0.2,2.5,0.8s1.3,1.3,1.6,2.2c0.1,0.4,0.2,0.7,0.2,1.2c0,0.5,0.1,0.8,0.1,1.1
			s0,0.7,0,1.3v8.5h-1.9v-8.4c0-0.8,0-1.5,0-1.9c0-0.4-0.1-0.8-0.2-1.2c-0.2-0.6-0.6-1.1-1.1-1.3c-0.5-0.4-1.1-0.5-1.6-0.5
			s-1.2,0.1-1.6,0.5c-0.5,0.4-0.8,0.7-1.1,1.3c-0.1,0.4-0.2,0.7-0.2,1.2c0,0.4,0,1.1,0,1.9v8.4h-1.9V73.7h1.9v1.5
			C81.1,74.1,82.3,73.6,83.6,73.6z"/>
		<path class="st1" d="M92.2,84.4v-9h-1.9v-1.8h1.9v-3.2h1.9v3.2h2.5v1.8h-2.5v9c0,0.9,0,1.6,0.1,1.8c0.2,0.5,0.6,0.7,1.1,0.7
			c0.5,0,0.9-0.1,1.4-0.5l0.7,1.8c-0.8,0.4-1.5,0.6-2.2,0.6s-1.3-0.2-1.8-0.6c-0.5-0.4-0.8-0.9-1.1-1.6
			C92.3,86.3,92.2,85.6,92.2,84.4z"/>
		<path class="st1" d="M106.2,87l0.8-1.8c1.8,1.1,3.2,1.6,4.4,1.6c0.5,0,0.9-0.1,1.4-0.2c0.4-0.1,0.7-0.4,0.9-0.6
			c0.2-0.2,0.5-0.6,0.6-0.9c0.1-0.4,0.2-0.7,0.4-0.9c0-0.4,0.1-0.6,0.1-0.9c0-0.7-0.1-1.4-0.5-2s-0.8-1.1-1.5-1.3
			c-0.4-0.1-0.8-0.2-1.5-0.5s-1.3-0.4-1.6-0.5c-1.1-0.5-1.9-1.1-2.3-2c-0.5-0.9-0.8-1.9-0.8-3c0-1.5,0.5-2.7,1.3-3.7
			c0.8-1.1,2.1-1.5,3.6-1.5c1.4,0,2.9,0.5,4.6,1.4l-0.7,1.8c-1.5-0.8-2.8-1.2-3.9-1.2c-1.1,0-1.8,0.4-2.3,0.9
			c-0.5,0.6-0.8,1.4-0.8,2.3c0,0.7,0.1,1.4,0.5,2c0.4,0.6,0.8,0.9,1.5,1.3c0.4,0.1,0.8,0.2,1.5,0.5c0.7,0.1,1.3,0.4,1.8,0.5
			c1.1,0.5,1.8,1.1,2.3,2c0.5,0.9,0.8,1.9,0.8,3c0,0.7-0.1,1.4-0.4,2.1c-0.2,0.7-0.6,1.3-0.9,1.8c-0.4,0.5-0.9,0.9-1.6,1.3
			c-0.7,0.4-1.4,0.5-2.3,0.5s-1.9-0.1-2.7-0.5C108.1,88,107.1,87.6,106.2,87z"/>
		<path class="st1" d="M124.9,88.7c-0.9,0-1.8-0.2-2.6-0.6c-0.7-0.4-1.3-0.9-1.8-1.6c-0.4-0.5-0.6-1.1-0.7-1.8s-0.2-1.3-0.2-1.6
			c0-0.5,0-1.2,0-2c0-0.7,0-1.3,0-1.6s0-0.8,0.1-1.3c0.1-0.5,0.1-0.9,0.4-1.4c0.4-1.1,0.9-1.8,1.8-2.5c0.8-0.6,1.8-0.9,2.8-0.9
			c1.1,0,2,0.4,2.8,0.9s1.4,1.4,1.8,2.5c0.2,0.6,0.4,1.2,0.4,1.8s0.1,1.4,0.1,2.6v0.5h-8.2c0,0.6,0,1.1,0,1.4c0,0.4,0.1,0.8,0.2,1.3
			c0.1,0.5,0.2,0.9,0.5,1.3c0.6,0.9,1.5,1.4,2.7,1.4c1.1,0,2.2-0.4,3.5-1.1l0.7,1.8C127.7,88.4,126.3,88.7,124.9,88.7z M127.8,79.9
			c0-1.1-0.1-1.9-0.4-2.5s-0.6-1.2-1.1-1.5c-0.5-0.4-1.1-0.6-1.8-0.6c-0.7,0-1.3,0.2-1.8,0.6c-0.5,0.4-0.8,0.8-1.1,1.5
			c-0.2,0.6-0.4,1.5-0.4,2.5H127.8z"/>
		<path class="st1" d="M134.9,75.3c0.5-0.6,0.9-1.1,1.4-1.3c0.5-0.4,1.1-0.5,1.8-0.5c0.4,0,0.7,0,1.2,0.1l-0.2,1.8
			c-0.5-0.1-0.8-0.1-1.2-0.1c-0.6,0-1.2,0.1-1.6,0.5c-0.5,0.4-0.8,0.8-1.1,1.3c-0.2,0.5-0.2,1.4-0.2,2.6v8.8h-1.9V73.7h1.9
			L134.9,75.3L134.9,75.3z"/>
		<path class="st1" d="M145.2,88.5l-4.4-14.8h2l3.4,12.1l3.4-12.1h2l-4.4,14.8H145.2z"/>
		<path class="st1" d="M154.3,69.2c0.2-0.2,0.5-0.4,0.8-0.4c0.4,0,0.6,0.1,0.8,0.4c0.2,0.2,0.4,0.6,0.4,0.9s-0.1,0.7-0.4,0.9
			c-0.2,0.2-0.5,0.4-0.8,0.4c-0.4,0-0.6-0.1-0.8-0.4c-0.2-0.2-0.4-0.6-0.4-0.9C154.1,69.8,154.1,69.5,154.3,69.2z M156.1,88.5h-1.9
			V73.7h1.9V88.5z"/>
		<path class="st1" d="M164.7,73.6c1.4,0,2.7,0.5,4.1,1.4l-0.9,1.6c-1.1-0.8-2.1-1.2-3.2-1.2c-1.1,0-1.9,0.5-2.6,1.4
			c-0.2,0.4-0.4,0.8-0.5,1.4c-0.1,0.6-0.1,1.1-0.2,1.4c0,0.4,0,0.9,0,1.5c0,0.7,0,1.3,0,1.6s0.1,0.8,0.1,1.4
			c0.1,0.6,0.2,0.9,0.5,1.4c0.2,0.6,0.7,0.9,1.2,1.2s0.9,0.4,1.4,0.4c0.6,0,1.2-0.1,1.8-0.4c0.6-0.2,1.2-0.6,1.6-0.9l0.9,1.5
			c-0.6,0.5-1.3,0.8-2,1.1c-0.8,0.2-1.5,0.5-2.2,0.5c-0.9,0-1.8-0.2-2.6-0.7c-0.7-0.5-1.3-1.1-1.6-1.9c-0.2-0.5-0.5-1.1-0.6-1.6
			s-0.2-1.2-0.2-1.6c0-0.5,0-1.1,0-1.9c0-0.7,0-1.3,0-1.8c0-0.5,0.1-0.9,0.2-1.6c0.1-0.7,0.4-1.2,0.6-1.8c0.4-0.7,0.9-1.4,1.8-1.9
			C162.9,73.8,163.8,73.6,164.7,73.6z"/>
		<path class="st1" d="M176.5,88.7c-0.9,0-1.8-0.2-2.6-0.6c-0.7-0.4-1.3-0.9-1.8-1.6c-0.4-0.5-0.6-1.1-0.7-1.8
			c-0.1-0.7-0.2-1.3-0.2-1.6c0-0.5,0-1.2,0-2c0-0.7,0-1.3,0-1.6s0-0.8,0.1-1.3c0.1-0.5,0.1-0.9,0.4-1.4c0.4-1.1,0.9-1.8,1.8-2.5
			c0.8-0.6,1.8-0.9,2.8-0.9c1.1,0,2,0.4,2.8,0.9s1.4,1.4,1.8,2.5c0.2,0.6,0.4,1.2,0.4,1.8s0.1,1.4,0.1,2.6v0.5h-8.2
			c0,0.6,0,1.1,0,1.4c0,0.4,0.1,0.8,0.2,1.3c0.1,0.5,0.2,0.9,0.5,1.3c0.6,0.9,1.5,1.4,2.7,1.4c1.1,0,2.2-0.4,3.5-1.1l0.7,1.8
			C179.3,88.4,177.8,88.7,176.5,88.7z M179.4,79.9c0-1.1-0.1-1.9-0.4-2.5s-0.6-1.2-1.1-1.5s-1.1-0.6-1.8-0.6s-1.3,0.2-1.8,0.6
			c-0.5,0.4-0.8,0.8-1.1,1.5c-0.2,0.6-0.4,1.5-0.4,2.5H179.4z"/>
		<path class="st1" d="M188.6,73.6c1.2,0,2.7,0.4,4.2,1.2l-0.6,1.8c-1.4-0.7-2.7-1.1-3.6-1.1c-0.5,0-0.9,0.1-1.3,0.2
			c-0.4,0.1-0.6,0.4-0.8,0.6c-0.2,0.2-0.4,0.5-0.4,0.7c-0.1,0.2-0.1,0.5-0.1,0.7c0,0.5,0.1,0.8,0.4,1.2s0.5,0.6,0.8,0.8
			c0.4,0.1,0.9,0.4,1.6,0.5s1.4,0.4,2,0.5c0.7,0.4,1.3,0.8,1.9,1.5c0.5,0.7,0.7,1.5,0.7,2.5c0,1.2-0.5,2.2-1.3,3
			c-0.8,0.8-2,1.3-3.5,1.3c-1.4,0-2.9-0.5-4.7-1.3l0.7-1.8c1.5,0.8,2.9,1.2,4,1.2c0.5,0,0.9-0.1,1.4-0.2c0.4-0.1,0.7-0.4,0.9-0.6
			c0.2-0.2,0.4-0.5,0.5-0.8c0.1-0.2,0.1-0.6,0.1-0.8c0-0.5-0.1-0.9-0.5-1.4c-0.2-0.4-0.6-0.7-1.1-0.8c-0.2-0.1-0.8-0.2-1.6-0.4
			c-0.8-0.1-1.5-0.4-2-0.6c-0.6-0.4-1.2-0.8-1.5-1.4c-0.5-0.6-0.6-1.4-0.6-2.2c0-1.2,0.4-2.1,1.2-2.9
			C186.2,73.9,187.2,73.6,188.6,73.6z"/>
	</g>
</g>
</svg>
