<?xml version="1.0" encoding="utf-8"?>
<!-- Generator: Adobe Illustrator 21.0.2, SVG Export Plug-In . SVG Version: 6.00 Build 0)  -->
<svg version="1.1" id="Layer_1" xmlns="http://www.w3.org/2000/svg" xmlns:xlink="http://www.w3.org/1999/xlink" x="0px" y="0px"
	 viewBox="0 0 225 126.5" style="enable-background:new 0 0 225 126.5;" xml:space="preserve">
<g>
	<path d="M120.6,77.5c-1.6,0-2.9,1.2-2.9,2.8c0,1.6,1.3,2.9,2.9,2.9c1.6,0,2.9-1.3,2.9-2.9C123.4,78.7,122.2,77.5,120.6,77.5"/>
	<path d="M144.9,77.7c-0.5,0-0.8,0.2-1.2,0.4c-0.2,0.1-0.5,0.3-0.9,0.4c-1.2,0.5-2.8,0.8-4.5,0.8c-2.8,0-5.2-0.9-6.9-2.6
		c-1.7-1.8-2.5-4.2-2.5-7c0-2.4,0.8-4.6,2.2-6.3c1.8-2.1,4.3-3.2,7.1-3.2c1.6,0,3,0.3,4.4,0.9c0.3,0.1,0.5,0.2,0.7,0.3
		c0.5,0.3,0.9,0.4,1.4,0.4c1.1,0,2-0.8,2-1.9c0-1-0.6-1.7-2.1-2.4c-1.8-0.9-4.1-1.4-6.4-1.4c-4.5,0-8.5,1.8-11.1,4.9
		c-1.9,2.3-2.9,5.3-2.9,8.6c0,3.9,1.2,7.2,3.6,9.7c2.4,2.6,6,3.9,10.4,3.9c2.1,0,4.2-0.4,6.1-1.1c1.3-0.5,2.5-1.2,2.5-2.5
		C146.8,78.6,145.9,77.7,144.9,77.7"/>
	<path d="M162.2,56.2c-3.8,0-7.3,1.4-9.9,3.9c-2.5,2.4-3.9,5.9-3.9,9.7c0,3.8,1.4,7.2,3.9,9.6c2.5,2.5,6,3.9,9.9,3.9
		c3.9,0,7.4-1.4,9.9-3.9c2.5-2.5,3.9-5.9,3.9-9.6c0-3.8-1.4-7.2-3.9-9.7C169.6,57.6,166.1,56.2,162.2,56.2 M162.2,79.3
		c-2.6,0-5-1-6.7-2.9c-1.6-1.8-2.5-4.2-2.5-6.7c0-2.6,0.9-5,2.5-6.7c1.7-1.9,4.1-2.9,6.7-2.9c2.7,0,5.1,1,6.8,2.9
		c1.6,1.7,2.4,4.1,2.4,6.7s-0.9,5-2.4,6.7C167.3,78.3,164.9,79.3,162.2,79.3"/>
	<path d="M20.8,68.8c-0.9-0.5-2.3-1-3.5-1.4c-1-0.3-2.1-0.7-3-1c-2-0.7-2.9-1.8-2.9-3.1c0-2.1,2-3.3,4.8-3.3c1.7,0,3.2,0.4,4.5,1
		c1,0.4,1.8,0.8,2.5,0.8c0.7,0,1.3-0.3,1.6-0.9c0.5-1,0.3-2-1-2.9c-1.4-0.9-3.8-1.8-7.2-1.8c-5.7,0-9.6,2.9-9.6,7.4
		c0,2.8,1.5,4.7,4.3,6.1c1.1,0.5,2.2,1,3.6,1.4c1,0.3,2,0.7,2.7,1c2.6,1.1,3.3,2.2,3.3,3.8c0,2.2-2.1,3.6-5.1,3.6
		c-1.9,0-3.6-0.5-5.1-1.4c-0.9-0.5-1.6-0.9-2.4-0.9c-0.7,0-1.2,0.3-1.6,0.8c-0.6,0.8-0.6,2.3,1.6,3.5c2,1.1,4.5,1.7,7.6,1.7
		c6,0,9.8-3,9.8-7.8C25.7,72.6,24.1,70.3,20.8,68.8"/>
	<path d="M42.1,56.2c-3.8,0-7.3,1.4-9.9,3.9c-2.5,2.4-3.9,5.9-3.9,9.7c0,3.8,1.4,7.2,3.9,9.6c2.5,2.5,6,3.9,9.9,3.9
		c3.9,0,7.4-1.4,9.9-3.9c2.5-2.5,3.9-5.9,3.9-9.6c0-3.8-1.4-7.2-3.9-9.7C49.5,57.6,46,56.2,42.1,56.2 M42.1,79.3c-2.6,0-5-1-6.7-2.9
		c-1.6-1.8-2.5-4.2-2.5-6.7c0-2.6,0.9-5,2.5-6.7c1.7-1.9,4.1-2.9,6.7-2.9c2.7,0,5.1,1,6.8,2.9c1.6,1.7,2.4,4.1,2.4,6.7
		s-0.9,5-2.4,6.7C47.2,78.3,44.8,79.3,42.1,79.3"/>
	<path d="M83.4,56.2c-1.3,0-2.3,1-2.3,2.3v1c-2.1-2.3-5.1-3.4-8.6-3.3c-3.7,0.1-7,1.6-9.5,4.1c-2.4,2.5-3.8,6-3.8,9.8
		c0,3.8,1.3,7.1,3.8,9.5c2.5,2.5,5.9,3.8,9.6,3.6c3.5-0.1,6.6-1.6,8.5-3.7V81c0,1.2,1.1,2.2,2.3,2.2s2.3-1,2.3-2.2V58.5
		C85.7,57.2,84.7,56.2,83.4,56.2 M79.3,76.3c-1.7,1.9-3.8,3-6.7,3c-2.5,0-4.8-0.9-6.5-2.7c-1.5-1.7-2.4-4.1-2.4-6.7
		c0-2.6,0.9-5,2.4-6.8c1.7-1.9,4.1-3.1,6.6-3.1c3,0,5,0.8,6.5,2.5c1.7,1.9,2.3,3.7,2.3,6.8C81.6,72.7,80.6,74.8,79.3,76.3"/>
	<path d="M113.2,79c-3.6-2.7-7.1-6.7-10-11.7c3.2-2.4,6.1-5.5,8.4-8.8c0.5-0.7,1-1.4,1.4-2.3c0.5-1,0.5-2.3-0.7-3
		c-0.9-0.6-2.2-0.4-3.1,1c-0.3,0.5-0.6,1.1-1,1.6c-3.3,5.1-8.2,9.4-13,11.6V45.5c0-1.3-1.1-2.3-2.3-2.3c-1.3,0-2.3,1-2.3,2.3V81
		c0,1.2,1.1,2.2,2.3,2.2c1.3,0,2.3-1,2.3-2.2v-9.3c1.4-0.5,2.8-1.2,4.1-2c3.1,5.4,7.5,10.5,10.9,12.8c1.1,0.7,2.5,0.8,3.3-0.2
		C114.6,81.3,114.3,79.8,113.2,79"/>
	<path d="M215.8,58.7c-1.7-1.7-4.1-2.6-7.1-2.6c-2.1,0-3.9,0.5-5.4,1.4c-1.3,0.7-2.5,1.8-3.4,3.2c-0.6-1.2-1.4-2.1-2.4-2.9
		c-1.5-1.1-3.6-1.7-5.9-1.7c-3,0-5.4,1-7.2,3v-0.7c0-1.3-1.1-2.3-2.3-2.3c-1.3,0-2.3,1-2.3,2.3V81c0,1.2,1.1,2.2,2.3,2.2
		c1.3,0,2.3-1,2.3-2.2V69.2c0-3.2,0.3-4.6,1.3-6.2c1.1-1.7,2.9-2.7,5.1-2.7c1.9,0,3.4,0.6,4.4,1.7c1.1,1.2,1.6,3.2,1.6,5.8V81
		c0,1.2,1.1,2.2,2.3,2.2c1.3,0,2.3-1,2.3-2.2V69.8c0-3.8,0.3-5.2,1.3-6.8c1.1-1.7,2.9-2.7,5.1-2.7c1.9,0,3.4,0.6,4.4,1.7
		c1.1,1.2,1.6,3.2,1.6,5.8V81c0,1.2,1.1,2.2,2.3,2.2c1.3,0,2.3-1,2.3-2.2V66.7C218.6,63.2,217.7,60.5,215.8,58.7"/>
</g>
</svg>
