<?xml version="1.0" encoding="utf-8"?>
<!-- Generator: Adobe Illustrator 21.0.2, SVG Export Plug-In . SVG Version: 6.00 Build 0)  -->
<svg version="1.1" id="Layer_1" xmlns="http://www.w3.org/2000/svg" xmlns:xlink="http://www.w3.org/1999/xlink" x="0px" y="0px"
	 viewBox="0 0 225 126.5" style="enable-background:new 0 0 225 126.5;" xml:space="preserve">
<g>
	<path d="M31.6,46c2.3,0.4,3,0.7,5,1.5c0.6,0.2,1.9,1,2.5,1.4c-0.9,1.4-1.7,3-2.3,4c-2.1-1.5-4.2-2.5-8.6-2.4c-1.1,0-2.3,0.2-3.7,1
		c-1.7,1-2.4,2.4-2.3,4.5c0.1,2,1.2,3.3,3.1,3.8c1.9,0.5,3.8,0.8,5.7,1.1c7.3,1.1,11.3,7.1,8.5,13.6c-0.8,1.9-2.6,3.7-4.5,4.7
		c-5.6,3-14.8,1.3-19.5-3.3c1-1.2,2-2.4,3.1-3.6c3.1,2.2,6.4,3.4,10,3.3c1.4-0.1,2.9-0.4,4.2-1c1.9-0.9,2.7-2.6,2.4-4.7
		c-0.3-2.2-1.8-3.3-3.7-3.8c-1.9-0.4-3.9-0.6-5.8-0.9c-5.2-0.9-8.4-4.3-8.5-9.1c-0.2-5.1,2.5-8.6,7.7-10C27.2,45.7,30,45.8,31.6,46z
		"/>
	<path d="M131.7,50.8c0,3.5,0,6.7,0,10.2c4.7,0,9.3,0,14.1,0c0,1.5,0,2.8,0,4.3c-4.7,0-9.3,0-14,0c0,3.5,0,6.8,0,10.3
		c5.5,0,10.9,0,16.5,0c0,1.6,0,3,0,4.6c-7.2,0-14.3,0-21.6,0c0-11.3,0-22.6,0-33.9c7.2,0,14.4,0,21.7,0c0,1.5,0,2.9,0,4.4
		C142.8,50.8,137.4,50.8,131.7,50.8z"/>
	<path d="M51,66.9c0,4.6,0,8.9,0,13.4c-1.8,0-3.3,0-5,0c0-11.3,0-22.5,0-33.9c5.1,0,10-0.3,15,0.1c5.5,0.5,9,5.3,8.6,11
		c-0.3,5.1-4.5,9.2-9.8,9.4C56.9,67,54.1,66.9,51,66.9z M51.1,51c0,3.8,0,7.4,0,11c3.2,0,6.2,0.2,9.3-0.1c2.7-0.3,4.3-2.8,4.2-5.6
		c-0.1-2.8-1.8-5.1-4.4-5.3C57.2,50.9,54.3,51,51.1,51z"/>
	<path d="M157.6,80.4c-1.5,0-2.9,0-4.4,0c0-1.5,0-3,0-4.6c1.4,0,2.8,0,4.4,0C157.6,77.3,157.6,78.8,157.6,80.4z"/>
	<path d="M83.6,46h-4.3L67.2,80.4h5.1l2.5-7.6h13.4l2.9,7.6h5.3L83.6,46z M76.6,68.3l4.8-15.4l5.5,15.4H76.6z"/>
	<polygon points="161.9,46.1 161.9,80.5 167.4,80.5 167.4,56.5 183,80.5 187.6,80.5 187.6,71 193.9,63.3 203.7,80.5 209.6,80.5 
		197,59.7 208.1,46.1 202.3,46.1 187.9,64.2 187.6,46.1 182.6,46.3 182.6,70.5 166.7,46.1 	"/>
	<path d="M116.8,71.3c-0.3,0.6-0.5,1.1-1.1,2c-1.5,2.2-4,2.9-6.7,2.2c-2.8-0.8-4.8-2.6-5-5.5c-0.3-4.2-0.4-8.4-0.2-12.5
		c0.2-3.3,2.4-5.7,5.2-6.3c3.3-0.7,6,0.6,8,3.7c0.1,0.1,0.2,0.3,0.3,0.4h5.1c0-0.2-0.1-0.4-0.1-0.6c-1.4-4.7-5.2-7.8-9.4-8.6
		c-1.5-0.3-3.2-0.2-5.2,0.3c-5.2,1.5-8.7,5.4-9,10.8c-0.2,4.2-0.1,8.4,0,12.6c0,2.7,1,5.1,2.8,7c3.6,3.9,8.1,4.9,13,3.5
		c4.3-1.2,6.9-4.3,8-8.8H116.8z"/>
</g>
</svg>
