<?xml version="1.0" encoding="utf-8"?>
<!-- Generator: Adobe Illustrator 21.0.2, SVG Export Plug-In . SVG Version: 6.00 Build 0)  -->
<svg version="1.1" id="Layer_1" xmlns="http://www.w3.org/2000/svg" xmlns:xlink="http://www.w3.org/1999/xlink" x="0px" y="0px"
	 viewBox="0 0 198.4 51.2" style="enable-background:new 0 0 198.4 51.2;" xml:space="preserve">
<style type="text/css">
	.st0{fill:#1D1D1B;}
</style>
<g>
	<path class="st0" d="M23.3,28.3c-4.3,0-8.5,0-12.8,0c-2,0-4-0.4-4-2.7c0-2.2,1.8-2.8,3.9-2.8c8.7,0,17.4,0,26.1,0
		c1.9,0,3.7,0.5,3.7,2.7c0,2.3-1.8,2.8-3.8,2.8C31.9,28.3,27.6,28.3,23.3,28.3z"/>
	<path class="st0" d="M20.5,51.1c-4.4,0-8.7,0-13.1,0c-1.9,0-3.7-0.6-3.7-2.7s1.8-2.7,3.8-2.6c8.7,0,17.4,0,26.2,0
		c1.8,0,3.7,0.3,3.7,2.6c0.1,2.5-1.8,2.8-3.8,2.7C29.2,51.1,24.9,51.1,20.5,51.1z"/>
	<path class="st0" d="M28.9,5.3c-4.4,0-8.7,0-13.1,0C13.9,5.3,12,5,12,2.8C12,0.5,13.7,0,15.8,0C24.5,0,33.3,0,42,0
		c1.4,0,2.8,0.2,3.4,1.6c1,1.8-0.4,3.6-2.9,3.7C37.9,5.3,33.4,5.3,28.9,5.3z"/>
	<path class="st0" d="M14.8,11.4c3.9,0,7.9,0,11.7,0c1.7,0,3.3,0.3,3.3,2.6c0,2.3-1.5,2.7-3.2,2.7c-7.9,0-15.6,0-23.5,0
		C1.4,16.7,0,16,0,14.1c0-2,1.4-2.8,3.2-2.8C7.1,11.4,11,11.4,14.8,11.4z"/>
	<path class="st0" d="M33.4,39.7c-3.8,0-7.4,0-11.2,0c-1.9,0-3.7-0.6-3.6-2.7c0-2.2,1.7-2.7,3.7-2.7c7.5,0,15.1,0,22.6,0
		c1.8,0,3.4,0.3,3.4,2.8c0,2.5-1.8,2.6-3.6,2.6C40.9,39.7,37.1,39.7,33.4,39.7z"/>
	<path class="st0" d="M80,11.4c2.8-0.1,5.2,0.8,7.1,2.6c0.4,0.3,1.6,0.8,0.5,1.6c-0.5,0.5-1.2,1-1.9,0c-1.9-2.4-4.6-2.5-7.4-2
		c-2.3,0.3-3.8,1.7-4.2,4c-0.4,2.4,0.6,4.1,2.8,5c2.2,0.9,4.3,1.6,6.5,2.5c4,1.5,5.9,4,5.6,7.3c-0.2,3.6-2.9,6.7-6.8,7.3
		c-4,0.8-7.5-0.3-10.6-3.1c-0.5-0.4-1.5-1-0.4-1.9c0.9-0.8,1.3-0.5,2.2,0.3c2.6,2.7,5.8,3.4,9.4,2.3c2.2-0.8,3.6-2.2,3.8-4.6
		c0.2-2.7-1.1-4.3-3.2-5.3c-1.9-0.9-4-1.5-6-2.3c-4.6-1.7-6.4-4.4-5.5-8.4C72.5,13.7,75.9,11.4,80,11.4z"/>
	<path class="st0" d="M95.6,11.8v1.8h0.8c0.1,0,0.2,0,0.3,0c2,0,4,0,6,0c0.5,0,1.2-0.1,1.6,0.3v25.3h1c0.1,0,0.2,0,0.3,0h1.2V14l0,0
		c0-0.1,0-0.2,0-0.3c2.5,0,4.8,0,7.3,0c0.2,0,0.4,0,0.5,0h0.6v-1.8H95.6z"/>
	<path class="st0" d="M154.3,36.8c-0.1-0.1-0.1,0.1-0.2-0.1V13.5c0-0.3,0.1-0.6,0-1v-0.8h-2.6v24.9v2.7l0,0h15.8v-2.5H154.3z"/>
	<polygon class="st0" points="123.4,12.2 125.9,12.2 133.7,24.1 141.5,12.2 144.1,12.2 135,26.4 135,39.5 132.3,39.5 132.3,26.5 	
		"/>
	<path class="st0" d="M187.8,12.2h-2.7l-10.8,27.3h2.7l3.1-7.6h12.6l3.1,7.6h2.6L187.8,12.2z M180.9,29.7l5.6-14.3l5.7,14.3H180.9z"
		/>
</g>
</svg>
