<?xml version="1.0" encoding="utf-8"?>
<!-- Generator: Adobe Illustrator 21.0.2, SVG Export Plug-In . SVG Version: 6.00 Build 0)  -->
<svg version="1.1" id="Layer_1" xmlns="http://www.w3.org/2000/svg" xmlns:xlink="http://www.w3.org/1999/xlink" x="0px" y="0px"
	 viewBox="0 0 225 126.5" style="enable-background:new 0 0 225 126.5;" xml:space="preserve">
<g>
	<path d="M208.4,54.8c-1.3,0-2.3,1-2.3,2.1c0,1.3,1,2.3,2.3,2.3c1.1,0,2.1-1,2.1-2.3C210.5,55.7,209.5,54.8,208.4,54.8L208.4,54.8z
		 M208.4,58.7c-1,0-1.9-1-1.9-1.8c0-1,1-1.7,1.9-1.7s1.7,0.8,1.7,1.7S209.3,58.7,208.4,58.7L208.4,58.7z"/>
	<path d="M208,56.6v-0.5h0.6c0.3,0,0.3,0.2,0.3,0.2c-0.2,0.3-0.2,0.3-0.5,0.3L208,56.6L208,56.6z M207.2,57.9h0.3l0.2-1h0.6
		c0.3,0,0.2,0.2,0.2,0.3s0,0.3,0,0.5h0.5v-0.2c-0.2,0-0.2,0,0-0.3c0-0.3,0-0.5-0.2-0.5c0.2,0,0.4-0.3,0.4-0.5c0-0.2,0-0.5-0.6-0.5
		h-1.1L207.2,57.9L207.2,57.9z"/>
	<path d="M66.3,73c0.5-4.5,2.1-7.7,2.1-10.1c0-3.6-3.2-4.9-7-4.9c-2.4,0-4.1,0.3-5.9,0.8L55,62.5c1.9-1,3.2-1.1,5.2-1.1
		c1.7,0,2.8,0.8,2.8,1.9c0,0.2,0,0.3,0,0.5c-0.8,0-1.9-0.2-3-0.2c-4.7,0-8.7,1.8-8.7,5.4c0,2.8,1.8,4.1,5.2,4.1
		c2.1,0,4.1-0.5,5.2-2.3v-0.2v0.2L61.7,73H66.3L66.3,73z M58.4,69.8c-1.1,0-1.9-0.7-1.9-1.3c0-1.3,1.9-2.3,4.5-2.1
		c0.3,0,1.1,0,1.5,0C62.2,68.2,60.9,69.8,58.4,69.8L58.4,69.8z"/>
	<path d="M81.2,58.4l-5.4,9.2l0,0l-1.5-9.2h-5.4l3.4,14.4c-0.6,1.5-1.5,2.4-3,2.4c-1.1,0-1.8-0.2-2.6-0.3l-1.1,3.6
		c1.1,0.3,2.4,0.7,4.3,0.7c3.4,0,5.2-1.7,6.7-4.3l10.5-16.5H81.2L81.2,58.4z"/>
	<polygon points="89.5,52 84.8,73 90.2,73 95,52 	"/>
	<path d="M103.6,57.9c-6.2,0-10.1,3.6-10.1,8.7c0,3.6,2.3,6.6,8,6.6c6,0,10.3-2.6,10.3-8.7C111.9,60.8,108.9,57.9,103.6,57.9
		L103.6,57.9z M102.1,69.8c-1.8,0-3-1.3-3-3.4c0-2.3,1.5-4.9,4.1-4.9c2.3,0,3,1.3,3,2.8C106.2,67.7,104.6,69.8,102.1,69.8
		L102.1,69.8z"/>
	<path d="M124.1,57.9c-2.3,0-4.1,1.7-4.9,3.4H119l0.8-3h-5.1c-0.2,1.3-0.3,2.4-0.8,3.8L111.5,73h5.4l1.5-6.7
		c0.5-2.3,1.8-4.1,4.1-4.1c1,0,1.9,0.2,2.4,0.8l1.3-4.5C125.6,57.9,124.9,57.9,124.1,57.9L124.1,57.9z"/>
	<polygon points="145.7,53.3 138.9,66.4 138.9,66.4 138.5,53.3 129.8,53.3 125.2,73 130.3,73 133.9,56.9 134,56.9 134.7,73 
		140.1,73 148.5,56.9 148.5,56.9 144.5,73 150.1,73 154.7,53.3 	"/>
	<path d="M162.5,57.9c-2.4,0-4.1,0.3-5.6,0.8l-0.5,3.8c1.7-1,3.1-1.1,5.1-1.1c1.8,0,2.8,0.8,2.8,1.9c0,0.2,0,0.3,0,0.5
		c-0.8,0-1.8-0.2-2.8-0.2c-4.9,0-8.8,1.8-8.8,5.4c0,2.8,1.8,4.1,5.2,4.1c2.3,0,4.1-0.5,5.4-2.3v-0.2v0.2l-0.2,2.1h4.3
		c0.6-4.5,2.1-7.7,2.1-10.1C169.5,59.2,166.3,57.9,162.5,57.9L162.5,57.9z M159.6,69.8c-1.1,0-1.7-0.7-1.7-1.3
		c0-1.3,1.8-2.3,4.5-2.1c0.2,0,1,0,1.3,0C163.3,68.2,162,69.8,159.6,69.8L159.6,69.8z"/>
	<path d="M186.1,52l-1.8,8.7l0,0c-1-1.5-2.8-2.6-5.7-2.6c-5.2,0-7.9,4.5-7.9,9.2c0,3.3,2.4,6,5.9,6c3,0,4.3-1,5.9-2.6l0,0L182,73
		h4.9c0.2-0.8,0.2-1.3,0.3-2.3l4.3-18.8L186.1,52L186.1,52z M178.9,69.4c-1.8,0-2.6-1.3-2.6-3c0-2.3,1.5-4.5,4.1-4.5
		c1.7,0,2.6,1.5,2.6,2.8C183,66.7,181.3,69.4,178.9,69.4L178.9,69.4z"/>
	<path d="M206.5,64.3c0-4.5-3.1-6.4-7.3-6.4c-7,0-9.4,5.2-9.4,8.7c0,3.6,2.8,6.6,8,6.6c1.5,0,3.6-0.2,5.4-0.8l0.8-3.6
		c-1.5,0.8-3.4,1-4.9,1c-3.4,0-4.1-1.1-4.3-2.8h11.3C206.3,66.2,206.5,64.9,206.5,64.3L206.5,64.3z M195.2,64.1
		c0.3-1.3,1.7-2.8,3.9-2.8c2.1,0,2.8,1.3,2.8,2.8H195.2L195.2,64.1z"/>
	<path d="M51.6,49.9c-14.6-7.3-29.1-3.4-35.8,4.5c15.4-3.1,28-2.1,37.3-0.5c0-0.2,0-0.3,0-0.8c0,0,0,0,0-0.2v-0.2
		C53.4,51.5,52.6,50.5,51.6,49.9L51.6,49.9z"/>
	<path d="M47.9,61c-3.8,0.3-5.2,3-7.3,6.2c-1.5,2.6-6.7,11.8-9,15.7c2.6,1.3,5.1,1.3,7.7,0.5c1.9-0.8,2.8-1.1,3.9-1.9
		c0.3-0.2,0.5-0.5,1-1l0,0c0-0.2,0-0.2,0.2-0.2c3.4-5.2,5.8-13.3,6.9-17.7c0-0.5,0.2-1.1,0.3-1.7C50.1,61,49,61,47.9,61L47.9,61z"/>
	<path d="M28,61c-6.6,1-11.6,2.4-14.3,3.6c0.2,0.5,0.2,1,0.2,1l0.2,0.2l0,0c1,3.6,4.7,7.9,10.7,12.8c0.3,0.2,0.5,0.3,0.7,0.5
		c3.6-5.4,5.4-9.4,6.9-13.7C33.6,61.5,31.8,60.4,28,61L28,61z"/>
</g>
</svg>
