<?xml version="1.0" encoding="utf-8"?>
<!-- Generator: Adobe Illustrator 21.0.2, SVG Export Plug-In . SVG Version: 6.00 Build 0)  -->
<svg version="1.1" id="Layer_1" xmlns="http://www.w3.org/2000/svg" xmlns:xlink="http://www.w3.org/1999/xlink" x="0px" y="0px"
	 viewBox="0 0 109 107.7" style="enable-background:new 0 0 109 107.7;" xml:space="preserve">
<style type="text/css">
	.st0{fill:#307FE2;}
</style>
<g>
	<g>
		<path class="st0" d="M67.9,95.2H15c-1.2,0-2.2-1-2.2-2.2c0-1.2,1-2.2,2.2-2.2h52.9c1.2,0,2.2,1,2.2,2.2
			C70.1,94.3,69.1,95.2,67.9,95.2z M94.5,79.6H55.3c-1.2,0-2.2-1-2.2-2.2c0-1.2,1-2.2,2.2-2.2h39.2c1.2,0,2.2,1,2.2,2.2
			C96.7,78.6,95.7,79.6,94.5,79.6z M44.9,78.7H14.8c-1.2,0-2.2-1-2.2-2.2c0-1.2,1-2.2,2.2-2.2h30.1c1.2,0,2.2,1,2.2,2.2
			C47,77.7,46.1,78.7,44.9,78.7z M94.5,64.9H64.4c-1.2,0-2.2-1-2.2-2.2s1-2.2,2.2-2.2h30.1c1.2,0,2.2,1,2.2,2.2S95.7,64.9,94.5,64.9
			z M54.2,64.9H15c-1.2,0-2.2-1-2.2-2.2s1-2.2,2.2-2.2h39.2c1.2,0,2.2,1,2.2,2.2S55.4,64.9,54.2,64.9z M93.4,48.2H15
			c-1.2,0-2.2-1-2.2-2.2c0-1.2,1-2.2,2.2-2.2h78.4c1.2,0,2.2,1,2.2,2.2C95.6,47.2,94.6,48.2,93.4,48.2z M57.5,32.5H15
			c-1.2,0-2.2-1-2.2-2.2c0-1.2,1-2.2,2.2-2.2h42.5c1.2,0,2.2,1,2.2,2.2C59.7,31.5,58.7,32.5,57.5,32.5z M67.9,16.8H15
			c-1.2,0-2.2-1-2.2-2.2s1-2.2,2.2-2.2h52.9c1.2,0,2.2,1,2.2,2.2S69.1,16.8,67.9,16.8z"/>
	</g>
	<g>
		<path class="st0" d="M73.9,101.1c-0.6,0-1.1-0.2-1.5-0.6c-0.9-0.9-0.9-2.2,0-3.1l4.4-4.4l-4.2-4.2c-0.9-0.9-0.9-2.2,0-3.1
			c0.9-0.9,2.2-0.9,3.1,0l5.8,5.8c0.9,0.9,0.9,2.2,0,3.1l-6,6C75,100.9,74.4,101.1,73.9,101.1z M7.9,84.5c-0.6,0-1.1-0.2-1.5-0.6
			L0.6,78c-0.9-0.9-0.9-2.2,0-3.1l6-6c0.9-0.9,2.2-0.9,3.1,0c0.9,0.9,0.9,2.2,0,3.1l-4.4,4.4l4.2,4.2c0.9,0.9,0.9,2.2,0,3.1
			C9.1,84.2,8.5,84.5,7.9,84.5z M100.9,70.7c-0.6,0-1.1-0.2-1.5-0.6c-0.9-0.9-0.9-2.2,0-3.1l4.4-4.4l-4.2-4.2
			c-0.9-0.9-0.9-2.2,0-3.1c0.9-0.9,2.2-0.9,3.1,0l5.8,5.8c0.9,0.9,0.9,2.2,0,3.1l-6,6C102,70.5,101.4,70.7,100.9,70.7z M7.9,22.7
			c-0.6,0-1.1-0.2-1.5-0.6l-5.8-5.8c-0.9-0.9-0.9-2.2,0-3.1l6-6c0.9-0.9,2.2-0.9,3.1,0c0.9,0.9,0.9,2.2,0,3.1l-4.4,4.4L9.5,19
			c0.9,0.9,0.9,2.2,0,3.1C9.1,22.5,8.5,22.7,7.9,22.7z"/>
	</g>
</g>
</svg>
