<?xml version="1.0" encoding="utf-8"?>
<!-- Generator: Adobe Illustrator 19.2.1, SVG Export Plug-In . SVG Version: 6.00 Build 0)  -->
<svg version="1.1" id="Layer_1" xmlns="http://www.w3.org/2000/svg" xmlns:xlink="http://www.w3.org/1999/xlink" x="0px" y="0px"
	 viewBox="0 0 100.9 108.2" style="fill: #307FE2; enable-background:new 0 0 100.9 108.2;" xml:space="preserve">
<g>
	<path d="M74.7,107.7c-1.4,0-2.5-1.1-2.5-2.5V61.3c0-1.4,1.1-2.5,2.5-2.5s2.5,1.1,2.5,2.5v44
		C77.2,106.6,76.1,107.7,74.7,107.7z"/>
	<path d="M58.5,108c-1.4,0-2.5-1.1-2.5-2.5V20c0-1.4,1.1-2.5,2.5-2.5S61,18.6,61,20v85.5C61,106.9,59.9,108,58.5,108z"
		/>
	<path d="M42.2,108c-1.4,0-2.5-1.1-2.5-2.5V76.1c0-1.4,1.1-2.5,2.5-2.5s2.5,1.1,2.5,2.5v29.4
		C44.7,106.9,43.6,108,42.2,108z"/>
	<path d="M26,108c-1.4,0-2.5-1.1-2.5-2.5V52c0-1.4,1.1-2.5,2.5-2.5s2.5,1.1,2.5,2.5v53.5C28.5,106.9,27.4,108,26,108z"
		/>
	<path d="M9.8,108c-1.4,0-2.5-1.1-2.5-2.5V20c0-1.4,1.1-2.5,2.5-2.5s2.5,1.1,2.5,2.5v85.5C12.3,106.9,11.1,108,9.8,108z
		"/>
	<g>
		<path d="M90.9,108c-1.4,0-2.5-1.1-2.5-2.5V42.9c0-1.4,1.1-2.5,2.5-2.5s2.5,1.1,2.5,2.5v62.7
			C93.4,106.9,92.3,108,90.9,108z"/>
		<path d="M84.3,35.4c-0.6,0-1.3-0.2-1.8-0.7c-1-1-1-2.6,0-3.5l7-7c1-1,2.6-1,3.5,0l6.9,6.9c1,1,1,2.6,0,3.5
			c-1,1-2.6,1-3.5,0l-5.2-5.2L86,34.7C85.6,35.1,85,35.4,84.3,35.4z"/>
	</g>
	<path d="M51,12.2c-0.6,0-1.3-0.2-1.8-0.7c-1-1-1-2.6,0-3.5l7-7c0.9-0.9,2.6-0.9,3.5,0l6.9,6.9c1,1,1,2.6,0,3.5
		c-1,1-2.6,1-3.5,0L58,6.2l-5.2,5.2C52.3,11.9,51.6,12.2,51,12.2z"/>
	<g>
		<path d="M18.9,43.8c-0.6,0-1.3-0.2-1.8-0.7c-1-1-1-2.6,0-3.5l7-7c0.9-0.9,2.6-0.9,3.5,0l6.9,6.9c1,1,1,2.6,0,3.5
			c-1,1-2.6,1-3.5,0L25.8,38l-5.2,5.2C20.2,43.6,19.6,43.8,18.9,43.8z"/>
	</g>
	<g>
		<path d="M67.7,53.9c-0.6,0-1.3-0.2-1.8-0.7c-1-1-1-2.6,0-3.5l7-7c0.5-0.5,1.1-0.7,1.8-0.7l0,0c0.7,0,1.3,0.3,1.8,0.7
			l6.9,6.9c1,1,1,2.6,0,3.5c-1,1-2.6,1-3.5,0l-5.2-5.2l-5.2,5.2C69,53.7,68.4,53.9,67.7,53.9z"/>
	</g>
	<g>
		<path d="M2.9,12.2c-0.6,0-1.3-0.2-1.8-0.7c-1-1-1-2.6,0-3.5l7-7c0.5-0.5,1.1-0.8,1.8-0.8l0,0c0.7,0,1.3,0.3,1.8,0.7
			l6.9,6.9c1,1,1,2.6,0,3.5c-1,1-2.6,1-3.5,0L9.8,6.2l-5.2,5.2C4.2,11.9,3.5,12.2,2.9,12.2z"/>
	</g>
	<g>
		<path d="M35.4,69.4c-0.6,0-1.3-0.2-1.8-0.7c-1-1-1-2.6,0-3.5l7-7c0.5-0.5,1.1-0.7,1.8-0.7l0,0c0.7,0,1.3,0.3,1.8,0.7
			l6.9,6.9c1,1,1,2.6,0,3.5c-1,1-2.6,1-3.5,0l-5.2-5.2l-5.2,5.2C36.5,69.1,35.9,69.4,35.4,69.4z"/>
	</g>
</g>
</svg>
