<svg version="1.1" id="Layer_1" xmlns="http://www.w3.org/2000/svg" xmlns:xlink="http://www.w3.org/1999/xlink" x="0px" y="0px"
	 viewBox="0 0 20 20" style="enable-background:new 0 0 20 20;" xml:space="preserve">
	<style>
		.st0{
			fill: #ffffff;
		}
	</style>
<path class="st0" d="M1.2,15.5c1.6,1,3.5,1.6,5.5,1.6c6.7,0,10.5-5.7,10.3-10.8c0.7-0.5,1.3-1.1,1.8-1.9c-0.6,0.3-1.3,0.5-2.1,0.6
	c0.7-0.4,1.3-1.2,1.6-2C17.6,3.5,16.9,3.8,16,4c-0.7-0.7-1.6-1.1-2.6-1.1c-2.3,0-4.1,2.2-3.5,4.4c-3-0.2-5.7-1.6-7.5-3.8
	C1.5,5.1,1.9,7.3,3.5,8.3c-0.6,0-1.2-0.2-1.6-0.5c0,1.7,1.2,3.2,2.9,3.6c-0.5,0.1-1.1,0.2-1.6,0.1C3.6,13,5,14,6.5,14
	C5,15.2,3.1,15.8,1.2,15.5z"/>
</svg>
