<svg version="1.1" id="Layer_1" xmlns="http://www.w3.org/2000/svg" xmlns:xlink="http://www.w3.org/1999/xlink" x="0px" y="0px"
	 viewBox="0 0 225 126.5" style="enable-background:new 0 0 225 126.5;" xml:space="preserve">
<g>
	<path d="M126.7,23.9c-5.7-0.8-10.2-0.8-11.6-0.8c-0.3,0-0.4,0-0.4,0c0,0-0.2,0-0.5,0c-0.6,0-1.7,0-3.2,0c-2.3,0.1-5.6,0.3-9.4,0.8
		c-3,0.4-6.2,1.1-9.6,2c-3.6,1-7.3,2.5-10.8,4.4v39.6c0,8,2.8,15.1,8.8,20.1c1.4,1.2,3.5,2.5,5.9,3.8c2,1.1,4.3,2.3,6.5,3.4
		c2.6,1.3,5.2,2.4,7.3,3.4c2.9,1.3,4.9,2.1,4.9,2.1c0,0,4.4-1.8,9.6-4.2c5.6-2.6,12-5.9,15-8.4c6-5,8.8-12.1,8.8-20.1V47.5v-6.1
		v-2.8v-8.1C141,26.6,133.1,24.8,126.7,23.9z M137.6,88.1c-4.7,3.9-19,10.2-22.9,11.9c-2-1-17.1-7.6-22.9-11.9
		c-5.5-4-7.9-10.6-7.9-18c0-2.9,0-5.8,0-8.8v-1.2c0-3.6,0-7.1,0-10.6c0-0.7,0-1.5,0-2.2c3.6-3.5,7.4-6.3,11.4-8.5
		c3.1-1.8,6.4-3.2,9.6-4.3c3.1-1.1,6.2-1.9,9.3-2.5c5.8-1.2,11.7-1.6,17.4-1.6c4.7,0,9.4,0.3,13.8,0.8c0,1,0,2,0,3
		c0,4.8,0,9.7,0,14.6c0,7.2,0,14.3,0,21.5C145.5,77.5,142.8,83.8,137.6,88.1z"/>
	<path d="M99.3,49c0,7.5,0,15,0,22.5c-0.6,0.4-1.6,0.7-2.8,0.7c-2.7,0-3.1-2.5-3.1-4.2c0-6.3,0-12.7,0-19c-2,0-3.9,0-5.8,0.1v18.6
		c0,6.3,2.9,9.5,8.7,9.6c3.6,0,6.7-0.8,8.9-2.3c0-8.6,0-17.4,0-26C103.2,48.9,101.3,49,99.3,49 M136.7,48.4
		c-3.8,0.1-7.9,2.9-7.9,7.7c0,3.2,0.9,5.6,5.8,8.5c2.6,1.5,3.6,2.5,3.6,4.4c0.1,2.1-1.4,3.3-3.5,3.3c-1.9,0-4.1-1-5.7-2.4
		c0,1.8,0,3.7,0,5.5c1.9,1.1,4.2,1.8,6.5,1.8c5.8-0.1,8.3-4.2,8.5-8c0.1-3.5-0.8-6.1-5.7-9c-2.2-1.3-3.9-2.2-3.9-4.3
		c0.1-2.1,1.8-2.9,3.5-2.8c2,0,4,1.2,5.2,2.5c0-1.7,0-3.4,0-5.2c-1-0.8-3.1-2-6.2-2C136.9,48.4,136.8,48.4,136.7,48.4 M114.1,72
		c0-6.1,0-12.3,0-18.5c0.5-0.2,1.3-0.4,2.1-0.4c3.5,0,4.9,2.8,4.9,9.5c0,6.6-1.7,9.7-5.1,9.7C115.2,72.4,114.5,72.2,114.1,72
		 M108.1,50.4c0,13,0,26.2,0.1,38.9c2,0,4,0,6,0c0-4.1,0-8.3,0-12.5c0.6,0.2,1.5,0.3,2.7,0.3c6.7,0,10.5-6,10.5-14.8
		c0-8.8-3.9-14.2-11.1-14.2C112.9,48.3,110.3,49,108.1,50.4"/>
	<g>
		<path d="M134.5,104c-1.5,0-2.5-1-2.5-2.4c0-1.4,0.9-2.4,2.5-2.4s2.5,1,2.5,2.4C137,103,136.1,104,134.5,104z M134.5,99.5
			c-1.2,0-1.9,0.9-1.9,2.1c0,1.2,0.7,2.1,1.9,2.1c1.2,0,1.9-0.9,1.9-2.1C136.4,100.4,135.8,99.5,134.5,99.5z M135,103l-0.7-1.4h-0.1
			v1.4h-0.5v-2.7c0.2-0.1,0.5-0.1,0.8-0.1c0.7,0,1,0.3,1,0.8c0,0.4-0.3,0.6-0.7,0.7l0.8,1.4H135z M134.5,100.4c-0.1,0-0.2,0-0.3,0
			v0.9c0,0,0.1,0,0.2,0c0.4,0,0.6-0.2,0.6-0.5C135,100.6,134.9,100.4,134.5,100.4z"/>
	</g>
</g>
</svg>
