<?xml version="1.0" encoding="utf-8"?>
<!-- Generator: Adobe Illustrator 21.0.2, SVG Export Plug-In . SVG Version: 6.00 Build 0)  -->
<svg version="1.1" id="Layer_1" xmlns="http://www.w3.org/2000/svg" xmlns:xlink="http://www.w3.org/1999/xlink" x="0px" y="0px"
	 viewBox="0 0 225 126.5" style="enable-background:new 0 0 225 126.5;" xml:space="preserve">
<g>
	<path d="M183.1,46.5h17.2v2.8c-0.5-0.2-1-0.3-1.5-0.3h-9.9v12.8h9.6c0.7,0,1.3-0.1,1.8-0.2v2.7c-0.4-0.1-1-0.1-1.8-0.1h-9.6v13.2
		h9.6c0.5,0,1.1-0.1,1.8-0.2v2.9h-17.2c0.1-0.5,0.2-1,0.2-1.6V48.1C183.4,47.4,183.3,46.8,183.1,46.5"/>
	<path d="M179.2,55.1l-5,0c-0.2-2.8-1.9-5.5-5.4-6c-7.5-0.7-9.7,7.6-9.5,13.7c0.2,5.9,1.1,14.8,8.9,14.8c3.3,0,6.4-3.4,6.3-6.2
		l4.6,0c-0.3,5.8-7,9.2-10.3,9.3c-10.9,0.4-15.5-6.9-15.7-17.3c-0.2-9.4,3.6-17.7,14.4-17.7C176.9,45.9,178.7,51.4,179.2,55.1"/>
	<path d="M101.6,76.3l3.3-2.8c1.7,2.8,3.1,4.1,6.5,4.1c3.5,0,6.4-2.1,6.4-5.8c0-1.8-0.7-3.3-2.2-4.5c-0.7-0.5-2.4-1.4-5-2.7
		c-4-2-7.8-4.4-7.8-9.4c0-6.3,5.3-9.1,11-9.3c3.3-0.2,7.5,1.7,9.2,3.8l-3.3,2.6c-1.5-2.7-4.1-3.7-6.2-3.7c-4.2,0-7.6,5-4.1,8.4
		c0.9,0.9,2.7,1.9,5.6,3.2c4.4,2.1,8.3,4.6,8.3,10.1c0,1.9-0.5,3.7-1.5,5.3c-2,3.3-5.3,4.9-9.9,4.9
		C106.3,80.6,105.3,79.4,101.6,76.3"/>
	<path d="M54.7,46.5h17.2v2.8c-0.5-0.2-1-0.3-1.5-0.3h-9.9v12.8h9.6c0.7,0,1.3-0.1,1.8-0.2v2.7c-0.4-0.1-1-0.1-1.8-0.1h-9.7v13.2
		h9.6c0.5,0,1.1-0.1,1.8-0.2v2.9H54.7c0.1-0.5,0.2-1,0.2-1.6V48.1C54.9,47.4,54.8,46.8,54.7,46.5"/>
	<path d="M24.6,46.5h6.2v0.3c0,0.3,0.1,0.6,0.2,1.1l8.8,26.5l9-26.6c0.1-0.5,0.2-0.9,0.2-1.3h3c-0.3,0.5-0.5,1-0.7,1.4L41.2,78.7
		C41.1,79,41,79.5,41,80.1h-5.1c-0.1-0.4-0.2-0.9-0.3-1.4L25.4,48.1C25.3,47.8,25,47.3,24.6,46.5"/>
	<path d="M91,64c4.1-0.8,7.3-3.9,7.3-8.4c0-5.9-4.9-9.1-10.4-9.1H77.8c0.2,0.5,0.2,1,0.2,1.6v30.4c0,0.6-0.1,1.2-0.2,1.6h6
		c-0.2-0.5-0.2-1-0.2-1.6v-14l1.9,0.2l10.1,15.4h6L91,64z M90,61.4c-1.1,0.8-2.4,1.2-3.9,1.2h-2.5V48.9h2.3c2,0,3.5,0.5,4.6,1.5
		c1.5,1.4,2.2,3.2,2.2,5.5C92.6,58.3,91.8,60.1,90,61.4"/>
	<path d="M152.2,78.7L141,47.6c-0.1-0.4-0.2-0.8-0.2-1.1H136c0,0.4-0.1,0.8-0.2,1.2l-10.8,31c-0.2,0.4-0.4,0.9-0.7,1.4h3.1
		c0-0.5,0.1-1,0.2-1.4l3.2-9.2h12.4l3.1,9.2c0.2,0.5,0.3,0.9,0.3,1.4h6.4C152.7,79.5,152.4,79,152.2,78.7 M131.6,67.1l5.2-15.2
		l5.4,15.2H131.6z"/>
</g>
</svg>
