<svg version="1.1" id="Layer_1" xmlns="http://www.w3.org/2000/svg" xmlns:xlink="http://www.w3.org/1999/xlink" x="0px" y="0px"
	 viewBox="0 0 225 126.5" style="enable-background:new 0 0 225 126.5;" xml:space="preserve">
<g>
	<path class="st0" d="M174.2,82.1l0-0.2l-0.1-0.2l0-0.2l0-0.3l-0.1-0.3l0-0.2l0-0.3l-0.1-0.3l0-0.2l-0.1-0.2l-0.1-0.2l-0.1-0.3
		l0-0.2l-0.1-0.2l0-0.2l0-0.2l-0.1-0.2l0-0.2l0-0.3l-0.1-0.2l-0.1-0.2l0-0.3l-0.1-0.2l0-0.3l0-0.2l-0.1-0.2l0-0.2l-0.1-0.3l-0.1-0.3
		l0-0.2l0-0.2l-0.1-0.2l-0.1-0.3l0-0.3l0-0.2l0-0.3l-0.1-0.3l0-0.2l0-0.2l0-0.3l0-0.3l-0.1-0.2l0-0.3l-0.1-0.2l0-0.2l-0.1-0.2l0-0.3
		l0-0.2l0-0.2l-0.1-0.2l-0.1-0.2l0-0.2l0-0.3l0-0.3l-0.1-0.2l0-0.2l-0.1-0.2l0-0.2l-0.1-0.2l0-0.3l-0.1-0.2l0-0.2l-0.1-0.2l0-0.2
		l-0.1-0.3l-0.1-0.2l0-0.2l0-0.2l0-0.2l-0.1-0.3l0-0.2l-0.1-0.2l0-0.3l-0.1-0.2l0-0.3l0-0.2l-0.1-0.3l-0.1-0.2l0-0.3l-0.1-0.3l0-0.2
		l-0.1-0.2l0-0.2l0-0.2l0-0.3l-0.1-0.2l-0.1-0.2l0-0.2l0-0.2l0-0.3l-0.1-0.2l0-0.2l-0.1-0.3l-0.1-0.2l0-0.3l-0.1-0.3l0-0.2l-0.1-0.2
		l-0.1-0.2l0-0.3l0-0.2l0-0.3l-0.1-0.2l-0.1-0.2l-0.1-0.2l-0.1-0.2l-0.1-0.3l-0.1-0.2l0-0.3l0-0.2l-0.1-0.3l0-0.2l0-0.2l0-0.3
		l-0.1-0.2l0-0.2l-0.1-0.2l-0.1-0.3l0-0.3l0-0.3l-0.1-0.2l-0.1-0.2l0-0.3l0-0.2l-0.1-0.3l0-0.3l-0.1-0.2l-0.1-0.2l0-0.2l0-0.2
		l-0.1-0.3l-0.1-0.2l0-0.3l0-0.2l-0.1-0.2l-0.1-0.2l0-0.3l0-0.3l-0.1-0.2l-0.1-0.2l0-0.2l0-0.3l-0.1-0.2l0-0.3l-0.1-0.2l0-0.2l0-0.3
		l-0.1-0.3l-0.1-0.2l0-0.2l0-0.3l0-0.2l0-0.3l-0.1-0.2l-0.1-0.2l-0.1-0.3l-0.1-0.3l0-0.2l0-0.2l-0.1-0.2h-8.6l-0.5,0.1l-0.3,0
		l-0.2,0.1l-0.2,0l-0.2,0l-0.2,0.1l-0.1,0l-0.1,0l-0.1,0.1l-0.1,0.1l-0.1,0.1l-0.1,0l-0.1,0l-0.1,0.1l-0.1,0l-0.1,0l-0.1,0l-0.1,0.1
		l-0.1,0l-0.1,0.1l-0.1,0l0,0.1l-0.1,0.1l-0.1,0l0,0l0,0.1l-0.1,0l0,0.1l-0.1,0l0,0.1l0,0l-0.1,0.1l0,0l-0.1,0.1l0,0.1l-0.1,0.1
		l-0.1,0l0,0.1l-0.1,0.1l0,0.1l-0.1,0.1l-0.1,0.1l0,0.1l0,0.1l-0.1,0.1l0,0.1l-0.1,0.1l0,0.1l-0.1,0.1l0,0.1l-0.1,0.1l0,0.2l0,0.1
		l-0.1,0.1l0,0.1l0,0.1l0,0.1l0,0.1l-0.1,0.1l0,0.1l-0.1,0.1l0,0.2l-0.1,0.1l0,0.1l0,0.2l-0.1,0.1l-0.1,0.1l0,0.1l0,0.1l-0.1,0.2
		l0,0.1l-0.1,0.2l0,0.1l-0.1,0.1l0,0.1l-0.1,0.1l0,0.1l-0.1,0.1l-0.1,0.1l0,0.2l-0.1,0.1l0,0.1l0,0.2l0,0.1l0,0.1l-0.1,0.1l0,0.1
		l0,0.2l0,0.1l-0.1,0.1l0,0.1l0,0.1l0,0.1l-0.1,0.1l0,0.1l-0.1,0.1l0,0.1l-0.1,0.1l0,0.1l-0.1,0.1l0,0.2l-0.1,0.1l-0.1,0.1l0,0.1
		l0,0.1l-0.1,0.1l0,0.1l-0.1,0.2l0,0.1l-0.1,0.1l0,0.2l-0.1,0.1l-0.1,0.1l0,0.1l0,0.1l-0.1,0.2l0,0.1l-0.1,0.1l0,0.1l-0.1,0.1l0,0.2
		l-0.1,0.1l0,0.1l0,0.2l-0.1,0.1l0,0.1l0,0.1l-0.1,0.1l0,0.2l0,0.1l-0.1,0.2l0,0.1l0,0.1l-0.1,0.2l0,0.1l-0.1,0.1l0,0.1l-0.1,0.1
		l0,0.1l-0.1,0.1l0,0.1l-0.1,0.2l0,0.1l0,0.1l0,0.1l-0.1,0.1l0,0.2l-0.1,0.1l-0.1,0.1l0,0.1l-0.1,0.1l0,0.2l-0.1,0.1l-0.1,0.2
		l-0.1,0.1l-0.1,0.1l-0.1,0.2l0,0.1l-0.1,0.1l0,0.1l-0.1,0.1l0,0.2l-0.1,0.1l0,0.1l-0.1,0.1l0,0.1l0,0.2l0,0.1l-0.1,0.1l0,0.1l0,0.1
		l-0.1,0.2l0,0.1l0,0.1l0,0.1l0,0.1l-0.1,0.1l0,0.1l-0.1,0.1l0,0.2l-0.1,0.1l0,0.1l-0.1,0.1l0,0.1l-0.1,0.2l0,0.1l0,0.1l-0.1,0.2
		l0,0.1l-0.1,0.1l0,0.1l0,0.1l0,0.2l-0.1,0.1l-0.1,0.2l0,0.1l0,0.1l-0.1,0.1l-0.1,0.1l0,0.2l-0.1,0.1l0,0.1l-0.1,0.2l0,0.1l-0.1,0.1
		l0,0.2l-0.1,0.1l0,0.2l-0.1,0.1l0,0.1l-0.1,0.2l0,0.1l-0.1,0.2l-0.1,0.1l0,0.1l0,0.1l-0.1,0.1l0,0.1l-0.1,0.2l0,0.1l0,0.2l0,0.1
		l-0.1,0.1l0,0.2l-0.1,0.1l0,0.2l0,0.1l-0.1,0.1l-0.1,0.2l0,0.1l0,0.2l-0.1,0.1l0,0.1l0,0.1l-0.1,0.1l0,0.1l-0.1,0.1l0,0.1l-0.1,0.1
		l0,0.1l0,0.1l0,0.2l0,0.1l-0.1,0.2l0,0.1l0,0.1l-0.1,0.2l-0.1,0.1l-0.1,0.2l0,0.1l0,0.1l-0.1,0.2l0,0.1l-0.1,0.1l0,0.1l0,0.1
		l-0.1,0.1l0,0.1l-0.1,0.2l0,0.1l-0.1,0.1l0,0.1l0,0.1l-0.1,0.1l0,0.1l0,0.1l-0.1,0.2l0,0.1l-0.1,0.1l0,0.1l-0.1,0.1l0,0.1l-0.1,0.1
		l0,0.1l0,0.2l-0.1,0.1l0,0.2l-0.1,0.1l0,0.1l-0.1,0.2l-0.1,0.1l0,0.1l0,0.1l-0.1,0.1l-0.1,0.2l0,0.1l0,0.1l-0.1,0.2l-0.1,0.1l0,0.2
		l-0.1,0.1l0,0.1l0,0.2l-0.1,0.1l-0.1,0.1l0,0.2l0,0.1l-0.1,0.2l0,0.1l-0.1,0.1l0,0.2l0,0.1l-0.1,0.2l-0.1,0.1l0,0.1l-0.1,0.1l0,0.1
		l-0.1,0.2l0,0.1l0,0.1l-0.1,0.2l-0.1,0.1l0,0.2l0,0.1l0,0.1l0,0.2l-0.1,0.1l0,0.1l0,0.1l-0.1,0.1l0,0.1l-0.1,0.1l0,0.1l0,0.2
		l-0.1,0.1l0,0.2l0,0.1l-0.1,0.1l0,0.2l0,0.1l0,0.1l0,0.1l-0.1,0.1l-0.1,0.1l0,0.1l0,0.2l-0.1,0.1l-0.1,0.1l0,0.2l0,0.1l-0.1,0.1
		l-0.1,0.2l0,0.1l-0.1,0.2l0,0.1l0,0.1l-0.1,0.2l0,0.1v0.1h10.6l0-0.1l0.1-0.1l0-0.2l0.1-0.1l0-0.1l0-0.2l0.1-0.1l0-0.1l0-0.1
		l0.1-0.1l0-0.1l0-0.2l0.1-0.1l0-0.2l0-0.1l0.1-0.2l0-0.1l0.1-0.2l0-0.1l0.1-0.1l0-0.2l0.1-0.1l0-0.1l0-0.1l0.1-0.2l0.1-0.2l0-0.1
		l0.1-0.1l0-0.1l0.1-0.2l0-0.2l0.1-0.1l0-0.2l0-0.2l0.1-0.1l0.1-0.1l0-0.2l0.1-0.1l0-0.2l0.1-0.1l0-0.1L151,77v-0.1l12.7,0.1
		l0.1,0.3l0,0.2l0,0.3l0,0.2l0.1,0.2l0,0.2l0,0.3l0,0.2l0.1,0.2l0.1,0.2l0,0.3l0.1,0.3l0.1,0.2l0,0.2l0,0.3l0,0.3l0.1,0.2l0.1,0.3
		l0.1,0.2l0,0.3l0.1,0.2l0.1,0.3l0,0.2l0,0.3l0.1,0.1h9.3v-0.4L174.2,82.1z M153.9,68.9l0.1-0.1l0-0.2l0.1-0.1l0-0.1l0.1-0.1l0-0.1
		l0-0.2l0.1-0.1l0-0.2l0.1-0.1l0-0.2l0-0.1l0.1-0.1l0.1-0.2l0-0.1l0.1-0.1l0-0.1l0.1-0.2l0.1-0.2l0.1-0.1l0.1-0.2l0.1-0.2l0-0.2
		l0-0.1l0.1-0.2l0.1-0.1l0-0.1l0-0.2l0-0.1l0.1-0.2l0-0.1l0-0.1l0-0.2l0.1-0.1l0-0.2l0-0.1l0.1-0.2l0-0.1l0-0.1l0.1-0.1l0.1-0.1
		l0.1-0.2l0-0.2l0-0.1l0-0.1l0.1-0.1l0-0.2l0.1-0.1l0.1-0.1l0.1-0.1l0-0.2l0-0.1l0.1-0.1l0.1-0.1l0-0.2l0-0.1l0.1-0.1l0-0.2l0.1-0.1
		l0-0.2l0-0.1l0-0.1l0.1-0.1l0.1-0.2l0-0.1l0-0.1l0.1-0.2l0-0.2l0-0.2l0.1-0.1l0-0.2l0.1-0.1l0-0.1l0.1-0.1l0-0.1l0-0.2l0.1-0.1
		l0.1-0.1l0-0.2l0-0.2l0-0.2l0.1-0.1l0-0.1l0-0.1l0.1-0.2l0-0.1l0.1-0.1l0-0.2l0.1-0.1l0.1-0.2l0.1-0.1l0-0.1l0-0.2l0.1-0.2l0-0.1
		l0.1-0.2l0-0.1l0.1-0.1l0.1-0.2l0-0.2l0.1-0.1l0.1-0.2l0-0.1l0-0.2l0.1-0.2v0.3l0,0.2l0,0.2l0.1,0.3l0,0.2l0,0.3l0,0.2l0,0.3
		l0.1,0.3l0,0.2l0.1,0.2l0.1,0.2l0,0.3l0,0.2l0.1,0.3l0,0.2l0,0.3l0,0.2l0.1,0.3l0,0.2l0.1,0.3l0,0.2l0,0.2l0,0.3l0.1,0.2l0,0.3
		l0,0.2l0.1,0.3l0,0.2l0.1,0.2l0,0.3l0,0.2l0,0.2l0.1,0.3l0,0.3l0,0.2l0,0.2l0,0.3l0.1,0.2l0,0.2l0.1,0.3l0,0.2l0.1,0.2l0,0.2
		l0.1,0.3l0,0.2l0,0.2l0.1,0.3l0,0.3l0.1,0.2l0,0.2l0.1,0.3l0.1,0.2l0.1,0.2l0,0.3l0,0.2l0.1,0.3l0,0.2l0,0.2H153.9z"/>
	<polygon class="st0" points="138.4,74.3 138.4,74.1 138.5,74 138.5,73.8 138.6,73.7 138.6,73.5 138.7,73.4 138.7,73.1 138.8,73 
		138.8,72.8 138.9,72.5 139,72.3 139,71.9 139,71.6 139.1,71.2 139.1,70.2 139.1,69.6 139.1,68.9 139,68.5 139,68.1 139,67.9 
		138.9,67.7 138.8,67.5 138.8,67.3 138.7,67.1 138.7,67 138.6,66.9 138.6,66.7 138.5,66.5 138.5,66.4 138.4,66.3 138.4,66.2 
		138.3,66.1 138.3,66 138.2,65.9 138.2,65.8 138.1,65.7 138.1,65.6 138,65.5 138,65.4 137.9,65.3 137.9,65.2 137.8,65.2 137.8,65 
		137.7,65 137.7,64.9 137.6,64.8 137.6,64.7 137.6,64.7 137.5,64.6 137.4,64.6 137.4,64.5 137.3,64.4 137.3,64.3 137.3,64.3 
		137.2,64.2 137.2,64.1 137.1,64.1 137,64 137,64 136.9,63.9 136.9,63.8 136.8,63.8 136.8,63.7 136.7,63.6 136.7,63.6 136.7,63.5 
		136.6,63.5 136.5,63.5 136.5,63.4 136.4,63.4 136.4,63.3 136.3,63.3 136.3,63.2 136.2,63.1 136.2,63.1 136.2,63.1 136.1,63 
		136.1,62.9 136,62.9 135.9,62.9 135.9,62.8 135.8,62.8 135.8,62.7 135.8,62.7 135.6,62.6 135.6,62.5 135.5,62.5 135.5,62.4 
		135.4,62.4 135.4,62.4 135.3,62.3 135.2,62.2 135.2,62.2 135.1,62.2 135.1,62.1 135,62 134.9,62 134.9,61.9 134.9,61.9 134.7,61.8 
		134.7,61.8 134.6,61.8 134.5,61.7 134.5,61.7 134.4,61.6 134.3,61.6 134.3,61.5 134.2,61.4 134.1,61.4 134.1,61.4 134,61.3 
		133.9,61.3 133.8,61.2 133.7,61.1 133.7,61.1 133.6,61 133.6,61 133.4,61 133.4,60.9 133.3,60.8 133.2,60.8 133.1,60.7 133,60.7 
		133,60.6 132.9,60.6 132.8,60.5 132.7,60.5 132.6,60.5 132.5,60.4 132.5,60.4 132.4,60.3 132.3,60.2 132.2,60.2 132.1,60.1 
		132,60.1 131.9,60.1 131.8,60 131.8,60 131.6,59.9 131.6,59.9 131.5,59.8 131.3,59.7 131.2,59.7 131.1,59.6 131,59.6 130.9,59.6 
		130.8,59.5 130.8,59.5 130.7,59.4 130.5,59.4 130.5,59.3 130.4,59.2 130.2,59.2 130.1,59.2 130,59.1 129.9,59 129.8,59 129.8,59 
		129.6,58.9 129.5,58.8 129.5,58.8 129.4,58.8 129.3,58.7 129.2,58.6 129.1,58.6 129,58.5 128.9,58.5 128.9,58.4 128.7,58.4 
		128.6,58.4 128.5,58.3 128.4,58.2 128.4,58.2 128.3,58.2 128.2,58.1 128.1,58 128,58 127.9,58 127.9,57.9 127.8,57.8 127.7,57.8 
		127.6,57.7 127.5,57.7 127.4,57.6 127.4,57.6 127.3,57.5 127.2,57.5 127.1,57.5 127,57.4 127,57.4 126.9,57.3 126.9,57.3 
		126.8,57.2 126.7,57.2 126.7,57.1 126.6,57.1 126.5,57 126.4,57 126.4,56.9 126.3,56.9 126.3,56.8 126.2,56.8 126.2,56.7 
		126.1,56.6 126,56.6 126,56.6 125.9,56.5 125.9,56.4 125.8,56.4 125.8,56.4 125.7,56.3 125.7,56.2 125.6,56.2 125.6,56.1 125.5,56 
		125.5,55.9 125.4,55.8 125.4,55.7 125.3,55.7 125.3,55.6 125.2,55.4 125.2,55.2 125.2,54.9 125.2,54.5 125.2,54.2 125.2,54 
		125.3,53.8 125.3,53.7 125.4,53.6 125.4,53.5 125.5,53.5 125.5,53.4 125.6,53.3 125.6,53.2 125.7,53.2 125.7,53.1 125.8,53.1 
		125.8,53 125.9,52.9 125.9,52.9 126,52.9 126,52.8 126.2,52.7 126.2,52.7 126.3,52.7 126.3,52.6 126.4,52.5 126.4,52.5 126.5,52.5 
		126.6,52.4 126.7,52.4 126.8,52.3 126.9,52.3 126.9,52.2 127,52.1 127.1,52.1 127.3,52.1 127.4,52 127.5,51.9 127.6,51.9 
		127.8,51.8 127.9,51.8 128.1,51.8 128.3,51.7 128.5,51.7 128.7,51.6 129,51.6 129.4,51.5 129.9,51.5 132.2,51.5 132.9,51.5 
		133.3,51.6 133.7,51.6 134.1,51.7 134.3,51.7 134.6,51.8 134.9,51.8 135,51.8 135.3,51.9 135.5,51.9 135.7,52 135.8,52.1 
		136.1,52.1 136.2,52.1 136.4,52.2 136.5,52.3 136.7,52.3 136.8,52.4 137,52.4 137.1,52.5 137.3,52.5 137.4,52.5 137.6,52.6 
		137.6,52.7 137.8,52.7 137.9,52.7 138,52.8 138.1,52.9 138.2,52.9 138.3,52.9 138.4,53 138.5,53.1 138.7,53.1 138.8,53.1 
		138.9,53.2 139,53.2 139.1,53.3 139.2,53.3 139.3,53 139.3,52.7 139.4,52.4 139.4,52.1 139.5,51.8 139.6,51.5 139.6,51.2 
		139.6,50.9 139.7,50.5 139.7,50.2 139.8,49.9 139.9,49.6 139.9,49.3 140,49 140,48.7 140,48.3 140.1,48.1 140.1,47.7 140.2,47.4 
		140.2,47.1 140.3,46.8 140.3,46.5 140.4,46.2 140.4,45.9 140.5,45.6 140.5,45.3 140.6,45 140.6,44.9 140.5,44.8 140.3,44.7 
		140.2,44.7 140.1,44.7 140,44.6 139.8,44.6 139.6,44.5 139.5,44.5 139.3,44.4 139.2,44.4 139,44.3 138.8,44.3 138.7,44.2 
		138.5,44.2 138.3,44.1 138.1,44.1 137.9,44 137.7,44 137.6,43.9 137.3,43.8 137.2,43.8 136.9,43.8 136.7,43.7 136.4,43.6 
		136.1,43.6 135.8,43.5 135.5,43.5 135.2,43.4 134.8,43.4 134.3,43.4 133.8,43.3 133.1,43.3 130,43.3 129.4,43.3 128.8,43.4 
		128.3,43.4 127.9,43.4 127.6,43.5 127.3,43.5 127,43.6 126.8,43.6 126.5,43.7 126.3,43.8 126.1,43.8 125.8,43.8 125.6,43.9 
		125.4,44 125.3,44 125.1,44.1 124.9,44.1 124.7,44.2 124.6,44.2 124.5,44.3 124.3,44.3 124.1,44.4 123.9,44.4 123.8,44.5 
		123.7,44.5 123.6,44.6 123.5,44.6 123.3,44.7 123.2,44.7 123,44.7 122.9,44.8 122.8,44.9 122.7,44.9 122.6,45 122.5,45 122.3,45 
		122.3,45.1 122.2,45.2 122.1,45.2 121.9,45.3 121.8,45.3 121.7,45.4 121.6,45.4 121.5,45.5 121.4,45.5 121.4,45.6 121.2,45.6 
		121.2,45.7 121,45.7 121,45.7 120.9,45.8 120.8,45.9 120.7,45.9 120.7,45.9 120.5,46 120.5,46 120.4,46.1 120.3,46.2 120.2,46.2 
		120.2,46.3 120.1,46.3 120,46.4 119.9,46.4 119.9,46.5 119.8,46.5 119.7,46.6 119.7,46.6 119.6,46.7 119.5,46.7 119.5,46.7 
		119.4,46.8 119.3,46.8 119.3,46.9 119.2,47 119.1,47 119.1,47.1 119,47.1 118.9,47.2 118.9,47.2 118.8,47.3 118.8,47.3 118.7,47.4 
		118.6,47.4 118.6,47.5 118.6,47.5 118.5,47.6 118.4,47.6 118.4,47.7 118.3,47.7 118.3,47.7 118.3,47.8 118.1,47.8 118.1,47.9 
		118,48 118,48 117.9,48.1 117.9,48.1 117.8,48.2 117.8,48.3 117.7,48.3 117.7,48.3 117.6,48.4 117.6,48.5 117.5,48.5 117.5,48.5 
		117.4,48.6 117.4,48.7 117.3,48.7 117.3,48.8 117.2,48.8 117.2,48.9 117.2,49 117.1,49.1 117,49.1 117,49.2 117,49.2 116.9,49.3 
		116.8,49.3 116.8,49.4 116.7,49.5 116.7,49.5 116.6,49.6 116.6,49.7 116.5,49.7 116.5,49.9 116.5,49.9 116.4,50 116.4,50 
		116.3,50.2 116.2,50.2 116.2,50.3 116.1,50.4 116.1,50.5 116.1,50.6 116,50.7 116,50.8 115.9,50.9 115.8,51 115.8,51.1 115.8,51.2 
		115.7,51.2 115.7,51.3 115.6,51.5 115.6,51.6 115.5,51.7 115.5,51.8 115.4,51.9 115.3,52.1 115.3,52.2 115.2,52.4 115.2,52.5 
		115.2,52.7 115.1,52.8 115,52.9 115,53.1 114.9,53.3 114.9,53.5 114.9,53.8 114.8,54 114.8,54.3 114.7,54.7 114.6,55.2 114.6,57 
		114.7,57.4 114.8,57.7 114.8,58 114.9,58.2 114.9,58.4 114.9,58.5 115,58.7 115,58.8 115.1,59 115.2,59.2 115.2,59.2 115.2,59.4 
		115.3,59.5 115.3,59.6 115.4,59.7 115.5,59.9 115.5,60 115.6,60.1 115.6,60.1 115.7,60.2 115.7,60.4 115.8,60.4 115.8,60.5 
		115.8,60.6 115.9,60.6 116,60.7 116,60.8 116.1,60.9 116.1,61 116.1,61 116.2,61.1 116.2,61.2 116.3,61.3 116.4,61.4 116.4,61.4 
		116.5,61.4 116.5,61.6 116.5,61.6 116.6,61.7 116.6,61.8 116.7,61.8 116.7,61.8 116.8,61.9 116.8,61.9 116.9,62 117,62.1 117,62.2 
		117,62.2 117.1,62.2 117.2,62.3 117.2,62.4 117.2,62.4 117.3,62.4 117.3,62.5 117.4,62.5 117.4,62.6 117.5,62.7 117.5,62.7 
		117.6,62.8 117.6,62.8 117.7,62.9 117.7,62.9 117.8,62.9 117.8,63 117.9,63.1 117.9,63.1 118,63.1 118,63.2 118.1,63.3 118.1,63.3 
		118.3,63.4 118.3,63.4 118.3,63.5 118.4,63.5 118.4,63.5 118.5,63.6 118.6,63.6 118.6,63.7 118.7,63.7 118.7,63.8 118.8,63.8 
		118.9,63.9 118.9,64 119,64 119.1,64.1 119.1,64.1 119.2,64.1 119.3,64.2 119.3,64.3 119.4,64.3 119.5,64.3 119.5,64.4 119.7,64.5 
		119.7,64.5 119.8,64.6 119.9,64.6 119.9,64.6 120,64.7 120,64.7 120.1,64.8 120.2,64.8 120.3,64.9 120.4,65 120.5,65 120.5,65 
		120.6,65.1 120.7,65.2 120.8,65.2 120.8,65.2 121,65.3 121,65.4 121.1,65.4 121.2,65.5 121.3,65.5 121.4,65.5 121.4,65.6 
		121.5,65.7 121.6,65.7 121.7,65.7 121.8,65.8 121.9,65.9 122,65.9 122.1,66 122.2,66 122.3,66.1 122.3,66.1 122.5,66.1 122.6,66.2 
		122.7,66.2 122.7,66.3 122.8,66.4 123,66.4 123,66.4 123.2,66.5 123.2,66.5 123.4,66.6 123.5,66.7 123.6,66.7 123.7,66.7 
		123.8,66.8 123.8,66.9 123.9,66.9 124.1,66.9 124.2,67 124.2,67.1 124.4,67.1 124.5,67.1 124.5,67.2 124.7,67.3 124.7,67.3 
		124.8,67.3 124.9,67.4 125,67.4 125.1,67.5 125.2,67.6 125.3,67.6 125.3,67.6 125.4,67.7 125.5,67.8 125.6,67.8 125.7,67.9 
		125.8,67.9 125.9,67.9 125.9,68 126,68.1 126.2,68.1 126.2,68.1 126.3,68.2 126.3,68.2 126.4,68.3 126.5,68.3 126.6,68.4 
		126.7,68.5 126.8,68.5 126.8,68.5 126.9,68.6 126.9,68.7 127,68.7 127,68.8 127.1,68.8 127.2,68.9 127.2,68.9 127.3,69 127.3,69 
		127.4,69 127.4,69.1 127.5,69.1 127.6,69.2 127.6,69.2 127.7,69.4 127.8,69.4 127.8,69.5 127.9,69.5 127.9,69.5 127.9,69.6 
		128,69.7 128,69.8 128.1,69.8 128.1,69.9 128.2,70 128.3,70 128.3,70.2 128.3,70.3 128.4,70.4 128.4,70.5 128.5,70.7 128.5,71 
		128.5,71.6 128.5,72 128.4,72.2 128.4,72.3 128.3,72.5 128.3,72.6 128.3,72.7 128.2,72.8 128.1,72.9 128.1,73 128,73 128,73.1 
		127.9,73.1 127.9,73.2 127.9,73.3 127.8,73.4 127.8,73.4 127.7,73.4 127.6,73.5 127.6,73.5 127.5,73.6 127.5,73.7 127.4,73.7 
		127.3,73.8 127.3,73.8 127.2,73.8 127.1,73.9 127.1,73.9 127,74 126.9,74 126.9,74.1 126.8,74.1 126.7,74.2 126.5,74.2 126.5,74.3 
		126.3,74.3 126.3,74.4 126.2,74.4 126,74.5 125.9,74.5 125.7,74.6 125.6,74.6 125.4,74.7 125.3,74.8 125.1,74.8 124.9,74.8 
		124.7,74.9 124.4,74.9 124.1,75 123.7,75 123,75.1 121.9,75.1 120.7,75 120,75 119.6,74.9 119.1,74.9 118.8,74.8 118.5,74.8 
		118.3,74.8 118,74.7 117.7,74.6 117.5,74.6 117.3,74.5 117.2,74.5 117,74.4 116.7,74.4 116.6,74.3 116.5,74.3 116.2,74.2 
		116.1,74.2 116,74.1 115.8,74.1 115.7,74 115.6,74 115.4,73.9 115.2,73.9 115.1,73.8 115,73.8 114.9,73.8 114.8,73.7 114.6,73.7 
		114.5,73.6 114.3,73.5 114.3,73.5 114.1,73.4 114,73.4 113.8,73.4 113.8,73.3 113.7,73.3 113.5,73.2 113.4,73.1 113.3,73.1 
		113.2,73 113.1,73 113,73 112.9,72.9 112.7,72.9 112.7,72.8 112.6,72.8 112.5,72.7 112.3,72.6 112.3,72.6 112.1,72.6 112.1,72.5 
		111.9,72.5 111.9,72.6 111.8,73 111.7,73.3 111.7,73.5 111.7,73.9 111.6,74.2 111.6,74.5 111.5,74.8 111.5,75.2 111.4,75.5 
		111.4,75.8 111.3,76.1 111.2,76.3 111.2,76.7 111.2,77 111.1,77.3 111,77.6 111,77.9 110.9,78.2 110.9,78.6 110.9,78.8 110.8,79.1 
		110.7,79.4 110.7,79.8 110.6,80.1 110.6,80.4 110.6,80.7 110.5,81 110.5,81.2 110.6,81.3 110.7,81.3 110.9,81.4 111,81.4 
		111.1,81.5 111.2,81.6 111.4,81.6 111.5,81.7 111.7,81.7 111.8,81.7 111.9,81.8 112.1,81.8 112.3,81.9 112.4,81.9 112.6,82 
		112.7,82.1 112.9,82.1 113.1,82.1 113.3,82.2 113.5,82.2 113.7,82.3 113.8,82.3 114.1,82.4 114.3,82.4 114.5,82.5 114.7,82.6 
		114.9,82.6 115.2,82.6 115.5,82.7 115.7,82.7 116,82.8 116.3,82.8 116.6,82.9 117,82.9 117.3,83 117.7,83 118.1,83.1 118.6,83.1 
		119.2,83.2 119.9,83.3 123.7,83.3 124.3,83.2 124.8,83.1 125.3,83.1 125.6,83 126,83 126.3,82.9 126.5,82.9 126.9,82.8 127.1,82.8 
		127.3,82.7 127.5,82.7 127.8,82.6 128,82.6 128.2,82.6 128.4,82.5 128.6,82.4 128.7,82.4 128.9,82.3 129.1,82.3 129.2,82.2 
		129.4,82.2 129.5,82.1 129.7,82.1 129.8,82.1 130,82 130.1,81.9 130.2,81.9 130.4,81.8 130.5,81.8 130.7,81.7 130.8,81.7 
		130.9,81.7 131,81.6 131.1,81.6 131.2,81.5 131.3,81.4 131.5,81.4 131.6,81.3 131.7,81.3 131.8,81.2 131.9,81.2 132,81.1 
		132.1,81.1 132.2,81 132.3,81 132.4,80.9 132.5,80.9 132.5,80.9 132.6,80.8 132.7,80.8 132.8,80.7 132.9,80.6 133,80.6 133.1,80.6 
		133.1,80.5 133.2,80.5 133.3,80.4 133.4,80.4 133.4,80.3 133.6,80.2 133.6,80.2 133.7,80.2 133.7,80.1 133.8,80.1 133.9,80 
		134,79.9 134.1,79.9 134.1,79.8 134.2,79.8 134.3,79.8 134.3,79.7 134.4,79.6 134.4,79.6 134.5,79.5 134.6,79.5 134.6,79.4 
		134.7,79.4 134.7,79.3 134.9,79.3 134.9,79.3 134.9,79.2 135,79.1 135,79.1 135.1,79 135.1,79 135.2,78.9 135.3,78.9 135.3,78.8 
		135.4,78.8 135.4,78.8 135.5,78.7 135.5,78.6 135.6,78.6 135.6,78.6 135.7,78.5 135.8,78.4 135.8,78.4 135.8,78.3 135.9,78.3 
		135.9,78.3 136,78.2 136.1,78.2 136.1,78 136.2,78 136.2,77.9 136.2,77.9 136.3,77.8 136.3,77.8 136.4,77.7 136.4,77.7 136.5,77.6 
		136.5,77.6 136.6,77.5 136.7,77.4 136.7,77.4 136.7,77.3 136.8,77.3 136.8,77.1 136.9,77.1 136.9,77 137,77 137,76.9 137.1,76.8 
		137.2,76.8 137.2,76.7 137.3,76.6 137.3,76.5 137.3,76.4 137.4,76.3 137.4,76.2 137.5,76.2 137.6,76.1 137.6,76 137.6,75.9 
		137.7,75.8 137.7,75.8 137.8,75.6 137.8,75.6 137.9,75.5 137.9,75.3 138,75.2 138,75.2 138.1,75 138.1,74.9 138.2,74.8 138.2,74.6 
		138.3,74.5 138.3,74.4 	"/>
	<polygon class="st0" points="94.3,49.5 94.3,49.3 94.4,49.2 94.5,49.1 94.5,49 94.5,48.8 94.6,48.7 94.6,48.6 94.7,48.5 94.7,48.3 
		94.8,48.3 94.9,48.1 94.9,48 94.9,47.8 95,47.7 95.1,47.6 95.1,47.5 95.2,47.4 95.2,47.3 95.3,47.1 95.3,47 95.4,46.9 95.4,46.7 
		95.4,46.7 95.5,46.5 95.6,46.4 95.6,46.3 95.6,46.2 95.7,46 95.8,45.9 95.8,45.8 95.8,45.7 95.9,45.6 95.9,45.4 96,45.3 96,45.2 
		96.1,45 96.2,44.9 96.2,44.8 96.3,44.7 96.3,44.6 96.4,44.5 96.4,44.3 96.5,44.2 96.5,44.1 96.5,44 85.9,44 85.8,44 85.8,44.2 
		85.7,44.3 85.7,44.4 85.6,44.6 85.6,44.7 85.5,44.8 85.4,45 85.4,45 85.4,45.2 85.3,45.4 85.3,45.5 85.2,45.6 85.2,45.7 85.1,45.9 
		85,46 85,46.2 84.9,46.3 84.9,46.4 84.9,46.6 84.8,46.7 84.8,46.8 84.7,47 84.7,47.1 84.6,47.3 84.6,47.4 84.5,47.5 84.5,47.7 
		84.4,47.7 84.4,47.9 84.3,48.1 84.3,48.2 84.2,48.3 84.2,48.5 84.1,48.6 84.1,48.7 84,48.8 84,49 83.9,49.1 83.9,49.2 83.8,49.4 
		83.8,49.5 83.7,49.7 83.7,49.8 83.6,50 83.6,50 83.5,50.2 83.4,50.4 83.4,50.5 83.4,50.6 83.3,50.8 83.3,50.9 83.2,51 83.2,51.2 
		83.1,51.3 83.1,51.4 83,51.6 83,51.7 82.9,51.8 82.9,51.9 82.8,52.1 82.8,52.2 82.7,52.4 82.7,52.5 82.6,52.7 82.6,52.7 82.5,52.9 
		82.5,53.1 82.4,53.1 82.4,53.3 82.3,53.4 82.3,53.5 82.2,53.7 82.2,53.8 82.1,54 82.1,54.1 82,54.2 82,54.4 81.9,54.5 81.8,54.7 
		81.8,54.8 81.8,54.9 81.7,55 81.7,55.2 81.6,55.4 81.6,55.4 81.5,55.6 81.5,55.7 81.4,55.8 81.4,56 81.3,56.2 81.3,56.3 81.2,56.4 
		81.2,56.6 81.1,56.6 81.1,56.8 81,57 81,57.1 80.9,57.2 80.9,57.4 80.8,57.5 80.8,57.6 80.7,57.7 80.7,57.9 80.6,58 80.6,58.2 
		80.5,58.3 80.5,58.4 80.4,58.5 80.4,58.7 80.3,58.8 80.3,59 80.2,59.1 80.2,59.2 80.1,59.4 80.1,59.5 80,59.6 80,59.8 79.9,59.9 
		79.9,60.1 79.8,60.2 79.8,60.3 79.7,60.5 79.6,60.6 79.6,60.7 79.6,60.8 79.5,61 79.5,61.1 79.4,61.3 79.4,61.4 79.3,61.6 
		79.3,61.7 79.2,61.8 79.2,61.9 79.1,62 79.1,62.2 79,62.4 79,62.4 78.9,62.6 78.9,62.8 78.8,62.9 78.8,63 78.7,63.1 78.7,63.3 
		78.6,63.4 78.6,63.5 78.5,63.7 78.5,63.8 78.4,64 78.4,64.1 78.3,64.3 78.3,64.3 78.2,64.5 78.2,64.6 78.1,64.7 78,64.9 78,65 
		78,65.2 77.9,65.3 77.9,65.5 77.8,65.5 77.8,65.7 77.7,65.9 77.7,66 77.6,66.1 77.6,66.2 77.5,66.4 77.5,66.5 77.4,66.7 77.4,66.8 
		77.3,66.9 77.3,67.1 77.2,67.2 77.2,67.3 77.1,67.4 77.1,67.6 77,67.8 77,67.9 76.9,68 76.8,68.1 76.8,68.2 76.8,68.4 76.7,68.5 
		76.7,68.7 76.6,68.8 76.5,69 76.5,69.1 76.5,69.2 76.4,69.4 76.4,69.5 76.3,69.6 76.3,69.8 76.2,69.9 76.2,70 76.1,70.2 76.1,69.9 
		76,69.6 76,69.4 75.9,69.1 75.9,68.9 75.8,68.7 75.8,68.4 75.7,68.1 75.7,67.9 75.6,67.6 75.6,67.3 75.5,67.1 75.5,66.9 75.4,66.6 
		75.4,66.3 75.3,66.1 75.3,65.8 75.2,65.5 75.2,65.3 75.1,65 75.1,65 75.1,64.8 75,64.6 75,64.3 74.9,64.1 74.9,63.8 74.8,63.5 
		74.8,63.3 74.7,63 74.7,62.8 74.6,62.5 74.6,62.2 74.5,62 74.5,61.8 74.4,61.5 74.4,61.3 74.3,61 74.3,60.7 74.2,60.5 74.2,60.2 
		74.1,60 74.1,59.7 74,59.5 74,59.2 73.9,59 73.8,58.7 73.8,58.4 73.8,58.2 73.7,58 73.7,57.7 73.6,57.4 73.6,57.2 73.5,57 
		73.5,56.7 73.4,56.4 73.4,56.2 73.3,55.9 73.3,55.7 73.2,55.4 73.2,55.2 73.1,54.9 73.1,54.7 73,54.4 72.9,54.1 72.9,53.9 
		72.9,53.6 72.8,53.3 72.8,53.1 72.7,52.9 72.7,52.6 72.6,52.4 72.6,52.1 72.5,51.8 72.5,51.6 72.4,51.3 72.4,51.1 72.3,50.9 
		72.3,50.6 72.2,50.3 72.2,50.1 72.1,49.8 72.1,49.5 72,49.3 72,49.1 71.9,48.8 71.9,48.5 71.8,48.3 71.8,48.1 71.7,47.7 71.7,47.6 
		71.6,47.3 71.6,47.1 71.5,46.9 71.5,46.7 71.4,46.6 71.4,46.5 71.3,46.4 71.3,46.3 71.2,46.2 71.2,46 71.1,45.9 71.1,45.9 71,45.8 
		71,45.7 70.9,45.7 70.9,45.6 70.8,45.5 70.8,45.5 70.7,45.4 70.7,45.3 70.6,45.3 70.6,45.2 70.5,45.2 70.5,45.1 70.4,45 70.4,45 
		70.3,45 70.3,44.9 70.2,44.9 70.1,44.8 70.1,44.7 70,44.7 69.9,44.7 69.8,44.6 69.7,44.6 69.6,44.5 69.6,44.5 69.5,44.4 69.4,44.4 
		69.2,44.3 69.1,44.3 69,44.2 68.8,44.2 68.6,44.1 68.4,44.1 68.2,44 67.8,44 67.3,43.9 50.9,43.9 50.8,44 50.8,44.3 50.7,44.6 
		50.7,44.8 50.9,44.9 51.1,44.9 51.3,45 51.5,45 51.6,45 51.8,45.1 52,45.2 52.2,45.2 52.3,45.3 52.5,45.3 52.7,45.4 52.8,45.4 
		53,45.5 53.2,45.5 53.3,45.6 53.5,45.6 53.6,45.7 53.8,45.7 53.9,45.7 54.1,45.8 54.2,45.9 54.4,45.9 54.5,45.9 54.6,46 54.8,46 
		54.9,46.1 55.1,46.2 55.2,46.2 55.3,46.3 55.5,46.3 55.6,46.4 55.7,46.4 55.8,46.5 56,46.5 56.1,46.6 56.2,46.6 56.3,46.7 
		56.5,46.7 56.6,46.7 56.7,46.8 56.8,46.8 56.9,46.9 57.1,47 57.2,47 57.3,47.1 57.4,47.1 57.5,47.2 57.6,47.2 57.7,47.3 57.9,47.3 
		58,47.4 58.1,47.4 58.2,47.5 58.3,47.5 58.4,47.6 58.5,47.6 58.6,47.7 58.7,47.7 58.8,47.7 58.9,47.8 59,47.8 59.1,47.9 59.2,48 
		59.3,48 59.4,48.1 59.5,48.1 59.6,48.2 59.7,48.2 59.8,48.3 59.9,48.3 60,48.3 60.1,48.4 60.2,48.5 60.3,48.5 60.4,48.5 60.4,48.6 
		60.5,48.7 60.6,48.7 60.7,48.8 60.8,48.8 60.9,48.8 61,48.9 61.1,49 61.1,49 61.2,49 61.2,49.1 61.3,49.3 61.3,49.5 61.4,49.7 
		61.4,49.9 61.5,50 61.5,50.2 61.6,50.4 61.6,50.6 61.7,50.8 61.7,51 61.8,51.2 61.8,51.3 61.9,51.6 61.9,51.8 62,51.9 62,52.1 
		62.1,52.3 62.1,52.5 62.2,52.7 62.2,52.9 62.3,53.1 62.3,53.2 62.4,53.4 62.4,53.6 62.5,53.8 62.5,54 62.6,54.2 62.6,54.4 
		62.7,54.6 62.7,54.7 62.8,54.9 62.8,55.2 62.9,55.4 62.9,55.6 63,55.7 63,55.9 63.1,56.1 63.1,56.3 63.2,56.4 63.2,56.6 63.3,56.9 
		63.3,57.1 63.4,57.2 63.4,57.4 63.5,57.6 63.5,57.8 63.6,58 63.6,58.2 63.7,58.4 63.7,58.5 63.8,58.8 63.8,59 63.9,59.1 63.9,59.3 
		64,59.5 64,59.7 64.1,59.9 64.1,60.1 64.2,60.2 64.2,60.5 64.3,60.6 64.3,60.8 64.4,61 64.4,61.2 64.5,61.4 64.5,61.6 64.6,61.8 
		64.6,61.9 64.7,62.2 64.7,62.4 64.8,62.5 64.8,62.7 64.9,62.9 64.9,63.1 65,63.3 65,63.5 65.1,63.6 65.1,63.8 65.2,64.1 65.2,64.3 
		65.3,64.4 65.3,64.6 65.4,64.8 65.4,65 65.5,65.2 65.5,65.4 65.6,65.5 65.6,65.7 65.7,65.9 65.7,66.1 65.8,66.3 65.8,66.5 
		65.9,66.7 65.9,66.9 66,67.1 66,67.3 66.1,67.4 66.1,67.6 66.2,67.8 66.2,68 66.3,68.2 66.3,68.4 66.4,68.5 66.4,68.8 66.5,69 
		66.5,69.1 66.6,69.4 66.6,69.5 66.7,69.7 66.7,69.9 66.8,70.1 66.8,70.3 66.9,70.4 66.9,70.6 67,70.9 67,71 67.1,71.3 67.1,71.4 
		67.2,71.6 67.2,71.8 67.3,72 67.3,72.2 67.4,72.3 67.4,72.6 67.5,72.8 67.5,73 67.6,73.1 67.6,73.3 67.7,73.5 67.7,73.7 67.8,73.9 
		67.8,74 67.9,74.2 67.9,74.4 68,74.6 68,74.8 68.1,75 68.1,75.2 68.2,75.4 68.2,75.6 68.3,75.8 68.3,76 68.4,76.1 68.4,76.3 
		68.5,76.5 68.5,76.7 68.6,76.9 68.6,77.1 68.7,77.3 68.7,77.4 68.8,77.7 68.8,77.8 68.9,78 68.9,78.2 69,78.4 69,78.6 69.1,78.8 
		69.1,79 69.1,79.1 69.2,79.3 69.3,79.5 69.3,79.8 69.4,79.9 69.4,80.1 69.5,80.3 69.5,80.5 69.6,80.7 69.6,80.9 69.6,81 69.7,81.2 
		69.8,81.4 69.8,81.7 69.9,81.8 69.9,82 70,82.2 70,82.4 70.1,82.6 70.1,82.7 78.3,82.7 80.8,82.6 80.8,82.6 80.9,82.4 80.9,82.3 
		81,82.2 81,82.1 81.1,82 81.1,81.8 81.2,81.7 81.2,81.6 81.3,81.5 81.3,81.3 81.4,81.2 81.4,81.1 81.5,81 81.5,80.9 81.6,80.8 
		81.6,80.6 81.7,80.5 81.7,80.4 81.8,80.2 81.8,80.2 81.8,80 81.9,79.9 82,79.8 82,79.6 82.1,79.5 82.1,79.4 82.2,79.3 82.2,79.1 
		82.3,79 82.3,78.9 82.4,78.8 82.4,78.6 82.5,78.6 82.5,78.4 82.6,78.3 82.6,78.2 82.7,78 82.7,77.9 82.8,77.8 82.8,77.7 82.9,77.6 
		82.9,77.4 83,77.3 83,77.2 83.1,77.1 83.1,77 83.2,76.8 83.2,76.7 83.3,76.6 83.3,76.4 83.4,76.3 83.4,76.2 83.4,76.1 83.5,76 
		83.6,75.8 83.6,75.7 83.7,75.6 83.7,75.5 83.8,75.3 83.8,75.2 83.9,75.1 83.9,75 84,74.8 84,74.8 84.1,74.6 84.1,74.5 84.2,74.3 
		84.2,74.2 84.3,74.1 84.3,74 84.4,73.9 84.4,73.8 84.5,73.7 84.5,73.5 84.6,73.4 84.6,73.3 84.7,73.1 84.7,73 84.8,72.9 84.8,72.8 
		84.9,72.6 84.9,72.6 84.9,72.4 85,72.3 85,72.2 85.1,72.1 85.2,71.9 85.2,71.8 85.3,71.6 85.3,71.5 85.4,71.5 85.4,71.3 85.4,71.2 
		85.5,71 85.6,70.9 85.6,70.8 85.7,70.7 85.7,70.5 85.8,70.4 85.8,70.3 85.9,70.2 85.9,70.1 85.9,70 86,69.8 86.1,69.7 86.1,69.6 
		86.2,69.5 86.2,69.4 86.3,69.2 86.3,69.1 86.4,69 86.4,68.9 86.5,68.7 86.5,68.6 86.6,68.5 86.6,68.3 86.7,68.2 86.7,68.1 86.8,68 
		86.8,67.9 86.9,67.8 86.9,67.6 87,67.5 87,67.4 87,67.3 87.1,67.1 87.2,67 87.2,66.9 87.3,66.7 87.3,66.7 87.4,66.5 87.4,66.4 
		87.4,66.2 87.5,66.1 87.5,66.1 87.6,65.9 87.7,65.8 87.7,65.7 87.8,65.5 87.8,65.4 87.9,65.3 87.9,65.2 87.9,65 88,64.9 88.1,64.8 
		88.1,64.6 88.2,64.6 88.2,64.5 88.3,64.3 88.3,64.2 88.4,64.1 88.4,64 88.5,63.8 88.5,63.7 88.6,63.5 88.6,63.5 88.7,63.3 
		88.7,63.2 88.8,63.1 88.8,62.9 88.9,62.9 88.9,62.7 89,62.6 89,62.4 89.1,62.4 89.1,62.2 89.2,62.1 89.2,62 89.3,61.8 89.3,61.8 
		89.4,61.6 89.4,61.5 89.5,61.4 89.5,61.3 89.6,61.1 89.6,61 89.7,60.8 89.7,60.7 89.8,60.6 89.8,60.5 89.9,60.4 89.9,60.2 90,60.1 
		90,60 90.1,59.9 90.1,59.7 90.1,59.6 90.2,59.5 90.3,59.4 90.3,59.2 90.4,59.2 90.4,59 90.5,58.9 90.5,58.8 90.6,58.6 90.6,58.5 
		90.7,58.4 90.7,58.3 90.7,58.2 90.8,58 90.9,58 90.9,57.8 91,57.7 91,57.5 91.1,57.5 91.1,57.3 91.2,57.2 91.2,57.1 91.3,57 
		91.3,56.8 91.4,56.7 91.4,56.6 91.5,56.4 91.5,56.4 91.6,56.2 91.6,56.1 91.7,56 91.7,55.8 91.8,55.7 91.8,55.6 91.9,55.4 
		91.9,55.4 92,55.2 92,55.1 92.1,55 92.1,54.9 92.1,54.7 92.2,54.6 92.3,54.5 92.3,54.3 92.4,54.2 92.4,54.1 92.5,54 92.5,53.9 
		92.6,53.7 92.6,53.6 92.7,53.5 92.7,53.4 92.8,53.2 92.8,53.1 92.9,53 92.9,52.9 92.9,52.7 93,52.7 93.1,52.5 93.1,52.4 93.2,52.3 
		93.2,52.1 93.2,52.1 93.3,51.9 93.4,51.8 93.4,51.7 93.5,51.6 93.5,51.4 93.6,51.3 93.6,51.2 93.7,51.1 93.7,51 93.8,50.8 
		93.8,50.7 93.8,50.5 93.9,50.5 94,50.3 94,50.2 94.1,50 94.1,50 94.1,49.9 94.2,49.7 94.2,49.6 	"/>
	<polygon class="st0" points="110.6,44.2 110.6,43.9 100.5,43.9 100.5,44 100.4,44.3 100.4,44.6 100.3,44.9 100.3,45.2 100.2,45.6 
		100.2,45.9 100.1,46.2 100.1,46.5 100,46.7 100,47.1 99.9,47.4 99.9,47.7 99.8,48 99.8,48.3 99.7,48.7 99.7,49 99.6,49.2 
		99.5,49.5 99.5,49.9 99.5,50.2 99.4,50.5 99.4,50.8 99.3,51.1 99.3,51.4 99.2,51.8 99.2,52.1 99.1,52.4 99.1,52.7 99,52.9 99,53.2 
		98.9,53.6 98.9,53.9 98.8,54.2 98.8,54.5 98.7,54.8 98.7,55.1 98.6,55.4 98.6,55.7 98.5,56.1 98.5,56.4 98.4,56.7 98.3,57 
		98.3,57.3 98.3,57.6 98.2,58 98.1,58.2 98.1,58.5 98.1,58.8 98,59.2 98,59.5 97.9,59.8 97.9,60.1 97.8,60.4 97.8,60.7 97.7,61 
		97.7,61.3 97.6,61.7 97.6,61.9 97.5,62.2 97.5,62.5 97.4,62.9 97.4,63.1 97.3,63.5 97.3,63.8 97.2,64.1 97.2,64.4 97.1,64.7 
		97.1,65 97,65.4 97,65.7 96.9,66 96.8,66.3 96.8,66.6 96.8,66.9 96.7,67.2 96.7,67.5 96.6,67.9 96.5,68.1 96.5,68.5 96.5,68.8 
		96.4,69 96.4,69.4 96.3,69.7 96.3,70 96.2,70.3 96.2,70.6 96.1,70.9 96,71.2 96,71.5 95.9,71.8 95.9,72.2 95.8,72.5 95.8,72.8 
		95.8,73.1 95.7,73.4 95.6,73.7 95.6,74 95.6,74.3 95.5,74.6 95.4,74.9 95.4,75.2 95.4,75.6 95.3,75.9 95.3,76.2 95.2,76.5 
		95.2,76.8 95.1,77.1 95.1,77.4 95,77.7 94.9,78 94.9,78.3 94.9,78.6 94.8,78.9 94.7,79.3 94.7,79.6 94.6,79.9 94.6,80.2 94.5,80.5 
		94.5,80.8 94.5,81.1 94.4,81.4 94.3,81.7 94.3,82.1 94.2,82.4 94.2,82.7 104.3,82.7 104.4,82.5 104.4,82.2 104.5,81.9 104.5,81.6 
		104.6,81.3 104.6,81 104.7,80.6 104.7,80.4 104.8,80.1 104.8,79.8 104.9,79.4 104.9,79.1 104.9,78.8 105,78.5 105,78.2 105.1,77.9 
		105.2,77.6 105.2,77.3 105.2,77 105.3,76.7 105.3,76.3 105.4,76.1 105.4,75.8 105.5,75.4 105.6,75.1 105.6,74.8 105.7,74.4 
		105.7,74.1 105.8,73.8 105.8,73.5 105.9,73.3 105.9,73 105.9,72.6 106,72.3 106,72 106.1,71.7 106.2,71.4 106.2,71.1 106.3,70.7 
		106.3,70.4 106.3,70.2 106.4,69.8 106.5,69.5 106.5,69.2 106.5,68.9 106.6,68.6 106.7,68.3 106.7,68 106.8,67.7 106.8,67.3 
		106.9,67.1 106.9,66.7 106.9,66.4 107,66.1 107,65.8 107.1,65.5 107.2,65.2 107.2,64.9 107.3,64.6 107.3,64.3 107.4,64 107.4,63.6 
		107.5,63.4 107.5,63.1 107.5,62.8 107.6,62.4 107.7,62.1 107.7,61.8 107.8,61.5 107.8,61.2 107.9,60.9 107.9,60.5 108,60.2 108,60 
		108.1,59.6 108.1,59.4 108.2,59 108.2,58.7 108.3,58.4 108.3,58 108.4,57.7 108.4,57.5 108.5,57.2 108.5,56.9 108.6,56.5 
		108.6,56.2 108.6,55.9 108.7,55.6 108.8,55.3 108.8,55 108.9,54.7 108.9,54.3 109,54 109,53.7 109,53.4 109.1,53.1 109.1,52.9 
		109.2,52.5 109.2,52.2 109.3,51.9 109.4,51.6 109.4,51.3 109.4,51 109.5,50.7 109.5,50.4 109.6,50 109.7,49.7 109.7,49.4 
		109.7,49.1 109.8,48.8 109.9,48.5 109.9,48.2 110,47.8 110,47.6 110,47.3 110.1,47 110.1,46.7 110.2,46.3 110.3,46 110.3,45.7 
		110.4,45.4 110.4,45.1 110.5,44.8 110.5,44.5 	"/>
</g>
</svg>
