<svg version="1.1" id="Layer_1" xmlns="http://www.w3.org/2000/svg" xmlns:xlink="http://www.w3.org/1999/xlink" x="0px" y="0px"
	 viewBox="0 0 225 126.5" style="enable-background:new 0 0 225 126.5;" xml:space="preserve">
<g>
	<path class="st0" d="M70.8,74.6l5.6-18.1c0.2-0.5,0.3-0.7,1-0.8l1.5-0.2v-2.2h-7.9l-0.5,2.2l2.7,0.3l-4.6,15l-4-16.9h-4.4
		l-4.8,16.9l-4.7-15l2.7-0.3v-2.2h-8.4l-0.5,2.2l1.8,0.4c0.5,0.1,0.7,0.2,0.9,0.7l5.9,18.1h4.6l4.6-16.5l4,16.5L70.8,74.6z"/>
	<path class="st0" d="M89.4,72c-4.1,0-6.2-2.7-6.2-8.2c0-5.5,2.4-7.9,6.4-7.9c4,0,6,2.4,6,7.9C95.6,69.5,93.4,72,89.4,72z
		 M89.3,75.1c7.1,0,10.2-4.5,10.2-11.5c0-6.2-2.7-10.8-9.8-10.8c-7.1,0-10.4,4.5-10.4,11C79.3,70.4,82.1,75.1,89.3,75.1z"/>
	<path class="st0" d="M112.3,74.6v-2.2l-3.9-0.3c-0.6,0-0.7-0.2-0.7-0.8V58.7c1-0.9,3.2-2.6,5.1-2.6c0.4,0,0.5,0.1,0.5,0.4l0.5,2.9
		l2.9,0.1v-6.3c-0.7-0.2-2-0.4-3-0.4c-2.9,0-5,1.8-6.4,3.3l-0.1,0l-0.4-2.8h-5.4l-0.4,2.2l2.4,0.8c0.4,0.1,0.5,0.4,0.5,0.9v14.2
		c0,0.6-0.1,0.8-0.7,0.8l-2.1,0.2v2.2H112.3z"/>
	<path class="st0" d="M127.1,74.6v-2.2l-2.5-0.3C124,72,124,72,124,71.3V43.1h-6.4l-0.4,2.2l2.5,0.8c0.4,0.1,0.5,0.4,0.5,0.9v24.3
		c0,0.6-0.1,0.8-0.7,0.8l-2.6,0.2v2.2H127.1z"/>
	<path class="st0" d="M143.4,68.5c-1.8,1.8-3.8,3.5-6.3,3.5c-2.9,0-4.9-1.9-4.9-7.7c0-4.9,1.5-8.4,5.5-8.4c2.2,0,4.5,1.2,5.7,2.2
		V68.5z M149.9,74.6v-2.2l-2.1-0.3c-0.6-0.1-0.7-0.2-0.7-0.8V43.1h-6.3l-0.4,2.2l2.5,0.8c0.4,0.1,0.5,0.4,0.5,0.8v7.8
		c-1.6-1.2-3.9-2-6.4-2c-5,0-8.7,3.4-8.7,11.6c0,7.6,3.1,10.7,7.9,10.7c3.2,0,5.4-1.4,7.3-3.3l0.2,0l0.3,2.8H149.9z"/>
	<path class="st0" d="M157.6,58.5c1.2-1,3.7-2.6,6.4-2.6c2.6,0,4.8,1.8,4.8,7.5c0,5.2-1.5,8.5-5.5,8.5c-2.2,0-4.3-1.3-5.7-2.7V58.5z
		 M162.2,83.4v-2.2l-3.9-0.3c-0.6,0-0.7-0.2-0.7-0.8v-7.2c2,1.7,4,2.3,6.3,2.3c6.5,0,8.6-5.7,8.6-12c0-7.3-3.2-10.3-7.8-10.3
		c-2.8,0-5.2,1.1-7.5,2.8l-0.1,0l-0.4-2.4h-5.5l-0.4,2.2l2.4,0.8c0.4,0.1,0.5,0.4,0.5,0.9v23c0,0.6-0.1,0.8-0.7,0.8l-1.7,0.2v2.2
		H162.2z"/>
	<path class="st0" d="M188,69c-1.3,1.2-3.9,3.2-6.3,3.2c-2,0-2.9-0.9-2.9-3.1c0-2.1,1-3.2,4.6-3.5l4.7-0.4V69z M194.5,74.6v-2.2
		l-2.1-0.3c-0.6-0.1-0.7-0.2-0.7-0.8v-11c0-5.8-2-7.5-7.9-7.5c-3.3,0-8,0.6-8,5.7l3.6,0.4c0-3.1,1.9-3.2,4.4-3.2
		c3.6,0,4.2,1.5,4.2,4.6v2.2l-5.6,0.5c-5,0.4-7.6,2.4-7.6,6.5c0,2.1,0.7,5.6,5.9,5.6c3.2,0,5.5-1.4,7.5-3.2l0.1,0l0.4,2.7H194.5z"/>
	<path class="st0" d="M209,83.4v-2.2l-4-0.4L215,56.4c0.2-0.5,0.5-0.6,1-0.7l1.4-0.2v-2.2h-8.2l-0.5,2.2l2.8,0.3l-5.8,14l-5.5-14
		l2.7-0.3v-2.2h-8.6l-0.5,2.2l1.7,0.4c0.5,0.1,0.7,0.2,0.9,0.7l7.5,17.8l-2.4,5.6c-0.2,0.6-0.4,0.8-0.9,0.9l-3,0.4v2.2H209z"/>
	<path class="st0" d="M27.7,76.6c1.3-0.6,2.7-1.3,4.1-2.1C30.5,76,29.1,76.4,27.7,76.6z M24.5,79.2c-0.1,0-1.2,0-1.2-0.4
		c0-0.2,0.4-0.9,0.7-1c0.7-0.3,2.1-0.6,2.2-0.6c0.1,0,1.3,0.1,1.4,0.1c0.1,0,0.9,0,1.4-0.2c0.6-0.1,1.3-0.4,2-0.8
		c0.7-0.4,1.7-1.2,2.1-2c0.3-0.4,0.4-0.9,0.7-1.3c0.4-0.5,1.2-1,1.8-1.5c0.6-0.6,1.3-1.3,1.8-2C36.2,75.2,28.9,79.2,24.5,79.2z
		 M27.3,48.9c2.3,0.5,4.9,1.5,7.1,3.7c0.7,0.7,1.3,1.7,1.6,2.4c0.1,0.3,0.1,0.8,0.4,1.1c0.4,0.5,1,1,1.4,1.6c0.6,0.6,0.9,1.3,1.3,2
		c0.1,0.2,0.2,0.5,0.3,0.8c0.2,0.4,0.5,2,0.5,2.7c0,1.3-0.4,2.9-1,4.1c0,0,0,0,0,0.2v1.1c-0.5,6.8-8.7,11.7-13.9,11.7
		c-0.6,0-2.4-0.1-2.4-1.3c0-0.1,0.1-0.5,0.2-0.8c-1,0.1-2.9,0.5-4,0.5c-0.8,0-4.7,0-4.7-2.1c0-2,3.5-2.1,4.2-2.1
		c1.9,0,3.8,0.5,5.8,1.4c-0.3,0.1-0.9,0.3-1,0.3c-0.1,0-0.3-0.1-0.5-0.2c-1.2-0.4-2.7-0.7-4-0.7c-0.8,0-0.9,0-1.8,0.2
		c-0.1,0-1.7,0.4-1.7,1c0,0.4,1.2,0.7,1.5,0.8c0.5,0.1,1.7,0.2,1.7,0.2c7.9,0,20.3-6.6,20.3-14.4c0-1.5-0.7-3.5-2-4.9
		c-0.1,0.6-0.2,1.2-0.4,1.8c-0.1,0.4-0.5,1.1-0.5,1.2c0,0,2.2,2.4,2.2,3c0,0.3-0.5,1.7-0.5,1.7c-0.4-1.2-1.1-2.4-2.3-3.6
		c-0.2,0.2-0.4,0.4-0.5,0.7c-0.2,0.3-0.5,0.6-0.8,0.9c-0.6,0.7-1.9,1.8-1.9,1.9c0,0,1.6,1.6,2.1,3.5c0.1,0.3,0.2,0.8,0.2,0.9
		c0,0.3-0.9,0.8-0.9,0.9c0-1.5-0.7-3.1-2.3-4.6C29,67.7,27,68.9,25,69.8c1.2,1,1.8,2.4,1.8,3.4c0,0.5-0.3,1.6-0.5,1.7
		c-0.3,0.2-0.6,0.3-0.9,0.4c0.4-0.4,0.7-1.5,0.7-1.9c0-0.8-0.5-2-1.4-2.7c-0.2-0.1-0.5-0.4-0.6-0.4c-0.1,0-1.2,0.5-1.9,0.7
		c-0.7,0.3-1.5,0.5-2.2,0.7c-2.3,0.7-4.4,1.1-6.6,1.1c-0.8,0-4.6-0.1-4.6-2.1c0-3,6.9-3.2,7.8-3.2c2.1,0,4,0.2,6.1,1.2
		c-0.4,0.1-1.2,0.4-1.3,0.4c-0.1,0-2.5-0.7-4.6-0.7c-0.9,0-2.1,0.1-3,0.3c-0.7,0.1-1.4,0.3-2.1,0.6c-0.2,0-1.9,0.8-1.9,1.4
		c0,0.1,0.3,0.3,0.4,0.4c0.9,0.4,1.7,0.4,2.6,0.4c8.4,0,21.4-6.6,22.1-13.5v-1.1c-0.4-4.5-7.4-7.4-10.8-7.4c-0.1,0-0.7,0-1,0.1
		c0.2,0.1,0.5,0.1,0.7,0.2c0.2,0,0.4,0.1,0.6,0.2c0.4,0.1,1,0.4,1.4,0.8c0.3,0.3,0.5,0.7,0.8,0.9c0.2,0.2,0.7,0.2,1,0.3
		c1.2,0.4,2.6,0.9,3.8,1.4c0.5,0.3,1.1,0.5,1.7,0.8c0.2,0.1,0.3,0.4,0.4,0.6c0.2,0.4,0.5,0.9,0.6,1.4c-2.3-1.7-4.6-2.6-7-3.4h-0.1
		c0.1,1.2-0.4,2.4-1.3,3.6c2.5,0.7,5.2,1.6,7.9,3.5c-0.1,0.3-0.3,0.7-0.5,1c-1.1-0.8-2.3-1.4-3.4-1.9c-0.3-0.1-4-1.5-4.6-1.5
		c-0.1,0-1,0.9-1.5,1.3c-1.2,1-2.4,1.7-3.6,2.4c3.3,0.4,6.5,1.2,9.8,3.3c-0.2,0.2-0.7,0.7-0.8,0.7c-0.1,0-0.9-0.6-1.4-0.8
		c-2.3-1.1-6.6-2.2-9.2-2.2c-0.2,0-2.8,1.1-3.4,1.3c-1.8,0.5-3.8,1.2-5.7,1.2c-0.6,0-1.9,0-1.9-1.1c0-2,7.1-2.5,7.6-2.5h1.6
		c-1.1,0.4-2.5,0.9-3.5,1.2c-1,0.3-2.1,0.4-3.1,0.8c-0.2,0-0.4,0.2-0.5,0.3c0,0,0,0,0.1,0c0.1,0,1.6-0.2,2.4-0.4
		c4.1-1,8.4-2.6,12.5-6.2c1-0.9,1.7-2.1,1.9-3.1v-0.9c-0.1-1-1.6-2-2.5-2.3c-0.6-0.2-1.7-0.4-1.8-0.4c-0.2,0-0.5,0.1-0.8,0.5
		c1.4,0.3,3.1,0,4.3,1.8c0,0,0,0,0,0.1c-0.4-0.1-4.7-1.2-5.4-1.2c-0.3,0-2.4,1.5-2.9,1.8c-1.3,0.8-2.7,1.6-4.1,2.2l4.6,0
		c2,0.1,4.3,0.4,6.3,0.8c-0.1,0-0.9,0.9-1.1,0.9c-0.1,0-1.5-0.3-2.2-0.4c-1.3-0.2-2.6-0.2-4-0.3l-5.8,0.1c-0.3,0-0.9-0.1-0.9-0.6
		c0-0.4,0.5-0.7,0.8-0.8c0.3-0.1,0.6-0.3,0.8-0.4c2.9-1.2,5.8-2.8,8.7-4.6c-0.1,0-0.3,0-0.4,0c-0.1,0-0.5,0-0.8,0.1c0,0,0.1,0,0.1,0
		c-0.4,0.2-1.1,0.7-1.2,0.7c-0.3,0-0.8-0.4-0.8-0.7c0-0.8,1.8-0.8,2-0.8c1.8,0,2,0,2.1,0c0.1,0,0.8-0.4,1.3-0.5
		c0.7-0.2,1.1-0.2,1.7-0.2C25.5,48.6,26.4,48.7,27.3,48.9z"/>
</g>
</svg>
